<svg xmlns="http://www.w3.org/2000/svg" viewBox="0 0 536.54 139.6"><defs><style>.cls-1{fill:#fbb714;}</style></defs><title>Asset 3</title><g id="Layer_2" data-name="Layer 2"><g id="Protect"><path class="cls-1" d="M130.44,86.22c8.2-4.27,15.16-10,20.13-18A29,29,0,0,0,154.9,54c.35-7.5-5.68-13.83-14.92-15.48-9-1.62-17.73.31-26.33,2.67C107.31,42.94,101,45,95.54,48.84c-3.21,2.27-5.63,5-5.77,9.19A20,20,0,0,1,89,62.65c-1.25,4.67.32,6.29,5.09,5.33.51-.11,1-.28,2.12-.59-.66,1.67-1.14,2.93-1.65,4.17q-10.21,25.14-18,51.11c-2.81,9.35-.33,11.68,9.07,9.52.31-.07.61-.15.92-.21,5.77-1.13,9.61-4.4,11.11-10.17.7-2.73,1.32-5.48,1.94-8.23a77.89,77.89,0,0,1,4.67-15c.7,1,1.19,1.64,1.65,2.32,6.77,10.06,13.25,20.31,20.88,29.77,3,3.67,4.3,3.72,7.26,0s5.47-7.87,8.69-11.49c4.61-5.18,4.43-6.33.15-11.81-4.44-5.69-9.57-10.8-13.6-16.84C127.82,88.4,128,87.47,130.44,86.22Zm-5.1-13.82c-4.32,4.38-9.79,6.49-16,8.25,1.16-6.57,3.68-12.05,6.34-17.48a2.27,2.27,0,0,1,1.64-1.29,22.53,22.53,0,0,1,8.68-.7c2.91.46,3.92,2,3.2,4.86A14,14,0,0,1,125.34,72.4Z"/><path class="cls-1" d="M218.19,30.52c-3.8-.17-6.83,1.58-9.84,3.58-.68-3.57-1.48-4.06-5.1-3.14a57.22,57.22,0,0,0-14.71,6.09c-15.71,9.15-24.69,23.34-29.95,40.25-3.12,10-5.7,20.12-4,30.78,1.36,8.77,7.78,14.61,16.59,15.11,14.53.83,26.5-4.68,36.59-14.76,12.4-12.39,19-27.79,22.77-44.6,1.72-7.71,2.49-15.5.36-23.29C229.07,34,225,30.82,218.19,30.52Zm-23.31,65.6a15.81,15.81,0,0,1-10,4.86c-4,.41-6.4-1.38-7.36-5.22a16.44,16.44,0,0,1-.16-6.25c1.75-13.18,5.36-25.6,14.81-35.55A24.16,24.16,0,0,1,196,50.72c1-.68,2.29-2.57,3.24.27.3.88,1.47.56,2.29.44,6-.83,7.89.61,8.45,8.46C208.53,72,205.17,85.46,194.88,96.12Z"/><path class="cls-1" d="M339.6,68.56c6.67-1.45,13.5-1.75,20.17-3.09,4.18-.84,7-3.14,8-7.4a22,22,0,0,1,2-4.88c2.28-4.53.94-6.79-4.16-6.61a104.1,104.1,0,0,0-17.15,1.92c-1.88.38-3.78.64-6.21,1,.91-2.26,1.87-3.83,2.18-5.52,1.19-6.4,5.53-8.36,11.38-9.37,7.94-1.37,15.86-2.85,23.84-3.95,3.72-.51,7-2.94,6.79-5.41a19.94,19.94,0,0,1,.59-7c.56-2.12.14-4-2.89-3.81-12.54.67-25.12.79-37.53,3-6,1.05-12,1.87-17.54,4.57-1.63.8-3.45,1.65-3.64,3.58-.28,2.73-1.29,5.28-1.65,8-.65,4.73.46,6,5.54,6.11-4.13,8.4-7.82,16.59-11.22,24.9C313.18,76.69,308.74,89,305,101.47c-1.34,4.44-.75,5.22,3.69,6.3a.85.85,0,0,1,.52.25c2.14,3,5.22,2.13,8.05,1.79,14-1.66,27.78-5,41.59-8,5.15-1.08,7.84-4.53,8.54-9.59a7.85,7.85,0,0,1,1.95-4.77c1.54-1.59.88-3-.85-4.1a5.21,5.21,0,0,0-3.88-.76c-5.06.82-10.16,1.46-15.19,2.44-6.95,1.35-13.86,2.94-21.1,4.5C329.55,84,332,79,333.48,73.69,334.46,70.29,336.51,69.23,339.6,68.56Z"/><path class="cls-1" d="M67.64,44.93c-15.53-1.55-30.36,1.6-44.39,8.43-7.2,3.5-9.47,10.24-11,17.29-.63,2.86.89,4.11,3.83,3.59a44.54,44.54,0,0,0,4.84-1.46c-.23.64-.37,1.15-.58,1.61C13.14,90.22,7.65,106.66,2.47,123.21,1.1,127.59-.29,132,.05,136.7c.18,2.43,1.44,3.34,3.8,2.69a67.19,67.19,0,0,1,8.88-1.92c5.65-.75,9-4.15,10.29-9.56.85-3.44,1.66-6.9,2.39-10.38a157.87,157.87,0,0,1,5.45-20.22c1.41,5.87,2.67,7,6.87,6.74,21.18-1.33,40.79-19.77,43.52-40.9C82.61,52.6,78,46,67.64,44.93ZM60.56,73.84A20.88,20.88,0,0,1,51,81.63c-4.87,2.07-10,2.57-15.59,2.79a170.19,170.19,0,0,1,6.45-17.2A1.94,1.94,0,0,1,43.15,66c4.48-1.06,9-2.11,13.61-1.28C61.62,65.55,63.29,69.68,60.56,73.84Z"/><path class="cls-1" d="M452.22,9.54c-2-1.74-4.21-.14-6,1-1.5,1-2.38,1.57-3.5-.55-.75-1.42-2.59-1.56-4.24-1.46-4.19.26-7.91,1.95-11.45,4-22.86,13-37.59,32.7-46.92,56.85a47.24,47.24,0,0,0-3.26,16.2c-.19,9.58,5.25,17,13.3,17.16,10.25.2,20-2.13,28.08-8.86A79.81,79.81,0,0,0,438.29,68a24.46,24.46,0,0,0,1.79-4.67c.51-1.88.11-3.4-2.32-3.3-1,0-1.82.15-2-1.27-.26-2.32-1.77-2.18-3.46-1.55a6.46,6.46,0,0,0-3,2.68c-4.85,6.83-9.78,13.61-16.26,19-2.57,2.16-5.31,4.1-8.87,4.28-2.66.14-4.37-1-5.06-3.64-.89-3.39-.21-6.68.85-9.85a97.78,97.78,0,0,1,23.71-38,22.18,22.18,0,0,1,7.36-5.23c-2.66,3.77-5.65,7.3-7.21,11.72-.77,2.19-.92,4.37.74,6.21a6.42,6.42,0,0,0,6.61,1.89,12.46,12.46,0,0,0,4.25-1.9A57.71,57.71,0,0,0,455.1,19.73a15.52,15.52,0,0,0,.75-2.71C456.53,13.63,454.36,11.39,452.22,9.54Z"/><path class="cls-1" d="M316.63,33a18.23,18.23,0,0,1,2.6-7.17c1.68-2.75.61-4.51-2.62-5a34.7,34.7,0,0,0-9.38.49c-17.54,2.33-34.81,6.17-52.19,9.38a10.92,10.92,0,0,0-8.69,7.36c-1.26,3.52-2.42,7-4,10.45-1.46,3.1.09,5,3.57,5a30.47,30.47,0,0,0,4.37-.4c5.57-.87,11.13-1.8,17.16-2.79-.54,1.38-.86,2.25-1.22,3.1C258.78,71,252,88.91,246.33,107.17a19.4,19.4,0,0,0-1.17,6.44c.1,2.74,1.41,3.78,4.11,3.19a15.56,15.56,0,0,1,4-.66c9.35.33,13.28-2.36,16-11.12,5.73-18.44,10.78-37.09,17-55.38A4.69,4.69,0,0,1,290.57,46c6.7-1.11,13.39-2.43,19.51-5.6C313.21,38.8,316.11,36.8,316.63,33Z"/><path class="cls-1" d="M533.21.17A23.87,23.87,0,0,0,527,.26c-18.72,2.21-37.1,6.41-55.61,9.81A10.7,10.7,0,0,0,463,17c-1.4,3.68-2.53,7.44-4.24,11-1.38,2.92.21,4.81,3.53,4.8a24.75,24.75,0,0,0,3.75-.32c5.78-.9,11.56-1.84,17.85-2.85-.52,1.37-.85,2.34-1.24,3.28-7.42,17.51-14.11,35.29-19.77,53.45a21.35,21.35,0,0,0-1.18,5.49c-.15,3.9,1.18,5.06,4.87,4a10.63,10.63,0,0,1,3.4-.4c9,.34,13.11-2.5,15.77-11,5.78-18.64,10.86-37.5,17.24-56a4,4,0,0,1,3.69-3.05c6.8-1.17,13.59-2.45,19.82-5.63,3-1.56,5.9-3.47,6.57-7.1a21.14,21.14,0,0,1,2.77-7.76C537.42,2.41,536.26.6,533.21.17Z"/></g></g></svg>