<svg xmlns="http://www.w3.org/2000/svg" viewBox="0 0 97.33 97.33"><defs><style>.cls-1{fill:#fab616;}.cls-2,.cls-3{fill:#fff;stroke:#231f20;stroke-miterlimit:10;}.cls-2{stroke-width:2px;}</style></defs><title>Asset 12</title><g id="Layer_2" data-name="Layer 2"><g id="Layer_1-2" data-name="Layer 1"><g id="Phone"><circle class="cls-1" cx="48.67" cy="48.67" r="48.67"/><g id="Phone-2" data-name="Phone"><path class="cls-2" d="M62.54,61.07c2,.53,7.89,12.8,8.62,15.05s-9.72,7.57-12.69,6.5C54.25,81.1,43.56,76.54,33.29,58.1c-11-19.71-8.64-35.65-5.39-38.68,2-1.88,8.77-7.27,10.42-5.93s9.93,14,8.13,16.13S39.28,32.74,36,37C33.3,40.46,47.18,66,51.1,65.9S60.5,60.53,62.54,61.07Z"/><path class="cls-3" d="M33.14,15.32s9.31,15.56,9.46,16.74"/><path class="cls-3" d="M58.18,62.85s9,15.61,8.76,17.41"/></g></g></g></g></svg>