<?xml version="1.0" encoding="utf-8"?>
<!-- Generator: Adobe Illustrator 22.1.0, SVG Export Plug-In . SVG Version: 6.00 Build 0)  -->
<svg version="1.1" id="Layer_1" xmlns="http://www.w3.org/2000/svg" xmlns:xlink="http://www.w3.org/1999/xlink" x="0px" y="0px"
	 viewBox="0 0 97.3 97.3" style="enable-background:new 0 0 97.3 97.3;" xml:space="preserve">
<style type="text/css">
	.st0{fill:#B9B9B9;}
	.st1{fill:#FFFFFF;stroke:#231F20;stroke-width:2;stroke-miterlimit:10;}
	.st2{fill:#FFFFFF;stroke:#231F20;stroke-miterlimit:10;}
</style>
<title>Asset 12</title>
<g id="Layer_2_1_">
	<g id="Layer_1-2">
		<g id="Phone">
			<circle class="st0" cx="48.7" cy="48.7" r="48.7"/>
			<g id="Phone-2">
				<path class="st1" d="M62.5,61.1c2,0.5,7.9,12.8,8.6,15.1s-9.7,7.6-12.7,6.5c-4.2-1.5-14.9-6.1-25.2-24.5
					c-11-19.7-8.6-35.7-5.4-38.7c2-1.9,8.8-7.3,10.4-5.9s9.9,14,8.1,16.1S39.3,32.7,36,37c-2.7,3.5,11.2,29,15.1,28.9
					S60.5,60.5,62.5,61.1z"/>
				<path class="st2" d="M33.1,15.3c0,0,9.3,15.6,9.5,16.7"/>
				<path class="st2" d="M58.2,62.8c0,0,9,15.6,8.8,17.4"/>
			</g>
		</g>
	</g>
</g>
</svg>
