<?xml version="1.0" encoding="utf-8"?>
<!-- Generator: Adobe Illustrator 22.1.0, SVG Export Plug-In . SVG Version: 6.00 Build 0)  -->
<svg version="1.1" id="Layer_1" xmlns="http://www.w3.org/2000/svg" xmlns:xlink="http://www.w3.org/1999/xlink" x="0px" y="0px"
	 viewBox="0 0 97.3 97.3" style="enable-background:new 0 0 97.3 97.3;" xml:space="preserve">
<style type="text/css">
	.st0{fill:#B9B9B9;}
	.st1{fill:#FFFFFF;stroke:#231F20;stroke-width:2;stroke-miterlimit:10;}
	.st2{fill:#FFFFFF;stroke:#231F20;stroke-miterlimit:10;}
</style>
<title>Asset 13</title>
<g id="Layer_2_1_">
	<g id="Layer_1-2">
		<g id="Photo">
			<circle class="st0" cx="48.7" cy="48.7" r="48.7"/>
			<path class="st1" d="M76.3,30.8H65.6L65,28.5c-0.4-1.5-2.8-2.7-5.5-2.7H38c-2.7,0-5.1,1.1-5.5,2.6l-0.7,2.4H21c-2.8,0-5,2.2-5,5
				v30.8c0,2.8,2.2,5,5,5h55.3c2.8,0,5-2.2,5-5V35.8C81.3,33.1,79.1,30.8,76.3,30.8L76.3,30.8z"/>
			<circle class="st1" cx="48.7" cy="50.3" r="14.5"/>
			<circle class="st1" cx="24" cy="39.3" r="3"/>
			<circle class="st2" cx="48.7" cy="50.3" r="10.3"/>
		</g>
	</g>
</g>
</svg>
