<svg xmlns="http://www.w3.org/2000/svg" viewBox="0 0 122 122"><defs><style>.cls-1{fill:#fab716;}.cls-2{fill:#231f20;}</style></defs><title>Asset 1</title><g id="Layer_2" data-name="Layer 2"><g id="Layer_1-2" data-name="Layer 1"><circle class="cls-1" cx="61" cy="61" r="61"/><path class="cls-2" d="M93.55,83.45a11.56,11.56,0,0,1-3.45,8.86A12.73,12.73,0,0,1,81,95.55H40a12.75,12.75,0,0,1-9.07-3.24q-3.45-3.24-3.44-8.86,0-2.53.21-4.92c.14-1.6.37-3.31.7-5.13a45.06,45.06,0,0,1,1.2-5.07,22.64,22.64,0,0,1,2-4.57,15.2,15.2,0,0,1,3-3.79,12.46,12.46,0,0,1,4-2.46,14.33,14.33,0,0,1,5.28-.92,5.37,5.37,0,0,1,1.9,1l3.44,2.25a21.62,21.62,0,0,0,5.13,2.25,20.48,20.48,0,0,0,12.52,0,18.76,18.76,0,0,0,5-2.25c1.41-.85,2.58-1.6,3.52-2.25a5.69,5.69,0,0,1,2-1,14.31,14.31,0,0,1,5.27.92,12.51,12.51,0,0,1,4,2.46,15.17,15.17,0,0,1,3,3.79,23.27,23.27,0,0,1,2,4.57,43,43,0,0,1,1.19,5.07c.33,1.82.57,3.53.71,5.13S93.55,81.76,93.55,83.45Zm-51-44.91a17.32,17.32,0,0,1,5.28-12.72,18,18,0,0,1,25.45,0A17.35,17.35,0,0,1,78.5,38.54a17.36,17.36,0,0,1-5.27,12.73,18,18,0,0,1-25.45,0A17.33,17.33,0,0,1,42.5,38.54Z"/></g></g></svg>