<svg xmlns="http://www.w3.org/2000/svg" xmlns:xlink="http://www.w3.org/1999/xlink" viewBox="0 0 105.57 97.33"><defs><style>.cls-1{fill:none;}.cls-2{fill:#fab616;}.cls-3{clip-path:url(#clip-path);}.cls-4{fill:#fff;}.cls-5{fill:#231f20;}.cls-6{fill:#bab9ba;}</style><clipPath id="clip-path"><circle class="cls-1" cx="56.9" cy="48.67" r="48.67"/></clipPath></defs><title>Asset 19</title><g id="Layer_2" data-name="Layer 2"><g id="Layer_1-2" data-name="Layer 1"><g id="Serial"><circle class="cls-2" cx="56.9" cy="48.67" r="48.67"/><g class="cls-3"><rect class="cls-4" x="32.23" y="26.13" width="61.58" height="23.29" rx="4.98" ry="4.98"/><path class="cls-5" d="M88.83,50.42H37.2a6,6,0,0,1-6-6V31.11a6,6,0,0,1,6-6H88.83a6,6,0,0,1,6,6V44.45A6,6,0,0,1,88.83,50.42ZM37.2,27.13a4,4,0,0,0-4,4V44.45a4,4,0,0,0,4,4H88.83a4,4,0,0,0,4-4V31.11a4,4,0,0,0-4-4Z"/><rect class="cls-4" x="25.14" y="31.23" width="7.09" height="13.83"/><path class="cls-5" d="M33.23,46.06H24.14V30.23h9.09Zm-7.09-2h5.09V32.23H26.14Z"/><rect class="cls-4" x="20.44" y="33.96" width="4.71" height="8.37"/><path class="cls-5" d="M26.14,43.33h-6.7V33h6.7Zm-4.7-2h2.7V35h-2.7Z"/><line class="cls-4" y1="37.78" x2="20.44" y2="37.78"/><rect class="cls-5" y="37.28" width="20.44" height="1"/><path class="cls-4" d="M91.49,49.42S97.1,65.33,95.94,76L77,75.71c5.28-13,1-26.29,1-26.29Z"/><path class="cls-5" d="M96.84,77l-21.3-.3.55-1.36c5.08-12.5,1-25.47,1-25.6l-.42-1.31H92.19l.24.67c.23.66,5.68,16.25,4.5,27ZM78.46,74.73,95,75c.64-9-3.27-21.54-4.26-24.55H79.33C80.24,54,82.22,64.23,78.46,74.73Z"/><rect class="cls-4" x="69.58" y="75.98" width="30.82" height="12.01" rx="2.53" ry="2.53"/><path class="cls-5" d="M97.87,89H72.11a3.54,3.54,0,0,1-3.53-3.53V78.51A3.54,3.54,0,0,1,72.11,75H97.87a3.53,3.53,0,0,1,3.53,3.53v6.95A3.53,3.53,0,0,1,97.87,89ZM72.11,77a1.54,1.54,0,0,0-1.53,1.53v6.95A1.54,1.54,0,0,0,72.11,87H97.87a1.54,1.54,0,0,0,1.53-1.53V78.51A1.54,1.54,0,0,0,97.87,77Z"/><line class="cls-4" x1="65.21" y1="35.46" x2="65.21" y2="44.86"/><rect class="cls-5" x="64.71" y="35.45" width="1" height="9.4"/><line class="cls-4" x1="82.9" y1="35.46" x2="82.9" y2="44.86"/><rect class="cls-5" x="82.4" y="35.45" width="1" height="9.4"/><line class="cls-4" x1="68.25" y1="35.46" x2="68.25" y2="44.86"/><rect class="cls-5" x="67.75" y="35.45" width="1" height="9.4"/><line class="cls-4" x1="76.13" y1="35.46" x2="76.13" y2="44.86"/><rect class="cls-5" x="75.63" y="35.45" width="1" height="9.4"/><line class="cls-4" x1="79.17" y1="35.46" x2="79.17" y2="44.86"/><rect class="cls-5" x="78.67" y="35.45" width="1" height="9.4"/><line class="cls-4" x1="88.15" y1="35.46" x2="88.15" y2="44.86"/><rect class="cls-5" x="87.65" y="35.45" width="1" height="9.4"/><line class="cls-4" x1="85.52" y1="35.46" x2="85.52" y2="44.86"/><rect class="cls-5" x="85.02" y="35.45" width="1" height="9.4"/><line class="cls-4" x1="72.4" y1="35.46" x2="72.4" y2="44.86"/><rect class="cls-5" x="71.9" y="35.45" width="1" height="9.4"/><line class="cls-4" x1="70.32" y1="35.46" x2="70.32" y2="44.86"/><rect class="cls-5" x="69.82" y="35.45" width="1" height="9.4"/><line class="cls-4" x1="80.41" y1="35.46" x2="80.41" y2="44.86"/><rect class="cls-5" x="79.91" y="35.45" width="1" height="9.4"/></g></g><g id="Serial-2" data-name="Serial"><circle class="cls-6" cx="56.9" cy="48.67" r="48.67"/><g class="cls-3"><rect class="cls-4" x="32.23" y="26.13" width="61.58" height="23.29" rx="4.98" ry="4.98"/><path class="cls-5" d="M88.83,50.42H37.2a6,6,0,0,1-6-6V31.11a6,6,0,0,1,6-6H88.83a6,6,0,0,1,6,6V44.45A6,6,0,0,1,88.83,50.42ZM37.2,27.13a4,4,0,0,0-4,4V44.45a4,4,0,0,0,4,4H88.83a4,4,0,0,0,4-4V31.11a4,4,0,0,0-4-4Z"/><rect class="cls-4" x="25.14" y="31.23" width="7.09" height="13.83"/><path class="cls-5" d="M33.23,46.06H24.14V30.23h9.09Zm-7.09-2h5.09V32.23H26.14Z"/><rect class="cls-4" x="20.44" y="33.96" width="4.71" height="8.37"/><path class="cls-5" d="M26.14,43.33h-6.7V33h6.7Zm-4.7-2h2.7V35h-2.7Z"/><line class="cls-4" y1="37.78" x2="20.44" y2="37.78"/><rect class="cls-5" y="37.28" width="20.44" height="1"/><path class="cls-4" d="M91.49,49.42S97.1,65.33,95.94,76L77,75.71c5.28-13,1-26.29,1-26.29Z"/><path class="cls-5" d="M96.84,77l-21.3-.3.55-1.36c5.08-12.5,1-25.47,1-25.6l-.42-1.31H92.19l.24.67c.23.66,5.68,16.25,4.5,27ZM78.46,74.73,95,75c.64-9-3.27-21.54-4.26-24.55H79.33C80.24,54,82.22,64.23,78.46,74.73Z"/><rect class="cls-4" x="69.58" y="75.98" width="30.82" height="12.01" rx="2.53" ry="2.53"/><path class="cls-5" d="M97.87,89H72.11a3.54,3.54,0,0,1-3.53-3.53V78.51A3.54,3.54,0,0,1,72.11,75H97.87a3.53,3.53,0,0,1,3.53,3.53v6.95A3.53,3.53,0,0,1,97.87,89ZM72.11,77a1.54,1.54,0,0,0-1.53,1.53v6.95A1.54,1.54,0,0,0,72.11,87H97.87a1.54,1.54,0,0,0,1.53-1.53V78.51A1.54,1.54,0,0,0,97.87,77Z"/><line class="cls-4" x1="65.21" y1="35.46" x2="65.21" y2="44.86"/><rect class="cls-5" x="64.71" y="35.45" width="1" height="9.4"/><line class="cls-4" x1="82.9" y1="35.46" x2="82.9" y2="44.86"/><rect class="cls-5" x="82.4" y="35.45" width="1" height="9.4"/><line class="cls-4" x1="68.25" y1="35.46" x2="68.25" y2="44.86"/><rect class="cls-5" x="67.75" y="35.45" width="1" height="9.4"/><line class="cls-4" x1="76.13" y1="35.46" x2="76.13" y2="44.86"/><rect class="cls-5" x="75.63" y="35.45" width="1" height="9.4"/><line class="cls-4" x1="79.17" y1="35.46" x2="79.17" y2="44.86"/><rect class="cls-5" x="78.67" y="35.45" width="1" height="9.4"/><line class="cls-4" x1="88.15" y1="35.46" x2="88.15" y2="44.86"/><rect class="cls-5" x="87.65" y="35.45" width="1" height="9.4"/><line class="cls-4" x1="85.52" y1="35.46" x2="85.52" y2="44.86"/><rect class="cls-5" x="85.02" y="35.45" width="1" height="9.4"/><line class="cls-4" x1="72.4" y1="35.46" x2="72.4" y2="44.86"/><rect class="cls-5" x="71.9" y="35.45" width="1" height="9.4"/><line class="cls-4" x1="70.32" y1="35.46" x2="70.32" y2="44.86"/><rect class="cls-5" x="69.82" y="35.45" width="1" height="9.4"/><line class="cls-4" x1="80.41" y1="35.46" x2="80.41" y2="44.86"/><rect class="cls-5" x="79.91" y="35.45" width="1" height="9.4"/></g></g></g></g></svg>