<svg xmlns="http://www.w3.org/2000/svg" xmlns:xlink="http://www.w3.org/1999/xlink" viewBox="0 0 570.73 385.23"><defs><style>.cls-1,.cls-8{fill:none;}.cls-2,.cls-7{fill:#fff;}.cls-2,.cls-8{stroke:#231f20;stroke-miterlimit:10;stroke-width:8px;}.cls-3{fill:#fab616;}.cls-4,.cls-9{fill:#231f20;}.cls-5{clip-path:url(#clip-path);}.cls-6{fill:#b3b2b4;}.cls-9{font-size:18px;font-family:OpenSans-Extrabold, Open Sans;font-weight:700;}</style><clipPath id="clip-path"><rect class="cls-1" x="394.91" y="74.83" width="134.79" height="189.04"/></clipPath></defs><title>Asset 20</title><g id="Layer_2" data-name="Layer 2"><g id="Layer_1-2" data-name="Layer 1"><rect class="cls-2" x="356.45" y="10.23" width="210.27" height="367.12" rx="12" ry="12"/><path class="cls-2" d="M540,40.12H503.71s-9.54,11.47-20.56,11.47H440.21c-11,0-20.56-11.47-20.56-11.47H383.33c-7.07,0-12.86,5.53-12.86,12.29v290c0,6.76,5.79,12.29,12.86,12.29H540c7.08,0,12.86-5.53,12.86-12.29v-290C552.89,45.65,547.11,40.12,540,40.12Z"/><rect class="cls-3" x="394.95" y="75.3" width="134.79" height="189.04"/><rect class="cls-3" x="390.7" y="287.62" width="143.29" height="36.3"/><circle class="cls-4" cx="443.1" cy="31.12" r="5.82"/><rect class="cls-4" x="459.68" y="27.21" width="33.9" height="5.82" rx="2.91" ry="2.91"/><g class="cls-5"><path class="cls-6" d="M546.17,132.79,257.37,83,84.09,73.3,11,83,308.29,380.26a11.21,11.21,0,0,0,7.9,3.27H491a11.83,11.83,0,0,0,11.83-11.83V352.79a12.74,12.74,0,0,1,12.74-12.74H521a5.47,5.47,0,0,0,3.86-9.33L415.33,211.67a3.64,3.64,0,0,1,2.68-6.11H538.24a7.93,7.93,0,0,0,7.93-7.93ZM468.83,337.31a5.34,5.34,0,0,1-3.64,9.12l-77.32,1.76a5.3,5.3,0,0,1-3.91-1.56L242.09,200.71a5.34,5.34,0,0,1,3.64-9.12l77.33-1.76a5.35,5.35,0,0,1,3.91,1.56Z"/><path class="cls-4" d="M491,385.23H316.19a12.78,12.78,0,0,1-9.1-3.77L7.41,81.78,84,71.59h.16l173.47,9.73,290.21,50v66.27a9.64,9.64,0,0,1-9.63,9.63H418a1.94,1.94,0,0,0-1.43,3.26l109.55,119A7.16,7.16,0,0,1,521,341.74h-5.43a11.06,11.06,0,0,0-11,11.05V371.7A13.55,13.55,0,0,1,491,385.23ZM14.68,84.24,309.5,379.06a9.37,9.37,0,0,0,6.69,2.77H491a10.14,10.14,0,0,0,10.13-10.13V352.79a14.46,14.46,0,0,1,14.44-14.44H521a3.77,3.77,0,0,0,2.66-6.43L414.08,212.83a5.35,5.35,0,0,1,3.93-9H538.24a6.24,6.24,0,0,0,6.23-6.23V134.22L257.18,84.7,84.16,75ZM387.73,349.89a7.07,7.07,0,0,1-5-2.05L240.88,201.9a7,7,0,0,1,4.81-12L323,188.13a7.09,7.09,0,0,1,5.14,2.06L470,336.12a7,7,0,0,1-4.81,12l-77.33,1.76ZM323.19,191.53h-.09l-77.33,1.76a3.64,3.64,0,0,0-2.48,6.22L385.18,345.45a3.54,3.54,0,0,0,2.64,1l77.33-1.76a3.64,3.64,0,0,0,2.48-6.22l0,0L325.75,192.57A3.67,3.67,0,0,0,323.19,191.53Z"/><polygon class="cls-6" points="526.49 145.19 290.36 145.19 225.8 117.23 225.8 29.65 288.66 1.7 526.49 1.7 526.49 145.19"/><path class="cls-4" d="M528.19,146.89H290L224.1,118.35V28.55L288.3,0H528.19Zm-237.48-3.4H524.79V3.4H289L227.5,30.75v85.37Z"/><rect class="cls-4" x="208.81" y="24.07" width="16.99" height="98.75" rx="1.84" ry="1.84"/><rect class="cls-7" x="1.7" y="63.77" width="207.12" height="19.42"/><path class="cls-4" d="M210.51,84.89H0V62.07H210.51ZM3.4,81.49H207.12v-16H3.4Z"/><rect class="cls-4" x="11.04" y="63.59" width="11.89" height="19.42"/><polygon class="cls-4" points="22.93 83.01 328.72 383.53 311.57 383.53 11.04 83.01 22.93 83.01"/><rect class="cls-7" x="403.68" y="163.18" width="117.25" height="22.05" rx="5" ry="5"/><path class="cls-4" d="M421.42,173.81a5.67,5.67,0,0,1-1.19,4,5.11,5.11,0,0,1-3.83,1.24,10.9,10.9,0,0,1-1.32-.06v-2a6.94,6.94,0,0,0,1.11.1,3.43,3.43,0,0,0,2.12-.57,2.28,2.28,0,0,0,.81-1.78H419a2.47,2.47,0,0,1-.5.67,1.55,1.55,0,0,1-.6.31,2.84,2.84,0,0,1-.89.11,2.36,2.36,0,0,1-1.91-.82,3.36,3.36,0,0,1,2.65-5.61,3.26,3.26,0,0,1,2.68,1.15A5,5,0,0,1,421.42,173.81Zm-3.56-2.38a.87.87,0,0,0-.68.3,1.53,1.53,0,0,0-.26,1,1.42,1.42,0,0,0,.22.84.83.83,0,0,0,.7.32,1.06,1.06,0,0,0,1-1,1.72,1.72,0,0,0-.29-1A.86.86,0,0,0,417.86,171.43Z"/><path class="cls-4" d="M425.76,169.35a3.9,3.9,0,0,1,2.32.6,2,2,0,0,1,.83,1.71,2.23,2.23,0,0,1-.39,1.31,3.12,3.12,0,0,1-1.24,1,4.65,4.65,0,0,1,1.48,1.18,2.12,2.12,0,0,1,.43,1.28,2.3,2.3,0,0,1-.91,2,5.12,5.12,0,0,1-5.1,0,2.29,2.29,0,0,1-.88-1.94,2.43,2.43,0,0,1,.39-1.4A3.33,3.33,0,0,1,424,174a3.52,3.52,0,0,1-1.09-1.09,2.43,2.43,0,0,1-.35-1.27,2,2,0,0,1,.85-1.69A4,4,0,0,1,425.76,169.35Zm-1.13,7a.79.79,0,0,0,.29.64,1.14,1.14,0,0,0,.79.25c.76,0,1.13-.28,1.13-.84a1,1,0,0,0-.24-.62,3.92,3.92,0,0,0-.89-.69,2.69,2.69,0,0,0-.83.61A1.06,1.06,0,0,0,424.63,176.34Zm1.12-5.15a.88.88,0,0,0-.56.19.63.63,0,0,0-.23.5c0,.37.26.69.76,1a2.1,2.1,0,0,0,.63-.49.79.79,0,0,0,.17-.49.61.61,0,0,0-.23-.5A.79.79,0,0,0,425.75,171.19Z"/><path class="cls-4" d="M436.93,173.81a5.67,5.67,0,0,1-1.19,4,5.13,5.13,0,0,1-3.83,1.24,10.78,10.78,0,0,1-1.32-.06v-2a6.94,6.94,0,0,0,1.11.1,3.43,3.43,0,0,0,2.12-.57,2.28,2.28,0,0,0,.81-1.78h-.08a2.47,2.47,0,0,1-.5.67,1.55,1.55,0,0,1-.6.31,2.84,2.84,0,0,1-.89.11,2.39,2.39,0,0,1-1.92-.82,3.39,3.39,0,0,1-.69-2.26,3.09,3.09,0,0,1,3.35-3.35,3.26,3.26,0,0,1,2.68,1.15A5,5,0,0,1,436.93,173.81Zm-3.56-2.38a.85.85,0,0,0-.68.3,1.53,1.53,0,0,0-.26,1,1.42,1.42,0,0,0,.22.84.81.81,0,0,0,.7.32,1.06,1.06,0,0,0,1-1,1.72,1.72,0,0,0-.29-1A.87.87,0,0,0,433.37,171.43Z"/><path class="cls-4" d="M444.65,174.22a6.39,6.39,0,0,1-.84,3.68,3,3,0,0,1-2.57,1.16,2.89,2.89,0,0,1-2.55-1.22,6.3,6.3,0,0,1-.86-3.62,6.4,6.4,0,0,1,.84-3.69,3.33,3.33,0,0,1,5.12,0A6.33,6.33,0,0,1,444.65,174.22Zm-4.28,0a8.26,8.26,0,0,0,.2,2.21c.13.4.36.6.67.6s.55-.21.68-.62a8.46,8.46,0,0,0,.19-2.19,8,8,0,0,0-.2-2.2c-.13-.42-.35-.63-.67-.63s-.54.2-.67.61A8.35,8.35,0,0,0,440.37,174.22Z"/><path class="cls-4" d="M445.4,176.39v-2h3.65v2Z"/><path class="cls-4" d="M453.23,169.35a3.88,3.88,0,0,1,2.32.6,2,2,0,0,1,.83,1.71A2.23,2.23,0,0,1,456,173a3.12,3.12,0,0,1-1.24,1,4.53,4.53,0,0,1,1.48,1.18,2.12,2.12,0,0,1,.43,1.28,2.3,2.3,0,0,1-.91,2,5.12,5.12,0,0,1-5.1,0,2.29,2.29,0,0,1-.88-1.94,2.43,2.43,0,0,1,.39-1.4,3.3,3.3,0,0,1,1.33-1.05,3.57,3.57,0,0,1-1.1-1.09,2.43,2.43,0,0,1-.35-1.27,2,2,0,0,1,.85-1.69A4,4,0,0,1,453.23,169.35Zm-1.12,7a.79.79,0,0,0,.28.64,1.14,1.14,0,0,0,.79.25q1.14,0,1.14-.84a1,1,0,0,0-.25-.62,3.92,3.92,0,0,0-.89-.69,2.69,2.69,0,0,0-.83.61A1,1,0,0,0,452.11,176.34Zm1.11-5.15a.88.88,0,0,0-.56.19.62.62,0,0,0-.22.5c0,.37.25.69.75,1a2.1,2.1,0,0,0,.63-.49.79.79,0,0,0,.17-.49.61.61,0,0,0-.23-.5A.79.79,0,0,0,453.22,171.19Z"/><path class="cls-4" d="M464.4,173.81a5.67,5.67,0,0,1-1.19,4,5.11,5.11,0,0,1-3.83,1.24,10.9,10.9,0,0,1-1.32-.06v-2a7,7,0,0,0,1.12.1,3.42,3.42,0,0,0,2.11-.57,2.28,2.28,0,0,0,.81-1.78H462a2.47,2.47,0,0,1-.5.67,1.55,1.55,0,0,1-.6.31,2.84,2.84,0,0,1-.89.11,2.36,2.36,0,0,1-1.91-.82,3.36,3.36,0,0,1,2.65-5.61,3.26,3.26,0,0,1,2.68,1.15A5,5,0,0,1,464.4,173.81Zm-3.56-2.38a.87.87,0,0,0-.68.3,1.53,1.53,0,0,0-.26,1,1.35,1.35,0,0,0,.23.84.79.79,0,0,0,.69.32,1.06,1.06,0,0,0,1-1,1.72,1.72,0,0,0-.29-1A.86.86,0,0,0,460.84,171.43Z"/><path class="cls-4" d="M466.19,178.93l3.24-7.32h-4.09V169.5h6.82V171l-3.33,7.93Z"/><path class="cls-4" d="M473,174.94a7.61,7.61,0,0,1,.57-3.2,3.74,3.74,0,0,1,1.67-1.81,5.72,5.72,0,0,1,2.71-.58,10.28,10.28,0,0,1,1.35.11v2a6.9,6.9,0,0,0-1.41-.13,2.75,2.75,0,0,0-1.9.57,2.49,2.49,0,0,0-.69,1.83h.08a2,2,0,0,1,1.87-1.1,2.42,2.42,0,0,1,1.95.81,3.93,3.93,0,0,1-.18,4.72A3.75,3.75,0,0,1,474,178,4.5,4.5,0,0,1,473,174.94Zm3.51,2.1a.81.81,0,0,0,.66-.31,1.52,1.52,0,0,0,.25-1c0-.76-.29-1.15-.89-1.15a.91.91,0,0,0-.71.3,1,1,0,0,0-.28.72,1.76,1.76,0,0,0,.27,1A.79.79,0,0,0,476.55,177Z"/><path class="cls-4" d="M480.62,176.39v-2h3.65v2Z"/><path class="cls-4" d="M491.49,171.53A2.24,2.24,0,0,1,491,173a3.05,3.05,0,0,1-1.55.92v0c1.58.19,2.36.94,2.36,2.23a2.43,2.43,0,0,1-1,2.08,4.88,4.88,0,0,1-2.9.75,7.76,7.76,0,0,1-1.41-.11,6.93,6.93,0,0,1-1.41-.4v-2.12a5.75,5.75,0,0,0,1.27.47,5.22,5.22,0,0,0,1.18.15,2.55,2.55,0,0,0,1.23-.23.95.95,0,0,0,.18-1.34,1.28,1.28,0,0,0-.64-.32,5.35,5.35,0,0,0-1.17-.1h-.58v-1.92h.6c1.29,0,1.94-.34,1.94-1a.59.59,0,0,0-.29-.55,1.44,1.44,0,0,0-.77-.19,3.56,3.56,0,0,0-1.87.61l-1.06-1.7a5.13,5.13,0,0,1,1.53-.74,6.62,6.62,0,0,1,1.8-.22,3.93,3.93,0,0,1,2.3.58A1.84,1.84,0,0,1,491.49,171.53Z"/><path class="cls-4" d="M499.56,178.93H492.7v-1.68l2.31-2.33q1-1,1.29-1.41a3.15,3.15,0,0,0,.42-.65,1.39,1.39,0,0,0,.12-.57.73.73,0,0,0-.24-.58,1,1,0,0,0-.67-.21,1.8,1.8,0,0,0-.9.25,6.54,6.54,0,0,0-1,.75l-1.4-1.64a7.31,7.31,0,0,1,1.23-.93,4.28,4.28,0,0,1,1.08-.43,5.3,5.3,0,0,1,1.31-.15,4.07,4.07,0,0,1,1.64.32,2.69,2.69,0,0,1,1.12.92,2.42,2.42,0,0,1,.4,1.34,3.66,3.66,0,0,1-.14,1,3.55,3.55,0,0,1-.43.93,7.34,7.34,0,0,1-.77,1c-.32.34-1,1-2.06,1.91v.07h3.58Z"/><path class="cls-4" d="M507.62,177.1h-1v1.83h-2.52V177.1h-3.77v-1.87l3.93-5.74h2.36v5.71h1Zm-3.56-1.9v-1.1c0-.21,0-.49,0-.84a4.5,4.5,0,0,1,0-.55H504a5.91,5.91,0,0,1-.5.93l-1,1.56Z"/><path class="cls-4" d="M513.9,178.93h-2.59v-5c0-.61,0-1.16,0-1.67a5.53,5.53,0,0,1-.59.61l-1.08.89-1.32-1.63,3.24-2.64h2.3Z"/></g><polyline class="cls-8" points="394.95 134.88 394.95 75.3 435.91 75.3"/><polyline class="cls-8" points="529.74 134.88 529.74 75.3 488.79 75.3"/><polyline class="cls-8" points="394.95 204.75 394.95 264.34 435.91 264.34"/><polyline class="cls-8" points="529.74 204.75 529.74 264.34 488.79 264.34"/><polyline class="cls-8" points="394.95 134.88 394.95 75.3 435.91 75.3"/><polyline class="cls-8" points="529.74 134.88 529.74 75.3 488.79 75.3"/><polyline class="cls-8" points="394.95 204.75 394.95 264.34 435.91 264.34"/><polyline class="cls-8" points="529.74 204.75 529.74 264.34 488.79 264.34"/><text class="cls-9" transform="translate(422.08 311.58)">CAPTURE</text></g></g></svg>