<svg xmlns="http://www.w3.org/2000/svg" viewBox="0 0 218.27 375.12"><defs><style>.cls-1,.cls-7{fill:#fff;}.cls-1,.cls-4{stroke:#231f20;stroke-miterlimit:10;stroke-width:8px;}.cls-2{fill:#fab616;}.cls-3,.cls-5{fill:#231f20;}.cls-4{fill:none;}.cls-5{font-size:18px;font-family:OpenSans-Extrabold, Open Sans;font-weight:700;}.cls-6{fill:#b3b2b4;}</style></defs><title>Asset 19</title><g id="Layer_2" data-name="Layer 2"><g id="Layer_1-2" data-name="Layer 1"><rect class="cls-1" x="4" y="4" width="210.27" height="367.12" rx="12" ry="12"/><path class="cls-1" d="M187.58,33.9H151.25s-9.54,11.46-20.55,11.46H87.75c-11,0-20.55-11.46-20.55-11.46H30.88C23.8,33.9,18,39.42,18,46.18V336.24c0,6.75,5.79,12.28,12.87,12.28h156.7c7.07,0,12.86-5.53,12.86-12.28V46.18C200.44,39.42,194.65,33.9,187.58,33.9Z"/><rect class="cls-2" x="42.5" y="69.07" width="134.79" height="189.04"/><rect class="cls-2" x="38.25" y="281.4" width="143.29" height="36.3"/><circle class="cls-3" cx="90.64" cy="24.89" r="5.82"/><rect class="cls-3" x="107.23" y="20.98" width="33.9" height="5.82" rx="2.91" ry="2.91"/><polyline class="cls-4" points="42.5 128.66 42.5 69.07 83.45 69.07"/><polyline class="cls-4" points="177.29 128.66 177.29 69.07 136.33 69.07"/><polyline class="cls-4" points="42.5 198.52 42.5 258.11 83.45 258.11"/><polyline class="cls-4" points="177.29 198.52 177.29 258.11 136.33 258.11"/><text class="cls-5" transform="translate(69.63 305.35)">CAPTURE</text><path class="cls-6" d="M165.46,154.45,103,143.68l-37.48-2.1-15.8,2.1L114,208a2.42,2.42,0,0,0,1.71.7h37.82a2.56,2.56,0,0,0,2.56-2.56V202a2.75,2.75,0,0,1,2.75-2.75H160a1.18,1.18,0,0,0,.83-2l-23.7-25.75a.8.8,0,0,1,.58-1.33h26a1.71,1.71,0,0,0,1.72-1.71Zm-16.73,44.24a1.16,1.16,0,0,1-.79,2l-16.73.38a1.15,1.15,0,0,1-.84-.34L99.68,169.15a1.16,1.16,0,0,1,.79-2l16.72-.38a1.16,1.16,0,0,1,.85.34Z"/><path class="cls-3" d="M153.53,209.06H115.71a2.8,2.8,0,0,1-2-.81L48.91,143.42l16.58-2.21h0l37.53,2.1,62.77,10.82v14.34a2.08,2.08,0,0,1-2.08,2.08h-26a.4.4,0,0,0-.38.25.42.42,0,0,0,.07.46L161.12,197a1.54,1.54,0,0,1-1.1,2.63h-1.18a2.4,2.4,0,0,0-2.39,2.39v4.09A2.93,2.93,0,0,1,153.53,209.06ZM50.49,144l63.77,63.78a2.07,2.07,0,0,0,1.45.6h37.82a2.2,2.2,0,0,0,2.19-2.2V202a3.12,3.12,0,0,1,3.12-3.12H160a.81.81,0,0,0,.57-1.39l-23.71-25.76a1.15,1.15,0,0,1-.2-1.25,1.12,1.12,0,0,1,1-.69h26a1.35,1.35,0,0,0,1.35-1.35V154.76l-62.15-10.71L65.52,142Zm80.69,57.47a1.49,1.49,0,0,1-1.07-.45L99.42,169.4a1.51,1.51,0,0,1,1-2.59l16.73-.39a1.57,1.57,0,0,1,1.11.45L149,198.44a1.51,1.51,0,0,1-1,2.59l-16.73.39Zm-14-34.26h0l-16.72.38a.79.79,0,0,0-.54,1.35l30.69,31.57a.8.8,0,0,0,.57.22l16.73-.38a.76.76,0,0,0,.71-.5.77.77,0,0,0-.17-.85h0l-30.68-31.56A.79.79,0,0,0,117.22,167.16Z"/><polygon class="cls-6" points="161.2 157.13 110.12 157.13 96.16 151.09 96.16 132.14 109.75 126.1 161.2 126.1 161.2 157.13"/><path class="cls-3" d="M161.57,157.5H110l-14.25-6.17V131.9l13.89-6.17h51.89Zm-51.37-.73h50.63V126.46h-51l-13.31,5.92v18.47Z"/><rect class="cls-3" x="92.48" y="130.93" width="3.67" height="21.36" rx="1.84" ry="1.84"/><rect class="cls-3" x="159.03" y="124.59" width="8.11" height="33.99" rx="4.06" ry="4.06"/><rect class="cls-7" x="47.68" y="139.52" width="44.8" height="4.2"/><path class="cls-3" d="M92.85,144.09H47.31v-4.94H92.85Zm-44.8-.73H92.11v-3.47H48.05Z"/><rect class="cls-3" x="49.7" y="139.48" width="2.57" height="4.2"/><polygon class="cls-3" points="52.27 143.68 118.42 208.69 114.71 208.69 49.7 143.68 52.27 143.68"/></g></g></svg>