<svg id="Layer_1" data-name="Layer 1" xmlns="http://www.w3.org/2000/svg" viewBox="0 0 816.76 1059.42"><defs><style>.cls-1{fill:none;}.cls-2{fill:#fff;}.cls-3{fill:#fbb714;}.cls-4{fill:#f8b617;}</style></defs><title>TOOL PROTECT_RGB</title><path class="cls-1" d="M215.46,921a15.81,15.81,0,0,0,9.69-4.73c10.33-10.63,13.78-24,15.26-36.35-.51-7.83-2.49-9.42-8.27-8.48-.91.14-2.25.52-2.54-.54-.69-2.53-1.84-1.14-2.78-.44a33.29,33.29,0,0,0-4.3,3.63c-9.43,10-13,22.41-14.73,35.59a16.25,16.25,0,0,0,.13,5.94C208.85,919.65,211.37,921.5,215.46,921Z" transform="translate(-12.67 -6.38)"/><path class="cls-1" d="M227,987.39a22.14,22.14,0,0,0-8.68.7,2.23,2.23,0,0,0-1.64,1.28c-2.66,5.43-5.18,10.92-6.33,17.48,6.24-1.76,11.71-3.87,16-8.25a13.8,13.8,0,0,0,3.82-6.36C230.93,989.4,229.92,987.85,227,987.39Z" transform="translate(-12.67 -6.38)"/><path class="cls-1" d="M295.46,913.37a15.89,15.89,0,0,0,9.09-4.6c10.45-10.69,13.85-24.21,15.35-36.38-.58-7.87-2.65-9.51-8.2-8.54-.9.16-2.25.58-2.57-.44-.83-2.64-2-1.1-3-.38a28.53,28.53,0,0,0-4.07,3.43c-9.45,10-13.07,22.38-14.77,35.56a20.16,20.16,0,0,0,0,5.32C288,912,290.84,914.1,295.46,913.37Z" transform="translate(-12.67 -6.38)"/><path class="cls-1" d="M157.81,990.89c-4.63-.83-9.13.21-13.6,1.27a1.9,1.9,0,0,0-1.28,1.26,170.21,170.21,0,0,0-6.46,17.2c5.59-.22,10.72-.72,15.59-2.79a21,21,0,0,0,9.56-7.78C164.34,995.89,162.67,991.76,157.81,990.89Z" transform="translate(-12.67 -6.38)"/><path class="cls-1" d="M302.62,977.64c-.81.11-2,.43-2.28-.45-1-2.84-2.24-1-3.25-.26a23.59,23.59,0,0,0-3.82,3.23c-9.46,10-13.07,22.38-14.82,35.55a16.44,16.44,0,0,0,.16,6.25c1,3.84,3.41,5.63,7.36,5.22a15.85,15.85,0,0,0,10-4.85c10.3-10.67,13.65-24.1,15.15-36.23C310.52,978.24,308.64,976.8,302.62,977.64Z" transform="translate(-12.67 -6.38)"/><path class="cls-2" d="M433.38,275.28C418,249.8,392.24,249,382.14,249.78c2.66,10.67,4.56,21.32,1,30.15l-.48,1.21c-5.76,14.38-12.93,32.26-5.12,53.66,8.76,24,9.66,67.72,6,85.5-2.6,12.62,4.15,24.88,19,34.53,10.72,7,51.39,23.68,88.41,23.69h0c9.82,0,18.06-1.12,24.51-3.31,31.42-10.7,65.67-64.82,76-92.11l4.38,1.19-1,5.79-.08.21c-1.23,3.24-30.69,79.69-75.89,95.08-7.51,2.56-16.94,3.86-28,3.86-15.92,0-32.54-2.88-47.49-6.87,5.13,10,17.73,26.91,46,32.84a94,94,0,0,0,51.07-3.72c14.15-5.09,26.9-13.4,35.25-22.83-1-47.63,22.45-96.61,29.69-110.59a16.4,16.4,0,0,1-7.08-4.79A11.63,11.63,0,0,1,596,363.1l2.5-9,1.92,9.11c.07.31,1.83,7.9,9.89,8.62,9.34.83,16.19-.45,23.4-9.45l.26-.48.3-.14c8.13-8.59,14.9-21.06,17.31-31.88,3.78-17-3.5-23.93-10.26-26.71-7.17-2.94-13.26-3.08-18.12-.42-12,6.6-14.68,28.25-14.71,28.46l-.21,1.87-.12.34.08-.05v.06h-.08l-.58-.05-8.84-.86.25-2.29c0-.29.18-1.53.52-3.4l-15.11-11.33,1.1-3.13c.11-.31,11-31.19,12.22-41,.52-4.14-10-9-17.51-10.77l-4.46-1,14-59.38c-22,1.9-44.33,3.61-66.73,3.61-27.06,0-54.23-2.5-81.19-10.19-17.68-5-31.88-12-42.47-20.86l-12.91,26.89c-6.62,13.7-8.65,20.37-9.18,23.55a27.93,27.93,0,0,0,.56,9.1C435.39,241.68,433.38,275.28,433.38,275.28Zm-45.32,8.78a3.07,3.07,0,0,1-.44-3.44c0-.08.05-.15.07-.23.15-.43.29-.88.42-1.32a32.31,32.31,0,0,1,1.6-4.36c4-8.22,9.38-10.64,18.16-8.06,5.83,1.7,11,4.64,16.87,9.53l3.62,3h-4.72l-3.37,0c-2.06,0-3.85,0-5.62,0-9.38.2-16.31,1.69-22.47,4.83a1.91,1.91,0,0,0-.27.16,3.75,3.75,0,0,1-2,.7A2.56,2.56,0,0,1,388.06,284.06Zm88.86-62.62s53.68,8.42,86.93,36.6c0,0,7.66,7.39,5.85,14.79,0,0-52.49-37.54-95.14-17.53C474.56,255.3,467.28,241.7,476.92,221.44ZM524,293.19c-2.1,7.82-4.7,13.88-9.77,18.5-5.83,5.32-11.52,3.9-14.51-3.42-4.3-10.56,1.8-32.32,10.91-38.94,5.58-4,10.54-2.76,13.16,3.65C526.73,280.13,525.24,287.35,524,293.19Zm-53.59,83.3c22.38,0,40.7-4.52,54.45-13.45h0l7.72-5-.39,9.19a64.66,64.66,0,0,1-7.43,25.12c-6.37,11.87-19.51,26.74-46,30.22a177.65,177.65,0,0,1-22.91,1.64,101.11,101.11,0,0,1-15.44-1.09c-12.5-1.95-29.41-6-39-14.23l-.07-.06-.13-.11-1-.93.61-1.11,1.92-4,5.07,2.11a46.09,46.09,0,0,0,4.47,2l4.29-12-13.89-19.22a60.42,60.42,0,0,1-10.63-4.64l-.95-.52.06-1.08c.1-1.82.25-3.51.47-5.14l.21-1.52,1.81,0,.52.19c.37.13,37.41,13.65,76.2,13.65Zm-29.78-99.87c.86-4.72,1.78-9.09,3.61-10.68l2.12-1.83.23,2.79c.68,8.19-1.77,22.28-3.72,28.9-1.41,4.77-3.91,9.92-6.33,14.91A113.1,113.1,0,0,0,431,323.35c-1.63,4.83-2.24,6.63,4.24,10.77l.18.13a33.82,33.82,0,0,0,5.3,3.59c1.59.94,3.24,1.92,4.94,3.15l.9.59c2.79,1.79,7,4.49,5.46,7.14-.65,1.11-2,1.5-3.78,1.5a31.68,31.68,0,0,1-5.73-.75l-1.06-.19a10.62,10.62,0,0,1-3.83-1.41l-1.73-1.06c-3.72-2.29-7.57-4.66-11.22-7.23-6.68-4.7-7.78-9-4.2-16.4.82-1.7,1.74-3.32,2.62-4.84a192.83,192.83,0,0,0,17.13-39.66C440.33,278.39,440.49,277.53,440.65,276.62Z" transform="translate(-12.67 -6.38)"/><path class="cls-2" d="M458.86,396.46l1.64,0,.11,6.12-10.06.59h-.12c-3.1-.07-6.29-.28-9.51-.63a119.59,119.59,0,0,1-16-2.85l-3.57,10c12.3,3.48,31.59,6.67,56.22,3.43,10.31-1.36,19.08-4.75,26.06-10.09l.19-.13a6.36,6.36,0,0,0,1.21-1l.1-.09c1-.85,2-1.75,2.92-2.68l.32-.27a26.37,26.37,0,0,0,4.6-4.47,14.27,14.27,0,0,0,2.37-4.61l.09-.36a9.39,9.39,0,0,0,.25-1.45v0a9.92,9.92,0,0,0,0-2.93l0-.18a8.51,8.51,0,0,0-3-5.64l-.29,0a4.48,4.48,0,0,0-1.5.58l-.64.31c-.46.22-.93.43-1.4.63l-.18.06c-13,4-35.33,7.7-67.77,3.07-7.72-1.1-15.65-2.62-23.64-4.51l7.62,10.54C431.68,391.91,447.5,396.21,458.86,396.46Z" transform="translate(-12.67 -6.38)"/><path class="cls-2" d="M166.86,392.56a30.92,30.92,0,0,0,7.48,8.09c1.89,1.37,3.48,1.46,5.31.28a30.31,30.31,0,0,0,6.61-5.14c4-4.58,4.81-9.31,2.46-14.88-5.45-13-10.63-25.66-16.36-39.74a42.5,42.5,0,0,1-1.51-4.78c-.18-.69-.37-1.38-.57-2.06l-.67-2.22-1.16-3.43a12.88,12.88,0,0,0-5.42-1.75c-.51,0-1-.06-1.51-.06A17,17,0,0,0,148,333.34a16,16,0,0,0-2.33,15.33C151.7,366,158.64,380.34,166.86,392.56Z" transform="translate(-12.67 -6.38)"/><path class="cls-2" d="M110.12,365.05c1.37,5.47,4.08,10.55,6.47,15,1,1.88,2,3.66,2.78,5.39a163,163,0,0,0,12.17,19.76c3.57,4.85,6.92,9.09,11.76,11.86a11,11,0,0,0,2.78,1.19l.65.11a3.79,3.79,0,0,0,1.84-.26l1.94-.8a137.73,137.73,0,0,0,14.78-6.78,7.77,7.77,0,0,0,3.26-2.85c.82-1.48.57-1.67-.18-2.23A28.3,28.3,0,0,1,163,399.9l-.86-.94s-1-1.39-1.32-1.94c-.23-.37-.44-.74-.66-1.1-8.92-13.08-14.9-27.31-21.18-43.13a11.71,11.71,0,0,0-8.33-7.51,16.6,16.6,0,0,0-16.13,4.11A16.21,16.21,0,0,0,110.12,365.05Z" transform="translate(-12.67 -6.38)"/><path class="cls-2" d="M251.18,703.3c-.41-1.46-.8-2.91-1.17-4.36a1,1,0,0,0-.25-1c-1.69-6.84-4.83-17.68-7-25.18l-.18.63c-.09.21-.17.42-.27.63l-.11.27-6.73,8.49a8.59,8.59,0,0,1-3-1.76,9.15,9.15,0,0,1-1-1.14c7.47-17.66,10.6-38.74,9.27-62.71A227.6,227.6,0,0,0,229,557.21c-3.18-9.24-6.36-25.39-9.45-48L216,483a70,70,0,0,1-12.94,6.57c-1.29.5-2.59,1-3.85,1.41s-2.41.85-3.58,1.31A20.06,20.06,0,0,0,188,497.6c-7.42,8.08-17.5,12.26-30.79,12.79-1,0-2,.06-3,.06A61.71,61.71,0,0,1,128.16,505l-.74.77c3.45,5,7,10.06,10.43,15.1,2.53,3.68,2,6.31-1.66,8.85l-1.06.74-.4,1.93c-9.81,47.87-13.17,136.77,17.66,185.86,1.86,1.46,9.18,6.46,23.46,7.54,20,1.52,44.08-5.15,71.51-19.84Z" transform="translate(-12.67 -6.38)"/><path class="cls-2" d="M80.68,386.74c.18,2.9,1.89,5.77,5.08,8.52,12.36,10.66,24.78,21.25,36.93,31.48,3.11,2.62,6.1,3.76,8.86,3.38s5.39-2.3,7.71-5.71a4.63,4.63,0,0,1,.46-.59,5.66,5.66,0,0,0-.87-.55l-.18-.08-.16-.11-.56-.36-.88-.58a17.43,17.43,0,0,1-1.46-1.11c-.41-.33-.8-.65-1.17-.9l-.24-.18c-7.73-6.82-13.16-15.1-17.88-23l-1.09-1.85a.39.39,0,0,0-.1-.08l-.54-1c-2-3.47-4-7-5.93-10.4q-2.19-3.9-4.4-7.78c-2-3.38-4.65-5.13-7.77-5.13a11,11,0,0,0-5.12,1.41,24.08,24.08,0,0,0-6.58,5.37C81.88,380.66,80.5,383.79,80.68,386.74Z" transform="translate(-12.67 -6.38)"/><path class="cls-2" d="M191.77,439.15c-4.35,5.24-9.14,10.13-13.8,15.12s-9.11,9.75-13.82,14.49c-3.27,3.29-6.55,6.58-10.14,9.55L135,498a52.27,52.27,0,0,0,18.71,3.42c12.88.08,21.53-3.09,28-10.26a25.91,25.91,0,0,1,7.51-5.82,62.94,62.94,0,0,1,7.83-3.17l2.91-1.06c11.83-4.47,20.16-11.32,25.45-20.94.41-.74.81-1.45,1.21-2.15.12-.29.25-.57.38-.85l.14-.06a103.16,103.16,0,0,1,9.33-13.78,77.44,77.44,0,0,1,6-6.54,46.37,46.37,0,0,0,3.69-5.62,44.92,44.92,0,0,0,3.93-9c1.1-4.14.87-8.88.66-13.46L248,352.52c-.2-4.21-.41-8.56-1.89-12.12a15.19,15.19,0,0,0-26.32-3.06c-2.18,3-3.31,7-4.12,10.39-5.05,21.33-3.34,42,4.93,59.8l-7.3,3.4C206.26,420.43,199.33,430,191.77,439.15Z" transform="translate(-12.67 -6.38)"/><path class="cls-2" d="M100.23,440.05c4.18,2.61,9.1,5.44,14.62,6.17a8.67,8.67,0,0,0,7.14-2.09,8.16,8.16,0,0,0,2.58-6.52c0-1-.21-1.19-.65-1.37-1.1-2-3.58-3.24-5.58-4.41-1.59-.92-3.2-1.78-4.7-2.86l-.69-.5c-9.43-8-19-16-28.22-23.76l-3.85-3.24c-2-1.69-2.21-1.7-4.25-.05-2.24,1.82-3.34,4.34-3.37,7.72A31.91,31.91,0,0,0,74.71,418a41.65,41.65,0,0,0,2.23,6l.76.49A22.08,22.08,0,0,0,83.44,429c1.9,1.16,3.85,2.46,5.87,3.6A100.58,100.58,0,0,0,100.23,440.05Z" transform="translate(-12.67 -6.38)"/><path class="cls-2" d="M220.82,157.75l-.67-.85c-.71-.91-1.44-1.84-2.16-2.84-3.91-5.43-8.12-11.15-13.16-17.85l-7.1,4.37-.06-.25L153,167.44l.16.14L147.43,171c.52,1.05,1,2.1,1.45,3.13s.91,2,1.37,3l1.24,2.47c2.53,5.08,5.14,10.31,7.59,15.61C178.74,183.2,199,170.92,220.82,157.75Z" transform="translate(-12.67 -6.38)"/><path class="cls-2" d="M194.08,130.31c-5.63-9.18-11.63-19.09-18.23-30.11l-13.63,8.29h0l-6.92,4.2h0l-7,4.24h0l-6.83,4.13h0q-6.88,4.17-13.78,8.33c5.72,9.3,11.72,19.21,18.24,30.09Z" transform="translate(-12.67 -6.38)"/><path class="cls-3" d="M346.3,333.87a46.26,46.26,0,0,1,3.07,6,1.94,1.94,0,0,1,.47.79c2.7,7.55,5.82,15,6,23.19a7.78,7.78,0,0,1-3.73,7.26c-17.78,12.06-36.23,23-54.69,34-4.4,2.61-6.94,2.71-11.81-.05-1.6-1.22-5-3-9.51-6.15-1.16-.81-2.31-1.64-3.44-2.48-5.17-3.77-10.08-7.56-10.62-8s-1.38-1.17-2.1-1.76l1,21.57c.24,5.1.52,10.89-1,16.56a54.14,54.14,0,0,1-4.76,11.14,66,66,0,0,1-5.82,8.7c-1.64,2.2-6.2,5.14-8.24,7.38a84.37,84.37,0,0,0-7.2,11.43,51.47,51.47,0,0,1-8.16,11.46l4.35,32.94q2.44,17.84,4.88,29.89l16.07-8.19S289,510.54,289,510.56h0c44.18-26.3,88.75-45.73,101.65-51.16-14-11.51-20.24-26.68-17.16-42.53,3.2-16.52,2.47-55.27-6-78.39-9.22-25.25-1.21-45.26,5.23-61.33l.49-1.2c2.84-7.12-.08-18.31-2.92-29.13-.16-.61-.31-1.21-.47-1.81a307.42,307.42,0,0,0-57.07,33.45L342.8,328C344,330,345,332,346.3,333.87Z" transform="translate(-12.67 -6.38)"/><path class="cls-3" d="M645.41,294.83c14,5.94,19.49,19.06,15.5,37-2.35,10.59-8.32,22.57-16,32-8.48,10.47-17.55,16.24-25.54,16.24-1,0-1.9,0-2.81-.07-3.19,5.91-27.77,52.93-29.91,99.5,8.28.82,26.52,3.78,50.91,14.49a273.52,273.52,0,0,1,57,34.35,364.84,364.84,0,0,1,42,38.31l-.12-.13L789,619.89A307.46,307.46,0,0,0,803.62,526c0-110.77-58.52-207.86-146.32-262.09-.33,1.35-.67,2.69-1,4.05C653.32,278.75,649.82,287.46,645.41,294.83Z" transform="translate(-12.67 -6.38)"/><path class="cls-3" d="M316.36,689.9l-.75-1.89a.31.31,0,0,0,0-.08l-9.5,7.05-1.58,1.43c-.88.78-21.6,19.32-39.91,25.78l-1.39.47a337.33,337.33,0,0,0,51.44,49.12c-.55-.51-.88-.83-1-.92Z" transform="translate(-12.67 -6.38)"/><path class="cls-4" d="M453,829.9c0,.33,0,.65,0,1l.51.07C453.37,830.6,453.21,830.25,453,829.9Z" transform="translate(-12.67 -6.38)"/><path class="cls-4" d="M226.61,458c.17-.31.34-.61.52-.91l-.14.06C226.86,457.41,226.73,457.69,226.61,458Z" transform="translate(-12.67 -6.38)"/><path class="cls-3" d="M231.49,1012.42c8.2-4.27,15.17-10,20.13-18A28.86,28.86,0,0,0,256,980.2c.35-7.5-5.68-13.82-14.92-15.48-9-1.61-17.73.31-26.33,2.67-6.34,1.75-12.62,3.79-18.1,7.66-3.22,2.26-5.63,5-5.78,9.19a20,20,0,0,1-.76,4.61c-1.25,4.68.32,6.3,5.1,5.33.5-.1,1-.27,2.11-.59-.66,1.67-1.14,2.93-1.64,4.17q-10.23,25.14-18,51.11c-2.82,9.35-.33,11.68,9.06,9.52l.92-.21c5.77-1.13,9.61-4.4,11.11-10.17.7-2.73,1.32-5.48,2-8.23a76.51,76.51,0,0,1,4.67-15c.69,1,1.18,1.64,1.64,2.32,6.77,10.06,13.26,20.32,20.88,29.77,3,3.68,4.3,3.72,7.26,0s5.47-7.86,8.69-11.48c4.62-5.18,4.43-6.34.15-11.82-4.43-5.69-9.57-10.8-13.59-16.83C228.87,1014.6,229.09,1013.67,231.49,1012.42Zm-5.1-13.82c-4.32,4.38-9.79,6.49-16,8.25,1.15-6.56,3.67-12.05,6.33-17.48a2.23,2.23,0,0,1,1.64-1.28,22.14,22.14,0,0,1,8.68-.7c2.91.46,3.92,2,3.2,4.85A13.8,13.8,0,0,1,226.39,998.6Z" transform="translate(-12.67 -6.38)"/><path class="cls-3" d="M185,928.21c1.38,8.76,7.81,14.54,16.66,15,14.41.82,26.3-4.63,36.34-14.59,12.53-12.43,19.2-27.92,23-44.84,1.71-7.72,2.47-15.5.33-23.29-1.77-6.45-5.77-9.55-12.41-9.94-3.91-.24-7,1.55-10.16,3.59-.55-3.56-1.33-4.09-4.79-3.23a57.72,57.72,0,0,0-14.73,6c-15.77,9.07-24.8,23.25-30.1,40.14C185.87,907.22,183.25,917.44,185,928.21Zm22.84-18.5c1.71-13.18,5.3-25.61,14.73-35.59a33.29,33.29,0,0,1,4.3-3.63c.94-.7,2.09-2.09,2.78.44.29,1.06,1.63.68,2.54.54,5.78-.94,7.76.65,8.27,8.48-1.48,12.32-4.93,25.72-15.26,36.35a15.81,15.81,0,0,1-9.69,4.73c-4.09.47-6.61-1.38-7.54-5.38A16.25,16.25,0,0,1,207.79,909.71Z" transform="translate(-12.67 -6.38)"/><path class="cls-3" d="M281.19,935.66c14.42.79,26.3-4.7,36.31-14.68C330,908.53,336.67,893,340.4,876.11c1.7-7.72,2.45-15.51.28-23.28-1.76-6.32-5.68-9.36-12.19-9.82-3.91-.27-7.09,1.38-10.4,3.66-.46-3.52-1.32-4.16-4.55-3.36a57.51,57.51,0,0,0-15,6.14c-14.18,8.18-23.12,20.62-28.5,35.76-4,11.35-7.43,22.89-5.62,35.21C265.72,929.37,272.16,935.16,281.19,935.66ZM287.28,902c1.7-13.18,5.32-25.6,14.77-35.56a28.53,28.53,0,0,1,4.07-3.43c1-.72,2.18-2.26,3,.38.32,1,1.67.6,2.57.44,5.55-1,7.62.67,8.2,8.54-1.5,12.17-4.9,25.69-15.35,36.38a15.89,15.89,0,0,1-9.09,4.6c-4.62.73-7.5-1.37-8.17-6A20.16,20.16,0,0,1,287.28,902Z" transform="translate(-12.67 -6.38)"/><path class="cls-3" d="M319.24,956.72c-3.79-.16-6.83,1.58-9.84,3.58-.68-3.57-1.47-4.06-5.1-3.14a57.15,57.15,0,0,0-14.7,6.09c-15.72,9.15-24.69,23.34-30,40.25-3.12,10-5.7,20.12-4,30.78,1.36,8.77,7.79,14.61,16.59,15.11,14.53.83,26.5-4.68,36.59-14.76,12.4-12.39,19-27.79,22.78-44.6,1.71-7.71,2.48-15.49.36-23.28C330.12,960.17,326,957,319.24,956.72Zm-23.31,65.61a15.85,15.85,0,0,1-10,4.85c-4,.41-6.4-1.38-7.36-5.22a16.44,16.44,0,0,1-.16-6.25c1.75-13.17,5.36-25.6,14.82-35.55a23.59,23.59,0,0,1,3.82-3.23c1-.69,2.29-2.58,3.25.26.29.88,1.47.56,2.28.45,6-.84,7.9.6,8.46,8.46C309.58,998.23,306.23,1011.66,295.93,1022.33Z" transform="translate(-12.67 -6.38)"/><path class="cls-3" d="M440.65,994.76c6.67-1.45,13.5-1.75,20.18-3.09,4.17-.84,7-3.14,8-7.39a22.56,22.56,0,0,1,2-4.89c2.28-4.53.95-6.79-4.16-6.61a104.1,104.1,0,0,0-17.15,1.92c-1.88.38-3.78.65-6.21,1,.92-2.26,1.87-3.83,2.18-5.52,1.19-6.4,5.54-8.35,11.38-9.37,7.94-1.37,15.86-2.85,23.85-3.94,3.71-.51,7-2.95,6.78-5.42a19.94,19.94,0,0,1,.59-7c.56-2.12.15-4-2.89-3.81-12.53.67-25.12.79-37.53,3-6,1.06-12,1.88-17.54,4.58-1.63.79-3.44,1.64-3.64,3.57-.28,2.74-1.28,5.28-1.65,8-.65,4.73.46,6,5.54,6.11-4.13,8.4-7.82,16.59-11.22,24.91-4.95,12.09-9.39,24.36-13.16,36.87-1.35,4.44-.75,5.22,3.68,6.3a1,1,0,0,1,.53.25c2.14,3,5.21,2.13,8,1.8,14.05-1.67,27.78-5.06,41.6-8,5.15-1.09,7.83-4.54,8.54-9.6a7.79,7.79,0,0,1,1.95-4.77c1.53-1.58.88-3-.85-4.1a5.28,5.28,0,0,0-3.89-.76c-5.06.83-10.16,1.46-15.19,2.44-6.95,1.35-13.85,2.94-21.1,4.5,1.27-5.61,3.69-10.61,5.21-15.87C435.51,996.49,437.56,995.43,440.65,994.76Z" transform="translate(-12.67 -6.38)"/><path class="cls-3" d="M168.69,971.13c-15.53-1.55-30.36,1.6-44.39,8.43-7.19,3.5-9.47,10.24-11,17.29-.64,2.86.88,4.12,3.82,3.59a43.24,43.24,0,0,0,4.84-1.46c-.23.64-.37,1.15-.58,1.62-7.15,15.83-12.65,32.27-17.82,48.82-1.37,4.37-2.77,8.78-2.42,13.48q.26,3.66,3.79,2.69a67.19,67.19,0,0,1,8.88-1.92c5.65-.75,9-4.14,10.29-9.56.85-3.44,1.66-6.9,2.39-10.37a157.57,157.57,0,0,1,5.45-20.23c1.41,5.87,2.67,7,6.87,6.74,21.18-1.33,40.8-19.76,43.52-40.9C183.66,978.8,179.08,972.16,168.69,971.13Zm-7.07,28.92a21,21,0,0,1-9.56,7.78c-4.87,2.07-10,2.57-15.59,2.79a170.21,170.21,0,0,1,6.46-17.2,1.9,1.9,0,0,1,1.28-1.26c4.47-1.06,9-2.1,13.6-1.27C162.67,991.76,164.34,995.89,161.62,1000.05Z" transform="translate(-12.67 -6.38)"/><path class="cls-3" d="M553.28,935.74c-2-1.74-4.21-.14-6,1-1.5,1-2.38,1.56-3.5-.56-.75-1.41-2.58-1.56-4.23-1.45-4.19.25-7.91,1.94-11.46,4-22.86,13-37.59,32.7-46.92,56.85a47.29,47.29,0,0,0-3.26,16.2c-.19,9.58,5.25,17,13.31,17.16,10.24.2,20-2.12,28.07-8.86a79.67,79.67,0,0,0,20.07-25.85,25.09,25.09,0,0,0,1.8-4.66c.51-1.89.11-3.4-2.33-3.31-1,0-1.82.15-2-1.27-.25-2.32-1.77-2.18-3.46-1.55a6.51,6.51,0,0,0-3,2.68c-4.85,6.83-9.78,13.61-16.25,19-2.57,2.17-5.32,4.1-8.87,4.28-2.67.14-4.37-1-5.07-3.63-.88-3.4-.21-6.69.86-9.86a97.7,97.7,0,0,1,23.71-38,22.18,22.18,0,0,1,7.35-5.23c-2.66,3.77-5.65,7.3-7.21,11.73-.77,2.19-.91,4.36.75,6.2a6.37,6.37,0,0,0,6.6,1.89,12.27,12.27,0,0,0,4.25-1.9,57.71,57.71,0,0,0,19.62-24.74,15.52,15.52,0,0,0,.75-2.71C557.58,939.84,555.42,937.59,553.28,935.74Z" transform="translate(-12.67 -6.38)"/><path class="cls-3" d="M194.9,855.32c-4-.34-7.93.44-11.86,1-15.86,2.23-31.49,5.72-47.24,8.57-6.57,1.19-9.92,4.21-11.5,10.73a13.78,13.78,0,0,1-1.39,4.11c-1.27,2.1-3.2,4.41-1.58,6.91s4.4,1.45,6.7,1.13c6-.84,11.94-1.86,17.93-2.81.3,1.25-.43,2.12-.82,3-7.41,17.62-14.16,35.49-19.85,53.75a19.85,19.85,0,0,0-1.15,5.82c0,3.3,1.37,4.57,4.45,3.67a13.93,13.93,0,0,1,4.62-.49c7.83.29,12.31-2.86,14.77-10.35.42-1.29.82-2.58,1.21-3.88,5.27-17.61,10.24-35.3,16.19-52.69a4.26,4.26,0,0,1,3.91-3.23c6.79-1.17,13.59-2.47,19.81-5.67,3.36-1.73,6.33-4,6.63-8.1a13.16,13.16,0,0,1,2.22-6C200,857.44,199,855.68,194.9,855.32Z" transform="translate(-12.67 -6.38)"/><path class="cls-3" d="M417.68,959.17a18.2,18.2,0,0,1,2.61-7.17c1.67-2.75.6-4.51-2.63-5a34.72,34.72,0,0,0-9.38.49c-17.54,2.33-34.81,6.17-52.19,9.38a10.93,10.93,0,0,0-8.69,7.36c-1.25,3.52-2.42,7-4,10.45-1.47,3.1.08,5,3.56,5a32,32,0,0,0,4.37-.41c5.57-.87,11.13-1.8,17.16-2.79-.54,1.39-.85,2.25-1.21,3.1-7.42,17.62-14.18,35.49-19.87,53.75a19.2,19.2,0,0,0-1.18,6.44c.11,2.74,1.41,3.78,4.11,3.19a16,16,0,0,1,4-.66c9.35.33,13.28-2.35,16-11.12,5.73-18.44,10.78-37.09,17-55.38a4.67,4.67,0,0,1,4.28-3.62c6.7-1.11,13.39-2.43,19.51-5.6C414.26,965,417.16,963,417.68,959.17Z" transform="translate(-12.67 -6.38)"/><path class="cls-3" d="M634.27,926.37a23.85,23.85,0,0,0-6.26.09c-18.73,2.21-37.1,6.41-55.62,9.81a10.68,10.68,0,0,0-8.33,6.93c-1.4,3.68-2.54,7.44-4.24,11-1.39,2.92.2,4.81,3.53,4.8a23.63,23.63,0,0,0,3.75-.32c5.78-.9,11.55-1.84,17.84-2.85-.52,1.37-.84,2.34-1.24,3.28-7.41,17.51-14.11,35.29-19.77,53.45a21.41,21.41,0,0,0-1.17,5.5c-.16,3.89,1.17,5,4.87,4a10.54,10.54,0,0,1,3.39-.4c9,.34,13.12-2.49,15.77-11,5.78-18.64,10.86-37.5,17.24-56a4,4,0,0,1,3.69-3c6.8-1.17,13.6-2.45,19.83-5.63,3-1.55,5.9-3.47,6.57-7.09a21.17,21.17,0,0,1,2.76-7.77C638.47,928.61,637.31,926.8,634.27,926.37Z" transform="translate(-12.67 -6.38)"/><path class="cls-3" d="M346.89,930l1.57-.15s0,.09,0,.13c7.4-1.43,14.82-2.78,22.2-4.3,6.35-1.31,12.67-2.8,19-4.22,7.63-1.71,11.51-7,10.37-14.46-.19-1.22.63-1.39,1.06-2,1.21-1.63,2.61-3.58,1.68-5.39-1-2-3.38-.86-5.16-.61-9.65,1.38-19.06,3.93-28.54,6.09-2.52.57-3,.08-2.39-2.5,2.32-9.66,5.21-19.16,8.34-28.57,3.64-10.9,7.61-21.69,11.38-32.55,1.34-3.86.18-5.27-3.91-4.93-2.19.18-4.37.73-6.55.71-5.61,0-8.63,3-10.85,7.85-9.49,20.65-16.91,42.07-23.89,63.66a47.8,47.8,0,0,0-2.57,13.51C338.5,928.16,341.1,930.57,346.89,930Z" transform="translate(-12.67 -6.38)"/><path d="M393.71,362.65l-1.81,0-.21,1.52c-.22,1.63-.37,3.32-.47,5.14l-.06,1.08.95.52a60.42,60.42,0,0,0,10.63,4.64l13.89,19.22-4.29,12a46.09,46.09,0,0,1-4.47-2l-5.07-2.11-1.92,4-.61,1.11,1,.93.13.11.07.06c9.55,8.23,26.46,12.28,39,14.23a101.11,101.11,0,0,0,15.44,1.09,177.65,177.65,0,0,0,22.91-1.64c26.46-3.48,39.6-18.35,46-30.22a64.66,64.66,0,0,0,7.43-25.12l.39-9.19-7.72,5h0c-13.75,8.93-32.07,13.45-54.45,13.45h0c-38.79,0-75.83-13.52-76.2-13.65Zm47.15,21.21c32.44,4.63,54.76.89,67.77-3.07l.18-.06c.47-.2.94-.41,1.4-.63l.64-.31a4.48,4.48,0,0,1,1.5-.58l.29,0a8.51,8.51,0,0,1,3,5.64l0,.18a9.92,9.92,0,0,1,0,2.93v0a9.39,9.39,0,0,1-.25,1.45l-.09.36a14.27,14.27,0,0,1-2.37,4.61,26.37,26.37,0,0,1-4.6,4.47l-.32.27c-.93.93-1.91,1.83-2.92,2.68l-.1.09a6.36,6.36,0,0,1-1.21,1l-.19.13c-7,5.34-15.75,8.73-26.06,10.09-24.63,3.24-43.92.05-56.22-3.43l3.57-10a119.59,119.59,0,0,0,16,2.85c3.22.35,6.41.56,9.51.63h.12l10.06-.59-.11-6.12-1.64,0c-11.36-.25-27.18-4.55-34-6.57l-7.62-10.54C425.21,381.24,433.14,382.76,440.86,383.86Z" transform="translate(-12.67 -6.38)"/><path d="M510.65,269.33c-9.11,6.62-15.21,28.38-10.91,38.94,3,7.32,8.68,8.74,14.51,3.42,5.07-4.62,7.67-10.68,9.77-18.5,1.22-5.84,2.71-13.06-.21-20.21C521.19,266.57,516.23,265.29,510.65,269.33Z" transform="translate(-12.67 -6.38)"/><path d="M392.18,284c6.16-3.14,13.09-4.63,22.47-4.83,1.77,0,3.56,0,5.62,0l3.37,0h4.72l-3.62-3c-5.84-4.89-11-7.83-16.87-9.53-8.78-2.58-14.21-.16-18.16,8.06a32.31,32.31,0,0,0-1.6,4.36c-.13.44-.27.89-.42,1.32,0,.08-.05.15-.07.23a3.07,3.07,0,0,0,.44,3.44,2.56,2.56,0,0,0,1.83.81,3.75,3.75,0,0,0,2-.7A1.91,1.91,0,0,1,392.18,284Z" transform="translate(-12.67 -6.38)"/><path d="M569.7,272.83c1.81-7.4-5.85-14.79-5.85-14.79-33.25-28.18-86.93-36.6-86.93-36.6-9.64,20.26-2.36,33.86-2.36,33.86C517.21,235.29,569.7,272.83,569.7,272.83Z" transform="translate(-12.67 -6.38)"/><path d="M420.49,323.18c-3.58,7.41-2.48,11.7,4.2,16.4,3.65,2.57,7.5,4.94,11.22,7.23l1.73,1.06a10.62,10.62,0,0,0,3.83,1.41l1.06.19a31.68,31.68,0,0,0,5.73.75c1.76,0,3.13-.39,3.78-1.5,1.54-2.65-2.67-5.35-5.46-7.14l-.9-.59c-1.7-1.23-3.35-2.21-4.94-3.15a33.82,33.82,0,0,1-5.3-3.59l-.18-.13c-6.48-4.14-5.87-5.94-4.24-10.77a113.1,113.1,0,0,1,5.54-12.64c2.42-5,4.92-10.14,6.33-14.91,1.95-6.62,4.4-20.71,3.72-28.9l-.23-2.79-2.12,1.83c-1.83,1.59-2.75,6-3.61,10.68-.16.91-.32,1.77-.41,2.06a192.83,192.83,0,0,1-17.13,39.66C422.23,319.86,421.31,321.48,420.49,323.18Z" transform="translate(-12.67 -6.38)"/><path d="M829.3,778.28c-.75-23.83-4.58-50.2-11.37-78.38-5-20.66-11.74-43.78-28.89-59l10.61-10.27L789,619.89l-52.56-53.31.12.13a364.84,364.84,0,0,0-42-38.31,273.52,273.52,0,0,0-57-34.35c-24.39-10.71-42.63-13.67-50.91-14.49,2.14-46.57,26.72-93.59,29.91-99.5.91,0,1.84.07,2.81.07,8,0,17.06-5.77,25.54-16.24,7.67-9.46,13.64-21.44,16-32,4-18-1.52-31.09-15.5-37,4.41-7.37,7.91-16.08,10.85-26.89.37-1.36.71-2.7,1-4.05,5.14-21.27,4.92-41.33-.68-58.24a75.13,75.13,0,0,0-15.94-26.84,69.24,69.24,0,0,0-12.24-11.05A56.76,56.76,0,0,0,617,161.4v-.05c2.77-14.78,1.5-29.24-3.67-41.82a78.32,78.32,0,0,0-25.65-32.65,80.73,80.73,0,0,0-38.83-15.71c-20.46-2.41-40.4,3-59.67,8.18-17.14,4.63-36.57,9.88-55.3,7.27-22.26-3.1-35.29-17.39-38-29.34l-2.15-9.55-7.24,6.59c-13.86,12.64-14,32.44-13.06,50,.91,16.8,1.94,35.84,11.69,52.07a62.51,62.51,0,0,0,6,8.25L376.81,195c-5.76,11.92-9.15,20.82-10.09,26.45-1.12,6.69.84,14.86,3.1,23.56.16.6.31,1.2.47,1.81,2.84,10.82,5.76,22,2.92,29.13l-.49,1.2c-6.44,16.07-14.45,36.08-5.23,61.33,8.45,23.12,9.18,61.87,6,78.39-3.08,15.85,3.14,31,17.16,42.53-12.9,5.43-57.47,24.86-101.65,51.16h0s-37.89,18.94-37.9,18.92L235,537.67q-2.43-12-4.88-29.89l-4.35-32.94a51.47,51.47,0,0,0,8.16-11.46,84.37,84.37,0,0,1,7.2-11.43c2-2.24,6.6-5.18,8.24-7.38a66,66,0,0,0,5.82-8.7A54.14,54.14,0,0,0,260,424.73c1.5-5.67,1.22-11.46,1-16.56l-1-21.57c.72.59,1.42,1.18,2.1,1.76s5.45,4.27,10.62,8c1.13.84,2.28,1.67,3.44,2.48,4.51,3.19,7.91,4.93,9.51,6.15,4.87,2.76,7.41,2.66,11.81.05,18.46-10.95,36.91-21.91,54.69-34a7.78,7.78,0,0,0,3.73-7.26c-.15-8.2-3.27-15.64-6-23.19a1.94,1.94,0,0,0-.47-.79,46.26,46.26,0,0,0-3.07-6C345,332,344,330,342.8,328l-30.05-49.58-16-26.45.19-.12c-8.23-13.58-16.35-27.23-24.72-40.73-9.32-15-17.7-30.71-28.78-44.62-2.75-3.46-4.85-8.51-10.18-8.78a8.76,8.76,0,0,0-1.3-3.08c-1.05-1.63-2.18-3.07-3.27-4.46-.67-.85-1.3-1.66-1.89-2.47-4.38-6.09-9.13-12.52-15-20.25-1.13-1.5-4-4.45-8.49-2.82-6-9.83-12.49-20.51-19.66-32.5a7.35,7.35,0,0,0-11-2.7q-6.75,4.13-13.52,8.23L106.56,6.38,80.73,21.25l52.91,91.92-13.81,8.34A7.45,7.45,0,0,0,117,132.76c6.17,10,12.65,20.71,19.77,32.58a6.66,6.66,0,0,0-1.35,2.7,7,7,0,0,0,1,5.48,41.69,41.69,0,0,1,2.53,5c.49,1.08,1,2.21,1.55,3.34l1.24,2.48c3,6,6.14,12.29,8.9,18.51a8,8,0,0,0,3.6,4.12,16.21,16.21,0,0,0,1.15,13.57c3.19,6.09,6,12.33,9.08,18.49,4.29,8.7,8.87,17.25,13.3,25.89,6.16,12,12.91,23.73,17.47,36.51,1.55,4.33,1.78,8.46-.54,12.63a115.22,115.22,0,0,1-10.87,15.83,54.66,54.66,0,0,0-5-4.85c-3.68-3.14-8.76-6.78-15.4-7.17-13.81-.81-23.77,6.67-26.74,20.05a25.66,25.66,0,0,0-36.12,24.21A18,18,0,0,0,87.39,364a33,33,0,0,0-10.58,8.94c-5.18,6.47-6.47,13.25-3.83,20.16-5.76,3.4-8.7,8.91-8.75,16.38a30.1,30.1,0,0,0,.47,5.49l-6.62-9.59a5.41,5.41,0,0,0-8-1.39c-11.54,8-23,16-34.66,23.86a6.09,6.09,0,0,0-1.63,8.69c13.4,19.14,26.61,38.4,39.89,57.62l40.05,58c2.08,3,4.8,3.53,7.79,1.48l21-14.48c-9.23,52.54-11,135.07,21.24,185.54l.33.52.45.43c1.18,1.16,12.28,11.26,36.62,11.26,19.32,0,48.32-7.62,73.71-20.26l.68,2.15.25,2.26c.47,1.23,1,2.45,1.49,3.65l5.95-2,1.39-.47c18.31-6.46,39-25,39.91-25.78l1.58-1.43,9.5-7.05A95.08,95.08,0,0,0,316,642l2-.49c3.73,15.4,2.33,33-1.63,48.37l-2.66,81c.11.09.44.41,1,.92,6.58,6,45.22,39.78,127.06,58.65.07,5.91,2.34,11.11,4.56,15.27,3.79,7.11,9.23,10.91,16.17,11.32a3.13,3.13,0,0,1,.72.1,5.24,5.24,0,0,1,.32,1,17.73,17.73,0,0,0,10.21,12.47A41,41,0,0,0,488.05,874c1.56.1,3.12.15,4.67.15a151.56,151.56,0,0,0,16.4-1.18c2.53-.27,5.15-.56,7.71-.77,30.83-2.54,46.5-8.61,56.71-13.61A54.61,54.61,0,0,0,590,846.9q2-2.11,3.8-4.42c45.67,25.29,77.63,34,110,34,25.63,0,51.54-5.44,84.72-12.41,8-1.68,16.28-3.32,25.13-5.2,2.27-.49,3.75-.9,4.71-3.36l1.69-6.46C827.05,829,830.15,805.2,829.3,778.28ZM127.67,129.41q6.9-4.16,13.78-8.33h0l6.83-4.13h0l7-4.24h0l6.92-4.2h0l13.63-8.29c6.6,11,12.6,20.93,18.23,30.11L145.91,159.5C139.39,148.62,133.39,138.71,127.67,129.41Zm31.41,65.76c-2.44-5.3-5.06-10.53-7.59-15.61l-1.24-2.47c-.46-.94-.9-1.92-1.37-3s-.93-2.08-1.45-3.13l5.69-3.43-.16-.14,44.71-27.11.06.25,7.1-4.37c5,6.7,9.25,12.42,13.16,17.85.72,1,1.45,1.93,2.16,2.84l.67.85C199,170.92,178.74,183.2,159.08,195.17Zm54.26,215.76,7.3-3.4c-8.27-17.79-10-38.47-4.93-59.8.81-3.44,1.94-7.37,4.12-10.39a15.19,15.19,0,0,1,26.32,3.06c1.48,3.56,1.69,7.91,1.89,12.12l2.67,56.13c.21,4.58.44,9.32-.66,13.46a44.92,44.92,0,0,1-3.93,9,46.37,46.37,0,0,1-3.69,5.62,77.44,77.44,0,0,0-6,6.54,103.16,103.16,0,0,0-9.33,13.78c-.18.3-.35.6-.52.91-.4.7-.8,1.41-1.21,2.15-5.29,9.62-13.62,16.47-25.45,20.94L197,482.13a62.94,62.94,0,0,0-7.83,3.17,25.91,25.91,0,0,0-7.51,5.82c-6.51,7.17-15.16,10.34-28,10.26A52.27,52.27,0,0,1,135,498L154,478.31c3.59-3,6.87-6.26,10.14-9.55,4.71-4.74,9.27-9.62,13.82-14.49s9.45-9.88,13.8-15.12C199.33,430,206.26,420.43,213.34,410.93ZM148,333.34a17,17,0,0,1,13.54-6.47c.5,0,1,0,1.51.06a12.88,12.88,0,0,1,5.42,1.75l1.16,3.43.67,2.22c.2.68.39,1.37.57,2.06a42.5,42.5,0,0,0,1.51,4.78c5.73,14.08,10.91,26.78,16.36,39.74,2.35,5.57,1.57,10.3-2.46,14.88a30.31,30.31,0,0,1-6.61,5.14c-1.83,1.18-3.42,1.09-5.31-.28a30.92,30.92,0,0,1-7.48-8.09c-8.22-12.22-15.16-26.58-21.21-43.89A16,16,0,0,1,148,333.34ZM114.5,349.39a16.6,16.6,0,0,1,16.13-4.11,11.71,11.71,0,0,1,8.33,7.51c6.28,15.82,12.26,30,21.18,43.13.22.36.43.73.66,1.1.35.55,1.29,1.9,1.32,1.94l.86.94a28.3,28.3,0,0,0,5.39,5.58c.75.56,1,.75.18,2.23a7.77,7.77,0,0,1-3.26,2.85,137.73,137.73,0,0,1-14.78,6.78l-1.94.8a3.79,3.79,0,0,1-1.84.26l-.65-.11a11,11,0,0,1-2.78-1.19c-4.84-2.77-8.19-7-11.76-11.86a163,163,0,0,1-12.17-19.76c-.83-1.73-1.77-3.51-2.78-5.39-2.39-4.49-5.1-9.57-6.47-15A16.21,16.21,0,0,1,114.5,349.39ZM84.79,377.45a24.08,24.08,0,0,1,6.58-5.37,11,11,0,0,1,5.12-1.41c3.12,0,5.82,1.75,7.77,5.13q2.22,3.88,4.4,7.78c1.93,3.42,3.91,6.93,5.93,10.4l.54,1a.39.39,0,0,1,.1.08l1.09,1.85c4.72,7.92,10.15,16.2,17.88,23l.24.18c.37.25.76.57,1.17.9a17.43,17.43,0,0,0,1.46,1.11l.88.58.56.36.16.11.18.08a5.66,5.66,0,0,1,.87.55,4.63,4.63,0,0,0-.46.59c-2.32,3.41-4.92,5.33-7.71,5.71s-5.75-.76-8.86-3.38c-12.15-10.23-24.57-20.82-36.93-31.48-3.19-2.75-4.9-5.62-5.08-8.52S81.88,380.66,84.79,377.45ZM122,444.13a8.67,8.67,0,0,1-7.14,2.09c-5.52-.73-10.44-3.56-14.62-6.17a100.58,100.58,0,0,1-10.92-7.45c-2-1.14-4-2.44-5.87-3.6a22.08,22.08,0,0,1-5.74-4.58l-.76-.49a41.65,41.65,0,0,1-2.23-6,31.91,31.91,0,0,1-1.45-8.81c0-3.38,1.13-5.9,3.37-7.72,2-1.65,2.24-1.64,4.25.05l3.85,3.24c9.26,7.78,18.79,15.8,28.22,23.76l.69.5c1.5,1.08,3.11,1.94,4.7,2.86,2,1.17,4.48,2.37,5.58,4.41.44.18.6.33.65,1.37A8.16,8.16,0,0,1,122,444.13ZM247.36,705.91c-27.43,14.69-51.49,21.36-71.51,19.84-14.28-1.08-21.6-6.08-23.46-7.54-30.83-49.09-27.47-138-17.66-185.86l.4-1.93,1.06-.74c3.69-2.54,4.19-5.17,1.66-8.85-3.47-5-7-10.05-10.43-15.1l.74-.77a61.71,61.71,0,0,0,26.08,5.49c1,0,2,0,3-.06,13.29-.53,23.37-4.71,30.79-12.79a20.13,20.13,0,0,1,7.61-5.31c1.17-.46,2.4-.89,3.58-1.31s2.56-.91,3.85-1.41A70,70,0,0,0,216,483l3.51,26.23c3.09,22.59,6.27,38.74,9.45,48a227.6,227.6,0,0,1,11.85,59.93c1.33,24-1.8,45.05-9.27,62.71a9.15,9.15,0,0,0,1,1.14,8.59,8.59,0,0,0,3,1.76l6.73-8.49.11-.27c.1-.21.18-.42.27-.63l.18-.63c2.14,7.5,5.28,18.34,7,25.18a1,1,0,0,1,.25,1c.37,1.45.76,2.9,1.17,4.36ZM390.06,95.62l8.28-6.34a96.39,96.39,0,0,0,7.56,9.09c7,7.12,16.33,11.83,27.69,14,10,1.9,21.44,1.76,33.19-.4,10.47-1.92,21-5.1,31.19-8.18,11.84-3.57,24.07-7.26,36.64-9.17,6.64-1,15.38-1.86,24,.54,9.22,2.57,16.75,8.8,20.12,16.65l-9.58,4.12c-2.15-5-7.13-9-13.34-10.72-6.69-1.86-14-1.12-19.61-.27-11.82,1.79-23.7,5.38-35.18,8.84-10.47,3.16-21.29,6.43-32.32,8.45a112.11,112.11,0,0,1-20.27,1.9,90.29,90.29,0,0,1-16.75-1.5c-13.49-2.56-24.66-8.26-33.19-16.92A105.45,105.45,0,0,1,390.06,95.62Zm-6.5,324.68c3.67-17.78,2.77-61.53-6-85.5-7.81-21.4-.64-39.28,5.12-53.66l.48-1.21c3.53-8.83,1.63-19.48-1-30.15,10.1-.77,35.88,0,51.24,25.5,0,0,2-33.6-55.52-43a27.93,27.93,0,0,1-.56-9.1c.53-3.18,2.56-9.85,9.18-23.55l12.91-26.89c10.59,8.83,24.79,15.82,42.47,20.86,27,7.69,54.13,10.19,81.19,10.19,22.4,0,44.71-1.71,66.73-3.61l-14,59.38,4.46,1c7.48,1.78,18,6.63,17.51,10.77-1.22,9.78-12.11,40.66-12.22,41l-1.1,3.13,15.11,11.33c-.34,1.87-.49,3.11-.52,3.4l-.25,2.29,8.84.86.58.05h.08l.59-4.38c1-5.67,4.62-20.94,14.37-26.3,4.86-2.66,10.95-2.52,18.12.42,6.76,2.78,14,9.67,10.26,26.71-2.41,10.82-9.18,23.29-17.31,31.88l-.3.14-.26.48c-7.21,9-14.06,10.28-23.4,9.45-8.06-.72-9.82-8.31-9.89-8.62l-1.92-9.11-2.5,9a11.63,11.63,0,0,0,2.41,10.17,16.4,16.4,0,0,0,7.08,4.79c-7.24,14-30.65,63-29.69,110.59-8.35,9.43-21.1,17.74-35.25,22.83a94,94,0,0,1-51.07,3.72c-28.31-5.93-40.91-22.82-46-32.84,14.95,4,31.57,6.87,47.49,6.87,11.07,0,20.5-1.3,28-3.86,45.2-15.39,74.66-91.84,75.89-95.08l.08-.21,1-5.79-4.38-1.19c-10.35,27.29-44.6,81.41-76,92.11-6.45,2.19-14.69,3.3-24.51,3.3h0c-37,0-77.69-16.71-88.41-23.68C387.71,445.18,381,432.92,383.56,420.3Zm424.69,428c-7.71,1.58-15,3.1-22,4.58-74.33,15.61-108.54,22.79-186-19.88,1.26-2.14,2.49-4.4,3.66-6.78,4.69-9.47,6.28-20.22,6.18-25.25-2.38-.76-2.4-1.11-4.65-1.71a15.93,15.93,0,0,0-6.81-.64l.09.91c.57,6.14-.73,12.64-3.88,19.3-3.44,7.27-7.88,15.56-14.75,21.9-4.34,4-9.71,7.23-16.89,10.12-18.26,7.37-37.44,9.53-55.44,10.77-2,.14-4.09.35-6.07.56-5.34.55-10.38,1.08-15.37.29-6-1-9.83-1.86-11.7-6.32a8.9,8.9,0,0,0-1.67-2.5l31.55-5.56-1.58-9-38.2,6.73v0a8.72,8.72,0,0,1-7.91-4.58c-1.92-3.43-3.63-6.83-3.78-10.47,0-.33,0-.65,0-1a11.86,11.86,0,0,1,.18-1.66,6.89,6.89,0,0,1,5.74-6c3-.63,7.62-1.72,12.23-2.9l33.79-6-1.58-9L468,810.68c-.83.09-1.65.16-2.41.22a52.35,52.35,0,0,1-13.37-.63c-8-1.48-11.26-4.94-11.71-12.34-.46-7.71,1.28-12,6-15,2-1.23,4.31-1.33,7-1.46.91,0,1.84-.08,2.8-.17,1.86-.18,3.72-.33,5.59-.48,3.41-.28,6.95-.57,10.46-1l8.95-1.09,14.16-1.32,0-.39.18,0-.18,0-.81-8.61-36.13,3.36c-1.48-.06-3-.09-4.64-.11-6.08-.07-10.8-2.36-14.86-7.2s-2.09-13.83,1.19-17.28c6-6.27,14-8.16,21.87-9.27,6.88-1,13.74-.68,21-.38l1.95.08a108.52,108.52,0,0,0,15.89-.93c1.73-.19,3.52-.38,5.26-.54l2.25-.21a193.38,193.38,0,0,0,23.15-3c4-.85,10.72-2.28,12.37-9.88a12,12,0,0,0-.29-6.58,41.54,41.54,0,0,0-5.74-4.28l-1.14,3c-.16.4-.3.81-.45,1.21-.29.82-.55,1.53-.82,2.13-1.79-1.33-2.57-2.24-4.71-7.47-2.3-5.6-3.62-11.77-5.19-17.69A122,122,0,0,1,522.4,679a44.23,44.23,0,0,1-1.28-11.54,65.7,65.7,0,0,1,2.66-16.18c2.78-9.59,11.21-21.12,22.67-21.79a1.62,1.62,0,0,1,.59.08,7.94,7.94,0,0,1,.85,0,9.47,9.47,0,0,1,6.46,3.46,9,9,0,0,1,2,2.69c1.91,2.85,2.68,6.71,3,10.54,1.63,7.89,1.56,16.37,1.82,24.33.3,9.66.4,19.35,1.45,29,.31,2.85.7,5.69,1.15,8.53a86.2,86.2,0,0,0,10.47,23.5,104.29,104.29,0,0,0,6.41,8.75c2,2.52,3.88,4.91,5.56,7.47a60.32,60.32,0,0,1,6.44,13c2.06,4.25,3.52,5.35,6.06,4.29l0,.06c26.31-13.06,51.74-18.37,77.75-16.23,24.52,2,49.71,10.71,77,26.56l5.72-9.85c-24.42-14.18-47.77-23-70.61-26.66a3.2,3.2,0,0,0-.37.19l-.37-.31h-.07l0,0c-38.25-31-19.57-93.09-18.72-95.81l.07-.17,2.91-5.74,3.83.76a165.06,165.06,0,0,0-3.36,40.1c.7,15.93,9.87,37.89,23.8,52.61l84.49-81.8c15.18,13,21.39,34.46,26,53.69C816.91,744.25,825.21,803.15,808.25,848.34Z" transform="translate(-12.67 -6.38)"/><path class="cls-2" d="M316.36,689.9h0c4-15.35,5.36-33,1.63-48.37l-2,.49a95.08,95.08,0,0,1-.33,45.91.31.31,0,0,1,0,.08Z" transform="translate(-12.67 -6.38)"/><path class="cls-2" d="M431.65,122.61a90.29,90.29,0,0,0,16.75,1.5,112.11,112.11,0,0,0,20.27-1.9c11-2,21.85-5.29,32.32-8.45,11.48-3.46,23.36-7.05,35.18-8.84,5.62-.85,12.92-1.59,19.61.27,6.21,1.73,11.19,5.74,13.34,10.72l9.58-4.12c-3.37-7.85-10.9-14.08-20.12-16.65-8.59-2.4-17.33-1.55-24-.54-12.57,1.91-24.8,5.6-36.64,9.17-10.19,3.08-20.72,6.26-31.19,8.18-11.75,2.16-23.22,2.3-33.19.4-11.36-2.15-20.68-6.86-27.69-14a96.39,96.39,0,0,1-7.56-9.09l-8.28,6.34a105.45,105.45,0,0,0,8.4,10.07C407,114.35,418.16,120.05,431.65,122.61Z" transform="translate(-12.67 -6.38)"/><path class="cls-2" d="M687.82,738.93l0,0h.07l.37.31a3.2,3.2,0,0,1,.37-.19c22.84,3.61,46.19,12.48,70.61,26.66l-5.72,9.85c-27.29-15.85-52.48-24.54-77-26.56-26-2.14-51.44,3.17-77.75,16.23l0-.06c-2.54,1.06-4,0-6.06-4.29a60.32,60.32,0,0,0-6.44-13c-1.68-2.56-3.57-4.95-5.56-7.47a104.29,104.29,0,0,1-6.41-8.75,86.2,86.2,0,0,1-10.47-23.5c-.45-2.84-.84-5.68-1.15-8.53-1-9.63-1.15-19.32-1.45-29-.26-8-.19-16.44-1.82-24.33-.3-3.83-1.07-7.69-3-10.54a9,9,0,0,0-2-2.69,9.47,9.47,0,0,0-6.46-3.46,7.94,7.94,0,0,0-.85,0,1.62,1.62,0,0,0-.59-.08c-11.46.67-19.89,12.2-22.67,21.79a65.78,65.78,0,0,0-2.66,16.18A44.23,44.23,0,0,0,522.4,679a122,122,0,0,0,3.13,14.32c1.57,5.92,2.89,12.09,5.19,17.69,2.14,5.23,2.92,6.14,4.71,7.47.27-.6.53-1.31.82-2.13.15-.4.29-.81.45-1.21l1.14-3a41.54,41.54,0,0,1,5.74,4.28,12,12,0,0,1,.29,6.58c-1.65,7.6-8.36,9-12.37,9.88a193.38,193.38,0,0,1-23.15,3l-2.25.21c-1.74.16-3.53.35-5.26.54a108.52,108.52,0,0,1-15.89.93L483,737.5c-7.26-.3-14.12-.59-21,.38-7.84,1.11-15.91,3-21.87,9.27-3.28,3.45-5.26,12.43-1.19,17.28s8.78,7.13,14.86,7.2c1.61,0,3.16,0,4.64.11l36.13-3.36.81,8.61.18,0-.18,0,0,.39-14.16,1.32-8.95,1.09c-3.51.43-7.05.72-10.46,1-1.87.15-3.73.3-5.59.48-1,.09-1.89.13-2.8.17-2.68.13-5,.23-7,1.46-4.73,2.92-6.47,7.26-6,15,.45,7.4,3.73,10.86,11.71,12.34a52.35,52.35,0,0,0,13.37.63c.76-.06,1.58-.13,2.41-.22l35.45-6.24,1.58,9-33.79,6c-4.61,1.18-9.23,2.27-12.23,2.9a6.89,6.89,0,0,0-5.74,6,11.86,11.86,0,0,0-.18,1.66c.17.35.33.7.51,1.05l-.51-.07c.15,3.64,1.86,7,3.78,10.47a8.72,8.72,0,0,0,7.91,4.58v0l38.2-6.73,1.58,9L473,853.69a8.9,8.9,0,0,1,1.67,2.5c1.87,4.46,5.67,5.36,11.7,6.32,5,.79,10,.26,15.37-.29,2-.21,4-.42,6.07-.56,18-1.24,37.18-3.4,55.44-10.77,7.18-2.89,12.55-6.11,16.89-10.12,6.87-6.34,11.31-14.63,14.75-21.9,3.15-6.66,4.45-13.16,3.88-19.3l-.09-.91a15.93,15.93,0,0,1,6.81.64c2.25.6,2.27,1,4.65,1.71.1,5-1.49,15.78-6.18,25.25-1.17,2.38-2.4,4.64-3.66,6.78,77.42,42.67,111.63,35.49,186,19.88,7-1.48,14.32-3,22-4.58,17-45.19,8.66-104.09-1.39-145.77-4.63-19.23-10.84-40.7-26-53.69l-84.49,81.8c-13.93-14.72-23.1-36.68-23.8-52.61a165.06,165.06,0,0,1,3.36-40.1l-3.83-.76L669.17,643l-.07.17C668.25,645.84,649.57,707.93,687.82,738.93Z" transform="translate(-12.67 -6.38)"/></svg>