<svg xmlns="http://www.w3.org/2000/svg" viewBox="0 0 16 16"><defs><style>.e9b117e8-e9b8-4d90-a4fc-dab00a819467{fill:#121230;}</style></defs><title>lightning-icons-4-export</title><g id="5a239ad3-03d0-469c-a1bc-62e60b7c8e00" data-name="icons"><path class="e9b117e8-e9b8-4d90-a4fc-dab00a819467" d="M8,1a4,4,0,1,0,4,4A4,4,0,0,0,8,1ZM8,7a2,2,0,1,1,2-2A2,2,0,0,1,8,7Z"/><path class="e9b117e8-e9b8-4d90-a4fc-dab00a819467" d="M4,16a1,1,0,0,0,1-1V14a2,2,0,0,1,2-2H9a2,2,0,0,1,2,2v1a1,1,0,0,0,2,0V14a4,4,0,0,0-4-4H7a4,4,0,0,0-4,4v1A1,1,0,0,0,4,16Z"/></g></svg>