<svg xmlns="http://www.w3.org/2000/svg" viewBox="0 0 16 16"><defs><style>.\39 4388866-f962-4369-87ec-a8a04456da9c{fill:#121230;}</style></defs><title>lightning-icons-4-export</title><g id="e23ac295-1862-46f8-a705-1c1ab4ebb0a6" data-name="icons"><path class="94388866-f962-4369-87ec-a8a04456da9c" d="M4.62,10.92A.84.84,0,0,0,5,11a1,1,0,0,0,.71-.29L7.41,9H11a1,1,0,0,0,1-1V4a1,1,0,0,0-1-1H5A1,1,0,0,0,4,4v6A1,1,0,0,0,4.62,10.92ZM6,5h4V7H6Z"/><path class="94388866-f962-4369-87ec-a8a04456da9c" d="M15,0H1A1,1,0,0,0,0,1V13a1,1,0,0,0,1,1H2v1a1,1,0,0,0,2,0V14h8v1a1,1,0,0,0,2,0V14h1a1,1,0,0,0,1-1V1A1,1,0,0,0,15,0ZM14,12H2V2H14Z"/></g></svg>