<svg xmlns="http://www.w3.org/2000/svg" viewBox="0 0 361.22 260.32"><defs><style>.cls-1{fill:#fff;}</style></defs><title>Asset 6</title><g id="Layer_2" data-name="Layer 2"><g id="Arm"><path class="cls-1" d="M272.38,256.16c-32.48-1.43-63.33-12.75-106.47-39.06L162.39,215l2.25-3.45c1.31-2,2.59-4.15,3.8-6.36a59.82,59.82,0,0,0,6.59-20.5,10,10,0,0,0-1.57-.62c-.6-.18-1.09-.33-1.55-.45a42.6,42.6,0,0,1-5.17,17.59c-3.93,7.45-9,15.94-16.65,22.41-4.89,4.14-10.79,7.34-18.57,10.09-19.08,6.75-38.72,8.09-57.09,8.55-2,0-4,.17-6,.28a97.93,97.93,0,0,1-10.29.26,37.77,37.77,0,0,1-6.11-.72c-5.54-1.13-11.81-2.41-14.37-9.36a4.84,4.84,0,0,0-.87-1.39l-4.68-5.59,35-4.59L67,220l-30.55,4,.08.61-4.59,0h-.39a12.83,12.83,0,0,1-10.85-7.12C18.85,213.69,17,209.61,17,205l0-4.79.68.12a10.74,10.74,0,0,1,8.94-7.61c3.17-.53,7.83-1.42,12.17-2.33l.15,0,30.21-3.95-.15-1.1-31.87,4.18H37l-2.51.11c-1.57.05-3.13,0-4.65,0a53.64,53.64,0,0,1-9.71-1.29c-9.7-2.25-14.1-7.39-14.25-16.68-.1-6.17.8-13.82,8.7-18.24,2.95-1.65,6-1.65,9-1.66.85,0,1.72,0,2.61-.05,1.82-.09,3.63-.16,5.45-.23h.2c3.39-.13,6.89-.26,10.34-.53l9.1-.7,10.2-.5v-.28h0l0-.81-32.51,1.59-.26,0c-1.45-.11-3-.22-4.53-.31a22.54,22.54,0,0,1-17.48-9.4C1.3,133.48,4.53,122.29,9,118c7.1-6.85,16-8.57,24.64-9.4A78.73,78.73,0,0,1,45,108.35c3.43.15,6.8.44,10.36.74l1.95.17c.72.06,1.45.1,2.17.14A122.47,122.47,0,0,0,72.64,109c1.77-.11,3.59-.23,5.36-.31l2.26-.11a190.42,190.42,0,0,0,22.79-1.95c4.67-.78,8.35-1.75,9.58-6.4a8.56,8.56,0,0,0,.24-3.45l-.29-.26c-.26.62-.49,1.15-.73,1.64l-2.22,4.52-3.9-3.19c-2.57-2.09-3.61-3.85-5.61-9.41A107.72,107.72,0,0,1,96.4,75.64c-.28-1.32-.55-2.64-.84-3.94A126.2,126.2,0,0,1,93,57a48.32,48.32,0,0,1-.79-12.45,68.38,68.38,0,0,1,3.57-17C99.57,16.3,109.74,4.18,123.12,4h.32a4.82,4.82,0,0,1,1,.14c.24,0,.48,0,.71.07A13.47,13.47,0,0,1,134,9.3a12.75,12.75,0,0,1,2.44,3.57c1.78,3,2.74,7,2.93,12.1,1.09,6.93,1,14,.83,20.91,0,1.31-.05,2.62-.07,3.9,0,1.78-.05,3.55-.08,5.32-.12,7.7-.25,15.66.25,23.4.17,2.6.41,5.34.73,8.16a82.48,82.48,0,0,0,9,22.62,102.2,102.2,0,0,0,5.8,8.67c1.93,2.68,3.75,5.21,5.41,8a64.62,64.62,0,0,1,6.19,14,15.74,15.74,0,0,0,1,2.07l.4-.14c23.33-10.19,45.63-14.66,68.12-13.67,3.79.17,7.64.5,11.45,1,23.72,3,58,17.88,77.44,30.53,15.15,9.86,29.15,52.79,25.33,74-1.26,7,.43,8.33-6.9,10C311.79,251,296.42,257.21,272.38,256.16Z"/><path d="M353.08,241.73c-31.85,7.16-56.55,11.49-80.34,10.44-31.56-1.39-61.53-12.23-104.56-38.48,1.35-2.09,2.67-4.28,3.95-6.61,5.1-9.25,7.16-19.93,7.29-25-2.34-.86-2.35-1.21-4.58-1.9a17,17,0,0,0-4.68-1c-.62,0-1.3,0-2.09,0,0,.31,0,.61.05.91.3,6.17-1.29,12.6-4.73,19.12-3.75,7.11-8.55,15.19-15.69,21.23-4.52,3.81-10,6.79-17.32,9.37-18.57,6.56-37.82,7.87-55.87,8.32-2,.05-4.1.17-6.08.29a97.34,97.34,0,0,1-9.88.26,36.08,36.08,0,0,1-5.49-.65c-6-1.22-9.74-2.29-11.41-6.83a8.81,8.81,0,0,0-1.56-2.57l31.77-4.16-1.19-9-38.46,5v0H32a8.71,8.71,0,0,1-7.44-4.91c-1.77-3.52-3.32-7-3.31-10.63l.5.09c-.16-.35-.31-.71-.46-1.07a10.81,10.81,0,0,1,.25-1.65,6.88,6.88,0,0,1,6-5.72c3-.5,7.69-1.38,12.34-2.36l34-4.46-1.18-9L37,185.54l-2.42.11c-1.47,0-2.93,0-4.35,0a50.27,50.27,0,0,1-9-1.19c-7.91-1.83-11-5.43-11.15-12.84-.12-7.72,1.8-12,6.65-14.69,2.05-1.14,4.37-1.15,7.06-1.15.9,0,1.84,0,2.8-.05,1.86-.1,3.73-.17,5.6-.24,3.43-.13,7-.26,10.5-.53l9-.7,14.21-.69,0-.4H66l-.18,0-.42-8.65-36.25,1.78c-1.48-.13-3-.23-4.63-.32A18.55,18.55,0,0,1,10,138.06c-3.86-5-1.48-13.91,2-17.21,6.22-6,14.38-7.54,22.26-8.3a76.26,76.26,0,0,1,10.8-.2c3.34.15,6.72.44,10.19.73l2,.17q1.17.1,2.34.15A124.65,124.65,0,0,0,73.09,113c1.74-.11,3.53-.23,5.28-.31l2.26-.1a196.67,196.67,0,0,0,23.26-2c4-.68,10.81-1.81,12.79-9.33a12,12,0,0,0,0-6.59,42.07,42.07,0,0,0-5.55-4.53l-1.27,3c-.17.4-.34.79-.5,1.19-.33.8-.62,1.5-.92,2.09-1.72-1.41-2.46-2.35-4.37-7.67-2-5.7-3.1-11.92-4.41-17.9a119.91,119.91,0,0,1-2.49-14.44,43.67,43.67,0,0,1-.77-11.59,65.27,65.27,0,0,1,3.36-16C103,19.32,111.89,8.16,123.36,8h.09a1.59,1.59,0,0,1,.5.11H124c.26,0,.52,0,.77.06a9.53,9.53,0,0,1,6.31,3.75,8.93,8.93,0,0,1,1.9,2.78c1.79,2.92,2.39,6.81,2.51,10.65,1.29,8,.85,16.43.75,24.39-.12,9.66-.45,19.35.18,29q.27,4.29.77,8.58a86.27,86.27,0,0,0,9.43,23.93,101.9,101.9,0,0,0,6,9c1.88,2.61,3.66,5.07,5.22,7.71a60.09,60.09,0,0,1,5.87,13.3c1.43,3.33,2.59,4.78,4.23,4.85a4.08,4.08,0,0,0,1.63-.3l0,.06c23-10.19,45.13-14.72,67.26-13.75q5.57.26,11.12,1c24,3,56.89,17.88,74.8,29.3l6.23-5.46-.9-.62c-19.54-12.72-53.91-28-79.12-31.15-3.91-.5-7.87-.84-11.77-1-22.05-1-43.87,3.15-66.57,12.58a69.56,69.56,0,0,0-5.93-12.84c-1.75-2.93-3.62-5.53-5.6-8.29a99.14,99.14,0,0,1-5.58-8.33A78.14,78.14,0,0,1,145.12,86c-.3-2.68-.53-5.28-.69-7.74-.49-7.58-.37-15.11-.24-23.08,0-1.77.06-3.55.08-5.33,0-1.28,0-2.58.06-3.88.14-7,.27-14.18-.83-21.38-.24-5.56-1.35-10-3.37-13.54a16.69,16.69,0,0,0-3-4.35A17.45,17.45,0,0,0,125.9.26l-.67-.08A9.66,9.66,0,0,0,123.81,0h-.57c-15.31.22-26.83,13.74-31,26.21a72.5,72.5,0,0,0-3.77,18,52.24,52.24,0,0,0,.82,13.31,128.87,128.87,0,0,0,2.6,15c.29,1.29.56,2.6.83,3.9a108.87,108.87,0,0,0,3.87,15c2.08,5.79,3.43,8.35,6.8,11.12l-.77.13a188.77,188.77,0,0,1-22.3,1.91l-2.27.1c-1.84.09-3.74.21-5.43.32a120.33,120.33,0,0,1-12.7.37c-.69,0-1.37-.08-2-.13l-1.94-.17c-3.45-.29-7-.6-10.52-.75a82.23,82.23,0,0,0-11.93.23c-8.87.85-19,2.78-27,10.5C.64,120.66-3.2,134,3.68,142.92A28.38,28.38,0,0,0,12,150.41C2.91,156,2,165.19,2.08,171.71c.17,10.94,5.64,17.6,16.71,20.36a14.38,14.38,0,0,0-3.25,3.81l-2.31-.42,0,8.77-.09,1.15.09.23c.13,5.21,2.21,9.78,4.16,13.66a16.89,16.89,0,0,0,12,9.07L34,233.86a2.63,2.63,0,0,1,.21.28c3.35,9,11.41,10.62,17.29,11.82a43.52,43.52,0,0,0,6.74.8,102.33,102.33,0,0,0,10.7-.27c1.92-.11,3.9-.23,5.81-.28,18.71-.46,38.72-1.84,58.33-8.77,8.25-2.91,14.54-6.34,19.82-10.8a58.26,58.26,0,0,0,7.84-8.14l3.31,2c43.77,26.69,75.17,38.18,108.38,39.64,24.48,1.08,49.69-3.27,82.44-10.62a23.71,23.71,0,0,0,6.39-2.4Z"/></g></g></svg>