<svg xmlns="http://www.w3.org/2000/svg" xmlns:xlink="http://www.w3.org/1999/xlink" width="3000" height="3000" viewBox="0 0 3000 3000"><defs><style>.a{fill:url(#a);}.b,.c{fill:#fff;}.b{fill-opacity:0.05;}.d{fill:#e57825;}.e{fill:#fbed26;}.f{fill:#a5ce39;}.g{fill:#cdde61;}.h{fill:#2691d0;}.i{fill:#70cddd;}.j{fill:#f16150;}.k{fill:#d53742;}.l{fill:#52c6db;}.m{fill:#2c9db9;}</style><linearGradient id="a" x1="1376.66" y1="5830.36" x2="1376.66" y2="2830.36" gradientTransform="matrix(1, 0, 0, -1, 123.34, 5830.36)" gradientUnits="userSpaceOnUse"><stop offset="0.09" stop-color="#0e0f1f"/><stop offset="1" stop-color="#075d77"/></linearGradient></defs><title>main-bg</title><path class="a" d="M1231.4,0H3000V3000H0V0H1231.4Z"/><path class="b" d="M1024.2,368.06c-114-32.9-139.8-118.6-232.5-156.4-84.1-34.3-193.9-17-211,24.8C559.2,289,697,349,691.8,469.46c-0.4,8.5-4.2,72.9-54.7,112.8-33.4,26.3-90.4,44.5-123.8,21.3-35.5-24.7-13-74.3-47.5-103.5-43.8-37-145.2-11.9-153.7,24.6-9.5,40.8,107.4,54,162,168.9,27.1,57.1,11.9,82.4,53.5,175.9,24,53.9,45.5,102.1,75.1,102.3,35.8,0.2,79-69.3,67.9-125.1-10-50.1-57.6-56.8-56.2-95.3,1.5-42.3,60.7-88.5,115.3-83.2,28.3,2.8,47.7,18.6,58.5,27.4,41.5,33.8,54.6,84.7,62,114.6,12,48.9,3.3,65,18.6,77,27.7,21.9,98.6,2.3,113.7-36.5,19-48.5-62.6-92.8-45.9-150.1,14.8-50.9,87.8-46.9,96.6-94.4,7.1-38.5-32.5-86.2-75-106.5-63-30.1-106.1,12.7-154.3-20-35.8-24.3-56.7-78.4-38.8-107.4,22.6-36.6,99.5-21,104.7-19.8,38.7,8.3,45.3,24.7,120.8,67.7,45.3,25.8,68,38.7,87.8,41.1,47.1,5.8,68.8-20.7,146.3-58.8,116.8-57.3,165.1-45,179-85.3,10.4-30.1-8.2-61.3-44.7-122.5-28.1-47.2-56.4-75.9-91.8-111.3-54.4-54.5-82.3-81.8-116.2-80.3-27.4,1.2-63.6,18.2-69.4,44.4-11.5,52,106.6,96.8,94.8,149.6-6.3,28.3-41.4,21.5-63.7,63.7-24.1,45.4-.3,85.2-24.8,105.3C1073,378.26,1049.5,375.36,1024.2,368.06Z"/><path class="b" d="M2607.5,881.8C2573.8,960,2326.1,1074,2326.1,1074l-47.5.8c-59.7-11.4-51-33.1-83.9-84.9-83.2-131-206.2,26.3-106,31.9,41.3,2.3,55.9,46.5-21.3,67.1-78.4,20.9-129.5,131-15.4,144.4,73.9,8.7,162.4,150.6,107.9,218.6-24.7,30.9-114,75.9-148,55.8-28.9-17.1-19.8-64.1-29.8-96.2-62.3-112.7-100.2-80.9-226.4-113-318.8-81.1-83.1-432.7-5.8-234.6,31.9,81.7,130.6,81.8,121.1-87.1-9.6-171.6,178.3-347.3,280.7-126.3,66.2,143,255.8-124.4,439.6-142.4,18.4-1.8,59,15.8,66.2,32.8C2672,775.2,2623.6,844.4,2607.5,881.8Z"/><path class="b" d="M533.7,1355.7c-61.5,62.5-98,249.3-63,345.1,5.7,15.7,115.9,131.6,130.6,139.6,63.8,21.7,132.1-51.9,198.3-70.9,167.3-48.2,175.8,119.8,77.9,74.1-40.4-18.8-84.2,4.1-25.7,56.3,59.4,52.9,32.5,153.2-83.8,106-75.3-30.5-101.8,83.4-149.1,148.3,0,0-28.4,112.9,0,127.1,29.7,14.9,53.1-39.9,79.7-59.8,115.3-54.1,127.3-6.6,246.9,40.9,302.4,120.1,317.7-298.3,140.8-184.6-73,47-152.1-10.3-46.4-140.1,107.3-131.9,58.8-381.7-151.5-264.1-136,76.1-184-207.8-269.4-369.3,0,0-34-28.2-46.1-23.6-19.9,7.6-23,58.6-39.2,75h0Z"/><path class="c" d="M1549.8,146.8l-2,22.9,20.8,9.7-22.9-2-9.7,20.8,2-22.9-20.8-9.7,22.9,2,9.7-20.8h0Z"/><path class="c" d="M2548.9,1251.1l12.3,43.7,45.3,3.4-43.7,12.3-3.4,45.3-12.3-43.7-45.3-3.4,43.7-12.3Z"/><path class="c" d="M2173.3,2624.9l-6.3,44.9,40.1,21.3-44.9-6.3-21.3,40.1,6.3-44.9-40.1-21.3,44.9,6.3Z"/><path class="c" d="M708.6,2026.9l-6.3,45,40.1,21.3-44.9-6.3L676.2,2127l6.3-44.9-40.1-21.3,44.9,6.3,21.3-40.2h0Z"/><path class="d" d="M916.9,101.1l16.7,51.2,52.7-11.2L935,157.8l11.2,52.7-16.7-51.2-52.7,11.2L928,153.9l-11.1-52.8h0Z"/><circle class="d" cx="931.57" cy="155.81" r="21" transform="translate(-8.58 246.41) rotate(-15)"/><circle class="e" cx="931.57" cy="155.81" r="16.7" transform="translate(-8.59 246.41) rotate(-15)"/><circle class="c" cx="931.57" cy="155.81" r="11.4" transform="translate(-8.59 246.41) rotate(-15)"/><path class="d" d="M837.5,2730.8l1.7,54.7,54.5,4.1-54.7,1.6-4.1,54.6-1.7-54.7-54.5-4.1,54.7-1.6Z"/><circle class="d" cx="836.46" cy="2788.3" r="21.3" transform="translate(-1969.83 3562.26) rotate(-88.72)"/><circle class="e" cx="836.46" cy="2788.3" r="16.9" transform="translate(-1969.83 3562.26) rotate(-88.72)"/><circle class="c" cx="836.46" cy="2788.3" r="11.6" transform="translate(-1969.83 3562.26) rotate(-88.72)"/><path class="d" d="M2389.6,1969.2l1.7,54.9,54.8,4.1-54.9,1.7-4.1,54.8-1.6-54.9-54.8-4.1,54.9-1.7Z"/><circle class="d" cx="2388.46" cy="2026.84" r="21.4" transform="translate(308.77 4369.43) rotate(-88.72)"/><circle class="e" cx="2388.46" cy="2026.94" r="17" transform="translate(308.67 4369.52) rotate(-88.72)"/><ellipse class="c" cx="2388.56" cy="2026.98" rx="11.6" ry="11.7" transform="translate(308.73 4369.66) rotate(-88.72)"/><path class="d" d="M949,1875l0.8,27.3,27.2,2-27.3.8-2,27.2-0.8-27.3-27.2-2,27.3-.8Z"/><circle class="d" cx="948.45" cy="1903.67" r="10.6" transform="translate(-975.93 2809.37) rotate(-88.72)"/><ellipse class="e" cx="948.45" cy="1903.67" rx="8.5" ry="8.4" transform="translate(-975.93 2809.37) rotate(-88.72)"/><circle class="c" cx="948.47" cy="1903.67" r="5.8" transform="translate(-975.91 2809.39) rotate(-88.72)"/><path class="f" d="M2157.4,853.1l-31.3,19.3,15.9,33.1-19.3-31.3-33.1,16,31.3-19.3L2105,837.8l19.3,31.3Z"/><circle class="f" cx="2123.53" cy="871.87" r="14.3" transform="translate(-157.73 1127.6) rotate(-28.72)"/><circle class="g" cx="2123.53" cy="871.87" r="11.4" transform="translate(-157.73 1127.6) rotate(-28.72)"/><circle class="c" cx="2123.53" cy="871.87" r="7.8" transform="translate(-157.73 1127.59) rotate(-28.72)"/><path class="h" d="M504.3,1333.8l-17,52.3-53.8-11.4,52.3,17-11.4,53.8,17-52.3,53.8,11.4-52.3-17,11.4-53.8h0Z"/><circle class="h" cx="489.35" cy="1389.54" r="21.4" transform="translate(-979.49 1502.6) rotate(-75)"/><circle class="i" cx="489.37" cy="1389.51" r="17" transform="translate(-979.45 1502.6) rotate(-75)"/><circle class="c" cx="489.37" cy="1389.53" r="11.6" transform="translate(-979.47 1502.6) rotate(-75)"/><path class="h" d="M2276.8,353.3l-30.7,94.3-97-20.6,94.3,30.7-20.6,97,30.7-94.3,97,20.6-94.3-30.7,20.6-97h0Z"/><circle class="h" cx="2249.75" cy="454.05" r="38.6" transform="translate(1228.92 2509.64) rotate(-75)"/><circle class="i" cx="2249.76" cy="454.09" r="30.7" transform="translate(1228.89 2509.67) rotate(-75)"/><circle class="c" cx="2249.75" cy="454.05" r="21" transform="translate(1228.92 2509.64) rotate(-75)"/><circle class="c" cx="1406.6" cy="214.9" r="6.4"/><circle class="c" cx="2157" cy="1295.7" r="15.4"/><circle class="c" cx="545.2" cy="2674.9" r="9.9"/><circle class="c" cx="893.7" cy="1046.8" r="7.6"/><circle class="c" cx="349.1" cy="353.3" r="7.5"/><circle class="c" cx="788.5" cy="1257.2" r="15.6"/><path class="c" d="M2126.2,1886.3a16.3,16.3,0,0,1,4.6-22.6,16,16,0,0,1,12.4-2.3l10.3-18.5,12.8-22.9-10.7,24-8.4,18.9a15.3,15.3,0,0,1,4.1,3.1l28.9-17.2,30.2-18-28.4,20.7-27.2,19.8a14.73,14.73,0,0,1,1.1,4.6l30.2-.4,35.1-.5-34.9,3.7-30.9,3.3a16.28,16.28,0,0,1-20.1,11.3,18.74,18.74,0,0,1-9.1-7h0Z"/><circle class="j" cx="2023.4" cy="214.6" r="91.6"/><path class="k" d="M2065.3,133.1a91.64,91.64,0,1,1-110.1,142.8,91.44,91.44,0,0,0,84.8-.6h-68a3.4,3.4,0,1,1,0-6.8h78.8a87.46,87.46,0,0,0,15.5-14.3H1988a3.4,3.4,0,1,1,0-6.8h83.6a92.23,92.23,0,0,0,8.2-13.9h-81.2a3.4,3.4,0,1,1,0-6.8h84.1a90.28,90.28,0,0,0,5.8-28.1h-90.9a3.4,3.4,0,1,1,0-6.8h91a87.4,87.4,0,0,0-1.9-16.1H1985.5a3.4,3.4,0,1,1,0-6.8H2085a88.28,88.28,0,0,0-19.7-35.8h0Zm-133.5,81.8v-0.2c0-2.2.1-4.4,0.2-6.5h90.3a3.4,3.4,0,1,1,0,6.8l-90.5-.1h0Zm24.9-63a91.59,91.59,0,0,1,7.1-6.8h38a3.4,3.4,0,1,1,0,6.8h-45.1Z"/><circle class="l" cx="683.4" cy="932.4" r="138.2"/><path class="m" d="M764.8,820.8a138.19,138.19,0,1,1-201.6,179.9A138.19,138.19,0,0,0,764.8,820.8Z"/><path class="b" d="M2069.9,1943.9c-105.7,14.4-341.8,327.3-225,486,91.9,125,368.9,108.6,426,9,45-78.4-57.4-188.7-9-237,15.6-15.6,41.3-19,273,21,107.1,18.5,142,26.2,171,3,51.1-40.9,46.2-147.4,15-162-26.1-12.2-53.4,48-126,54-7.4.6-65.3,4.5-108-36-48.3-45.7-55.2-127.3-24-174,32-47.9,81.7-25.6,120-72,43.5-52.7,37.7-152-12-219-39.9-53.9-113.7-94.3-189-78-78.4,16.9-115.9,86-123,99-27.4,50.4-25.8,99.8-24,153,3.5,105.8,37,142.7,9,195-15.5,29-45.3,53.9-63,48-21.2-7.1-10.9-53.2-42-78-22.9-18.3-54.5-14-69-12h0Z"/></svg>