<?xml version="1.0" encoding="UTF-8" standalone="no"?>
<!-- Generator: Adobe Illustrator 16.0.0, SVG Export Plug-In . SVG Version: 6.00 Build 0)  -->

<svg
   xmlns:dc="http://purl.org/dc/elements/1.1/"
   xmlns:cc="http://creativecommons.org/ns#"
   xmlns:rdf="http://www.w3.org/1999/02/22-rdf-syntax-ns#"
   xmlns:svg="http://www.w3.org/2000/svg"
   xmlns="http://www.w3.org/2000/svg"
   xmlns:sodipodi="http://sodipodi.sourceforge.net/DTD/sodipodi-0.dtd"
   xmlns:inkscape="http://www.inkscape.org/namespaces/inkscape"
   version="1.1"
   id="Capa_1"
   x="0px"
   y="0px"
   width="512px"
   height="512px"
   viewBox="-43.51 -43.51 512 512"
   enable-background="new -43.51 -43.51 512 512"
   xml:space="preserve"
   inkscape:version="0.91 r13725"
   sodipodi:docname="cost.svg"><metadata
     id="metadata39"><rdf:RDF><cc:Work
         rdf:about=""><dc:format>image/svg+xml</dc:format><dc:type
           rdf:resource="http://purl.org/dc/dcmitype/StillImage" /></cc:Work></rdf:RDF></metadata><defs
     id="defs37" /><sodipodi:namedview
     pagecolor="#ffffff"
     bordercolor="#666666"
     borderopacity="1"
     objecttolerance="10"
     gridtolerance="10"
     guidetolerance="10"
     inkscape:pageopacity="0"
     inkscape:pageshadow="2"
     inkscape:window-width="1920"
     inkscape:window-height="1033"
     id="namedview35"
     showgrid="false"
     inkscape:zoom="0.4609375"
     inkscape:cx="-13.016949"
     inkscape:cy="256"
     inkscape:window-x="-4"
     inkscape:window-y="-4"
     inkscape:window-maximized="1"
     inkscape:current-layer="Capa_1" /><g
     id="g3"
     transform="matrix(1.2033897,0,0,1.2033897,-43.218314,-43.218252)"><g
       id="g5"><g
         id="g7"><path
           d="m 238.608,275.571 c -1.434,-1.569 -3.249,-2.745 -5.123,-3.723 -4.083,-2.128 -8.547,-3.42 -12.98,-4.587 l 0,34.353 c 7.196,-0.814 15.455,-3.425 19.234,-10.143 l 0,0 c 1.804,-3.208 2.162,-7.151 1.428,-10.722 -0.4,-1.936 -1.223,-3.713 -2.559,-5.178 z"
           id="path9"
           inkscape:connector-curvature="0"
           style="fill:#1baf97" /></g><g
         id="g11"><path
           d="m 239.7,291.537 c 0.016,-0.025 0.022,-0.04 0.039,-0.065 l 0,0 c -0.014,0.021 -0.026,0.043 -0.039,0.065 z"
           id="path13"
           inkscape:connector-curvature="0"
           style="fill:#1baf97" /></g><g
         id="g15"><path
           d="m 186.755,220.66 c -1.236,1.807 -2.013,3.858 -2.227,6.039 -0.214,2.186 -0.094,4.618 0.736,6.676 0.791,1.961 2.447,3.407 4.156,4.574 1.918,1.304 4.028,2.322 6.177,3.188 1.803,0.726 3.831,1.418 6.016,2.089 l 0,-31.083 c -5.521,1.178 -11.554,3.693 -14.858,8.517 z"
           id="path17"
           inkscape:connector-curvature="0"
           style="fill:#1baf97" /></g><g
         id="g19"><path
           d="m 239.883,291.218 c -0.047,0.08 -0.095,0.164 -0.144,0.252 l 0,0 c 0.056,-0.103 0.1,-0.178 0.144,-0.252 z"
           id="path21"
           inkscape:connector-curvature="0"
           style="fill:#1baf97" /></g><g
         id="g23"><path
           d="m 240.061,290.896 c 0.014,-0.022 0.015,-0.025 0,0 l 0,0 z"
           id="path25"
           inkscape:connector-curvature="0"
           style="fill:#1baf97" /></g><g
         id="g27"><path
           d="m 232.606,104.042 c 29.211,-24.539 48.73,-79.822 36.72,-82.24 -15.961,-3.214 -50.62,10.879 -67.373,13.362 -23.76,2.869 -49.638,-25.766 -64.164,-9.805 -11.811,12.977 8.467,60.17 40.192,80.73 -94.651,46.52 -227.689,280.051 4.402,296.996 321.14,23.447 160.335,-253.71 50.223,-299.043 z m 27.579,184.175 c -0.986,9.104 -5.813,17.338 -13.024,22.927 -7.615,5.902 -17.168,8.647 -26.657,9.416 l 0,10.061 c 0,2.691 -1.175,5.294 -3.19,7.076 -2.769,2.45 -6.839,3.056 -10.201,1.506 -3.318,-1.525 -5.499,-4.931 -5.499,-8.582 l 0,-10.995 c -1.627,-0.31 -3.243,-0.678 -4.839,-1.114 -8.87,-2.438 -17.097,-7.188 -23.106,-14.216 -2.994,-3.503 -5.434,-7.477 -7.122,-11.768 -0.441,-1.121 -0.834,-2.263 -1.179,-3.418 -0.312,-1.046 -0.632,-2.108 -0.744,-3.198 -0.187,-1.827 0.175,-3.692 1.027,-5.321 1.751,-3.35 5.441,-5.372 9.209,-5.036 3.708,0.329 6.958,2.902 8.126,6.438 0.36,1.089 0.604,2.203 1.007,3.281 0.401,1.07 0.884,2.11 1.453,3.101 1.122,1.949 2.528,3.748 4.147,5.308 3.337,3.216 7.589,5.307 12.021,6.55 l 0,-37.375 c -8.666,-2.244 -17.612,-5.142 -24.768,-10.707 -3.478,-2.705 -6.429,-6.066 -8.362,-10.043 -2.039,-4.199 -2.884,-8.877 -2.918,-13.524 -0.035,-4.718 0.86,-9.394 2.829,-13.69 1.843,-4.026 4.497,-7.64 7.75,-10.635 6.957,-6.404 16.199,-9.976 25.469,-11.288 l 0,-0.822 0,-9.621 c 0,-2.691 1.175,-5.295 3.191,-7.077 2.77,-2.45 6.837,-3.055 10.2,-1.506 3.318,1.528 5.499,4.931 5.499,8.583 l 0,9.621 0,0.765 c 1.235,0.155 2.467,0.342 3.692,0.563 9.103,1.647 18.006,5.406 24.662,11.969 3.154,3.108 5.735,6.812 7.55,10.851 0.508,1.127 0.952,2.278 1.336,3.454 0.357,1.096 0.717,2.226 0.888,3.37 0.272,1.825 -0.007,3.712 -0.787,5.383 -1.602,3.423 -5.191,5.603 -8.971,5.441 -3.711,-0.163 -7.074,-2.58 -8.404,-6.048 -0.396,-1.033 -0.594,-2.125 -0.997,-3.154 -0.407,-1.041 -0.936,-2.035 -1.544,-2.975 -1.183,-1.825 -2.713,-3.39 -4.462,-4.679 -3.785,-2.796 -8.377,-4.252 -12.966,-5.066 l 0,35.765 c 5.453,1.306 10.909,2.73 16.133,4.789 7.896,3.114 15.381,7.889 19.689,15.418 -0.668,-1.173 -1.319,-2.315 0.022,0.038 1.316,2.314 0.688,1.211 0.026,0.052 3.433,6.041 4.561,13.268 3.814,20.132 z"
           id="path29"
           inkscape:connector-curvature="0"
           style="fill:#1baf97" /></g><g
         id="g31"><path
           d="m 239.599,291.714 c -0.055,0.099 -0.103,0.186 -0.141,0.252 0.033,-0.058 0.083,-0.144 0.141,-0.252 z"
           id="path33"
           inkscape:connector-curvature="0"
           style="fill:#1baf97" /></g></g></g></svg>