<svg xmlns="http://www.w3.org/2000/svg" viewBox="0 0 97.33 97.33"><defs><style>.cls-1{fill:#fab616;}.cls-2{fill:#fff;stroke-width:2px;}.cls-2,.cls-3{stroke:#231f20;stroke-miterlimit:10;}.cls-3{fill:none;}.cls-4{fill:#231f20;}</style></defs><title>Asset 17</title><g id="Layer_2" data-name="Layer 2"><g id="Layer_1-2" data-name="Layer 1"><g id="Details"><circle class="cls-1" cx="48.67" cy="48.67" r="48.67"/><rect class="cls-2" x="24.94" y="15.69" width="47.46" height="67.37" rx="5" ry="5"/><line class="cls-3" x1="41.91" y1="31" x2="66.97" y2="31"/><line class="cls-3" x1="41.91" y1="33.84" x2="66.97" y2="33.84"/><line class="cls-3" x1="41.91" y1="48.83" x2="66.97" y2="48.83"/><line class="cls-3" x1="41.91" y1="51.52" x2="66.97" y2="51.52"/><line class="cls-3" x1="41.91" y1="66.66" x2="66.97" y2="66.66"/><line class="cls-3" x1="41.91" y1="69.53" x2="66.97" y2="69.53"/><path class="cls-4" d="M37.19,33.42a3.45,3.45,0,0,1-1.2,1.2,3.24,3.24,0,0,1-1.66.44,3.3,3.3,0,0,1-1.66-.44,3.45,3.45,0,0,1-1.2-1.2,3.35,3.35,0,0,1,0-3.32,3.45,3.45,0,0,1,1.2-1.2,3.21,3.21,0,0,1,1.66-.45A3.16,3.16,0,0,1,36,28.9a3.45,3.45,0,0,1,1.2,1.2,3.29,3.29,0,0,1,0,3.32Zm-.64-2.36a.25.25,0,0,0-.07-.19l-.39-.39a.28.28,0,0,0-.2-.09.25.25,0,0,0-.19.09L34,32.22l-1-1a.25.25,0,0,0-.19-.08.26.26,0,0,0-.2.08l-.39.38a.28.28,0,0,0-.08.2.27.27,0,0,0,.08.19l1.56,1.56a.28.28,0,0,0,.2.08.27.27,0,0,0,.19-.08l2.34-2.33A.29.29,0,0,0,36.55,31.06Z"/><path class="cls-4" d="M37.19,51.5A3.45,3.45,0,0,1,36,52.7a3.24,3.24,0,0,1-1.66.44,3.3,3.3,0,0,1-1.66-.44,3.45,3.45,0,0,1-1.2-1.2,3.35,3.35,0,0,1,0-3.32,3.45,3.45,0,0,1,1.2-1.2,3.21,3.21,0,0,1,1.66-.45A3.16,3.16,0,0,1,36,47a3.45,3.45,0,0,1,1.2,1.2,3.29,3.29,0,0,1,0,3.32Zm-.64-2.36a.25.25,0,0,0-.07-.19l-.39-.39a.28.28,0,0,0-.2-.09.25.25,0,0,0-.19.09L34,50.3l-1-1a.28.28,0,0,0-.19-.07.29.29,0,0,0-.2.07l-.39.39a.28.28,0,0,0-.08.2.27.27,0,0,0,.08.19l1.56,1.56a.28.28,0,0,0,.2.08.27.27,0,0,0,.19-.08l2.34-2.34A.25.25,0,0,0,36.55,49.14Z"/><path class="cls-4" d="M37.19,69.58a3.45,3.45,0,0,1-1.2,1.2,3.24,3.24,0,0,1-1.66.44,3.3,3.3,0,0,1-1.66-.44,3.45,3.45,0,0,1-1.2-1.2A3.3,3.3,0,0,1,31,67.92a3.24,3.24,0,0,1,.44-1.66,3.45,3.45,0,0,1,1.2-1.2,3.21,3.21,0,0,1,1.66-.45,3.16,3.16,0,0,1,1.66.45,3.45,3.45,0,0,1,1.2,1.2,3.16,3.16,0,0,1,.45,1.66A3.21,3.21,0,0,1,37.19,69.58Zm-.64-2.36a.25.25,0,0,0-.07-.19l-.39-.39a.28.28,0,0,0-.2-.09.25.25,0,0,0-.19.09L34,68.38l-1-1a.28.28,0,0,0-.19-.07.29.29,0,0,0-.2.07l-.39.39a.27.27,0,0,0-.08.19.28.28,0,0,0,.08.2l1.56,1.56a.28.28,0,0,0,.2.08.27.27,0,0,0,.19-.08l2.34-2.34A.25.25,0,0,0,36.55,67.22Z"/></g></g></g></svg>