<?xml version="1.0" encoding="utf-8"?>
<!-- Generator: Adobe Illustrator 22.1.0, SVG Export Plug-In . SVG Version: 6.00 Build 0)  -->
<svg version="1.1" id="Layer_1" xmlns="http://www.w3.org/2000/svg" xmlns:xlink="http://www.w3.org/1999/xlink" x="0px" y="0px"
	 viewBox="0 0 97.3 97.3" style="enable-background:new 0 0 97.3 97.3;" xml:space="preserve">
<style type="text/css">
	.st0{fill:#B9B9B9;}
	.st1{fill:#FFFFFF;stroke:#231F20;stroke-width:2;stroke-miterlimit:10;}
	.st2{fill:none;stroke:#231F20;stroke-miterlimit:10;}
	.st3{fill:#231F20;}
</style>
<title>Asset 17</title>
<g id="Layer_2_1_">
	<g id="Layer_1-2">
		<g id="Details">
			<circle class="st0" cx="48.7" cy="48.7" r="48.7"/>
			<path class="st1" d="M29.9,15.7h37.5c2.8,0,5,2.2,5,5v57.4c0,2.8-2.2,5-5,5H29.9c-2.8,0-5-2.2-5-5V20.7
				C24.9,17.9,27.2,15.7,29.9,15.7z"/>
			<line class="st2" x1="41.9" y1="31" x2="67" y2="31"/>
			<line class="st2" x1="41.9" y1="33.8" x2="67" y2="33.8"/>
			<line class="st2" x1="41.9" y1="48.8" x2="67" y2="48.8"/>
			<line class="st2" x1="41.9" y1="51.5" x2="67" y2="51.5"/>
			<line class="st2" x1="41.9" y1="66.7" x2="67" y2="66.7"/>
			<line class="st2" x1="41.9" y1="69.5" x2="67" y2="69.5"/>
			<path class="st3" d="M37.2,33.4c-0.3,0.5-0.7,0.9-1.2,1.2c-0.5,0.3-1.1,0.4-1.7,0.4c-0.6,0-1.2-0.1-1.7-0.4
				c-0.5-0.3-0.9-0.7-1.2-1.2c-0.6-1-0.6-2.3,0-3.3c0.3-0.5,0.7-0.9,1.2-1.2c0.5-0.3,1.1-0.5,1.7-0.5c0.6,0,1.2,0.1,1.7,0.5
				c0.5,0.3,0.9,0.7,1.2,1.2C37.8,31.1,37.8,32.4,37.2,33.4L37.2,33.4z M36.5,31.1c0-0.1,0-0.1-0.1-0.2l-0.4-0.4
				c-0.1-0.1-0.1-0.1-0.2-0.1c-0.1,0-0.1,0-0.2,0.1L34,32.2l-1-1c0-0.1-0.1-0.1-0.2-0.1c-0.1,0-0.1,0-0.2,0.1l-0.4,0.4
				c-0.1,0.1-0.1,0.1-0.1,0.2c0,0.1,0,0.1,0.1,0.2l1.6,1.6c0.1,0.1,0.1,0.1,0.2,0.1c0.1,0,0.1,0,0.2-0.1l2.3-2.3
				C36.5,31.2,36.6,31.1,36.5,31.1z"/>
			<path class="st3" d="M37.2,51.5c-0.3,0.5-0.7,0.9-1.2,1.2c-0.5,0.3-1.1,0.4-1.7,0.4c-0.6,0-1.2-0.1-1.7-0.4
				c-0.5-0.3-0.9-0.7-1.2-1.2c-0.6-1-0.6-2.3,0-3.3c0.3-0.5,0.7-0.9,1.2-1.2c0.5-0.3,1.1-0.5,1.7-0.5c0.6,0,1.2,0.2,1.7,0.5
				c0.5,0.3,0.9,0.7,1.2,1.2C37.8,49.2,37.8,50.5,37.2,51.5L37.2,51.5z M36.5,49.1c0-0.1,0-0.1-0.1-0.2l-0.4-0.4
				c-0.1-0.1-0.1-0.1-0.2-0.1c-0.1,0-0.1,0-0.2,0.1L34,50.3l-1-1c-0.1,0-0.1-0.1-0.2-0.1c-0.1,0-0.1,0-0.2,0.1l-0.4,0.4
				c-0.1,0.1-0.1,0.1-0.1,0.2c0,0.1,0,0.1,0.1,0.2l1.6,1.6c0.1,0.1,0.1,0.1,0.2,0.1c0.1,0,0.1,0,0.2-0.1l2.3-2.3
				C36.5,49.3,36.6,49.2,36.5,49.1z"/>
			<path class="st3" d="M37.2,69.6c-0.3,0.5-0.7,0.9-1.2,1.2c-0.5,0.3-1.1,0.4-1.7,0.4c-0.6,0-1.2-0.1-1.7-0.4
				c-0.5-0.3-0.9-0.7-1.2-1.2c-0.3-0.5-0.5-1.1-0.5-1.7c0-0.6,0.1-1.2,0.4-1.7c0.3-0.5,0.7-0.9,1.2-1.2c0.5-0.3,1.1-0.5,1.7-0.4
				c0.6,0,1.2,0.1,1.7,0.4c0.5,0.3,0.9,0.7,1.2,1.2c0.3,0.5,0.5,1.1,0.5,1.7C37.6,68.5,37.5,69.1,37.2,69.6z M36.5,67.2
				c0-0.1,0-0.1-0.1-0.2l-0.4-0.4c-0.1-0.1-0.1-0.1-0.2-0.1c-0.1,0-0.1,0-0.2,0.1L34,68.4l-1-1c-0.1,0-0.1-0.1-0.2-0.1
				c-0.1,0-0.1,0-0.2,0.1l-0.4,0.4c-0.1,0.1-0.1,0.1-0.1,0.2c0,0.1,0,0.1,0.1,0.2l1.6,1.6c0.1,0.1,0.1,0.1,0.2,0.1
				c0.1,0,0.1,0,0.2-0.1l2.3-2.3C36.5,67.3,36.6,67.3,36.5,67.2z"/>
		</g>
	</g>
</g>
</svg>
