<?xml version="1.0" encoding="iso-8859-1"?>
<!-- Generator: Adobe Illustrator 19.2.0, SVG Export Plug-In . SVG Version: 6.00 Build 0)  -->
<svg version="1.1" xmlns="http://www.w3.org/2000/svg" xmlns:xlink="http://www.w3.org/1999/xlink" x="0px" y="0px"
	 viewBox="0 0 16 16" style="enable-background:new 0 0 16 16;" xml:space="preserve">
<g id="edit">
	<g>
		
			<circle style="fill:#FFFFFF;stroke:#383449;stroke-width:2;stroke-linecap:round;stroke-linejoin:round;stroke-miterlimit:10;" cx="112" cy="25" r="23"/>
	</g>
	
		<polygon style="fill:#FFFFFF;stroke:#383449;stroke-width:2;stroke-linecap:round;stroke-linejoin:round;stroke-miterlimit:10;" points="
		124.275,13.111 127.625,15.296 116.308,32.989 111.456,36.889 112.918,30.732 	"/>
	<path style="fill:#FFFFFF;stroke:#383449;stroke-width:2;stroke-linecap:round;stroke-linejoin:round;stroke-miterlimit:10;" d="
		M112.918,30.732c0,0,2.936,1.1,3.39,2.257"/>
	
		<line style="fill:#FFFFFF;stroke:#383449;stroke-width:2;stroke-linecap:round;stroke-linejoin:round;stroke-miterlimit:10;" x1="108" y1="36.889" x2="96.375" y2="36.889"/>
	
		<line style="fill:#FFFFFF;stroke:#383449;stroke-width:2;stroke-linecap:round;stroke-linejoin:round;stroke-miterlimit:10;" x1="108" y1="30.944" x2="96.375" y2="30.944"/>
	
		<line style="fill:#FFFFFF;stroke:#383449;stroke-width:2;stroke-linecap:round;stroke-linejoin:round;stroke-miterlimit:10;" x1="108" y1="25" x2="96.375" y2="25"/>
	<g>
		
			<circle style="fill:#FFFFFF;stroke:#383449;stroke-width:2;stroke-linecap:round;stroke-linejoin:round;stroke-miterlimit:10;" cx="456" cy="24" r="23"/>
	</g>
	
		<polygon style="fill:#FFCB0B;stroke:#383449;stroke-width:2;stroke-linecap:round;stroke-linejoin:round;stroke-miterlimit:10;" points="
		468.275,12.111 471.625,14.296 460.308,31.989 455.456,35.889 456.918,29.732 	"/>
	<path style="fill:#FFFFFF;stroke:#383449;stroke-width:2;stroke-linecap:round;stroke-linejoin:round;stroke-miterlimit:10;" d="
		M456.918,29.732c0,0,2.936,1.1,3.39,2.257"/>
	
		<line style="fill:#FFFFFF;stroke:#383449;stroke-width:2;stroke-linecap:round;stroke-linejoin:round;stroke-miterlimit:10;" x1="452" y1="35.889" x2="440.375" y2="35.889"/>
	
		<line style="fill:#FFFFFF;stroke:#383449;stroke-width:2;stroke-linecap:round;stroke-linejoin:round;stroke-miterlimit:10;" x1="452" y1="29.944" x2="440.375" y2="29.944"/>
	
		<line style="fill:#FFFFFF;stroke:#383449;stroke-width:2;stroke-linecap:round;stroke-linejoin:round;stroke-miterlimit:10;" x1="452" y1="24" x2="440.375" y2="24"/>
	<g>
		
			<circle style="fill:#FFFFFF;stroke:#383449;stroke-width:2;stroke-linecap:round;stroke-linejoin:round;stroke-miterlimit:10;" cx="800" cy="24" r="23"/>
	</g>
	
		<polygon style="fill:#F04B38;stroke:#383449;stroke-width:2;stroke-linecap:round;stroke-linejoin:round;stroke-miterlimit:10;" points="
		812.275,12.111 815.625,14.296 804.308,31.989 799.456,35.889 800.918,29.732 	"/>
	<path style="fill:#FFFFFF;stroke:#383449;stroke-width:2;stroke-linecap:round;stroke-linejoin:round;stroke-miterlimit:10;" d="
		M800.918,29.732c0,0,2.936,1.1,3.39,2.257"/>
	
		<line style="fill:#FFFFFF;stroke:#383449;stroke-width:2;stroke-linecap:round;stroke-linejoin:round;stroke-miterlimit:10;" x1="796" y1="35.889" x2="784.375" y2="35.889"/>
	
		<line style="fill:#FFFFFF;stroke:#383449;stroke-width:2;stroke-linecap:round;stroke-linejoin:round;stroke-miterlimit:10;" x1="796" y1="29.944" x2="784.375" y2="29.944"/>
	
		<line style="fill:#FFFFFF;stroke:#383449;stroke-width:2;stroke-linecap:round;stroke-linejoin:round;stroke-miterlimit:10;" x1="796" y1="24" x2="784.375" y2="24"/>
	<g>
		
			<circle style="fill:#FFFFFF;stroke:#383449;stroke-width:2;stroke-linecap:round;stroke-linejoin:round;stroke-miterlimit:10;" cx="1144" cy="24" r="23"/>
	</g>
	
		<polygon style="fill:#25AE5F;stroke:#383449;stroke-width:2;stroke-linecap:round;stroke-linejoin:round;stroke-miterlimit:10;" points="
		1156.275,12.111 1159.625,14.296 1148.308,31.989 1143.456,35.889 1144.918,29.732 	"/>
	<path style="fill:#FFFFFF;stroke:#383449;stroke-width:2;stroke-linecap:round;stroke-linejoin:round;stroke-miterlimit:10;" d="
		M1144.918,29.732c0,0,2.936,1.1,3.39,2.257"/>
	
		<line style="fill:#FFFFFF;stroke:#383449;stroke-width:2;stroke-linecap:round;stroke-linejoin:round;stroke-miterlimit:10;" x1="1140" y1="35.889" x2="1128.375" y2="35.889"/>
	
		<line style="fill:#FFFFFF;stroke:#383449;stroke-width:2;stroke-linecap:round;stroke-linejoin:round;stroke-miterlimit:10;" x1="1140" y1="29.944" x2="1128.375" y2="29.944"/>
	
		<line style="fill:#FFFFFF;stroke:#383449;stroke-width:2;stroke-linecap:round;stroke-linejoin:round;stroke-miterlimit:10;" x1="1140" y1="24" x2="1128.375" y2="24"/>
	<g>
		
			<circle style="fill:#FFFFFF;stroke:#383449;stroke-width:2;stroke-linecap:round;stroke-linejoin:round;stroke-miterlimit:10;" cx="1488" cy="24" r="23"/>
	</g>
	
		<polygon style="fill:#4A81C2;stroke:#383449;stroke-width:2;stroke-linecap:round;stroke-linejoin:round;stroke-miterlimit:10;" points="
		1500.275,12.111 1503.625,14.296 1492.308,31.989 1487.456,35.889 1488.918,29.732 	"/>
	<path style="fill:#FFFFFF;stroke:#383449;stroke-width:2;stroke-linecap:round;stroke-linejoin:round;stroke-miterlimit:10;" d="
		M1488.918,29.732c0,0,2.936,1.1,3.39,2.257"/>
	
		<line style="fill:#FFFFFF;stroke:#383449;stroke-width:2;stroke-linecap:round;stroke-linejoin:round;stroke-miterlimit:10;" x1="1484" y1="35.889" x2="1472.375" y2="35.889"/>
	
		<line style="fill:#FFFFFF;stroke:#383449;stroke-width:2;stroke-linecap:round;stroke-linejoin:round;stroke-miterlimit:10;" x1="1484" y1="29.944" x2="1472.375" y2="29.944"/>
	
		<line style="fill:#FFFFFF;stroke:#383449;stroke-width:2;stroke-linecap:round;stroke-linejoin:round;stroke-miterlimit:10;" x1="1484" y1="24" x2="1472.375" y2="24"/>
	<g>
		
			<circle style="fill:#FFFFFF;stroke:#383449;stroke-width:4;stroke-linecap:round;stroke-linejoin:round;stroke-miterlimit:10;" cx="628" cy="128" r="126"/>
	</g>
	
		<polygon style="fill:#FFCB0B;stroke:#383449;stroke-width:4;stroke-linecap:round;stroke-linejoin:round;stroke-miterlimit:10;" points="
		695.248,62.871 713.598,74.837 651.6,171.767 625.022,193.129 633.031,159.401 	"/>
	<path style="fill:none;stroke:#383449;stroke-width:4;stroke-linecap:round;stroke-linejoin:round;stroke-miterlimit:10;" d="
		M633.031,159.401c0,0,16.083,6.027,18.569,12.366"/>
	
		<line style="fill:none;stroke:#383449;stroke-width:4;stroke-linecap:round;stroke-linejoin:round;stroke-miterlimit:10;" x1="606.087" y1="193.129" x2="542.402" y2="193.129"/>
	
		<line style="fill:none;stroke:#383449;stroke-width:4;stroke-linecap:round;stroke-linejoin:round;stroke-miterlimit:10;" x1="606.087" y1="160.564" x2="542.402" y2="160.564"/>
	
		<line style="fill:none;stroke:#383449;stroke-width:4;stroke-linecap:round;stroke-linejoin:round;stroke-miterlimit:10;" x1="606.087" y1="128" x2="542.402" y2="128"/>
	<g>
		
			<circle style="fill:#FFFFFF;stroke:#383449;stroke-width:4;stroke-linecap:round;stroke-linejoin:round;stroke-miterlimit:10;" cx="972" cy="128" r="126"/>
	</g>
	
		<polygon style="fill:#F04B38;stroke:#383449;stroke-width:4;stroke-linecap:round;stroke-linejoin:round;stroke-miterlimit:10;" points="
		1039.248,62.871 1057.598,74.837 995.6,171.767 969.022,193.129 977.031,159.401 	"/>
	<path style="fill:none;stroke:#383449;stroke-width:4;stroke-linecap:round;stroke-linejoin:round;stroke-miterlimit:10;" d="
		M977.031,159.401c0,0,16.083,6.027,18.569,12.366"/>
	
		<line style="fill:none;stroke:#383449;stroke-width:4;stroke-linecap:round;stroke-linejoin:round;stroke-miterlimit:10;" x1="950.087" y1="193.129" x2="886.402" y2="193.129"/>
	
		<line style="fill:none;stroke:#383449;stroke-width:4;stroke-linecap:round;stroke-linejoin:round;stroke-miterlimit:10;" x1="950.087" y1="160.564" x2="886.402" y2="160.564"/>
	
		<line style="fill:none;stroke:#383449;stroke-width:4;stroke-linecap:round;stroke-linejoin:round;stroke-miterlimit:10;" x1="950.087" y1="128" x2="886.402" y2="128"/>
	<g>
		
			<circle style="fill:#FFFFFF;stroke:#383449;stroke-width:4;stroke-linecap:round;stroke-linejoin:round;stroke-miterlimit:10;" cx="1316" cy="128" r="126"/>
	</g>
	
		<polygon style="fill:#25AE5F;stroke:#383449;stroke-width:4;stroke-linecap:round;stroke-linejoin:round;stroke-miterlimit:10;" points="
		1383.248,62.871 1401.598,74.837 1339.6,171.767 1313.022,193.129 1321.031,159.401 	"/>
	<path style="fill:none;stroke:#383449;stroke-width:4;stroke-linecap:round;stroke-linejoin:round;stroke-miterlimit:10;" d="
		M1321.031,159.401c0,0,16.083,6.027,18.569,12.366"/>
	
		<line style="fill:none;stroke:#383449;stroke-width:4;stroke-linecap:round;stroke-linejoin:round;stroke-miterlimit:10;" x1="1294.087" y1="193.129" x2="1230.402" y2="193.129"/>
	
		<line style="fill:none;stroke:#383449;stroke-width:4;stroke-linecap:round;stroke-linejoin:round;stroke-miterlimit:10;" x1="1294.087" y1="160.564" x2="1230.402" y2="160.564"/>
	
		<line style="fill:none;stroke:#383449;stroke-width:4;stroke-linecap:round;stroke-linejoin:round;stroke-miterlimit:10;" x1="1294.087" y1="128" x2="1230.402" y2="128"/>
	<g>
		
			<circle style="fill:#FFFFFF;stroke:#383449;stroke-width:4;stroke-linecap:round;stroke-linejoin:round;stroke-miterlimit:10;" cx="1660" cy="128" r="126"/>
	</g>
	
		<polygon style="fill:#4A81C2;stroke:#383449;stroke-width:4;stroke-linecap:round;stroke-linejoin:round;stroke-miterlimit:10;" points="
		1727.248,62.871 1745.598,74.837 1683.6,171.767 1657.022,193.129 1665.031,159.401 	"/>
	<path style="fill:none;stroke:#383449;stroke-width:4;stroke-linecap:round;stroke-linejoin:round;stroke-miterlimit:10;" d="
		M1665.031,159.401c0,0,16.083,6.027,18.569,12.366"/>
	
		<line style="fill:none;stroke:#383449;stroke-width:4;stroke-linecap:round;stroke-linejoin:round;stroke-miterlimit:10;" x1="1638.087" y1="193.129" x2="1574.402" y2="193.129"/>
	
		<line style="fill:none;stroke:#383449;stroke-width:4;stroke-linecap:round;stroke-linejoin:round;stroke-miterlimit:10;" x1="1638.087" y1="160.564" x2="1574.402" y2="160.564"/>
	
		<line style="fill:none;stroke:#383449;stroke-width:4;stroke-linecap:round;stroke-linejoin:round;stroke-miterlimit:10;" x1="1638.087" y1="128" x2="1574.402" y2="128"/>
	<g>
		
			<circle style="fill:#FFFFFF;stroke:#383449;stroke-width:4;stroke-linecap:round;stroke-linejoin:round;stroke-miterlimit:10;" cx="284" cy="128" r="126"/>
	</g>
	
		<polygon style="fill:#FFFFFF;stroke:#383449;stroke-width:4;stroke-linecap:round;stroke-linejoin:round;stroke-miterlimit:10;" points="
		351.248,62.871 369.598,74.837 307.6,171.767 281.022,193.129 289.031,159.401 	"/>
	<path style="fill:none;stroke:#383449;stroke-width:4;stroke-linecap:round;stroke-linejoin:round;stroke-miterlimit:10;" d="
		M289.031,159.401c0,0,16.083,6.027,18.569,12.366"/>
	
		<line style="fill:none;stroke:#383449;stroke-width:4;stroke-linecap:round;stroke-linejoin:round;stroke-miterlimit:10;" x1="262.087" y1="193.129" x2="198.402" y2="193.129"/>
	
		<line style="fill:none;stroke:#383449;stroke-width:4;stroke-linecap:round;stroke-linejoin:round;stroke-miterlimit:10;" x1="262.087" y1="160.564" x2="198.402" y2="160.564"/>
	
		<line style="fill:none;stroke:#383449;stroke-width:4;stroke-linecap:round;stroke-linejoin:round;stroke-miterlimit:10;" x1="262.087" y1="128" x2="198.402" y2="128"/>
	<g>
		
			<circle style="fill:#FFFFFF;stroke:#383449;stroke-width:2;stroke-linecap:round;stroke-linejoin:round;stroke-miterlimit:10;" cx="52" cy="16" r="15"/>
	</g>
	
		<polygon style="fill:#FFFFFF;stroke:#383449;stroke-width:2;stroke-linecap:round;stroke-linejoin:round;stroke-miterlimit:10;" points="
		60.006,8.247 62.19,9.671 54.81,21.21 51.645,23.753 52.599,19.738 	"/>
	
		<line style="fill:#FFFFFF;stroke:#383449;stroke-width:2;stroke-linecap:round;stroke-linejoin:round;stroke-miterlimit:10;" x1="49.391" y1="23.753" x2="41.81" y2="23.753"/>
	
		<line style="fill:#FFFFFF;stroke:#383449;stroke-width:2;stroke-linecap:round;stroke-linejoin:round;stroke-miterlimit:10;" x1="49.391" y1="19.877" x2="41.81" y2="19.877"/>
	
		<line style="fill:#FFFFFF;stroke:#383449;stroke-width:2;stroke-linecap:round;stroke-linejoin:round;stroke-miterlimit:10;" x1="49.391" y1="16" x2="41.81" y2="16"/>
	<g>
		
			<circle style="fill:#FFFFFF;stroke:#383449;stroke-width:2;stroke-linecap:round;stroke-linejoin:round;stroke-miterlimit:10;" cx="8" cy="8" r="7"/>
	</g>
	
		<polygon style="fill:#383449;stroke:#383449;stroke-width:2;stroke-linecap:round;stroke-linejoin:round;stroke-miterlimit:10;" points="
		9.466,4.5 10.295,5.143 7.495,10.352 6.295,11.5 6.657,9.687 	"/>
</g>
<g id="Layer_1">
</g>
</svg>
