<svg xmlns="http://www.w3.org/2000/svg" viewBox="0 0 816.76 852.86"><defs><style>.cls-1{fill:#fff;}</style></defs><title>Asset 7</title><g id="Layer_2" data-name="Layer 2"><g id="Eyes_Open"><path class="cls-1" d="M420.82,268.9c-15.36-25.47-41.14-26.27-51.24-25.49,2.65,10.67,4.56,21.32,1,30.15l-.48,1.2c-5.77,14.38-12.94,32.27-5.12,53.66,8.76,24,9.66,67.72,6,85.51-2.6,12.61,4.14,24.88,19,34.53,10.72,7,51.39,23.68,88.41,23.68h0c9.82,0,18.06-1.11,24.5-3.31,31.42-10.69,65.68-64.81,76-92.1l4.37,1.18-1,5.79-.08.21c-1.23,3.25-30.69,79.7-75.89,95.08-7.51,2.56-16.94,3.86-28,3.86-15.93,0-32.54-2.88-47.49-6.86,5.12,10,17.73,26.9,46,32.83A94,94,0,0,0,528,505.11c14.15-5.09,26.9-13.41,35.24-22.83-1-47.64,22.45-96.62,29.7-110.6a16.28,16.28,0,0,1-7.08-4.79,11.63,11.63,0,0,1-2.41-10.17l2.5-9,1.92,9.1c.07.32,1.83,7.9,9.89,8.62,9.34.83,16.18-.45,23.4-9.44l.25-.49.31-.14c8.13-8.59,14.9-21.05,17.3-31.88,3.78-17-3.49-23.93-10.26-26.71-7.16-2.94-13.26-3.08-18.11-.41-12,6.59-14.68,28.24-14.71,28.46l-.22,1.86-.12.35.09-.05v.05h-.08L595,327l-8.84-.85.25-2.3c0-.29.17-1.53.52-3.39l-15.12-11.34,1.11-3.13c.11-.31,11-31.19,12.22-41,.52-4.14-10-9-17.52-10.76l-4.46-1.06,14.05-59.37c-22,1.89-44.33,3.6-66.73,3.6-27.06,0-54.24-2.49-81.19-10.18-17.69-5.05-31.89-12-42.47-20.87l-12.92,26.9c-6.62,13.69-8.64,20.36-9.17,23.54a27.73,27.73,0,0,0,.56,9.11C422.83,235.3,420.82,268.9,420.82,268.9Zm-45.32,8.78a3.08,3.08,0,0,1-.45-3.44c0-.08.06-.15.08-.22.15-.44.28-.88.42-1.33a32.81,32.81,0,0,1,1.6-4.36c3.94-8.22,9.37-10.63,18.16-8.06,5.82,1.7,11,4.64,16.87,9.54l3.62,3-4.72,0-3.37,0c-2.07,0-3.85,0-5.63,0-9.37.2-16.3,1.69-22.46,4.83l-.27.17a3.87,3.87,0,0,1-2,.7A2.53,2.53,0,0,1,375.5,277.68Zm88.85-62.62s53.69,8.42,86.94,36.61c0,0,7.65,7.38,5.85,14.78,0,0-52.49-37.53-95.14-17.53C462,248.92,454.72,235.32,464.35,215.06Zm47.11,71.75c-2.1,7.82-4.7,13.89-9.77,18.5-5.84,5.32-11.53,3.91-14.51-3.42-4.3-10.56,1.8-32.32,10.91-38.93,5.57-4,10.54-2.77,13.16,3.64C514.17,273.75,512.67,281,511.46,286.81Zm-53.59,83.31c22.38,0,40.7-4.53,54.45-13.46h0l7.72-5-.4,9.19A64.32,64.32,0,0,1,512.21,386c-6.36,11.86-19.5,26.74-46,30.21a177.67,177.67,0,0,1-22.92,1.64,101.36,101.36,0,0,1-15.44-1.08c-12.5-2-29.4-6-38.95-14.23l-.08-.07-.13-.11-1-.93.61-1.1,1.92-4,5.07,2.12a48,48,0,0,0,4.47,2l4.29-12-13.9-19.21a61.6,61.6,0,0,1-10.63-4.65l-.94-.52.06-1.07c.1-1.83.25-3.51.47-5.15l.2-1.52,1.82,0,.52.18c.37.14,37.4,13.66,76.19,13.66Zm-29.78-99.87c.86-4.73,1.78-9.1,3.61-10.69l2.12-1.83.23,2.79c.68,8.19-1.77,22.29-3.72,28.9A103.26,103.26,0,0,1,424,304.33,116,116,0,0,0,418.45,317c-1.62,4.83-2.23,6.63,4.25,10.77l.18.14a34.49,34.49,0,0,0,5.3,3.58c1.59,1,3.23,1.93,4.94,3.15l.9.59c2.79,1.79,7,4.49,5.46,7.14-.65,1.12-2,1.5-3.78,1.5a32.51,32.51,0,0,1-5.73-.74c-.43-.09-.79-.16-1.06-.2a10.74,10.74,0,0,1-3.84-1.41l-1.72-1.06c-3.72-2.29-7.57-4.66-11.22-7.23-6.68-4.7-7.78-9-4.21-16.4.83-1.7,1.75-3.32,2.62-4.83a192.55,192.55,0,0,0,17.14-39.66C427.77,272,427.92,271.15,428.09,270.25Z"/><path class="cls-1" d="M369.58,243.41c2.65,10.67,4.56,21.32,1,30.15l-.48,1.2c-5.77,14.38-12.94,32.27-5.12,53.66,8.76,24,9.66,67.72,6,85.51-2.6,12.61,4.14,24.88,19,34.53,10.72,7,51.39,23.68,88.41,23.68h0c9.82,0,18.06-1.11,24.5-3.31,31.42-10.69,65.68-64.81,76-92.1l4.37,1.18-1,5.79-.08.21c-1.23,3.25-30.69,79.7-75.89,95.08-7.51,2.56-16.94,3.86-28,3.86-15.93,0-32.54-2.88-47.49-6.86,5.12,10,17.73,26.9,46,32.83A94,94,0,0,0,528,505.11c14.15-5.09,26.9-13.41,35.24-22.83-1-47.64,22.45-96.62,29.7-110.6a16.28,16.28,0,0,1-7.08-4.79,11.63,11.63,0,0,1-2.41-10.17l2.5-9,1.92,9.1c.07.32,1.83,7.9,9.89,8.62,9.34.83,16.18-.45,23.4-9.44l.25-.49.31-.14c8.13-8.59,14.9-21.05,17.3-31.88,3.78-17-3.49-23.93-10.26-26.71-7.16-2.94-13.26-3.08-18.11-.41-12,6.59-14.68,28.24-14.71,28.46l-.22,1.86-.12.35.09-.05v.05h-.08L595,327l-8.84-.85.25-2.3c0-.29.17-1.53.52-3.39l-15.12-11.34,1.11-3.13c.11-.31,11-31.19,12.22-41,.52-4.14-10-9-17.52-10.76l-4.46-1.06,14.05-59.37c-22,1.89-44.33,3.6-66.73,3.6-27.06,0-54.24-2.49-81.19-10.18-17.69-5.05-31.89-12-42.47-20.87l-12.92,26.9c-6.62,13.69-8.64,20.36-9.17,23.54a27.73,27.73,0,0,0,.56,9.11m146.16,60.86c-2.1,7.82-4.7,13.89-9.77,18.5-5.84,5.32-11.53,3.91-14.51-3.42-4.3-10.56,1.8-32.32,10.91-38.93,5.57-4,10.54-2.77,13.16,3.64C514.17,273.75,512.67,281,511.46,286.81Zm-53.59,83.31c22.38,0,40.7-4.53,54.45-13.46h0l7.72-5-.4,9.19A64.32,64.32,0,0,1,512.21,386c-6.36,11.86-19.5,26.74-46,30.21a177.67,177.67,0,0,1-22.92,1.64,101.36,101.36,0,0,1-15.44-1.08c-12.5-2-29.4-6-38.95-14.23l-.08-.07-.13-.11-1-.93.61-1.1,1.92-4,5.07,2.12a48,48,0,0,0,4.47,2l4.29-12-13.9-19.21a61.6,61.6,0,0,1-10.63-4.65l-.94-.52.06-1.07c.1-1.83.25-3.51.47-5.15l.2-1.52,1.82,0,.52.18c.37.14,37.4,13.66,76.19,13.66Zm-29.78-99.87c.86-4.73,1.78-9.1,3.61-10.69l2.12-1.83.23,2.79c.68,8.19-1.77,22.29-3.72,28.9A103.26,103.26,0,0,1,424,304.33,116,116,0,0,0,418.45,317c-1.62,4.83-2.23,6.63,4.25,10.77l.18.14a34.49,34.49,0,0,0,5.3,3.58c1.59,1,3.23,1.93,4.94,3.15l.9.59c2.79,1.79,7,4.49,5.46,7.14-.65,1.12-2,1.5-3.78,1.5a32.51,32.51,0,0,1-5.73-.74c-.43-.09-.79-.16-1.06-.2a10.74,10.74,0,0,1-3.84-1.41l-1.72-1.06c-3.72-2.29-7.57-4.66-11.22-7.23-6.68-4.7-7.78-9-4.21-16.4.83-1.7,1.75-3.32,2.62-4.83a192.55,192.55,0,0,0,17.14-39.66C427.77,272,427.92,271.15,428.09,270.25Z"/><path class="cls-1" d="M446.3,390.08l1.64,0,.11,6.12-10.06.6h-.12c-3.1-.07-6.3-.28-9.51-.63a117.71,117.71,0,0,1-16-2.85l-3.57,10c12.3,3.49,31.58,6.67,56.22,3.43,10.31-1.35,19.08-4.75,26.06-10.09l.19-.13a6,6,0,0,0,1.2-1l.1-.09c1-.85,2-1.74,2.93-2.67l.31-.27a26.8,26.8,0,0,0,4.61-4.47,14.32,14.32,0,0,0,2.37-4.62l.09-.35a9.82,9.82,0,0,0,.25-1.45v0a9.85,9.85,0,0,0-.05-2.92l0-.19a8.52,8.52,0,0,0-2.95-5.64l-.3,0a4.44,4.44,0,0,0-1.49.58l-.64.32c-.47.21-.93.42-1.41.62l-.17.06c-13,4-35.33,7.71-67.77,3.07-7.72-1.1-15.65-2.61-23.64-4.5l7.62,10.53C419.12,385.53,434.94,389.83,446.3,390.08Z"/><path class="cls-1" d="M154.3,386.18a30.89,30.89,0,0,0,7.47,8.09c1.9,1.38,3.49,1.46,5.32.29a30.28,30.28,0,0,0,6.61-5.15c4-4.58,4.81-9.31,2.46-14.88-5.46-13-10.64-25.66-16.36-39.73a43.31,43.31,0,0,1-1.51-4.79c-.19-.69-.37-1.37-.58-2.06l-.66-2.21-1.16-3.43a13.09,13.09,0,0,0-5.43-1.76q-.75-.06-1.5-.06A17,17,0,0,0,135.41,327a16,16,0,0,0-2.32,15.33C139.14,359.61,146.08,374,154.3,386.18Z"/><path class="cls-1" d="M97.56,358.67c1.36,5.47,4.08,10.56,6.47,15,1,1.88,2,3.66,2.78,5.4A163.59,163.59,0,0,0,119,398.86c3.57,4.85,6.92,9.1,11.76,11.86a10.63,10.63,0,0,0,2.78,1.19l.65.11a3.68,3.68,0,0,0,1.84-.26L138,411a138.55,138.55,0,0,0,14.78-6.77,7.79,7.79,0,0,0,3.26-2.86c.82-1.48.57-1.67-.18-2.23a27.75,27.75,0,0,1-5.39-5.58l-.86-.93s-1-1.4-1.32-1.95c-.23-.37-.45-.73-.66-1.1-8.92-13.07-14.9-27.31-21.18-43.13a11.7,11.7,0,0,0-8.33-7.5A16.55,16.55,0,0,0,101.94,343,16.16,16.16,0,0,0,97.56,358.67Z"/><path class="cls-1" d="M238.62,696.92c-.41-1.45-.8-2.91-1.17-4.36a1.05,1.05,0,0,0-.25-1c-1.69-6.85-4.84-17.69-7-25.19l-.18.63-.27.63-.12.27-6.72,8.5a8.82,8.82,0,0,1-3-1.76,9.24,9.24,0,0,1-1-1.15c7.47-17.65,10.6-38.73,9.27-62.71a228.41,228.41,0,0,0-11.85-59.93c-3.19-9.24-6.36-25.38-9.45-48l-3.52-26.23a70,70,0,0,1-12.94,6.58c-1.28.49-2.58,1-3.84,1.4s-2.41.86-3.58,1.31a19.9,19.9,0,0,0-7.61,5.32C168,499.3,158,503.48,144.65,504c-1,0-2,.06-3,.06a61.67,61.67,0,0,1-26.08-5.49l-.74.77c3.45,5,7,10.06,10.43,15.1,2.52,3.68,2,6.31-1.66,8.86l-1.06.73-.4,1.94c-9.81,47.87-13.18,136.76,17.65,185.85,1.87,1.47,9.19,6.46,23.47,7.54,20,1.53,44.08-5.15,71.51-19.84Z"/><path class="cls-1" d="M68.12,380.37c.18,2.9,1.88,5.76,5.07,8.51,12.37,10.67,24.79,21.26,36.94,31.48,3.11,2.63,6.1,3.76,8.86,3.38s5.38-2.3,7.71-5.71a4.51,4.51,0,0,1,.46-.58,5.12,5.12,0,0,0-.87-.56l-.18-.07-.16-.11-.56-.36-.89-.58c-.53-.36-1-.75-1.46-1.12s-.79-.65-1.16-.89l-.25-.19c-7.72-6.82-13.16-15.09-17.87-23-.37-.61-.73-1.23-1.09-1.85l-.1-.08c-.19-.34-.36-.68-.55-1-2-3.47-4-7-5.92-10.4-1.46-2.59-2.92-5.19-4.41-7.77C89.75,366,87,364.3,83.92,364.3a11,11,0,0,0-5.11,1.4,24.12,24.12,0,0,0-6.58,5.37C69.32,374.29,67.93,377.41,68.12,380.37Z"/><path class="cls-1" d="M179.2,432.77c-4.35,5.25-9.14,10.13-13.79,15.12s-9.11,9.76-13.82,14.49c-3.27,3.29-6.55,6.59-10.14,9.55l-19.06,19.65A52.49,52.49,0,0,0,141.1,495c12.87.07,21.53-3.1,28-10.27a25.7,25.7,0,0,1,7.51-5.81,65.13,65.13,0,0,1,7.82-3.18c1-.35,1.95-.69,2.92-1.06,11.83-4.46,20.15-11.31,25.45-20.94.4-.73.8-1.45,1.2-2.15l.39-.85.13-.05a102.66,102.66,0,0,1,9.34-13.79,79,79,0,0,1,6-6.54,48.84,48.84,0,0,0,7.62-14.63c1.1-4.15.87-8.88.65-13.46l-2.66-56.14c-.2-4.21-.41-8.56-1.89-12.12a15.18,15.18,0,0,0-26.32-3c-2.18,3-3.31,6.94-4.12,10.38-5.05,21.33-3.35,42,4.93,59.81l-7.31,3.39C193.7,414.05,186.77,423.66,179.2,432.77Z"/><path class="cls-1" d="M87.67,433.68c4.18,2.6,9.1,5.43,14.61,6.16a8.68,8.68,0,0,0,7.15-2.09,8.15,8.15,0,0,0,2.57-6.51c0-1.05-.2-1.2-.64-1.37-1.1-2.05-3.58-3.25-5.59-4.41-1.59-.93-3.2-1.78-4.69-2.86l-.69-.5c-9.43-8-19-16-28.22-23.77l-3.85-3.24c-2-1.69-2.21-1.69-4.25,0-2.24,1.81-3.34,4.34-3.37,7.71a31.78,31.78,0,0,0,1.45,8.81,40.49,40.49,0,0,0,2.23,6l.76.49a22.15,22.15,0,0,0,5.74,4.59c1.9,1.15,3.84,2.46,5.87,3.59A99.6,99.6,0,0,0,87.67,433.68Z"/><path class="cls-1" d="M208.26,151.38l-.67-.86c-.71-.9-1.44-1.84-2.16-2.83-3.91-5.44-8.13-11.16-13.16-17.85l-7.1,4.36-.06-.24-44.71,27.1.16.15-5.69,3.42c.52,1.06,1,2.1,1.45,3.13s.9,2,1.37,3l1.23,2.47c2.54,5.08,5.15,10.31,7.6,15.61C166.18,176.82,186.44,164.54,208.26,151.38Z"/><path class="cls-1" d="M181.52,123.93c-5.64-9.18-11.63-19.08-18.24-30.1l-13.62,8.28h0l-6.92,4.21h0l-7,4.24h0l-6.83,4.13h0Q122,118.87,115.11,123c5.71,9.31,11.72,19.21,18.24,30.1Z"/><path d="M381.15,356.28l-1.82,0-.2,1.52c-.22,1.64-.37,3.32-.47,5.15L378.6,364l.94.52a61.6,61.6,0,0,0,10.63,4.65l13.9,19.21-4.29,12a48,48,0,0,1-4.47-2l-5.07-2.12-1.92,4-.61,1.1,1,.93.13.11.08.07c9.55,8.22,26.45,12.27,38.95,14.23a101.36,101.36,0,0,0,15.44,1.08,177.67,177.67,0,0,0,22.92-1.64c26.46-3.47,39.6-18.35,46-30.21a64.32,64.32,0,0,0,7.43-25.13l.4-9.19-7.72,5h0c-13.75,8.93-32.07,13.46-54.45,13.46h0c-38.79,0-75.82-13.52-76.19-13.66Zm47.15,21.2c32.44,4.64,54.76.89,67.77-3.07l.17-.06c.48-.2.94-.41,1.41-.62l.64-.32a4.44,4.44,0,0,1,1.49-.58l.3,0a8.52,8.52,0,0,1,2.95,5.64l0,.19a9.85,9.85,0,0,1,.05,2.92v0a9.82,9.82,0,0,1-.25,1.45l-.09.35a14.32,14.32,0,0,1-2.37,4.62,26.8,26.8,0,0,1-4.61,4.47l-.31.27c-.93.93-1.92,1.82-2.93,2.67l-.1.09a6,6,0,0,1-1.2,1l-.19.13c-7,5.34-15.75,8.74-26.06,10.09-24.64,3.24-43.92.06-56.22-3.43l3.57-10a117.71,117.71,0,0,0,16,2.85c3.21.35,6.41.56,9.51.63H438l10.06-.6-.11-6.12-1.64,0c-11.36-.25-27.18-4.55-34-6.57L404.66,373C412.65,374.87,420.58,376.38,428.3,377.48Z"/><path d="M498.09,263c-9.11,6.61-15.21,28.37-10.91,38.93,3,7.33,8.67,8.74,14.51,3.42,5.07-4.61,7.67-10.68,9.77-18.5,1.21-5.84,2.71-13.06-.21-20.21C508.63,260.19,503.66,258.91,498.09,263Z"/><path d="M557.14,266.45c1.8-7.4-5.85-14.78-5.85-14.78-33.25-28.19-86.94-36.61-86.94-36.61-9.63,20.26-2.35,33.86-2.35,33.86C504.65,228.92,557.14,266.45,557.14,266.45Z"/><path d="M407.92,316.8c-3.57,7.41-2.47,11.7,4.21,16.4,3.65,2.57,7.5,4.94,11.22,7.23l1.72,1.06a10.74,10.74,0,0,0,3.84,1.41c.27,0,.63.11,1.06.2a32.51,32.51,0,0,0,5.73.74c1.76,0,3.13-.38,3.78-1.5,1.54-2.65-2.67-5.35-5.46-7.14l-.9-.59c-1.71-1.22-3.35-2.2-4.94-3.15a34.49,34.49,0,0,1-5.3-3.58l-.18-.14c-6.48-4.14-5.87-5.94-4.25-10.77A116,116,0,0,1,424,304.33a103.26,103.26,0,0,0,6.33-14.91c1.95-6.61,4.4-20.71,3.72-28.9l-.23-2.79-2.12,1.83c-1.83,1.59-2.75,6-3.61,10.69-.17.9-.32,1.76-.41,2.06A192.55,192.55,0,0,1,410.54,312C409.67,313.48,408.75,315.1,407.92,316.8Z"/><path d="M640,792.74c20.73-11.78,78.28,42.86,130.73,54.2,8,1.73,21.4,7.43,30.25,5.54,2.27-.48,3.75-.9,4.71-3.35l1.69-6.46c7-20.08,10.06-43.85,9.21-70.77-.75-23.83-4.58-50.2-11.37-78.38-5-20.66-11.74-43.77-28.89-59L787,624.29l-10.63-10.78L723.79,560.2l.12.13a365.75,365.75,0,0,0-42-38.31,274.38,274.38,0,0,0-57-34.35C600.51,477,582.27,474,574,473.18c2.14-46.57,26.72-93.58,29.91-99.5.91.05,1.84.07,2.81.07,8,0,17.06-5.76,25.54-16.24,7.67-9.46,13.64-21.43,16-32,4-18-1.52-31.09-15.5-37,4.41-7.38,7.91-16.09,10.85-26.9.37-1.35.71-2.7,1-4,5.14-21.28,4.92-41.34-.68-58.24A75.08,75.08,0,0,0,628,172.43a69.24,69.24,0,0,0-12.24-11.05A57.29,57.29,0,0,0,604.33,155V155c2.77-14.77,1.5-29.24-3.67-41.82A78.23,78.23,0,0,0,575,80.51a80.65,80.65,0,0,0-38.83-15.72c-20.46-2.4-40.4,3-59.67,8.19-17.14,4.62-36.57,9.87-55.3,7.26-22.26-3.1-35.29-17.38-38-29.34l-2.15-9.55-7.24,6.59c-13.86,12.64-14,32.45-13.06,50,.91,16.79,1.94,35.83,11.69,52.06a61.22,61.22,0,0,0,6,8.25l-14.3,30.36c-5.76,11.91-9.15,20.81-10.09,26.45-1.12,6.68.84,14.86,3.1,23.55.16.6.31,1.2.47,1.81,2.84,10.82,5.76,22,2.92,29.13l-.49,1.2c-6.44,16.08-14.45,36.08-5.23,61.33,8.45,23.12,9.18,61.88,6,78.4-3.08,15.84,3.14,31,17.16,42.52-12.9,5.44-57.47,24.86-101.65,51.17h0s-37.89,18.94-37.9,18.92l-16.07,8.19q-2.43-12-4.88-29.89l-4.35-32.94A51.47,51.47,0,0,0,221.27,457a85,85,0,0,1,7.2-11.43c2-2.24,6.6-5.17,8.24-7.38a65.85,65.85,0,0,0,5.82-8.69,54.62,54.62,0,0,0,4.76-11.14c1.5-5.68,1.22-11.46,1-16.57l-1-21.57c.72.59,1.42,1.18,2.1,1.76s5.45,4.27,10.62,8c1.13.85,2.28,1.67,3.44,2.48,4.51,3.19,7.91,4.93,9.51,6.15,4.87,2.77,7.41,2.66,11.81.05,18.46-10.95,36.91-21.91,54.69-34a7.78,7.78,0,0,0,3.73-7.26c-.15-8.2-3.27-15.64-6-23.19a1.89,1.89,0,0,0-.47-.78,44.85,44.85,0,0,0-3.07-6c-1.32-1.84-2.33-3.89-3.5-5.83l-30.05-49.59-16-26.45.19-.12c-8.23-13.58-16.35-27.23-24.72-40.73-9.32-15-17.7-30.71-28.78-44.62-2.75-3.46-4.85-8.51-10.18-8.78a9,9,0,0,0-1.3-3.08c-1-1.62-2.18-3.06-3.27-4.45-.67-.86-1.3-1.67-1.89-2.48-4.38-6.08-9.13-12.52-15-20.25-1.13-1.49-4-4.45-8.49-2.81-6-9.84-12.49-20.51-19.67-32.51a7.34,7.34,0,0,0-11-2.7q-6.75,4.13-13.52,8.23L93.89,0,68.06,14.87,121,106.79q-6.9,4.17-13.82,8.34a7.46,7.46,0,0,0-2.78,11.25c6.17,10,12.65,20.72,19.77,32.59a6.62,6.62,0,0,0-1.35,2.69,7.06,7.06,0,0,0,1,5.49,41.53,41.53,0,0,1,2.53,5c.49,1.09,1,2.21,1.55,3.34l1.24,2.48c3,6,6.14,12.29,8.9,18.52a8.07,8.07,0,0,0,3.6,4.11,16.24,16.24,0,0,0,1.15,13.58c3.19,6.08,6,12.32,9.08,18.48,4.29,8.7,8.87,17.26,13.3,25.89,6.16,12,12.91,23.73,17.47,36.51,1.55,4.33,1.78,8.47-.54,12.63a115.22,115.22,0,0,1-10.87,15.83,57.43,57.43,0,0,0-5-4.85c-3.68-3.13-8.76-6.78-15.4-7.17-13.81-.81-23.77,6.67-26.74,20A25.66,25.66,0,0,0,88,355.8a18,18,0,0,0-13.23,1.8,32.84,32.84,0,0,0-10.58,8.93C59,373,57.67,379.79,60.31,386.69c-5.76,3.4-8.7,8.91-8.75,16.39a30,30,0,0,0,.47,5.48L45.41,399a5.4,5.4,0,0,0-8-1.4c-11.54,8-23,16-34.66,23.87a6.08,6.08,0,0,0-1.63,8.68c13.4,19.14,26.61,38.4,39.89,57.62l40.05,58c2.08,3,4.8,3.54,7.79,1.48l21-14.48c-9.23,52.54-11,135.07,21.24,185.54l.33.53.45.43c1.18,1.15,12.28,11.25,36.62,11.25,19.32,0,48.32-7.61,73.71-20.26l.68,2.16.25,2.26c.47,1.23,1,2.44,1.49,3.65l6-2,1.39-.47c18.31-6.47,39-25,39.91-25.79l1.58-1.42,9.5-7.06a95,95,0,0,0,.33-45.9l2-.5c3.73,15.41,2.33,33-1.63,48.37l-2.66,81c.11.09.44.4,1,.91,6.58,6,65.77,49.91,127.06,58.65C499.36,836.61,585.27,823.88,640,792.74ZM115.11,123q6.9-4.16,13.78-8.33h0l6.83-4.13h0l7-4.24h0l6.92-4.21h0l13.62-8.28c6.61,11,12.6,20.92,18.24,30.1l-48.17,29.2C126.83,142.24,120.82,132.34,115.11,123Zm31.41,65.76c-2.45-5.3-5.06-10.53-7.6-15.61l-1.23-2.47c-.47-.94-.9-1.91-1.37-3s-.93-2.07-1.45-3.13l5.69-3.42-.16-.15L185.11,134l.06.24,7.1-4.36c5,6.69,9.25,12.41,13.16,17.85.72,1,1.45,1.93,2.16,2.83l.67.86C186.44,164.54,166.18,176.82,146.52,188.79Zm54.25,215.76,7.31-3.39c-8.28-17.79-10-38.48-4.93-59.81.81-3.44,1.94-7.36,4.12-10.38a15.18,15.18,0,0,1,26.32,3c1.48,3.56,1.69,7.91,1.89,12.12l2.66,56.14c.22,4.58.45,9.31-.65,13.46a48.84,48.84,0,0,1-7.62,14.63,79,79,0,0,0-6,6.54,102.66,102.66,0,0,0-9.34,13.79c-.17.29-.34.6-.52.9-.4.7-.8,1.42-1.2,2.15-5.3,9.63-13.62,16.48-25.45,20.94-1,.37-1.94.71-2.92,1.06a65.13,65.13,0,0,0-7.82,3.18,25.7,25.7,0,0,0-7.51,5.81c-6.51,7.17-15.17,10.34-28,10.27a52.49,52.49,0,0,1-18.71-3.43l19.06-19.65c3.59-3,6.87-6.26,10.14-9.55,4.71-4.73,9.27-9.61,13.82-14.49s9.44-9.87,13.79-15.12C186.77,423.66,193.7,414.05,200.77,404.55ZM135.41,327A17,17,0,0,1,149,320.49q.75,0,1.5.06a13.09,13.09,0,0,1,5.43,1.76l1.16,3.43.66,2.21c.21.69.39,1.37.58,2.06a43.31,43.31,0,0,0,1.51,4.79c5.72,14.07,10.9,26.77,16.36,39.73,2.35,5.57,1.56,10.3-2.46,14.88a30.28,30.28,0,0,1-6.61,5.15c-1.83,1.17-3.42,1.09-5.32-.29a30.89,30.89,0,0,1-7.47-8.09c-8.22-12.22-15.16-26.57-21.21-43.88A16,16,0,0,1,135.41,327Zm-33.47,16a16.55,16.55,0,0,1,16.13-4.11,11.7,11.7,0,0,1,8.33,7.5c6.28,15.82,12.26,30.06,21.18,43.13.21.37.43.73.66,1.1.35.55,1.28,1.9,1.32,1.95l.86.93a27.75,27.75,0,0,0,5.39,5.58c.75.56,1,.75.18,2.23a7.79,7.79,0,0,1-3.26,2.86A138.55,138.55,0,0,1,138,411l-1.94.8a3.68,3.68,0,0,1-1.84.26l-.65-.11a10.63,10.63,0,0,1-2.78-1.19c-4.84-2.76-8.19-7-11.76-11.86a163.59,163.59,0,0,1-12.17-19.75c-.83-1.74-1.78-3.52-2.78-5.4-2.39-4.48-5.11-9.57-6.47-15A16.16,16.16,0,0,1,101.94,343ZM72.23,371.07a24.12,24.12,0,0,1,6.58-5.37,11,11,0,0,1,5.11-1.4c3.12,0,5.83,1.74,7.77,5.13,1.49,2.58,3,5.18,4.41,7.77,1.93,3.42,3.9,6.93,5.92,10.4.19.34.36.68.55,1l.1.08c.36.62.72,1.24,1.09,1.85,4.71,7.93,10.15,16.2,17.87,23l.25.19c.37.24.75.56,1.16.89s.93.76,1.46,1.12l.89.58.56.36.16.11.18.07a5.12,5.12,0,0,1,.87.56,4.51,4.51,0,0,0-.46.58c-2.33,3.41-4.92,5.33-7.71,5.71s-5.75-.75-8.86-3.38C98,410.14,85.56,399.55,73.19,388.88c-3.19-2.75-4.89-5.61-5.07-8.51S69.32,374.29,72.23,371.07Zm37.2,66.68a8.68,8.68,0,0,1-7.15,2.09c-5.51-.73-10.43-3.56-14.61-6.16a99.6,99.6,0,0,1-10.92-7.46c-2-1.13-4-2.44-5.87-3.59A22.15,22.15,0,0,1,65.14,418l-.76-.49a40.49,40.49,0,0,1-2.23-6,31.78,31.78,0,0,1-1.45-8.81c0-3.37,1.13-5.9,3.37-7.71,2-1.65,2.24-1.65,4.25,0l3.85,3.24c9.26,7.79,18.79,15.81,28.22,23.77l.69.5c1.49,1.08,3.1,1.93,4.69,2.86,2,1.16,4.49,2.36,5.59,4.41.44.17.6.32.64,1.37A8.15,8.15,0,0,1,109.43,437.75ZM234.8,699.53c-27.43,14.69-51.5,21.37-71.51,19.84-14.28-1.08-21.6-6.07-23.47-7.54C109,662.74,112.36,573.85,122.17,526l.4-1.94,1.06-.73c3.68-2.55,4.18-5.18,1.66-8.86-3.47-5-7-10.05-10.43-15.1l.74-.77a61.67,61.67,0,0,0,26.08,5.49c1,0,2,0,3-.06,13.3-.53,23.38-4.71,30.8-12.78a19.9,19.9,0,0,1,7.61-5.32c1.17-.45,2.4-.89,3.58-1.31s2.56-.91,3.84-1.4a70,70,0,0,0,12.94-6.58l3.52,26.23c3.09,22.6,6.26,38.74,9.45,48a228.41,228.41,0,0,1,11.85,59.93c1.33,24-1.8,45.06-9.27,62.71a9.24,9.24,0,0,0,1,1.15,8.82,8.82,0,0,0,3,1.76l6.72-8.5.12-.27.27-.63.18-.63c2.13,7.5,5.28,18.34,7,25.19a1.05,1.05,0,0,1,.25,1c.37,1.45.76,2.91,1.17,4.36ZM377.49,89.25l8.29-6.35A96.32,96.32,0,0,0,393.33,92c7,7.12,16.34,11.83,27.7,14,10,1.89,21.44,1.75,33.19-.41,10.46-1.92,21-5.1,31.19-8.17,11.84-3.58,24.07-7.27,36.64-9.17,6.64-1,15.37-1.86,24,.54,9.22,2.57,16.74,8.79,20.12,16.64l-9.59,4.12c-2.14-5-7.12-9-13.33-10.71-6.69-1.87-14-1.13-19.61-.28-11.83,1.8-23.7,5.38-35.18,8.85-10.47,3.16-21.29,6.42-32.33,8.45a112.88,112.88,0,0,1-20.26,1.89,90.47,90.47,0,0,1-16.76-1.5c-13.49-2.56-24.65-8.25-33.18-16.92A105.47,105.47,0,0,1,377.49,89.25ZM365.3,226a27.73,27.73,0,0,1-.56-9.11c.53-3.18,2.55-9.85,9.17-23.54l12.92-26.9c10.58,8.83,24.78,15.82,42.47,20.87,26.95,7.69,54.13,10.18,81.19,10.18,22.4,0,44.71-1.71,66.73-3.6l-14.05,59.37,4.46,1.06c7.49,1.77,18,6.62,17.52,10.76-1.22,9.78-12.11,40.66-12.22,41l-1.11,3.13,15.12,11.34c-.35,1.86-.49,3.1-.52,3.39l-.25,2.3L595,327l.57.06h.08l.6-4.37c1-5.68,4.61-20.95,14.37-26.3,4.85-2.67,11-2.53,18.11.41,6.77,2.78,14,9.67,10.26,26.71-2.4,10.83-9.17,23.29-17.3,31.88l-.31.14-.25.49c-7.22,9-14.06,10.27-23.4,9.44-8.06-.72-9.82-8.3-9.89-8.62l-1.92-9.1-2.5,9a11.63,11.63,0,0,0,2.41,10.17,16.28,16.28,0,0,0,7.08,4.79c-7.25,14-30.65,63-29.7,110.6C554.88,491.7,542.13,500,528,505.11a94,94,0,0,1-51.07,3.71C448.6,502.89,436,486,430.87,476c14.95,4,31.56,6.86,47.49,6.86,11.07,0,20.5-1.3,28-3.86,45.2-15.38,74.66-91.83,75.89-95.08l.08-.21,1-5.79-4.37-1.18c-10.35,27.29-44.61,81.41-76,92.1-6.44,2.2-14.68,3.31-24.5,3.31h0c-37,0-77.69-16.72-88.41-23.68-14.85-9.65-21.59-21.92-19-34.53,3.67-17.79,2.77-61.53-6-85.51-7.82-21.39-.65-39.28,5.12-53.66l.48-1.2c3.53-8.83,1.62-19.48-1-30.15"/><path class="cls-1" d="M303.8,683.52h0c4-15.34,5.35-33,1.63-48.37l-2,.5a95.17,95.17,0,0,1-.33,45.9s0,.05,0,.08Z"/><path class="cls-1" d="M419.08,116.23a90.47,90.47,0,0,0,16.76,1.5,112.88,112.88,0,0,0,20.26-1.89c11-2,21.86-5.29,32.33-8.45,11.48-3.47,23.35-7,35.18-8.85,5.62-.85,12.92-1.59,19.61.28,6.21,1.73,11.19,5.73,13.33,10.71l9.59-4.12c-3.38-7.85-10.9-14.07-20.12-16.64-8.6-2.4-17.33-1.55-24-.54-12.57,1.9-24.8,5.59-36.64,9.17-10.19,3.07-20.73,6.25-31.19,8.17-11.75,2.16-23.22,2.3-33.19.41-11.36-2.16-20.68-6.87-27.7-14a96.32,96.32,0,0,1-7.55-9.09l-8.29,6.35a105.47,105.47,0,0,0,8.41,10.06C394.43,108,405.59,113.67,419.08,116.23Z"/><path class="cls-1" d="M664.77,807.62c39.33,18.67,14.67,14.67,108.88,38.93,7,1.79,15.93.48,23.64-1.09,17-45.2,7.06-107.59-3-149.27-4.63-19.22-10.84-40.7-26-53.69l-84.49,81.81c-13.93-14.72-23.1-36.69-23.8-52.62a166.12,166.12,0,0,1,3.36-40.09l-3.82-.76-2.92,5.73-.07.17c-.84,2.72-19.53,64.81,18.73,95.82l0,0,.08,0,.37.3a2.12,2.12,0,0,1,.37-.19c9.39,6,4.16,6.34-3.18,34.79"/><g id="Eyes_Open-2" data-name="Eyes Open"><path d="M409.26,253.74c6.33,9.32,4.67,31.86-3,40.33-5.29,5.87-11.13,5.27-14.81-1.71-3.2-6.06-3.59-12.65-2.91-20.72.85-5.91,1.89-13.21,7.07-18.94C400.29,247.56,405.39,248,409.26,253.74Z"/><path d="M362.92,244.34c-.11-6.64,2.23-15.11,2.23-15.11,27.64-20.23,65.28-15.87,65.28-15.87C434,232.11,426.82,243,426.82,243,400.1,220.3,362.92,244.34,362.92,244.34Z"/></g></g></g></svg>