<svg xmlns="http://www.w3.org/2000/svg" xmlns:xlink="http://www.w3.org/1999/xlink" viewBox="0 0 105.57 97.33"><defs><style>.cls-1{fill:none;}.cls-2{fill:#fab616;}.cls-3{clip-path:url(#clip-path);}.cls-4,.cls-5{fill:#fff;stroke:#231f20;stroke-miterlimit:10;}.cls-4{stroke-width:2px;}.cls-6{fill:#231f20;}</style><clipPath id="clip-path"><circle class="cls-1" cx="56.9" cy="48.67" r="48.67"/></clipPath></defs><title>Asset 16</title><g id="Layer_2" data-name="Layer 2"><g id="Layer_1-2" data-name="Layer 1"><g id="ID_Marks"><circle class="cls-2" cx="56.9" cy="48.67" r="48.67"/><g class="cls-3"><rect class="cls-4" x="32.23" y="26.13" width="61.58" height="23.29" rx="4.98" ry="4.98"/><rect class="cls-4" x="25.14" y="31.23" width="7.09" height="13.83"/><rect class="cls-4" x="20.44" y="33.96" width="4.71" height="8.37"/><line class="cls-5" y1="37.78" x2="20.44" y2="37.78"/><path class="cls-4" d="M91.49,49.42S97.1,65.33,95.94,76L77,75.71c5.28-13,1-26.29,1-26.29Z"/><rect class="cls-4" x="69.58" y="75.98" width="30.82" height="12.01" rx="2.53" ry="2.53"/><path class="cls-6" d="M59.74,36.45c1.17,1.88,2.31,3.78,3.46,5.68l-.36,0c.74-2.09,1.54-4.16,2.31-6.24l.23-.64.36.6,3.36,5.73-.76.06,2.39-6.2.35-.91.49.85,3.31,5.76-.9.07,2.46-6.18.36-.91.48.85,3.25,5.8-.77.06,2.52-6.16.26-.64.33.6c1.06,2,2.14,3.88,3.18,5.85l-.36,0c.87-2,1.72-4.08,2.62-6.11-.73,2.09-1.5,4.17-2.25,6.26l-.14.39-.22-.36c-1.16-1.9-2.27-3.82-3.4-5.72l.59,0-2.34,6.22-.32.84-.45-.79-3.31-5.76.83-.06-2.39,6.2-.39,1L74,41.66l-3.25-5.8.83,0L69.13,42l-.34.84L68.36,42,65.17,36.2l.59,0c-.85,2.05-1.68,4.11-2.55,6.14l-.17.39-.19-.36C61.81,40.37,60.76,38.42,59.74,36.45Z"/></g></g><g id="ID_Marks-2" data-name="ID_Marks"><circle class="cls-2" cx="56.9" cy="48.67" r="48.67"/><g class="cls-3"><rect class="cls-4" x="32.23" y="26.13" width="61.58" height="23.29" rx="4.98" ry="4.98"/><rect class="cls-4" x="25.14" y="31.23" width="7.09" height="13.83"/><rect class="cls-4" x="20.44" y="33.96" width="4.71" height="8.37"/><line class="cls-5" y1="37.78" x2="20.44" y2="37.78"/><path class="cls-4" d="M91.49,49.42S97.1,65.33,95.94,76L77,75.71c5.28-13,1-26.29,1-26.29Z"/><rect class="cls-4" x="69.58" y="75.98" width="30.82" height="12.01" rx="2.53" ry="2.53"/><path class="cls-6" d="M59.74,36.45c1.17,1.88,2.31,3.78,3.46,5.68l-.36,0c.74-2.09,1.54-4.16,2.31-6.24l.23-.64.36.6,3.36,5.73-.76.06,2.39-6.2.35-.91.49.85,3.31,5.76-.9.07,2.46-6.18.36-.91.48.85,3.25,5.8-.77.06,2.52-6.16.26-.64.33.6c1.06,2,2.14,3.88,3.18,5.85l-.36,0c.87-2,1.72-4.08,2.62-6.11-.73,2.09-1.5,4.17-2.25,6.26l-.14.39-.22-.36c-1.16-1.9-2.27-3.82-3.4-5.72l.59,0-2.34,6.22-.32.84-.45-.79-3.31-5.76.83-.06-2.39,6.2-.39,1L74,41.66l-3.25-5.8.83,0L69.13,42l-.34.84L68.36,42,65.17,36.2l.59,0c-.85,2.05-1.68,4.11-2.55,6.14l-.17.39-.19-.36C61.81,40.37,60.76,38.42,59.74,36.45Z"/></g></g></g></g></svg>