<svg xmlns="http://www.w3.org/2000/svg" viewBox="0 0 282.38 115.02"><defs><style>.cls-1{fill:#fbb714;}</style></defs><title>Asset 2</title><g id="Layer_2" data-name="Layer 2"><g id="Tool"><path class="cls-1" d="M64.24,91.71c1.38,8.76,7.81,14.54,16.65,15,14.41.82,26.31-4.63,36.35-14.59,12.53-12.43,19.2-27.92,23-44.85,1.71-7.71,2.47-15.49.33-23.28-1.77-6.45-5.77-9.55-12.42-9.94-3.9-.24-7,1.55-10.15,3.59-.55-3.56-1.33-4.09-4.79-3.23a57.57,57.57,0,0,0-14.73,6c-15.77,9.07-24.8,23.25-30.11,40.14C65.16,70.72,62.54,80.94,64.24,91.71Zm22.83-18.5C88.79,60,92.38,47.6,101.81,37.62a32.63,32.63,0,0,1,4.3-3.63c.94-.7,2.09-2.09,2.78.44.29,1.06,1.63.68,2.53.54,5.79-.94,7.77.65,8.27,8.48-1.48,12.32-4.93,25.72-15.25,36.35a15.84,15.84,0,0,1-9.69,4.73c-4.1.47-6.61-1.38-7.55-5.38A16.7,16.7,0,0,1,87.07,73.21Z"/><path class="cls-1" d="M160.48,99.16c14.41.79,26.29-4.7,36.31-14.68C209.29,72,216,56.54,219.69,39.61c1.7-7.72,2.44-15.51.28-23.28C218.21,10,214.29,7,207.78,6.51c-3.91-.27-7.09,1.38-10.41,3.66-.45-3.52-1.32-4.16-4.55-3.36a57.65,57.65,0,0,0-15,6.14c-14.17,8.18-23.12,20.62-28.49,35.76-4,11.35-7.44,22.89-5.62,35.21C145,92.87,151.45,98.66,160.48,99.16Zm6.09-33.64c1.7-13.18,5.32-25.6,14.77-35.56a29,29,0,0,1,4.06-3.43c1-.72,2.19-2.26,3,.38.32,1,1.66.6,2.57.44,5.55-1,7.62.67,8.19,8.54-1.49,12.17-4.89,25.69-15.34,36.38a15.92,15.92,0,0,1-9.09,4.6c-4.62.73-7.51-1.37-8.17-6A19.74,19.74,0,0,1,166.57,65.52Z"/><path class="cls-1" d="M74.18,18.82c-4-.34-7.92.44-11.86,1C46.47,22,30.84,25.53,15.09,28.38c-6.57,1.19-9.93,4.21-11.5,10.73a13.8,13.8,0,0,1-1.4,4.11C.92,45.32-1,47.63.62,50.13S5,51.58,7.32,51.26c6-.84,11.94-1.86,17.92-2.81.31,1.25-.42,2.12-.81,3C17,69.12,10.27,87,4.58,105.25a19.85,19.85,0,0,0-1.15,5.82c0,3.3,1.37,4.57,4.44,3.67a14,14,0,0,1,4.63-.49c7.83.29,12.31-2.86,14.77-10.35.42-1.29.82-2.58,1.21-3.88,5.26-17.61,10.24-35.3,16.19-52.69a4.25,4.25,0,0,1,3.9-3.23c6.8-1.17,13.59-2.47,19.81-5.67,3.37-1.73,6.33-4,6.64-8.1a13,13,0,0,1,2.22-6C79.3,20.94,78.26,19.18,74.18,18.82Z"/><path class="cls-1" d="M226.18,93.48l1.56-.15,0,.13c7.4-1.43,14.82-2.78,22.2-4.3,6.35-1.31,12.67-2.8,19-4.22,7.63-1.71,11.5-7,10.36-14.46-.18-1.22.64-1.39,1.07-2,1.21-1.63,2.6-3.58,1.67-5.39-1-2-3.37-.86-5.15-.61-9.65,1.38-19.06,3.93-28.55,6.09-2.51.57-3,.08-2.39-2.5,2.33-9.66,5.21-19.16,8.35-28.57C258,26.63,261.94,15.84,265.71,5c1.33-3.86.17-5.27-3.91-4.93-2.19.18-4.37.73-6.55.71-5.61,0-8.63,3-10.86,7.85-9.48,20.65-16.9,42.07-23.88,63.66a47.45,47.45,0,0,0-2.57,13.51C217.79,91.66,220.39,94.07,226.18,93.48Z"/></g></g></svg>