<svg id="Layer_1" data-name="Layer 1" xmlns="http://www.w3.org/2000/svg" viewBox="0 0 816.81 1059.41"><defs><style>.cls-1{fill:none;}.cls-2{fill:#fff;}.cls-3{fill:#f8b617;}</style></defs><title>landing_page_logo</title><path class="cls-1" d="M202.79,914.62a15.84,15.84,0,0,0,9.69-4.73c10.33-10.63,13.78-24,15.26-36.35-.51-7.83-2.49-9.42-8.27-8.48-.91.14-2.25.52-2.54-.54-.69-2.53-1.84-1.14-2.78-.44a33.85,33.85,0,0,0-4.3,3.63c-9.43,10-13,22.41-14.73,35.59a16.25,16.25,0,0,0,.13,5.94C196.18,913.27,198.7,915.12,202.79,914.62Z" transform="translate(0.04 0)"/><path class="cls-1" d="M214.33,981a22.13,22.13,0,0,0-8.68.7A2.24,2.24,0,0,0,204,983c-2.66,5.43-5.18,10.92-6.33,17.48,6.24-1.76,11.71-3.87,16-8.25a13.8,13.8,0,0,0,3.82-6.36C218.26,983,217.25,981.47,214.33,981Z" transform="translate(0.04 0)"/><path class="cls-1" d="M282.79,907a15.86,15.86,0,0,0,9.09-4.6c10.45-10.69,13.85-24.21,15.35-36.38-.58-7.87-2.65-9.51-8.2-8.54-.9.16-2.25.58-2.57-.44-.83-2.64-2-1.1-3-.38a28.32,28.32,0,0,0-4.07,3.43c-9.45,10-13.07,22.38-14.77,35.56a19.74,19.74,0,0,0,0,5.32C275.33,905.62,278.17,907.72,282.79,907Z" transform="translate(0.04 0)"/><path class="cls-1" d="M145.14,984.51c-4.63-.83-9.13.21-13.6,1.27a1.9,1.9,0,0,0-1.28,1.26,169.39,169.39,0,0,0-6.46,17.2c5.59-.22,10.72-.72,15.59-2.79a21,21,0,0,0,9.56-7.78C151.67,989.51,150,985.38,145.14,984.51Z" transform="translate(0.04 0)"/><path class="cls-1" d="M290,971.26c-.81.11-2,.43-2.28-.45-1-2.84-2.24-1-3.25-.26a24,24,0,0,0-3.82,3.23c-9.46,10-13.07,22.38-14.82,35.55a16.43,16.43,0,0,0,.16,6.25c1,3.84,3.41,5.63,7.36,5.22a15.87,15.87,0,0,0,10-4.85c10.3-10.67,13.65-24.1,15.15-36.23C297.85,971.86,296,970.42,290,971.26Z" transform="translate(0.04 0)"/><path class="cls-2" d="M420.71,268.9c-15.38-25.48-41.14-26.28-51.24-25.5,2.66,10.67,4.56,21.32,1,30.15l-.48,1.21c-5.76,14.38-12.93,32.26-5.12,53.66,8.76,24,9.66,67.72,6,85.5-2.6,12.62,4.15,24.88,19,34.53,10.72,7,51.39,23.68,88.41,23.69h0c9.82,0,18.06-1.12,24.51-3.31,31.42-10.7,65.67-64.82,76-92.11l4.38,1.19-1,5.79-.08.21c-1.23,3.24-30.69,79.69-75.89,95.08-7.51,2.56-16.94,3.86-28,3.86-15.92,0-32.54-2.88-47.49-6.87,5.13,10,17.73,26.91,46,32.84a94,94,0,0,0,51.07-3.72c14.15-5.09,26.9-13.4,35.25-22.83-1-47.63,22.45-96.61,29.69-110.59a16.46,16.46,0,0,1-7.08-4.79,11.64,11.64,0,0,1-2.31-10.17l2.5-9,1.92,9.11c.07.31,1.83,7.9,9.89,8.62,9.34.83,16.19-.45,23.4-9.45l.26-.48.3-.14c8.13-8.59,14.9-21.06,17.31-31.88,3.78-17-3.5-23.93-10.26-26.71-7.17-2.94-13.26-3.08-18.12-.42-12,6.6-14.68,28.25-14.71,28.46l-.21,1.87-.12.34.08-.05v.06h-.08l-.58-.05-8.84-.86.25-2.29c0-.29.18-1.53.52-3.4l-15.11-11.33,1.1-3.13c.11-.31,11-31.19,12.22-41,.52-4.14-10-9-17.51-10.77l-4.46-1,14-59.38c-22,1.9-44.33,3.61-66.73,3.61-27.06,0-54.23-2.5-81.19-10.19-17.68-5-31.88-12-42.47-20.86l-12.91,26.89c-6.62,13.7-8.65,20.37-9.18,23.55a28.12,28.12,0,0,0,.56,9.1C422.72,235.3,420.71,268.9,420.71,268.9Zm-45.32,8.78a3.07,3.07,0,0,1-.44-3.44A1,1,0,0,1,375,274c.15-.43.29-.88.42-1.32a32,32,0,0,1,1.6-4.36c4-8.22,9.38-10.64,18.16-8.06,5.83,1.7,11,4.64,16.87,9.53l3.62,3H402c-9.38.2-16.31,1.69-22.47,4.83l-.27.16a3.8,3.8,0,0,1-2,.7A2.59,2.59,0,0,1,375.39,277.68Zm88.86-62.62s53.68,8.42,86.93,36.6c0,0,7.66,7.39,5.85,14.79,0,0-52.49-37.54-95.14-17.53,0,0-7.28-13.6,2.36-33.86Zm47.08,71.75c-2.1,7.82-4.7,13.88-9.77,18.5-5.83,5.32-11.52,3.9-14.51-3.42-4.3-10.56,1.8-32.32,10.91-38.94,5.58-4,10.54-2.76,13.16,3.65C514.06,273.75,512.57,281,511.33,286.81Zm-53.59,83.3c22.38,0,40.7-4.52,54.45-13.45h0l7.72-5-.39,9.19A64.81,64.81,0,0,1,512.09,386c-6.37,11.87-19.51,26.74-46,30.22a177.37,177.37,0,0,1-22.91,1.64,101,101,0,0,1-15.44-1.09c-12.5-1.95-29.41-6-39-14.23l-.07-.06-.13-.11-1-.93.61-1.11,1.92-4,5.07,2.11a45.81,45.81,0,0,0,4.47,2l4.29-12L390,369.19a60.8,60.8,0,0,1-10.63-4.64l-.95-.52.06-1.08c.1-1.82.25-3.51.47-5.14l.21-1.52H381l.52.19c.37.13,37.41,13.65,76.2,13.65ZM428,270.24c.86-4.72,1.78-9.09,3.61-10.68l2.12-1.83.23,2.79c.68,8.19-1.77,22.28-3.72,28.9-1.41,4.77-3.91,9.92-6.33,14.91A114.41,114.41,0,0,0,418.33,317c-1.63,4.83-2.24,6.63,4.24,10.77l.18.13a34,34,0,0,0,5.3,3.59c1.59.94,3.24,1.92,4.94,3.15l.9.59c2.79,1.79,7,4.49,5.46,7.14-.65,1.11-2,1.5-3.78,1.5a31.55,31.55,0,0,1-5.73-.75l-1.06-.19a10.66,10.66,0,0,1-3.83-1.41l-1.73-1.06c-3.72-2.29-7.57-4.66-11.22-7.23-6.68-4.7-7.78-9-4.2-16.4.82-1.7,1.74-3.32,2.62-4.84a193,193,0,0,0,17.13-39.66,18.09,18.09,0,0,0,.43-2.06Z" transform="translate(0.04 0)"/><path class="cls-2" d="M446.19,390.08h1.64l.11,6.12-10.06.59h-.12c-3.1-.07-6.29-.28-9.51-.63a120.47,120.47,0,0,1-16-2.85l-3.57,10c12.3,3.48,31.59,6.67,56.22,3.43C475.21,405.38,484,402,491,396.65l.19-.13a6.44,6.44,0,0,0,1.21-1l.1-.09c1-.85,2-1.75,2.92-2.68l.32-.27a26.66,26.66,0,0,0,4.6-4.47,14.32,14.32,0,0,0,2.37-4.61l.09-.36a10.22,10.22,0,0,0,.25-1.45h0a9.6,9.6,0,0,0,0-2.93v-.18a8.53,8.53,0,0,0-3-5.64h-.29a4.5,4.5,0,0,0-1.5.58l-.64.31c-.46.22-.93.43-1.4.63l-.18.06c-13,4-35.33,7.7-67.77,3.07-7.72-1.1-15.65-2.62-23.64-4.51l7.62,10.54C419,385.53,434.83,389.83,446.19,390.08Z" transform="translate(0.04 0)"/><path class="cls-2" d="M154.19,386.18a31,31,0,0,0,7.48,8.09c1.89,1.37,3.48,1.46,5.31.28a30.25,30.25,0,0,0,6.61-5.14c4-4.58,4.81-9.31,2.46-14.88-5.45-13-10.63-25.66-16.36-39.74a42.08,42.08,0,0,1-1.51-4.78c-.18-.69-.37-1.38-.57-2.06l-.67-2.22-1.16-3.43a12.87,12.87,0,0,0-5.42-1.75c-.51,0-1-.06-1.51-.06A17,17,0,0,0,135.33,327,16,16,0,0,0,133,342.29C139,359.62,146,374,154.19,386.18Z" transform="translate(0.04 0)"/><path class="cls-2" d="M97.45,358.67c1.37,5.47,4.08,10.55,6.47,15,1,1.88,2,3.66,2.78,5.39a162.74,162.74,0,0,0,12.17,19.76c3.57,4.85,6.92,9.09,11.76,11.86a11.21,11.21,0,0,0,2.78,1.19l.65.11a3.73,3.73,0,0,0,1.84-.26l1.94-.8a137.89,137.89,0,0,0,14.78-6.78,7.76,7.76,0,0,0,3.26-2.85c.82-1.48.57-1.67-.18-2.23a28.48,28.48,0,0,1-5.37-5.54l-.86-.94s-1-1.39-1.32-1.94c-.23-.37-.44-.74-.66-1.1-8.92-13.08-14.9-27.31-21.18-43.13A11.7,11.7,0,0,0,118,338.9,16.6,16.6,0,0,0,101.85,343,16.2,16.2,0,0,0,97.45,358.67Z" transform="translate(0.04 0)"/><path class="cls-2" d="M238.51,696.92c-.41-1.46-.8-2.91-1.17-4.36a1,1,0,0,0-.25-1c-1.69-6.84-4.83-17.68-7-25.18l-.18.63c-.09.21-.17.42-.27.63l-.11.27-6.73,8.49a8.58,8.58,0,0,1-3-1.76,9.07,9.07,0,0,1-1-1.14c7.47-17.66,10.6-38.74,9.27-62.71a227.63,227.63,0,0,0-11.74-60c-3.18-9.24-6.36-25.39-9.45-48l-3.55-26.21a70.26,70.26,0,0,1-12.94,6.57c-1.29.5-2.59,1-3.85,1.41s-2.41.85-3.58,1.31a20.13,20.13,0,0,0-7.63,5.31c-7.42,8.08-17.5,12.26-30.79,12.79-1,0-2,.06-3,.06a61.68,61.68,0,0,1-26-5.45l-.74.77c3.45,5,7,10.06,10.43,15.1,2.53,3.68,2,6.31-1.66,8.85l-1.06.74-.4,1.93c-9.81,47.87-13.17,136.77,17.66,185.86,1.86,1.46,9.18,6.46,23.46,7.54,20,1.52,44.08-5.15,71.51-19.84Z" transform="translate(0.04 0)"/><path class="cls-2" d="M68,380.36c.18,2.9,1.89,5.77,5.08,8.52,12.36,10.66,24.78,21.25,36.93,31.48,3.11,2.62,6.1,3.76,8.86,3.38s5.39-2.3,7.71-5.71a4.44,4.44,0,0,1,.46-.59,5.56,5.56,0,0,0-.87-.55l-.18-.08-.16-.11-.56-.36-.88-.58a15.59,15.59,0,0,1-1.46-1.11c-.41-.33-.8-.65-1.17-.9l-.24-.18c-7.73-6.82-13.16-15.1-17.88-23l-1.09-1.85a.39.39,0,0,0-.1-.08l-.54-1c-2-3.47-4-7-5.93-10.4q-2.19-3.9-4.4-7.78c-2-3.38-4.65-5.13-7.77-5.13a11,11,0,0,0-5.12,1.41,24.17,24.17,0,0,0-6.58,5.37C69.21,374.28,67.83,377.41,68,380.36Z" transform="translate(0.04 0)"/><path class="cls-2" d="M179.1,432.77c-4.35,5.24-9.14,10.13-13.8,15.12s-9.11,9.75-13.82,14.49c-3.27,3.29-6.55,6.58-10.14,9.55l-19,19.69A52.49,52.49,0,0,0,141,495c12.88.08,21.53-3.09,28-10.26a25.8,25.8,0,0,1,7.51-5.82,63.17,63.17,0,0,1,7.83-3.17l2.91-1.06c11.83-4.47,20.16-11.32,25.45-20.94.41-.74.81-1.45,1.21-2.15.12-.29.25-.57.38-.85l.14-.06A102,102,0,0,1,223.8,437a77.36,77.36,0,0,1,6-6.54,46.49,46.49,0,0,0,3.69-5.62,45.56,45.56,0,0,0,3.93-9c1.1-4.14.87-8.88.66-13.46l-2.75-56.19c-.2-4.21-.41-8.56-1.89-12.12A15.19,15.19,0,0,0,207.12,331c-2.18,3-3.31,7-4.12,10.39-5.05,21.33-3.34,42,4.93,59.8l-7.3,3.4C193.59,414.05,186.66,423.62,179.1,432.77Z" transform="translate(0.04 0)"/><path class="cls-2" d="M87.56,433.67c4.18,2.61,9.1,5.44,14.62,6.17a8.69,8.69,0,0,0,7.14-2.09,8.13,8.13,0,0,0,2.58-6.52c0-1-.21-1.19-.65-1.37-1.1-2-3.58-3.24-5.58-4.41-1.59-.92-3.2-1.78-4.7-2.86l-.69-.5c-9.43-8-19-16-28.22-23.76l-3.85-3.24c-2-1.69-2.21-1.7-4.25,0-2.24,1.82-3.34,4.34-3.37,7.72A31.71,31.71,0,0,0,62,411.62a41.59,41.59,0,0,0,2.23,6l.76.49a22,22,0,0,0,5.74,4.51c1.9,1.16,3.85,2.46,5.87,3.6A100.11,100.11,0,0,0,87.56,433.67Z" transform="translate(0.04 0)"/><path class="cls-2" d="M208.15,151.37l-.67-.85c-.71-.91-1.44-1.84-2.16-2.84-3.91-5.43-8.12-11.15-13.16-17.85l-7.1,4.37L185,134l-44.67,27.11.16.14-5.73,3.42c.52,1,1,2.1,1.45,3.13s.91,2,1.37,3l1.24,2.47c2.53,5.08,5.14,10.31,7.59,15.61C166.07,176.82,186.33,164.54,208.15,151.37Z" transform="translate(0.04 0)"/><path class="cls-2" d="M181.41,123.93c-5.63-9.18-11.63-19.09-18.23-30.11l-13.63,8.29h0l-6.92,4.2h0l-7,4.24h0l-6.83,4.13h0Q121.92,118.85,115,123c5.72,9.3,11.72,19.21,18.24,30.09Z" transform="translate(0.04 0)"/><path class="cls-2" d="M333.63,327.49a46.44,46.44,0,0,1,3.07,6,1.87,1.87,0,0,1,.47.79c2.7,7.55,5.82,15,6,23.19a7.78,7.78,0,0,1-3.73,7.26c-17.78,12.06-36.23,23-54.69,34-4.4,2.61-6.94,2.71-11.81-.05-1.6-1.22-5-3-9.51-6.15-1.16-.81-2.31-1.64-3.44-2.48-5.17-3.77-10.08-7.56-10.62-8s-1.38-1.17-2.1-1.76l1,21.57c.24,5.1.52,10.89-1,16.56a53.7,53.7,0,0,1-4.76,11.14,65.94,65.94,0,0,1-5.82,8.7c-1.64,2.2-6.2,5.14-8.24,7.38a84.15,84.15,0,0,0-7.2,11.43,51.37,51.37,0,0,1-8.16,11.46l4.35,32.94q2.44,17.84,4.88,29.89l16.07-8.19s37.94-19,37.94-19h0C320.51,477.88,365.08,458.45,378,453c-14-11.51-20.24-26.68-17.16-42.53,3.2-16.52,2.47-55.27-6-78.39-9.22-25.25-1.21-45.26,5.23-61.33l.49-1.2c2.84-7.12-.08-18.31-2.92-29.13-.16-.61-.31-1.21-.47-1.81a307,307,0,0,0-57.07,33.45l30.05,49.54C331.33,323.62,332.33,325.62,333.63,327.49Z" transform="translate(0.04 0)"/><path class="cls-2" d="M632.74,288.45c14,5.94,19.49,19.06,15.5,37-2.35,10.59-8.32,22.57-16,32-8.48,10.47-17.55,16.24-25.54,16.24-1,0-1.9,0-2.81-.07-3.19,5.91-27.77,52.93-29.91,99.5,8.28.82,26.52,3.78,50.91,14.49a273.43,273.43,0,0,1,57,34.35,364.67,364.67,0,0,1,42,38.31l-.12-.13,52.56,53.37A307.46,307.46,0,0,0,791,519.62c0-110.77-58.52-207.86-146.32-262.09-.33,1.35-.67,2.69-1,4.05C640.65,272.37,637.15,281.08,632.74,288.45Z" transform="translate(0.04 0)"/><path class="cls-2" d="M303.69,683.52l-.75-1.89v-.08l-9.5,7.05L291.86,690c-.88.78-21.6,19.32-39.91,25.78l-1.39.47A337.2,337.2,0,0,0,302,765.4c-.55-.51-.88-.83-1-.92Z" transform="translate(0.04 0)"/><path class="cls-3" d="M440.33,823.52v1l.51.07A6.54,6.54,0,0,0,440.33,823.52Z" transform="translate(0.04 0)"/><path class="cls-3" d="M213.94,451.62c.17-.31.34-.61.52-.91l-.14.06C214.19,451,214.06,451.31,213.94,451.62Z" transform="translate(0.04 0)"/><path class="cls-2" d="M218.82,1006c8.2-4.27,15.17-10,20.13-18a28.83,28.83,0,0,0,4.38-14.22c.35-7.5-5.68-13.82-14.92-15.48-9-1.61-17.73.31-26.33,2.67-6.34,1.75-12.62,3.79-18.1,7.66-3.22,2.26-5.63,5-5.78,9.19a20,20,0,0,1-.76,4.61c-1.25,4.68.32,6.3,5.1,5.33.5-.1,1-.27,2.11-.59-.66,1.67-1.14,2.93-1.64,4.17q-10.23,25.14-18,51.11c-2.82,9.35-.33,11.68,9.06,9.52l.92-.21c5.77-1.13,9.61-4.4,11.11-10.17.7-2.73,1.32-5.48,2-8.23a76.48,76.48,0,0,1,4.67-15c.69,1,1.18,1.64,1.64,2.32,6.77,10.06,13.26,20.32,20.88,29.77,3,3.68,4.3,3.72,7.26,0s5.47-7.86,8.69-11.48c4.62-5.18,4.43-6.34.15-11.82-4.43-5.69-9.57-10.8-13.59-16.83C216.2,1008.22,216.42,1007.29,218.82,1006Zm-5.1-13.82c-4.32,4.38-9.79,6.49-16,8.25,1.15-6.56,3.67-12.05,6.33-17.48a2.24,2.24,0,0,1,1.64-1.28,22.13,22.13,0,0,1,8.68-.7c2.91.46,3.92,2,3.2,4.85A13.85,13.85,0,0,1,213.72,992.22Z" transform="translate(0.04 0)"/><path class="cls-2" d="M172.33,921.83c1.38,8.76,7.81,14.54,16.66,15,14.41.82,26.3-4.63,36.34-14.59,12.53-12.43,19.2-27.92,23-44.84,1.71-7.72,2.47-15.5.33-23.29-1.77-6.45-5.77-9.55-12.41-9.94-3.91-.24-7,1.55-10.16,3.59-.55-3.56-1.33-4.09-4.79-3.23a57.76,57.76,0,0,0-14.73,6c-15.77,9.07-24.8,23.25-30.1,40.14C173.2,900.84,170.58,911.06,172.33,921.83Zm22.84-18.5c1.71-13.18,5.3-25.61,14.73-35.59a33.85,33.85,0,0,1,4.3-3.63c.94-.7,2.09-2.09,2.78.44.29,1.06,1.63.68,2.54.54,5.78-.94,7.76.65,8.27,8.48-1.48,12.32-4.93,25.72-15.26,36.35a15.84,15.84,0,0,1-9.69,4.73c-4.09.47-6.61-1.38-7.54-5.38a16.26,16.26,0,0,1-.18-5.94Z" transform="translate(0.04 0)"/><path class="cls-2" d="M268.52,929.28c14.42.79,26.3-4.7,36.31-14.68,12.5-12.45,19.17-28,22.9-44.87,1.7-7.72,2.45-15.51.28-23.28-1.76-6.32-5.68-9.36-12.19-9.82-3.91-.27-7.09,1.38-10.4,3.66-.46-3.52-1.32-4.16-4.55-3.36a57.86,57.86,0,0,0-15,6.14c-14.18,8.18-23.12,20.62-28.5,35.76-4,11.35-7.43,22.89-5.62,35.21C253.05,923,259.49,928.78,268.52,929.28Zm6.09-33.66c1.7-13.18,5.32-25.6,14.77-35.56a28.32,28.32,0,0,1,4.07-3.43c1-.72,2.18-2.26,3,.38.32,1,1.67.6,2.57.44,5.55-1,7.62.67,8.2,8.54-1.5,12.17-4.9,25.69-15.35,36.38a15.86,15.86,0,0,1-9.09,4.6c-4.62.73-7.5-1.37-8.17-6A20,20,0,0,1,274.61,895.62Z" transform="translate(0.04 0)"/><path class="cls-2" d="M306.57,950.34c-3.79-.16-6.83,1.58-9.84,3.58-.68-3.57-1.47-4.06-5.1-3.14a56.8,56.8,0,0,0-14.7,6.09c-15.72,9.15-24.69,23.34-30,40.25-3.12,10-5.7,20.12-4,30.78,1.36,8.77,7.79,14.61,16.59,15.11,14.53.83,26.5-4.68,36.59-14.76,12.4-12.39,19-27.79,22.78-44.6,1.71-7.71,2.48-15.49.36-23.28C317.45,953.79,313.33,950.62,306.57,950.34ZM283.26,1016a15.87,15.87,0,0,1-10,4.85c-4,.41-6.4-1.38-7.36-5.22a16.43,16.43,0,0,1-.16-6.25c1.75-13.17,5.36-25.6,14.82-35.55a24,24,0,0,1,3.82-3.23c1-.69,2.29-2.58,3.25.26.29.88,1.47.56,2.28.45,6-.84,7.9.6,8.46,8.46-1.46,12.13-4.81,25.56-15.11,36.23Z" transform="translate(0.04 0)"/><path class="cls-2" d="M428,988.38c6.67-1.45,13.5-1.75,20.18-3.09,4.17-.84,7-3.14,8-7.39a22.35,22.35,0,0,1,2-4.89c2.28-4.53.95-6.79-4.16-6.61a104,104,0,0,0-17.15,1.92c-1.88.38-3.78.65-6.21,1,.92-2.26,1.87-3.83,2.18-5.52,1.19-6.4,5.54-8.35,11.38-9.37,7.94-1.37,15.86-2.85,23.85-3.94,3.71-.51,7-3,6.78-5.42a19.9,19.9,0,0,1,.59-7c.56-2.12.15-4-2.89-3.81-12.53.67-25.12.79-37.53,3-6,1.06-12,1.88-17.54,4.58-1.63.79-3.44,1.64-3.64,3.57-.28,2.74-1.28,5.28-1.65,8-.65,4.73.46,6,5.54,6.11-4.13,8.4-7.82,16.59-11.22,24.91-4.95,12.09-9.39,24.36-13.16,36.87-1.35,4.44-.75,5.22,3.68,6.3a1,1,0,0,1,.53.25c2.14,3,5.21,2.13,8,1.8,14-1.67,27.78-5.06,41.6-8,5.15-1.09,7.83-4.54,8.54-9.6a7.79,7.79,0,0,1,1.95-4.77c1.53-1.58.88-3-.85-4.1a5.28,5.28,0,0,0-3.89-.76c-5.06.83-10.16,1.46-15.19,2.44-6.95,1.35-13.85,2.94-21.1,4.5,1.27-5.61,3.69-10.61,5.21-15.87C422.84,990.11,424.89,989.05,428,988.38Z" transform="translate(0.04 0)"/><path class="cls-2" d="M156,964.75c-15.53-1.55-30.36,1.6-44.39,8.43-7.19,3.5-9.47,10.24-11,17.29-.64,2.86.88,4.12,3.82,3.59a42.8,42.8,0,0,0,4.84-1.46c-.23.64-.37,1.15-.58,1.62-7.15,15.83-12.65,32.27-17.82,48.82-1.37,4.37-2.77,8.78-2.42,13.48.17,2.44,1.44,3.34,3.79,2.69a67.19,67.19,0,0,1,8.88-1.92c5.65-.75,9-4.14,10.29-9.56.85-3.44,1.66-6.9,2.39-10.37a158.46,158.46,0,0,1,5.45-20.23c1.41,5.87,2.67,7,6.87,6.74,21.18-1.33,40.8-19.76,43.52-40.9C171,972.42,166.41,965.78,156,964.75ZM149,993.67a21,21,0,0,1-9.56,7.78c-4.87,2.07-10,2.57-15.59,2.79a169.39,169.39,0,0,1,6.46-17.2,1.9,1.9,0,0,1,1.28-1.26c4.47-1.06,9-2.1,13.6-1.27C150,985.38,151.67,989.51,149,993.67Z" transform="translate(0.04 0)"/><path class="cls-2" d="M540.61,929.36c-2-1.74-4.21-.14-6,1-1.5,1-2.38,1.56-3.5-.56-.75-1.41-2.58-1.56-4.23-1.45-4.19.25-7.91,1.94-11.46,4-22.86,13-37.59,32.7-46.92,56.85a47.34,47.34,0,0,0-3.26,16.2c-.19,9.58,5.25,17,13.31,17.16,10.24.2,20-2.12,28.07-8.86a79.72,79.72,0,0,0,20.07-25.85,25.09,25.09,0,0,0,1.8-4.66c.51-1.89.11-3.4-2.33-3.31-1,0-1.82.15-2-1.27-.25-2.32-1.77-2.18-3.46-1.55a6.45,6.45,0,0,0-3,2.68c-4.85,6.83-9.78,13.61-16.25,19-2.57,2.17-5.32,4.1-8.87,4.28-2.67.14-4.37-1-5.07-3.63-.88-3.4-.21-6.69.86-9.86a97.66,97.66,0,0,1,23.71-38,22.2,22.2,0,0,1,7.35-5.23c-2.66,3.77-5.65,7.3-7.21,11.73-.77,2.19-.91,4.36.75,6.2a6.38,6.38,0,0,0,6.6,1.89,12.34,12.34,0,0,0,4.25-1.9,57.7,57.7,0,0,0,19.62-24.74,16,16,0,0,0,.75-2.71C544.91,933.46,542.75,931.21,540.61,929.36Z" transform="translate(0.04 0)"/><path class="cls-2" d="M182.23,848.94c-4-.34-7.93.44-11.86,1-15.86,2.23-31.49,5.72-47.24,8.57-6.57,1.19-9.92,4.21-11.5,10.73a13.68,13.68,0,0,1-1.39,4.11c-1.27,2.1-3.2,4.41-1.58,6.91s4.4,1.45,6.7,1.13c6-.84,11.94-1.86,17.93-2.81.3,1.25-.43,2.12-.82,3-7.41,17.62-14.16,35.49-19.85,53.75a19.92,19.92,0,0,0-1.15,5.82c0,3.3,1.37,4.57,4.45,3.67a13.84,13.84,0,0,1,4.62-.49c7.83.29,12.31-2.86,14.77-10.35.42-1.29.82-2.58,1.21-3.88,5.27-17.61,10.24-35.3,16.19-52.69a4.26,4.26,0,0,1,3.91-3.23c6.79-1.17,13.59-2.47,19.81-5.67,3.36-1.73,6.33-4,6.63-8.1a13.26,13.26,0,0,1,2.22-6C187.33,851.06,186.33,849.3,182.23,848.94Z" transform="translate(0.04 0)"/><path class="cls-2" d="M405,952.79a18.09,18.09,0,0,1,2.61-7.17c1.67-2.75.6-4.51-2.63-5a34.72,34.72,0,0,0-9.38.49c-17.54,2.33-34.81,6.17-52.19,9.38a10.92,10.92,0,0,0-8.69,7.36c-1.25,3.52-2.42,7-4,10.45-1.47,3.1.08,5,3.56,5a32.14,32.14,0,0,0,4.37-.41c5.57-.87,11.13-1.8,17.16-2.79-.54,1.39-.85,2.25-1.21,3.1-7.42,17.62-14.18,35.49-19.87,53.75a19.11,19.11,0,0,0-1.18,6.44c.11,2.74,1.41,3.78,4.11,3.19a15.93,15.93,0,0,1,4-.66c9.35.33,13.28-2.35,16-11.12,5.73-18.44,10.78-37.09,17-55.38A4.67,4.67,0,0,1,379,965.8c6.7-1.11,13.39-2.43,19.51-5.6C401.59,958.62,404.49,956.62,405,952.79Z" transform="translate(0.04 0)"/><path class="cls-2" d="M621.6,920a23.85,23.85,0,0,0-6.26.09c-18.73,2.21-37.1,6.41-55.62,9.81a10.69,10.69,0,0,0-8.33,6.93c-1.4,3.68-2.54,7.44-4.24,11-1.39,2.92.2,4.81,3.53,4.8a23.53,23.53,0,0,0,3.75-.32c5.78-.9,11.55-1.84,17.84-2.85-.52,1.37-.84,2.34-1.24,3.28-7.41,17.51-14.11,35.29-19.77,53.45a21.5,21.5,0,0,0-1.17,5.5c-.16,3.89,1.17,5,4.87,4a10.51,10.51,0,0,1,3.39-.4c9,.34,13.12-2.49,15.77-11,5.78-18.64,10.86-37.5,17.24-56a4,4,0,0,1,3.69-3c6.8-1.17,13.6-2.45,19.83-5.63,3-1.55,5.9-3.47,6.57-7.09a21.09,21.09,0,0,1,2.76-7.77C625.8,922.23,624.64,920.42,621.6,920Z" transform="translate(0.04 0)"/><path class="cls-2" d="M334.22,923.62l1.57-.15v.13c7.4-1.43,14.82-2.78,22.2-4.3,6.35-1.31,12.67-2.8,19-4.22,7.63-1.71,11.51-7,10.37-14.46-.19-1.22.63-1.39,1.06-2,1.21-1.63,2.61-3.58,1.68-5.39-1-2-3.38-.86-5.16-.61-9.65,1.38-19.06,3.93-28.54,6.09-2.52.57-3,.08-2.39-2.5,2.32-9.66,5.21-19.16,8.34-28.57C366,856.74,370,846,373.73,835.09c1.34-3.86.18-5.27-3.91-4.93-2.19.18-4.37.73-6.55.71-5.61,0-8.63,3-10.85,7.85-9.49,20.65-16.91,42.07-23.89,63.66A47.94,47.94,0,0,0,326,915.89C325.83,921.78,328.43,924.19,334.22,923.62Z" transform="translate(0.04 0)"/><path d="M381,356.27h-1.81l-.21,1.52c-.22,1.63-.37,3.32-.47,5.14l-.06,1.08.95.52a60.8,60.8,0,0,0,10.63,4.64L404,388.39l-4.29,12a45.81,45.81,0,0,1-4.47-2l-5.07-2.11-1.92,4-.61,1.11,1,.93.13.11.07.06c9.55,8.23,26.46,12.28,39,14.23a101,101,0,0,0,15.44,1.09,177.37,177.37,0,0,0,22.91-1.64c26.46-3.48,39.6-18.35,46-30.22a64.81,64.81,0,0,0,7.43-25.12l.39-9.19-7.72,5h0c-13.75,8.93-32.07,13.45-54.45,13.45h0c-38.79,0-75.83-13.52-76.2-13.65Zm47.15,21.21c32.44,4.63,54.76.89,67.77-3.07l.18-.06c.47-.2.94-.41,1.4-.63l.64-.31a4.5,4.5,0,0,1,1.5-.58H500a8.53,8.53,0,0,1,3,5.64v.18a10.27,10.27,0,0,1,0,2.93h0a10.22,10.22,0,0,1-.25,1.45l-.09.36a14.32,14.32,0,0,1-2.37,4.61,26.66,26.66,0,0,1-4.6,4.47l-.32.27c-.93.93-1.91,1.83-2.92,2.68l-.1.09a6.44,6.44,0,0,1-1.21,1l-.19.13c-7,5.34-15.75,8.73-26.06,10.09-24.63,3.24-43.92,0-56.22-3.43l3.57-10a120.47,120.47,0,0,0,16,2.85c3.22.35,6.41.56,9.51.63h.12l10.06-.59-.11-6.12h-1.64c-11.36-.25-27.18-4.55-34-6.57L404.53,373C412.54,374.86,420.47,376.38,428.19,377.48Z" transform="translate(0.04 0)"/><path d="M498,263c-9.11,6.62-15.21,28.38-10.91,38.94,3,7.32,8.68,8.74,14.51,3.42,5.07-4.62,7.67-10.68,9.77-18.5,1.22-5.84,2.71-13.06-.21-20.21C508.52,260.19,503.56,258.91,498,263Z" transform="translate(0.04 0)"/><path d="M379.51,277.62c6.16-3.14,13.09-4.63,22.47-4.83h13.71l-3.62-3c-5.84-4.89-11-7.83-16.87-9.53-8.78-2.58-14.21-.16-18.16,8.06a32,32,0,0,0-1.6,4.36c-.13.44-.27.89-.42,1.32a1,1,0,0,1-.07.23,3.07,3.07,0,0,0,.44,3.44,2.55,2.55,0,0,0,1.83.81,3.8,3.8,0,0,0,2-.7A1.64,1.64,0,0,1,379.51,277.62Z" transform="translate(0.04 0)"/><path d="M557,266.45c1.81-7.4-5.85-14.79-5.85-14.79-33.25-28.18-86.93-36.6-86.93-36.6-9.64,20.26-2.36,33.86-2.36,33.86C504.54,228.91,557,266.45,557,266.45Z" transform="translate(0.04 0)"/><path d="M407.82,316.8c-3.58,7.41-2.48,11.7,4.2,16.4,3.65,2.57,7.5,4.94,11.22,7.23l1.73,1.06a10.66,10.66,0,0,0,3.83,1.41l1.06.19a31.55,31.55,0,0,0,5.73.75c1.76,0,3.13-.39,3.78-1.5,1.54-2.65-2.67-5.35-5.46-7.14l-.9-.59c-1.7-1.23-3.35-2.21-4.94-3.15a34,34,0,0,1-5.3-3.59l-.18-.13c-6.48-4.14-5.87-5.94-4.24-10.77a114.41,114.41,0,0,1,5.54-12.64c2.42-5,4.92-10.14,6.33-14.91,1.95-6.62,4.4-20.71,3.72-28.9l-.23-2.79-2.12,1.83c-1.83,1.59-2.75,6-3.61,10.68-.16.91-.32,1.77-.41,2.06A193,193,0,0,1,410.44,312C409.56,313.48,408.64,315.1,407.82,316.8Z" transform="translate(0.04 0)"/><path d="M816.63,771.9c-.75-23.83-4.58-50.2-11.37-78.38-5-20.66-11.74-43.78-28.89-59L787,624.25l-10.65-10.74L723.77,560.2l.12.13a364.67,364.67,0,0,0-42-38.31,273.43,273.43,0,0,0-57-34.35C600.5,477,582.26,474,574,473.18c2.14-46.57,26.72-93.59,29.91-99.5.91,0,1.84.07,2.81.07,8,0,17.06-5.77,25.54-16.24,7.67-9.46,13.64-21.44,16-32,4-18-1.52-31.09-15.5-37,4.41-7.37,7.91-16.08,10.85-26.89.37-1.36.71-2.7,1-4.05,5.14-21.27,4.92-41.33-.68-58.24A75.27,75.27,0,0,0,628,172.49a69.06,69.06,0,0,0-12.24-11.05,56.84,56.84,0,0,0-11.4-6.42V155c2.77-14.78,1.5-29.24-3.67-41.82A78.39,78.39,0,0,0,575,80.5a80.77,80.77,0,0,0-38.83-15.71c-20.46-2.41-40.4,3-59.67,8.18-17.14,4.63-36.57,9.88-55.3,7.27-22.26-3.1-35.29-17.39-38-29.34l-2.15-9.55-7.24,6.59c-13.86,12.64-14,32.44-13.06,50,.91,16.8,1.94,35.84,11.69,52.07a62.27,62.27,0,0,0,6,8.25l-14.31,30.36c-5.76,11.92-9.15,20.82-10.09,26.45-1.12,6.69.84,14.86,3.1,23.56.16.6.31,1.2.47,1.81,2.84,10.82,5.76,22,2.92,29.13l-.49,1.2c-6.44,16.07-14.45,36.08-5.23,61.33,8.45,23.12,9.18,61.87,6,78.39-3.08,15.85,3.14,31,17.16,42.53-12.9,5.43-57.47,24.86-101.65,51.16h0s-37.89,18.94-37.9,18.92l-16.1,8.19q-2.43-12-4.88-29.89l-4.35-32.94A51.37,51.37,0,0,0,221.26,457a84.15,84.15,0,0,1,7.2-11.43c2-2.24,6.6-5.18,8.24-7.38a65.94,65.94,0,0,0,5.82-8.7,53.87,53.87,0,0,0,4.81-11.14c1.5-5.67,1.22-11.46,1-16.56l-1-21.57c.72.59,1.42,1.18,2.1,1.76s5.45,4.27,10.62,8c1.13.84,2.28,1.67,3.44,2.48,4.51,3.19,7.91,4.93,9.51,6.15,4.87,2.76,7.41,2.66,11.81.05,18.46-11,36.91-21.91,54.69-34a7.78,7.78,0,0,0,3.73-7.26c-.15-8.2-3.27-15.64-6-23.19a1.87,1.87,0,0,0-.47-.79,46.44,46.44,0,0,0-3.07-6,64.1,64.1,0,0,1-3.56-5.8L300.08,272l-16-26.45.19-.12c-8.23-13.58-16.35-27.23-24.72-40.73-9.32-15-17.7-30.71-28.78-44.62-2.75-3.46-4.85-8.51-10.18-8.78a8.65,8.65,0,0,0-1.3-3.08c-1-1.63-2.18-3.07-3.27-4.46-.67-.85-1.3-1.66-1.89-2.47-4.38-6.09-9.13-12.52-15-20.25-1.13-1.5-4-4.45-8.49-2.82-6-9.83-12.49-20.51-19.66-32.5a7.36,7.36,0,0,0-9.82-3.42,7.16,7.16,0,0,0-1.18.72q-6.75,4.13-13.52,8.23L93.89,0,68.06,14.87,121,106.79l-13.81,8.34a7.45,7.45,0,0,0-3.65,9.88,7.53,7.53,0,0,0,.82,1.37c6.17,10,12.65,20.71,19.77,32.58a6.68,6.68,0,0,0-1.35,2.7,7,7,0,0,0,1,5.48,42.6,42.6,0,0,1,2.53,5c.49,1.08,1,2.21,1.55,3.34l1.24,2.48c3,6,6.14,12.29,8.9,18.51a8,8,0,0,0,3.6,4.12,16.19,16.19,0,0,0,1.15,13.57c3.19,6.09,6,12.33,9.08,18.49,4.29,8.7,8.87,17.25,13.3,25.89,6.16,12,12.91,23.73,17.47,36.51,1.55,4.33,1.78,8.46-.54,12.63a115.6,115.6,0,0,1-10.87,15.83,54.52,54.52,0,0,0-5-4.85c-3.68-3.14-8.76-6.78-15.4-7.17C137,310.68,127,318.16,124,331.54A25.65,25.65,0,0,0,87.9,355.75a18,18,0,0,0-13.18,1.87,33,33,0,0,0-10.58,8.94C59,373,57.67,379.81,60.31,386.72c-5.76,3.4-8.7,8.91-8.75,16.38a30.6,30.6,0,0,0,.47,5.49L45.41,399A5.4,5.4,0,0,0,38,397.22c-.19.12-.38.25-.56.39-11.54,8-23,16-34.66,23.86a6.09,6.09,0,0,0-1.82,8.42l.19.27c13.4,19.14,26.61,38.4,39.89,57.62l40.05,58c2.08,3,4.8,3.53,7.79,1.48l21-14.48c-9.23,52.54-11,135.07,21.24,185.54l.33.52.45.43c1.18,1.16,12.28,11.26,36.62,11.26,19.32,0,48.32-7.62,73.71-20.26l.68,2.15.25,2.26c.47,1.23,1,2.45,1.49,3.65l5.95-2,1.39-.47c18.31-6.46,39-25,39.91-25.78l1.58-1.43,9.5-7a95,95,0,0,0,.38-46l2-.49c3.73,15.4,2.33,33-1.63,48.37l-2.66,81c.11.09.44.41,1,.92,6.58,6,45.22,39.78,127.06,58.65.07,5.91,2.34,11.11,4.56,15.27,3.79,7.11,9.23,10.91,16.17,11.32a3.57,3.57,0,0,1,.72.1,5.06,5.06,0,0,1,.32,1,17.73,17.73,0,0,0,10.21,12.47,41,41,0,0,0,14.3,3.39c1.56.1,3.12.15,4.67.15a152.5,152.5,0,0,0,16.4-1.18c2.53-.27,5.15-.56,7.71-.77,30.83-2.54,46.5-8.61,56.71-13.61a54.45,54.45,0,0,0,16.46-11.69q2-2.12,3.8-4.42c45.67,25.29,77.63,34,110,34,25.63,0,51.54-5.44,84.72-12.41,8-1.68,16.28-3.32,25.13-5.2,2.27-.49,3.75-.9,4.71-3.36l1.69-6.46C814.38,822.62,817.48,798.82,816.63,771.9ZM115,123q6.9-4.16,13.78-8.33h0l6.83-4.13h0l7-4.24h0l6.92-4.2h0l13.63-8.29c6.6,11,12.6,20.93,18.23,30.11l-48.15,29.17C126.72,142.24,120.72,132.33,115,123Zm31.41,65.76c-2.44-5.3-5.06-10.53-7.59-15.61l-1.24-2.47c-.46-.94-.9-1.92-1.37-3s-.93-2.08-1.45-3.13l5.69-3.43-.16-.14L185,133.9l.06.25,7.1-4.37c5,6.7,9.25,12.42,13.16,17.85.72,1,1.45,1.93,2.16,2.84l.67.85c-21.82,13.22-42.08,25.5-61.74,37.47Zm54.26,215.76,7.3-3.4c-8.27-17.79-10-38.47-4.93-59.8.81-3.44,1.94-7.37,4.12-10.39A15.19,15.19,0,0,1,233.48,334c1.48,3.56,1.69,7.91,1.89,12.12L238,402.27c.21,4.58.44,9.32-.66,13.46a45.56,45.56,0,0,1-3.93,9,46.49,46.49,0,0,1-3.69,5.62,77.36,77.36,0,0,0-6,6.54,102,102,0,0,0-9.33,13.78c-.18.3-.35.6-.52.91-.4.7-.8,1.41-1.21,2.15-5.29,9.62-13.62,16.47-25.45,20.94l-2.92,1.08a63.17,63.17,0,0,0-7.83,3.17,25.8,25.8,0,0,0-7.51,5.82c-6.51,7.17-15.16,10.34-28,10.26a52.4,52.4,0,0,1-18.66-3.38l19-19.69c3.59-3,6.87-6.26,10.14-9.55,4.71-4.74,9.27-9.62,13.82-14.49s9.45-9.88,13.8-15.12C186.66,423.62,193.59,414.05,200.67,404.55ZM135.33,327a17,17,0,0,1,13.54-6.47,13.3,13.3,0,0,1,6.93,1.81l1.16,3.43.67,2.22c.2.68.39,1.37.57,2.06a42.08,42.08,0,0,0,1.51,4.78c5.73,14.08,10.91,26.78,16.36,39.74,2.35,5.57,1.57,10.3-2.46,14.88a30.25,30.25,0,0,1-6.61,5.14c-1.83,1.18-3.42,1.09-5.31-.28a31,31,0,0,1-7.48-8.09C146,374,139.05,359.6,133,342.29A16,16,0,0,1,135.33,327ZM101.83,343A16.6,16.6,0,0,1,118,338.9a11.7,11.7,0,0,1,8.33,7.51c6.28,15.82,12.26,30,21.18,43.13.22.36.43.73.66,1.1.35.55,1.29,1.9,1.32,1.94l.86.94a28.23,28.23,0,0,0,5.39,5.58c.75.56,1,.75.18,2.23a7.76,7.76,0,0,1-3.26,2.85A137.89,137.89,0,0,1,137.84,411l-1.94.8a3.73,3.73,0,0,1-1.84.26l-.65-.11a11.21,11.21,0,0,1-2.78-1.19c-4.84-2.77-8.19-7-11.76-11.86A162.74,162.74,0,0,1,106.7,379.1c-.83-1.73-1.77-3.51-2.78-5.39-2.39-4.49-5.1-9.57-6.47-15A16.2,16.2,0,0,1,101.83,343ZM72.12,371.07a24.17,24.17,0,0,1,6.58-5.37,11,11,0,0,1,5.12-1.41c3.12,0,5.82,1.75,7.77,5.13q2.22,3.88,4.4,7.78c1.93,3.42,3.91,6.93,5.93,10.4l.54,1a.39.39,0,0,1,.1.08l1.09,1.85c4.72,7.92,10.15,16.2,17.88,23l.24.18c.37.25.76.57,1.17.9a15.59,15.59,0,0,0,1.46,1.11l.88.58.56.36.16.11.18.08a5.56,5.56,0,0,1,.87.55,4.44,4.44,0,0,0-.46.59c-2.32,3.41-4.92,5.33-7.71,5.71s-5.75-.76-8.86-3.38c-12.15-10.23-24.57-20.82-36.93-31.48-3.19-2.75-4.9-5.62-5.08-8.52S69.21,374.28,72.12,371.07Zm37.21,66.68a8.69,8.69,0,0,1-7.14,2.09c-5.52-.73-10.44-3.56-14.62-6.17a100.11,100.11,0,0,1-10.92-7.45c-2-1.14-4-2.44-5.87-3.6A22,22,0,0,1,65,418l-.76-.49a41.59,41.59,0,0,1-2.23-6,32.1,32.1,0,0,1-1.45-8.81A9.32,9.32,0,0,1,64,395c2-1.65,2.24-1.64,4.25.05l3.85,3.24c9.26,7.78,18.79,15.8,28.22,23.76l.69.5c1.5,1.08,3.11,1.94,4.7,2.86,2,1.17,4.48,2.37,5.58,4.41.44.18.6.33.65,1.37A8.17,8.17,0,0,1,109.33,437.75ZM234.69,699.53c-27.43,14.69-51.49,21.36-71.51,19.84-14.28-1.08-21.6-6.08-23.46-7.54-30.83-49.09-27.47-138-17.66-185.86l.4-1.93,1.06-.74c3.69-2.54,4.19-5.17,1.66-8.85-3.47-5-7-10.05-10.43-15.1l.74-.77a61.7,61.7,0,0,0,26.08,5.49c1,0,2,0,3-.06,13.29-.53,23.37-4.71,30.79-12.79a20.06,20.06,0,0,1,7.61-5.31c1.17-.46,2.4-.89,3.58-1.31s2.56-.91,3.85-1.41a70.18,70.18,0,0,0,12.93-6.57l3.51,26.23c3.09,22.59,6.27,38.74,9.45,48a227.41,227.41,0,0,1,11.85,59.93c1.33,24-1.8,45.05-9.27,62.71a9.07,9.07,0,0,0,1,1.14,8.58,8.58,0,0,0,3,1.76l6.73-8.49.11-.27c.1-.21.18-.42.27-.63l.18-.63c2.14,7.5,5.28,18.34,7,25.18a1,1,0,0,1,.25,1c.37,1.45.76,2.9,1.17,4.36ZM377.39,89.24l8.28-6.34A96.62,96.62,0,0,0,393.23,92c7,7.12,16.33,11.83,27.69,14a91.54,91.54,0,0,0,33.19-.4c10.47-1.92,21-5.1,31.19-8.18,11.84-3.57,24.07-7.26,36.64-9.17,6.64-1,15.38-1.86,24,.54,9.22,2.57,16.75,8.8,20.12,16.65l-9.58,4.12c-2.15-5-7.13-9-13.34-10.72-6.69-1.86-14-1.12-19.61-.27-11.82,1.79-23.7,5.38-35.18,8.84-10.47,3.16-21.29,6.43-32.32,8.45a112.11,112.11,0,0,1-20.27,1.9,90.43,90.43,0,0,1-16.75-1.5c-13.49-2.56-24.66-8.26-33.19-16.92A104.28,104.28,0,0,1,377.39,89.24Zm-6.5,324.68c3.67-17.78,2.77-61.53-6-85.5-7.81-21.4-.64-39.28,5.12-53.66l.48-1.21c3.53-8.83,1.63-19.48-1-30.15,10.1-.77,35.88,0,51.24,25.5,0,0,2-33.6-55.52-43a28.12,28.12,0,0,1-.56-9.1c.53-3.18,2.56-9.85,9.18-23.55l12.91-26.89c10.59,8.83,24.79,15.82,42.47,20.86,27,7.69,54.13,10.19,81.19,10.19,22.4,0,44.71-1.71,66.73-3.61l-14,59.38,4.46,1c7.48,1.78,18,6.63,17.51,10.77-1.22,9.78-12.11,40.66-12.22,41l-1.1,3.13,15.11,11.33c-.34,1.87-.49,3.11-.52,3.4l-.25,2.29L595,327l.58.05h.08l.59-4.38c1-5.67,4.62-20.94,14.37-26.3,4.86-2.66,10.95-2.52,18.12.42,6.76,2.78,14,9.67,10.26,26.71-2.41,10.82-9.18,23.29-17.31,31.88l-.3.14-.26.48c-7.21,9-14.06,10.28-23.4,9.45-8.06-.72-9.82-8.31-9.89-8.62l-1.92-9.11-2.5,9a11.63,11.63,0,0,0,2.41,10.17,16.46,16.46,0,0,0,7.08,4.79c-7.24,14-30.65,63-29.69,110.59-8.35,9.43-21.1,17.74-35.25,22.83a94,94,0,0,1-51.07,3.72c-28.31-5.93-40.91-22.82-46-32.84,14.95,4,31.57,6.87,47.49,6.87,11.07,0,20.5-1.3,28-3.86,45.2-15.39,74.66-91.84,75.89-95.08l.08-.21,1-5.79-4.38-1.19c-10.35,27.29-44.6,81.41-76,92.11-6.45,2.19-14.69,3.3-24.51,3.3h0c-37,0-77.69-16.71-88.41-23.68C375,438.8,368.33,426.54,370.89,413.92Zm424.69,428c-7.71,1.58-15,3.1-22,4.58-74.33,15.61-108.54,22.79-186-19.88,1.26-2.14,2.49-4.4,3.66-6.78,4.69-9.47,6.28-20.22,6.18-25.25-2.38-.76-2.4-1.11-4.65-1.71a16,16,0,0,0-6.81-.64l.09.91c.57,6.14-.73,12.64-3.88,19.3-3.44,7.27-7.88,15.56-14.75,21.9-4.34,4-9.71,7.23-16.89,10.12-18.26,7.37-37.44,9.53-55.44,10.77-2,.14-4.09.35-6.07.56-5.34.55-10.38,1.08-15.37.29-6-1-9.83-1.86-11.7-6.32a9,9,0,0,0-1.67-2.5l31.55-5.56-1.58-9-38.2,6.73h0a8.71,8.71,0,0,1-7.91-4.58c-1.92-3.43-3.63-6.83-3.78-10.47v-1a11.54,11.54,0,0,1,.18-1.66,6.89,6.89,0,0,1,5.74-6c3-.63,7.62-1.72,12.23-2.9l33.79-6-1.58-9-35.39,6.47c-.83.09-1.65.16-2.41.22a52.53,52.53,0,0,1-13.37-.63c-8-1.48-11.26-4.94-11.71-12.34-.46-7.71,1.28-12,6-15,2-1.23,4.31-1.33,7-1.46.91,0,1.84-.08,2.8-.17,1.86-.18,3.72-.33,5.59-.48,3.41-.28,6.95-.57,10.46-1l8.95-1.09L482.8,771v-.39h0L482,762l-36.13,3.36c-1.48-.06-3-.09-4.64-.11-6.08-.07-10.8-2.36-14.86-7.2s-2.09-13.83,1.19-17.28c6-6.27,14-8.16,21.87-9.27,6.88-1,13.74-.68,21-.38l1.95.08a108.28,108.28,0,0,0,15.89-.93c1.73-.19,3.52-.38,5.26-.54l2.25-.21a191.86,191.86,0,0,0,23.15-3c4-.85,10.72-2.28,12.37-9.88a12,12,0,0,0-.29-6.58,42,42,0,0,0-5.74-4.28l-1.14,3c-.16.4-.3.81-.45,1.21-.29.82-.55,1.53-.82,2.13-1.79-1.33-2.57-2.24-4.71-7.47-2.3-5.6-3.62-11.77-5.19-17.69a121.73,121.73,0,0,1-3.22-14.37,44.37,44.37,0,0,1-1.28-11.54,65.78,65.78,0,0,1,2.66-16.18c2.78-9.59,11.21-21.12,22.67-21.79a1.68,1.68,0,0,1,.59.08,6,6,0,0,1,.85,0,9.48,9.48,0,0,1,6.46,3.46,9,9,0,0,1,2,2.69c1.91,2.85,2.68,6.71,3,10.54,1.63,7.89,1.56,16.37,1.82,24.33.3,9.66.4,19.35,1.45,29,.31,2.85.7,5.69,1.15,8.53a86,86,0,0,0,10.47,23.5A101.67,101.67,0,0,0,568,734c2,2.52,3.88,4.91,5.56,7.47a60.56,60.56,0,0,1,6.44,13c2.06,4.25,3.52,5.35,6.06,4.29v.06c26.31-13.06,51.74-18.37,77.75-16.23,24.52,2,49.71,10.71,77,26.56l5.72-9.85c-24.42-14.18-47.77-23-70.61-26.66l-.37.19-.37-.31h-.07c-38.25-31-19.57-93.09-18.72-95.81l.07-.17,2.91-5.74,3.83.76a165.12,165.12,0,0,0-3.36,40.1c.7,15.93,9.87,37.89,23.8,52.61l84.49-81.8c15.18,13,21.39,34.46,26,53.69,10.13,41.72,18.43,100.62,1.47,145.81Z" transform="translate(0.04 0)"/><path class="cls-2" d="M303.69,683.52h0c4-15.35,5.36-33,1.63-48.37l-2,.49a95.09,95.09,0,0,1-.33,45.91v.08Z" transform="translate(0.04 0)"/><path class="cls-2" d="M419,116.23a90.43,90.43,0,0,0,16.75,1.5,112.11,112.11,0,0,0,20.27-1.9c11-2,21.85-5.29,32.32-8.45,11.48-3.46,23.36-7,35.18-8.84,5.62-.85,12.92-1.59,19.61.27,6.21,1.73,11.19,5.74,13.34,10.72l9.58-4.12c-3.37-7.85-10.9-14.08-20.12-16.65-8.59-2.4-17.33-1.55-24-.54-12.57,1.91-24.8,5.6-36.64,9.17-10.19,3.08-20.72,6.26-31.19,8.18-11.75,2.16-23.22,2.3-33.19.4-11.36-2.15-20.68-6.86-27.69-14a96.62,96.62,0,0,1-7.56-9.09l-8.28,6.34a105,105,0,0,0,8.4,10.07C394.33,108,405.49,113.67,419,116.23Z" transform="translate(0.04 0)"/><path class="cls-2" d="M675.15,732.55h.07l.37.31.37-.19c22.84,3.61,46.19,12.48,70.61,26.66l-5.72,9.85c-27.29-15.85-52.48-24.54-77-26.56-26-2.14-51.44,3.17-77.75,16.23v-.06c-2.54,1.06-4,0-6.06-4.29a60.56,60.56,0,0,0-6.44-13c-1.68-2.56-3.57-5-5.56-7.47a101.67,101.67,0,0,1-6.41-8.75,86,86,0,0,1-10.47-23.5c-.45-2.84-.84-5.68-1.15-8.53-1-9.63-1.15-19.32-1.45-29-.26-8-.19-16.44-1.82-24.33-.3-3.83-1.07-7.69-3-10.54a9,9,0,0,0-2-2.69,9.48,9.48,0,0,0-6.46-3.46,6,6,0,0,0-.85,0,1.68,1.68,0,0,0-.59-.08c-11.46.67-19.89,12.2-22.67,21.79a65.78,65.78,0,0,0-2.66,16.18,44.07,44.07,0,0,0,1.22,11.5,123.07,123.07,0,0,0,3.13,14.32c1.57,5.92,2.89,12.09,5.19,17.69,2.14,5.23,2.92,6.14,4.71,7.47.27-.6.53-1.31.82-2.13.15-.4.29-.81.45-1.21l1.14-3a42,42,0,0,1,5.74,4.28,12,12,0,0,1,.29,6.58c-1.65,7.6-8.36,9-12.37,9.88a191.86,191.86,0,0,1-23.15,3l-2.25.21c-1.74.16-3.53.35-5.26.54a108.28,108.28,0,0,1-15.89.93l-1.95-.06c-7.26-.3-14.12-.59-21,.38-7.84,1.11-15.91,3-21.87,9.27-3.28,3.45-5.26,12.43-1.19,17.28s8.78,7.13,14.86,7.2c1.61,0,3.16,0,4.64.11L481.9,762l.81,8.61h0V771l-14.16,1.32-8.95,1.09c-3.51.43-7.05.72-10.46,1-1.87.15-3.73.3-5.59.48-1,.09-1.89.13-2.8.17-2.68.13-5,.23-7,1.46-4.73,2.92-6.47,7.26-6,15,.45,7.4,3.73,10.86,11.71,12.34a52.53,52.53,0,0,0,13.37.63c.76-.06,1.58-.13,2.41-.22L490.69,798l1.58,9-33.79,6c-4.61,1.18-9.23,2.27-12.23,2.9a6.89,6.89,0,0,0-5.74,6,11.54,11.54,0,0,0-.18,1.66c.17.35.33.7.51,1l-.51-.07c.15,3.64,1.86,7,3.78,10.47a8.71,8.71,0,0,0,7.91,4.58h0l38.2-6.73,1.58,9-31.47,5.42a9,9,0,0,1,1.67,2.5c1.87,4.46,5.67,5.36,11.7,6.32,5,.79,10,.26,15.37-.29,2-.21,4-.42,6.07-.56,18-1.24,37.18-3.4,55.44-10.77,7.18-2.89,12.55-6.11,16.89-10.12,6.87-6.34,11.31-14.63,14.75-21.9,3.15-6.66,4.45-13.16,3.88-19.3l-.09-.91a16,16,0,0,1,6.81.64c2.25.6,2.27,1,4.65,1.71.1,5-1.49,15.78-6.18,25.25-1.17,2.38-2.4,4.64-3.66,6.78,77.42,42.67,111.63,35.49,186,19.88q10.5-2.22,22-4.58c17-45.19,8.66-104.09-1.39-145.77-4.63-19.23-10.84-40.7-26-53.69l-84.49,81.8c-13.93-14.72-23.1-36.68-23.8-52.61a165.12,165.12,0,0,1,3.36-40.1l-3.83-.76-3,5.79-.07.17C655.58,639.46,636.9,701.55,675.15,732.55Z" transform="translate(0.04 0)"/></svg>