<?xml version="1.0" encoding="utf-8"?>
<!-- Generator: Adobe Illustrator 21.0.2, SVG Export Plug-In . SVG Version: 6.00 Build 0)  -->
<svg version="1.1" id="Layer_1" xmlns="http://www.w3.org/2000/svg" xmlns:xlink="http://www.w3.org/1999/xlink" x="0px" y="0px"
	 viewBox="0 0 512 512" style="enable-background:new 0 0 512 512;" xml:space="preserve">
<style type="text/css">
	.st0{fill:#FFFFFF;}
</style>
<g>
	<path class="st0" d="M290.1,127.7c11.6-9.8,22.5-19,33.8-28.5c-2.7-4.7-4.7-9.9-1.4-14.9c1.8-2.7,4.8-5.3,7.8-6.4
		c7.5-2.6,14.9,2.5,16.3,10.3c1.4,7.9-4.2,13.8-14.4,15c-0.3,0.9-0.8,2-0.9,3.1c-2.5,20.3-5,40.6-7.2,61c-0.5,4.8-2.2,7.2-7,8.6
		c-24.3,7.2-49.1,8.4-74.2,7.3c-15.8-0.7-31.5-2.8-46.7-7.4c-4.3-1.3-5.8-3.5-6.3-8c-2.1-19.9-4.7-39.7-7.1-59.5
		c-0.2-1.6-0.6-3.2-0.9-4.8c-9.4-1.6-13.6-4.8-14.7-11.2c-0.9-5.3,1.9-10.8,6.7-13.4c4.8-2.6,10.9-1.8,14.9,1.9
		c4.9,4.5,5.3,9.9,1.3,18.6c11.1,9.3,22.2,18.8,33.7,28.4c9-15.2,17.9-30.1,26.6-44.8c-7.7-9.2-8.2-16.4-1.8-21.9
		c5.4-4.6,13.3-4.1,18,1.1c5.4,6,4.4,13.3-3.2,20.4C272.1,97.3,280.9,112.2,290.1,127.7z"/>
	<path class="st0" d="M261.2,205.8c-26.2-0.5-47.4-1.9-67.9-8.6c-2.2-0.7-4.4-1.5-6.5-2.6c-3.9-2-5.4-6.5-3.6-10.2
		c1.7-3.5,5.6-5.1,9.7-3.7c38,12.8,76.5,11.9,115.3,4c4-0.8,7.9-2.5,11.8-3.8c4.7-1.6,8.8-0.1,10.5,3.9c1.7,4.1,0.2,8.7-4.6,10.1
		c-11.5,3.3-23,6.6-34.7,8.5C279.8,205.2,268.1,205.3,261.2,205.8z"/>
</g>
<path class="st0" d="M363.3,402.1c-12.9-4.6-31.4-6.2-43.2-8.8c-6.8-1.5-16.7-5.3-20-9.2c-3.3-4-1.3-40.9-1.3-40.9s6.1-9.6,9.4-18
	c3.3-8.4,6.9-31.4,6.9-31.4s6.8,0,9.2-11.9c2.6-13,6.6-18.4,6.1-28.1c-0.5-9-5.2-9.5-5.7-9.5c0,0,4.9-13.6,5.6-42.4
	c0-1.6,0-3.2-0.1-4.9c-0.9,1.4-2.3,2.5-4.2,3.1c-11.5,3.3-23,6.6-34.7,8.5c-11.5,1.9-23.2,1.9-30,2.4c-26.2-0.5-47.4-1.9-67.9-8.6
	c-2.2-0.7-4.4-1.5-6.5-2.6c-1.7-0.9-3-2.3-3.7-3.9l-1.2-1.3c-0.2,2.4-0.3,4.7-0.2,7.1c0.6,28.7,5.6,42.4,5.6,42.4
	c-0.5,0-5.2,0.5-5.7,9.5c-0.5,9.7,3.6,14.9,6.1,27.9c2.4,11.9,9.2,12,9.2,12s3.6,23.1,6.9,31.5c3.3,8.5,9.4,18,9.4,18
	s2,36.9-1.3,40.9c-3.3,4-13.2,7.7-20,9.2c-11.9,2.6-30.3,4.3-43.2,8.9c-12.9,4.6-52.7,20.1-52.7,52.1h160h160
	C416,422.2,376.2,406.7,363.3,402.1z"/>
</svg>
