<?xml version="1.0" encoding="utf-8"?>
<!-- Generator: Adobe Illustrator 21.0.0, SVG Export Plug-In . SVG Version: 6.00 Build 0)  -->
<svg version="1.1" id="Layer_1" xmlns="http://www.w3.org/2000/svg" xmlns:xlink="http://www.w3.org/1999/xlink" x="0px" y="0px"
	 viewBox="0 0 512 512" style="enable-background:new 0 0 512 512;" xml:space="preserve">
<style type="text/css">
	.st0{fill:#FFFFFF;}
</style>
<g>
	<g>
		<path class="st0" d="M360,224v-72c0-57.4-46.6-104-104-104c-57.5,0-104,46.6-104,104v72H96v240h320V224H360z M168,152
			c0-48.5,39.5-88,88-88c48.5,0,88,39.5,88,88v72H168V152z M400,448H112V240h288V448z"/>
	</g>
	<path class="st0" d="M256,288c-17.7,0-32,14.3-32,32c0,14.9,10.2,27.4,24,31v33h16v-33c13.8-3.6,24-16.1,24-31
		C288,302.3,273.7,288,256,288z M256,336c-8.8,0-16-7.2-16-16s7.2-16,16-16c8.8,0,16,7.2,16,16S264.8,336,256,336z"/>
</g>
</svg>
