<svg id="Layer_1" data-name="Layer 1" xmlns="http://www.w3.org/2000/svg" viewBox="0 0 900 129.84"><defs><style>.cls-1{fill:#fff;}</style></defs><title>wm_white_logo</title><path class="cls-1" d="M220.39,22.59a41.08,41.08,0,0,1,16,3.11,33.41,33.41,0,0,1,12.42,8.78,36.37,36.37,0,0,1,6.74,11.38,37.14,37.14,0,0,1-6.74,37.26,33.43,33.43,0,0,1-12.42,8.78,42.44,42.44,0,0,1-32,0A33.44,33.44,0,0,1,192,83.12a36.35,36.35,0,0,1-6.74-11.38A37.55,37.55,0,0,1,192,34.48a33.8,33.8,0,0,1,12.49-8.78,41.05,41.05,0,0,1,15.94-3.11h0ZM543.93,105.3a1.87,1.87,0,1,1-1.33.55,1.81,1.81,0,0,1,1.33-.55h0Zm-1.67,19.2V113.31h-1.77v-2.65h5V124.5h-3.27Zm22.28,0v-8a4,4,0,0,0-.68-2.58,2.72,2.72,0,0,0-2.21-.82,3.39,3.39,0,0,0-1.52.4,3.51,3.51,0,0,0-1.26,1v10h-3.23V110.66H558l0.6,1.29a4.82,4.82,0,0,1,3.88-1.55,5.17,5.17,0,0,1,3.9,1.48,5.7,5.7,0,0,1,1.42,4.13v8.49h-3.23Zm22,0v-8a4,4,0,0,0-.68-2.58,2.72,2.72,0,0,0-2.21-.82,3.39,3.39,0,0,0-1.52.4,3.51,3.51,0,0,0-1.26,1v10h-3.23V110.66h2.32l0.6,1.29a4.82,4.82,0,0,1,3.89-1.55,5.17,5.17,0,0,1,3.9,1.48,5.7,5.7,0,0,1,1.42,4.13v8.49h-3.23Zm12.16-6.95a7.32,7.32,0,0,1,1.83-5.15,6.23,6.23,0,0,1,4.82-2,6.29,6.29,0,0,1,4.9,1.91,8.7,8.7,0,0,1,0,10.49,7.06,7.06,0,0,1-9.77,0,7.61,7.61,0,0,1-1.75-5.24h0Zm3.36,0q0,4.57,3.29,4.57a2.83,2.83,0,0,0,2.4-1.19,5.6,5.6,0,0,0,.88-3.38q0-4.51-3.28-4.51a2.85,2.85,0,0,0-2.4,1.19,5.47,5.47,0,0,0-.89,3.32h0Zm24.6,7.21h-1.16l-6.25-14.1h3.54l3.31,8.45,3.55-8.45H633l-6.41,14.1h0Zm22.27-1.64a3.17,3.17,0,0,1-1.53,1.18,5.83,5.83,0,0,1-2.28.46,5.16,5.16,0,0,1-3.51-1.12,4,4,0,0,1-1.28-3.17,4.45,4.45,0,0,1,1.8-3.76,8.4,8.4,0,0,1,5.12-1.35,5.47,5.47,0,0,1,1.34.19q0-2.44-3.09-2.44a6.82,6.82,0,0,0-3,.61l-0.7-2.51a9.06,9.06,0,0,1,4-.8,6.44,6.44,0,0,1,4.64,1.44q1.47,1.44,1.47,5.46v3q0,2.76,1.11,3.47a1.73,1.73,0,0,1-.89.86,3.66,3.66,0,0,1-1.12.16,1.77,1.77,0,0,1-1.25-.52,2.63,2.63,0,0,1-.75-1.12h0ZM648.59,118a7,7,0,0,0-1.24-.17q-3.82,0-3.82,2.51,0,1.86,2.16,1.86a2.57,2.57,0,0,0,2.91-2.91V118h0Zm13.55-4.73h-1.6v-2.6h1.6v-2.81l3.23-1.19v4h3.8v2.6h-3.8v6.06a3.54,3.54,0,0,0,.47,2.1,1.91,1.91,0,0,0,1.63.61,4,4,0,0,0,2.17-.63v3a10.32,10.32,0,0,1-3.2.39,4.17,4.17,0,0,1-3.18-1.17,4.63,4.63,0,0,1-1.11-3.32v-7h0Zm18.88-8a1.87,1.87,0,1,1-1.33.55,1.81,1.81,0,0,1,1.33-.55h0Zm-1.67,19.2V113.31h-1.77v-2.65h5V124.5h-3.27Zm12.47-6.95a7.32,7.32,0,0,1,1.83-5.15,6.23,6.23,0,0,1,4.82-2,6.29,6.29,0,0,1,4.9,1.91,8.7,8.7,0,0,1,0,10.49,7.06,7.06,0,0,1-9.77,0,7.61,7.61,0,0,1-1.75-5.24h0Zm3.36,0q0,4.57,3.29,4.57a2.83,2.83,0,0,0,2.4-1.19,5.6,5.6,0,0,0,.88-3.38q0-4.51-3.28-4.51a2.86,2.86,0,0,0-2.4,1.19,5.47,5.47,0,0,0-.89,3.32h0Zm27.77,6.95v-8a4,4,0,0,0-.68-2.58,2.72,2.72,0,0,0-2.21-.82,3.39,3.39,0,0,0-1.52.4,3.51,3.51,0,0,0-1.26,1v10H714V110.66h2.32L717,112a4.82,4.82,0,0,1,3.88-1.55,5.17,5.17,0,0,1,3.9,1.48,5.7,5.7,0,0,1,1.42,4.13v8.49h-3.23Zm32.48-.35v5.77h-3.23V110.66h3.23v0.93a4.11,4.11,0,0,1,3-1.19q6.61,0,6.61,7.28a7.11,7.11,0,0,1-1.83,5.23,6.75,6.75,0,0,1-5,1.83,6.29,6.29,0,0,1-2.78-.61h0Zm0-10.1v7.27a3.16,3.16,0,0,0,2.05.71,4.18,4.18,0,0,0,3.21-1.06,6.48,6.48,0,0,0,0-6.82,4.32,4.32,0,0,0-3.21-1,2.84,2.84,0,0,0-2.07.9h0Zm19.34-8.54,3.23-.77v15.55q0,2.56,1.53,3a2.66,2.66,0,0,1-2.56,1.42c-1.46,0-2.2-1-2.2-3.05V105.5h0Zm21.3,17.61a3.18,3.18,0,0,1-1.53,1.18,5.83,5.83,0,0,1-2.28.46,5.15,5.15,0,0,1-3.51-1.12,4,4,0,0,1-1.28-3.17,4.45,4.45,0,0,1,1.8-3.76,8.4,8.4,0,0,1,5.12-1.35,5.46,5.46,0,0,1,1.34.19q0-2.44-3.09-2.44a6.82,6.82,0,0,0-3,.61l-0.7-2.51a9.07,9.07,0,0,1,4-.8,6.44,6.44,0,0,1,4.64,1.44q1.47,1.44,1.47,5.46v3q0,2.76,1.11,3.47a1.74,1.74,0,0,1-.89.86,3.66,3.66,0,0,1-1.12.16,1.77,1.77,0,0,1-1.25-.52,2.62,2.62,0,0,1-.75-1.12h0ZM795.75,118a6.94,6.94,0,0,0-1.24-.17q-3.82,0-3.82,2.51,0,1.86,2.16,1.86a2.57,2.57,0,0,0,2.91-2.91V118h0Zm13.55-4.73h-1.6v-2.6h1.6v-2.81l3.23-1.19v4h3.8v2.6h-3.8v6.06a3.54,3.54,0,0,0,.47,2.1,1.91,1.91,0,0,0,1.63.61,4,4,0,0,0,2.17-.63v3a10.32,10.32,0,0,1-3.2.39,4.17,4.17,0,0,1-3.18-1.17,4.63,4.63,0,0,1-1.11-3.32v-7h0Zm24.06-5.31a5.72,5.72,0,0,0-1.63-.35,2,2,0,0,0-1.56.79,3,3,0,0,0-.64,1.93c0,0.11,0,.22,0,0.34h2.87v2.66H829.6V124.5h-3.23V113.32h-2v-2.66h2a6.3,6.3,0,0,1,1.5-4.1,4.64,4.64,0,0,1,3.63-1.57,9.93,9.93,0,0,1,2.8.5l-1,2.46h0Zm7.51,9.6a7.32,7.32,0,0,1,1.83-5.15,6.23,6.23,0,0,1,4.82-2,6.3,6.3,0,0,1,4.9,1.91,8.7,8.7,0,0,1,0,10.49,7.06,7.06,0,0,1-9.77,0,7.61,7.61,0,0,1-1.75-5.24h0Zm3.36,0q0,4.57,3.29,4.57a2.84,2.84,0,0,0,2.4-1.19,5.6,5.6,0,0,0,.88-3.38q0-4.51-3.28-4.51a2.86,2.86,0,0,0-2.4,1.19,5.47,5.47,0,0,0-.89,3.32h0Zm26.87-3.88a3.39,3.39,0,0,0-1.9-.57,2.57,2.57,0,0,0-2,1,3.71,3.71,0,0,0-.87,2.49v7.88H863.1V110.66h3.23v1.27a4.58,4.58,0,0,1,3.6-1.52,5.19,5.19,0,0,1,2.54.5l-1.37,2.77h0Zm25.67,10.82v-8.67q0-2.72-2.44-2.73a2.55,2.55,0,0,0-1.4.43,2.49,2.49,0,0,0-.94,1v10h-3.23v-9.17a2.13,2.13,0,0,0-.64-1.62,2.47,2.47,0,0,0-1.78-.6,2.5,2.5,0,0,0-1.32.45,3.07,3.07,0,0,0-1,1v9.95h-3.23V110.66H883l0.66,1.22a4.49,4.49,0,0,1,3.48-1.47,5.38,5.38,0,0,1,4.14,1.5,4.16,4.16,0,0,1,1.69-1.09,6.1,6.1,0,0,1,2.17-.41,4.78,4.78,0,0,1,3.6,1.32,5,5,0,0,1,1.29,3.64v9.13h-3.23ZM170,102.28c0-3,1.06-6.65,3.19-11.08,6.38-13.08,1-18.78-13-22.24l2.39-4.56c17,3.25,23.16,13.64,16.13,28.14a21.1,21.1,0,0,0-2.58,9.42c0,7.9,7.35,12.93,14.45,12.86l316.21,0.47a5,5,0,0,1,4.51-2.84h6.9v1.34h6.32v7.34h-6.33v1.32h-6.9a5,5,0,0,1-4.12-2.17H190.67c-12.08-.1-20.67-7.83-20.67-18h0ZM38.67,0.08l23.45,51.7L86.76,0.08h21.79L133,53.26,157.69,0.08h38.57L162.57,64.4c-10.49-1.62-18.23,1.07-22.57,8.68a28.6,28.6,0,0,0-3,10.8c-0.5,4.6-1.22,7.71-2.12,9.29a12.26,12.26,0,0,1-5.05,5h-7.71a191.9,191.9,0,0,0-4.83-28,10.85,10.85,0,0,1-7.53-10.33c0-.21,0-0.41,0-0.62a9.64,9.64,0,0,0,7,8.7l0.07,0L117,68l0.08,0,0.15,0,0.07,0,0.15,0,0.08,0,0.16,0h0.06l0.18,0h0l0.19,0h0l0.2,0h0l0.21,0h0.72A9.64,9.64,0,0,0,129,58.65c0-.08,0-0.16,0-0.24s0-.07,0-0.11,0-.09,0-0.13V57.92s0-.07,0-0.1V57.34s0-.09,0-0.14l0-.11,0-.12,0-.11,0-.12,0-.11,0-.12,0-.11,0-.12,0-.11,0-.12,0-.11,0-.12,0-.11,0-.12,0-.1,0-.12,0-.1,0-.11,0-.1,0-.11,0-.1,0-.1,0-.1-0.05-.11,0-.1-0.05-.1-0.05-.1-0.05-.1-0.05-.1-0.05-.1-0.06-.1-0.05-.09-0.06-.1-0.05-.08-0.07-.11,0-.07-0.08-.12,0-.06-0.09-.12,0,0q-0.25-.34-0.52-0.67h0l-0.13-.14,0,0-0.12-.13,0,0-0.11-.12,0,0-0.11-.11,0,0-0.12-.11,0,0-0.12-.11,0,0-0.12-.1-0.05,0-0.12-.1-0.06,0L125.23,51l-0.06,0-0.13-.1,0,0-0.14-.1,0,0-0.14-.1,0,0-0.15-.1,0,0-0.15-.09,0,0-0.16-.09,0,0-0.17-.09h0l-0.19-.1h0a9.59,9.59,0,0,0-3.27-1h0l-0.23,0h0l-0.23,0-0.58,0A9.61,9.61,0,0,0,112,52.4c-3.93-10.86-8.73-19.11-13.9-19.11s-10,8.25-13.9,19.11A9.62,9.62,0,0,0,76.87,49l-0.58,0-0.23,0h0l-0.23,0h0a9.56,9.56,0,0,0-3.27,1h0l-0.19.1h0l-0.17.09,0,0L72,50.35l0,0-0.15.09,0,0-0.15.1,0,0-0.14.1,0,0-0.14.1,0,0L71,51,71,51l-0.13.1-0.05,0-0.12.1,0,0-0.12.11,0,0-0.13.11,0,0-0.12.11,0,0L70,51.86l0,0L69.87,52l0,0-0.13.14,0,0a9.57,9.57,0,0,0-.78,1l0,0-0.08.13,0,0.06-0.07.12,0,0.08-0.06.11-0.05.09-0.06.11L68.41,54l-0.06.11-0.05.1-0.05.11,0,0.1-0.05.11,0,0.1,0,0.11,0,0.1L68,55l0,0.11,0,0.11,0,0.11,0,0.1,0,0.12,0,0.1,0,0.11,0,0.11,0,0.11,0,0.11,0,0.12,0,0.11,0,0.12,0,0.11,0,0.12,0,0.12,0,0.12,0,0.11,0,0.12,0,0.11,0,0.13v0.1l0,0.13v0.24s0,0.07,0,.1v0.24s0,0.09,0,.13,0,0.07,0,.11,0,0.16,0,.24a9.64,9.64,0,0,0,9.64,9.64h0.72l0.21,0h0l0.2,0h0l0.19,0h0l0.18,0h0.06l0.16,0,0.08,0,0.16,0H79l0.15,0,0.07,0,0.16,0,0.06,0a9.64,9.64,0,0,0,7-8.71c0,0.21,0,.41,0,0.62A10.85,10.85,0,0,1,79,70.18a198.6,198.6,0,0,0-4.75,27l-0.44,1H50.4L0,0.08H38.67Zm52.94,45a1.81,1.81,0,1,1-1.81,1.81,1.81,1.81,0,0,1,1.81-1.81h0Zm13,0a1.81,1.81,0,1,1-1.81,1.81,1.81,1.81,0,0,1,1.81-1.81h0ZM160.18,69l-15.3,29.21H137.8a16.54,16.54,0,0,0,1.43-2.12c1.5-2.63,2.57-6.34,3.23-11.16,1.69-13.09,8.12-17.36,17.72-15.93h0Zm406,23.6,11.55-67.94h17.41l13.8,36.24,14.58-36.24h17.57l10.26,67.94H633.67l-5-39.12L612.21,92.56h-7L589.52,53.44l-5.78,39.12H566.17ZM693,22.59a41.08,41.08,0,0,1,16,3.11,33.41,33.41,0,0,1,12.42,8.78,36.36,36.36,0,0,1,6.75,11.38,37.13,37.13,0,0,1-6.75,37.26A33.42,33.42,0,0,1,709,91.9a42.44,42.44,0,0,1-32,0,33.44,33.44,0,0,1-12.4-8.75,36.37,36.37,0,0,1-6.74-11.38,37.55,37.55,0,0,1,6.69-37.26,33.8,33.8,0,0,1,12.49-8.78A41,41,0,0,1,693,22.59h0Zm0,17.16a19.07,19.07,0,0,0-14.63,6.73,19.24,19.24,0,0,0-3.4,5.79,18.52,18.52,0,0,0,0,13.06,19.25,19.25,0,0,0,3.4,5.79,18.38,18.38,0,0,0,6.54,5,19.45,19.45,0,0,0,22.76-4.93,18.47,18.47,0,0,0,4.59-12.35,19.07,19.07,0,0,0-1.19-6.68,18.13,18.13,0,0,0-3.4-5.73A19.46,19.46,0,0,0,693,39.75h0Zm62.42-15.12V61.41c0,3,.05,5.18.15,6.61a12.1,12.1,0,0,0,2.38,6.52,10.43,10.43,0,0,0,3.94,3.16,12.26,12.26,0,0,0,5.27,1.12,13.34,13.34,0,0,0,5.61-1.19,10.26,10.26,0,0,0,4.14-3.35,10.8,10.8,0,0,0,2-4.52,50,50,0,0,0,.48-8.36V24.63H797V63.78a46.4,46.4,0,0,1-1,10.45,24,24,0,0,1-7.36,12.25q-8.2,7.82-22.1,7.81a36.24,36.24,0,0,1-12.44-2.14,25.14,25.14,0,0,1-9.57-5.83,20.67,20.67,0,0,1-5.27-8.83,48.62,48.62,0,0,1-1.55-13.71V24.63h17.67ZM850.5,28.5l-7.07,13.74c-3.86-3-7.73-4.49-11.65-4.49a8,8,0,0,0-5.83,2,5.23,5.23,0,0,0-1.78,3.79c0,1.78,1.1,3.33,3.33,4.62a11.57,11.57,0,0,0,2.29,1.05q1.2,0.38,6.68,2a36.42,36.42,0,0,1,8.14,3.26,18.84,18.84,0,0,1,5.2,4.5,15.23,15.23,0,0,1,2.62,4.88,20.82,20.82,0,0,1,.82,6.12c0,7.65-2.11,13.4-6.32,17.33a24.52,24.52,0,0,1-8.83,5.15,34.5,34.5,0,0,1-11.32,1.82A39.37,39.37,0,0,1,813,91.76a42,42,0,0,1-9.85-5.13l7.56-14.24q8,7.16,15.58,7.17c3.19,0,5.47-.82,6.86-2.45a6.17,6.17,0,0,0,1.75-4.23c0-2-1-3.64-3.09-5A32.77,32.77,0,0,0,824.21,65a75.1,75.1,0,0,1-8.44-2.8,18.58,18.58,0,0,1-4.55-2.72Q805.79,55,805.8,46q0-9.45,5.62-15.66Q818,23,828.94,23a44,44,0,0,1,10.92,1.41A50.14,50.14,0,0,1,850.5,28.5h0ZM900,39.41H879v11.5h19.86V65.69H879v12.1h21V92.56H861.33V24.63H900V39.41h0Zm-679.61.34a19.07,19.07,0,0,0-14.63,6.73,19.26,19.26,0,0,0-3.4,5.79,18.53,18.53,0,0,0,0,13.06,19.26,19.26,0,0,0,3.4,5.79,18.39,18.39,0,0,0,6.54,5,19.45,19.45,0,0,0,22.76-4.93,18.47,18.47,0,0,0,4.59-12.35,19.07,19.07,0,0,0-1.19-6.68,18.13,18.13,0,0,0-3.4-5.73,19.46,19.46,0,0,0-14.68-6.68h0Zm79.88,25,21.35,27.86h-22L282.8,66.49V92.56H265.14V24.63h27.47a28.42,28.42,0,0,1,10.53,1.72,17.9,17.9,0,0,1,7.29,5.5,20.57,20.57,0,0,1,3.45,6.37,22.8,22.8,0,0,1-.22,15.36,17.86,17.86,0,0,1-3.92,6.35,16.24,16.24,0,0,1-4,2.94,23.07,23.07,0,0,1-5.47,1.83h0ZM282.8,55h3.28q5.58,0,8-2.34A8.2,8.2,0,0,0,296,49.87a7.91,7.91,0,0,0,0-6.64,7.9,7.9,0,0,0-1.92-2.8q-2.45-2.34-8-2.34H282.8V55h0Zm59.83-2.4,21.54-28H386L359,56.78l29.46,35.78h-22.9L342.64,63.1V92.56H325V24.63h17.67v28h0Zm68.26-28V92.56H393.23V24.63H410.9ZM418,92.56V24.63h17.67l32.5,41.55V24.63h17.67V92.56H468.22L435.72,51v41.6H418ZM530.11,54.83h35c0,7.37-.83,13.37-2.48,18A31.82,31.82,0,0,1,550.44,89q-8.49,5.68-20.18,5.69a40,40,0,0,1-16.43-3.31,31.91,31.91,0,0,1-12.3-9.43,35.41,35.41,0,0,1-5.59-10.65,39.46,39.46,0,0,1-2-12.38,39.92,39.92,0,0,1,2.31-13.59,35.23,35.23,0,0,1,6.56-11.35A32.2,32.2,0,0,1,515,25.42a41.49,41.49,0,0,1,16-3q12.05,0,20.4,6.17a27.53,27.53,0,0,1,5.59,5.33,42.77,42.77,0,0,1,4.6,7.61l-16.75,6.91a26,26,0,0,0-2.29-4.25,15.44,15.44,0,0,0-2.68-2.92,14.72,14.72,0,0,0-9.72-3.38,15.38,15.38,0,0,0-11.4,4.59A20.79,20.79,0,0,0,514,49.84,25.22,25.22,0,0,0,514,67.73a21.71,21.71,0,0,0,4.5,7.32q4.54,4.82,12.11,4.82,6.7,0,10.65-3.92a10.41,10.41,0,0,0,2.21-3.14,19.24,19.24,0,0,0,1.17-4.52H530.11V54.83h0Z" transform="translate(0 -0.08)"/></svg>