<svg xmlns="http://www.w3.org/2000/svg" viewBox="0 0 97.33 97.33"><defs><style>.cls-1{fill:#fab616;}.cls-2{fill:#fff;stroke-width:2px;}.cls-2,.cls-4{stroke:#231f20;stroke-miterlimit:10;}.cls-3{fill:#231f20;}.cls-4{fill:none;}</style></defs><title>Asset 23</title><g id="Layer_2" data-name="Layer 2"><g id="Layer_2-2" data-name="Layer 2"><g id="Details"><circle class="cls-1" cx="48.67" cy="48.67" r="48.67"/><rect class="cls-2" x="24.94" y="15.69" width="47.46" height="67.37" rx="5" ry="5"/></g><path class="cls-3" d="M48.73,37.69c5.87,0,10,3.16,10,9,0,5.44-3.93,8.4-9.46,8.44L49,58.34H42.69l-.21-7.86H45c4,0,6.72-.71,6.68-3.8a2.85,2.85,0,0,0-3-3.08,3,3,0,0,0-3.21,3.21h-6.8C38.51,41.74,42.06,37.69,48.73,37.69ZM46,69.32a3.94,3.94,0,1,1,0-7.85,3.94,3.94,0,1,1,0,7.85Z"/><line class="cls-4" x1="32.76" y1="23.19" x2="65.94" y2="23.19"/><line class="cls-4" x1="32.76" y1="28.02" x2="65.94" y2="28.02"/></g></g></svg>