<?xml version="1.0" encoding="utf-8"?>
<!-- Generator: Adobe Illustrator 22.1.0, SVG Export Plug-In . SVG Version: 6.00 Build 0)  -->
<svg version="1.1" id="Layer_1" xmlns="http://www.w3.org/2000/svg" xmlns:xlink="http://www.w3.org/1999/xlink" x="0px" y="0px"
	 viewBox="0 0 97.3 97.3" style="enable-background:new 0 0 97.3 97.3;" xml:space="preserve">
<style type="text/css">
	.st0{fill:#B9B9B9;}
	.st1{fill:#FFFFFF;stroke:#231F20;stroke-width:2;stroke-miterlimit:10;}
	.st2{fill:#231F20;}
	.st3{fill:none;stroke:#231F20;stroke-miterlimit:10;}
</style>
<title>Asset 23</title>
<g id="Layer_2_1_">
	<g id="Layer_2-2">
		<g id="Details">
			<circle class="st0" cx="48.7" cy="48.7" r="48.7"/>
			<path class="st1" d="M29.9,15.7h37.5c2.8,0,5,2.2,5,5v57.4c0,2.8-2.2,5-5,5H29.9c-2.8,0-5-2.2-5-5V20.7
				C24.9,17.9,27.2,15.7,29.9,15.7z"/>
		</g>
		<path class="st2" d="M48.7,37.7c5.9,0,10,3.2,10,9c0,5.4-3.9,8.4-9.5,8.4L49,58.3h-6.3l-0.2-7.9H45c4,0,6.7-0.7,6.7-3.8
			c0.1-1.6-1-2.9-2.6-3.1c-0.1,0-0.3,0-0.4,0c-1.7-0.1-3.1,1.1-3.2,2.8c0,0.1,0,0.3,0,0.4h-6.8C38.5,41.7,42.1,37.7,48.7,37.7z
			 M46,69.3c-2.2,0.2-4.1-1.4-4.3-3.6c-0.2-2.2,1.4-4.1,3.6-4.3c0.2,0,0.5,0,0.7,0c2.2-0.2,4.1,1.4,4.3,3.6c0.2,2.2-1.4,4.1-3.6,4.3
			C46.5,69.3,46.2,69.3,46,69.3z"/>
		<line class="st3" x1="32.8" y1="23.2" x2="65.9" y2="23.2"/>
		<line class="st3" x1="32.8" y1="28" x2="65.9" y2="28"/>
	</g>
</g>
</svg>
