<?xml version="1.0" encoding="utf-8"?>
<!-- Generator: Adobe Illustrator 19.0.0, SVG Export Plug-In . SVG Version: 6.00 Build 0)  -->
<svg version="1.1" id="Layer_1" xmlns="http://www.w3.org/2000/svg" xmlns:xlink="http://www.w3.org/1999/xlink" x="0px" y="0px"
	 viewBox="-840.6 530.3 24 18" style="enable-background:new -840.6 530.3 24 18;" xml:space="preserve">
<style type="text/css">
	.st0{fill:none;}
	.st1{fill:#EA4335;}
</style>
<path class="st0" d="M-840.6,526.3h24v24h-24V526.3z"/>
<path class="st1" d="M-821.3,536.3c-0.7-3.5-3.7-6-7.3-6c-1.5,0-2.9,0.4-4,1.2l1.5,1.5c0.8-0.4,1.6-0.6,2.6-0.6c3,0,5.5,2.5,5.5,5.5
	v0.5h1.5c1.7,0,3,1.3,3,3c0,1.1-0.6,2.1-1.6,2.6l1.4,1.5c1.3-0.9,2.1-2.4,2.1-4.1C-816.6,538.7-818.7,536.5-821.3,536.3z
	 M-837.6,531.6l2.8,2.7c-3.2,0.1-5.8,2.8-5.8,6c0,3.3,2.7,6,6,6h11.7l2,2l1.3-1.3l-16.7-16.7L-837.6,531.6z M-832.9,536.3l8,8h-9.7
	c-2.2,0-4-1.8-4-4s1.8-4,4-4H-832.9z"/>
</svg>
