<svg xmlns="http://www.w3.org/2000/svg" viewBox="0 0 97.33 97.33"><defs><style>.cls-1{fill:#fab616;}.cls-2,.cls-3{fill:#fff;stroke:#231f20;stroke-miterlimit:10;}.cls-2{stroke-width:2px;}</style></defs><title>Asset 13</title><g id="Layer_2" data-name="Layer 2"><g id="Layer_1-2" data-name="Layer 1"><g id="Photo"><circle class="cls-1" cx="48.67" cy="48.67" r="48.67"/><path class="cls-2" d="M76.3,30.83H65.61L65,28.46c-.4-1.55-2.75-2.7-5.53-2.7H38c-2.74,0-5.07,1.12-5.51,2.65l-.7,2.42H21a5,5,0,0,0-5,5V66.58a5,5,0,0,0,5,5H76.3a5,5,0,0,0,5-5V35.83A5,5,0,0,0,76.3,30.83Z"/><circle class="cls-2" cx="48.67" cy="50.31" r="14.49"/><circle class="cls-2" cx="24" cy="39.33" r="2.95"/><circle class="cls-3" cx="48.67" cy="50.31" r="10.25"/></g></g></g></svg>