<svg xmlns="http://www.w3.org/2000/svg" viewBox="0 0 97.33 97.33"><defs><style>.cls-1{fill:#fab616;}.cls-2{fill:#fff;stroke-width:2px;}.cls-2,.cls-3{stroke:#231f20;stroke-miterlimit:10;}.cls-3{fill:none;}.cls-4{fill:#231f20;}</style></defs><title>Asset 14</title><g id="Layer_2" data-name="Layer 2"><g id="Layer_1-2" data-name="Layer 1"><g id="Receipt"><circle class="cls-1" cx="48.67" cy="48.67" r="48.67"/><path class="cls-2" d="M30.21,18.8s-.56,21.7,0,25.36.35,33.29.35,33.29L36,78.61l3.34-2.18,6.3,3.63,2.49-3.62L54.87,80s2-3.52,3.53-3.68S64,80.59,64,80.59a3,3,0,0,0,2.47-2.32c.76-2.27,1.48-57,0-58.63s-3.9.19-3.9.19l-4-2.76-5.35,4.42-2.33-.86-1.84-3.88-5.64,3.58s-2.9-2.65-4.32-2.22A26.55,26.55,0,0,0,35,20.23Z"/><line class="cls-3" x1="36.01" y1="30.92" x2="60.34" y2="30.92"/><line class="cls-3" x1="36.01" y1="36.25" x2="60.34" y2="36.25"/><line class="cls-3" x1="36.01" y1="39.94" x2="60.34" y2="39.94"/><line class="cls-3" x1="36.01" y1="43.63" x2="60.34" y2="43.63"/><line class="cls-3" x1="36.01" y1="47.67" x2="60.34" y2="47.67"/><line class="cls-3" x1="36.01" y1="51.36" x2="60.34" y2="51.36"/><line class="cls-3" x1="36.01" y1="55.05" x2="60.34" y2="55.05"/><line class="cls-3" x1="50.51" y1="66.46" x2="60.34" y2="66.46"/><path class="cls-4" d="M45.55,67.92a4,4,0,0,1-1.35-.31v-1a4.86,4.86,0,0,0,.81.31,2.89,2.89,0,0,0,.76.12.93.93,0,0,0,.39-.06.22.22,0,0,0,.13-.22.21.21,0,0,0-.09-.17,1.31,1.31,0,0,0-.3-.16,4.6,4.6,0,0,0-.57-.22,2.89,2.89,0,0,1-.66-.33,1.36,1.36,0,0,1-.36-.41,1.38,1.38,0,0,1-.11-.57,1,1,0,0,1,.34-.81,1.85,1.85,0,0,1,1-.36v-.43h.66v.43a3.73,3.73,0,0,1,1.28.3c-.13.3-.25.6-.38.89a3.08,3.08,0,0,0-1.2-.29.78.78,0,0,0-.36.06.19.19,0,0,0-.1.18.21.21,0,0,0,.07.17.85.85,0,0,0,.26.15c.12.06.29.12.51.2a2.56,2.56,0,0,1,1,.52,1,1,0,0,1,.28.77,1.12,1.12,0,0,1-.34.85,1.62,1.62,0,0,1-1,.41v.6h-.65Z"/></g></g></g></svg>