<?xml version="1.0" encoding="utf-8"?>
<!-- Generator: Adobe Illustrator 22.1.0, SVG Export Plug-In . SVG Version: 6.00 Build 0)  -->
<svg version="1.1" id="Layer_1" xmlns="http://www.w3.org/2000/svg" xmlns:xlink="http://www.w3.org/1999/xlink" x="0px" y="0px"
	 viewBox="0 0 97.3 97.3" style="enable-background:new 0 0 97.3 97.3;" xml:space="preserve">
<style type="text/css">
	.st0{fill:#B9B9B9;}
	.st1{fill:#FFFFFF;stroke:#231F20;stroke-width:2;stroke-miterlimit:10;}
	.st2{fill:none;stroke:#231F20;stroke-miterlimit:10;}
	.st3{fill:#231F20;}
</style>
<title>Asset 14</title>
<g id="Layer_2_1_">
	<g id="Layer_1-2">
		<g id="Receipt">
			<circle class="st0" cx="48.7" cy="48.7" r="48.7"/>
			<path class="st1" d="M30.2,18.8c0,0-0.6,21.7,0,25.4s0.4,33.3,0.4,33.3l5.4,1.2l3.3-2.2l6.3,3.6l2.5-3.6l6.7,3.6
				c0,0,2-3.5,3.5-3.7s5.6,4.3,5.6,4.3c1.2-0.2,2.2-1.1,2.5-2.3c0.8-2.3,1.5-57,0-58.6s-3.9,0.2-3.9,0.2l-4-2.8l-5.3,4.4l-2.3-0.9
				L49,16.7l-5.6,3.6c0,0-2.9-2.6-4.3-2.2c-1.4,0.6-2.8,1.3-4.1,2.1L30.2,18.8z"/>
			<line class="st2" x1="36" y1="30.9" x2="60.3" y2="30.9"/>
			<line class="st2" x1="36" y1="36.2" x2="60.3" y2="36.2"/>
			<line class="st2" x1="36" y1="39.9" x2="60.3" y2="39.9"/>
			<line class="st2" x1="36" y1="43.6" x2="60.3" y2="43.6"/>
			<line class="st2" x1="36" y1="47.7" x2="60.3" y2="47.7"/>
			<line class="st2" x1="36" y1="51.4" x2="60.3" y2="51.4"/>
			<line class="st2" x1="36" y1="55" x2="60.3" y2="55"/>
			<line class="st2" x1="50.5" y1="66.5" x2="60.3" y2="66.5"/>
			<path class="st3" d="M45.5,67.9c-0.5,0-0.9-0.1-1.3-0.3v-1c0.3,0.1,0.5,0.2,0.8,0.3c0.2,0.1,0.5,0.1,0.8,0.1c0.1,0,0.3,0,0.4-0.1
				c0.1,0,0.1-0.1,0.1-0.2c0-0.1,0-0.1-0.1-0.2c-0.1-0.1-0.2-0.1-0.3-0.2c-0.2-0.1-0.4-0.2-0.6-0.2c-0.2-0.1-0.5-0.2-0.7-0.3
				c-0.1-0.1-0.3-0.3-0.4-0.4c-0.1-0.2-0.1-0.4-0.1-0.6c0-0.3,0.1-0.6,0.3-0.8c0.3-0.2,0.6-0.3,1-0.4v-0.4h0.7v0.4
				c0.4,0,0.9,0.1,1.3,0.3c-0.1,0.3-0.3,0.6-0.4,0.9c-0.4-0.2-0.8-0.3-1.2-0.3c-0.1,0-0.2,0-0.4,0.1c-0.1,0-0.1,0.1-0.1,0.2
				c0,0.1,0,0.1,0.1,0.2c0.1,0.1,0.2,0.1,0.3,0.2c0.1,0.1,0.3,0.1,0.5,0.2c0.4,0.1,0.7,0.3,1,0.5c0.2,0.2,0.3,0.5,0.3,0.8
				c0,0.3-0.1,0.6-0.3,0.8c-0.3,0.2-0.6,0.4-1,0.4v0.6h-0.7L45.5,67.9z"/>
		</g>
	</g>
</g>
</svg>
