<svg xmlns="http://www.w3.org/2000/svg" width="60" height="64" viewBox="0 0 60 64">
  <g fill="none" fill-rule="evenodd" transform="translate(-4 -4)">
    <polygon points="0 0 72 0 72 72 0 72"/>
    <path fill="#FFF" fill-rule="nonzero" d="M57.5517241,4.27586207 L29.6206897,4.27586207 C26.5482759,4.27586207 24.0344828,6.78965517 24.0344828,9.86206897 L24.0344828,48.9655172 C24.0344828,52.037931 26.5482759,54.5517241 29.6206897,54.5517241 L57.5517241,54.5517241 C60.6241379,54.5517241 63.137931,52.037931 63.137931,48.9655172 L63.137931,9.86206897 C63.137931,6.78965517 60.6241379,4.27586207 57.5517241,4.27586207 Z M57.5517241,48.9655172 L29.6206897,48.9655172 L29.6206897,9.86206897 L57.5517241,9.86206897 L57.5517241,48.9655172 Z"/>
    <path stroke="#FFF" stroke-linecap="round" stroke-width="5" d="M14.9228907,20.8230808 L7.96623261,22.8691567 C6.90154153,23.1823011 6.28491393,24.3062963 6.58424616,25.3630418 L17.283871,63.1363875 C17.7366381,64.7348107 19.3818783,65.6206613 20.9518873,65.1171487 L31.6903372,61.6732546"/>
  </g>
</svg>
