<svg xmlns="http://www.w3.org/2000/svg" viewBox="0 0 97.33 97.33"><defs><style>.cls-1{fill:#fab616;}.cls-2,.cls-3,.cls-5{fill:#fff;}.cls-2,.cls-3,.cls-4{stroke:#231f20;stroke-miterlimit:10;}.cls-2,.cls-4{stroke-width:2px;}.cls-4{fill:#231f20;}</style></defs><title>Asset 19</title><g id="Layer_2" data-name="Layer 2"><g id="Layer_1-2" data-name="Layer 1"><g id="Free"><circle class="cls-1" cx="48.67" cy="48.67" r="48.67"/><path class="cls-2" d="M48.67,84.52S22,72.41,22,70.39V23.05c0-2,2.08-3.67,4.62-3.67l22.06-3.69,22,3.69c2.54,0,4.62,1.65,4.62,3.67V70.39C75.34,72.41,48.67,84.52,48.67,84.52Z"/><path class="cls-3" d="M48.67,78.56s-22.06-10-22.06-11.68V27.73c0-1.67,1.72-3,3.82-3l18.24-3.05L66.9,24.7c2.1,0,3.82,1.36,3.82,3V66.88C70.72,68.55,48.67,78.56,48.67,78.56Z"/><circle class="cls-4" cx="48.67" cy="47.9" r="12.77"/><path class="cls-5" d="M56.11,45.14a.89.89,0,0,1-.26.65l-7,7-1.31,1.31a1,1,0,0,1-.67.26.9.9,0,0,1-.64-.26L45,52.74l-3.48-3.49a.85.85,0,0,1-.27-.64.87.87,0,0,1,.27-.64l1.3-1.31a.88.88,0,0,1,.66-.29.84.84,0,0,1,.65.29l2.82,2.82,6.31-6.3a.88.88,0,0,1,.66-.27.86.86,0,0,1,.65.27l1.31,1.3A.93.93,0,0,1,56.11,45.14Z"/></g></g></g></svg>