<svg xmlns="http://www.w3.org/2000/svg" xmlns:xlink="http://www.w3.org/1999/xlink" viewBox="0 0 105.57 97.33"><defs><style>.cls-1{fill:none;}.cls-2{fill:#fab616;}.cls-3{clip-path:url(#clip-path);}.cls-4,.cls-5{fill:#fff;stroke:#231f20;stroke-miterlimit:10;}.cls-4{stroke-width:2px;}</style><clipPath id="clip-path"><circle class="cls-1" cx="56.9" cy="48.67" r="48.67"/></clipPath></defs><title>Asset 15</title><g id="Layer_2" data-name="Layer 2"><g id="Layer_1-2" data-name="Layer 1"><g id="Serial"><circle class="cls-2" cx="56.9" cy="48.67" r="48.67"/><g class="cls-3"><rect class="cls-4" x="32.23" y="26.13" width="61.58" height="23.29" rx="4.98" ry="4.98"/><rect class="cls-4" x="25.14" y="31.23" width="7.09" height="13.83"/><rect class="cls-4" x="20.44" y="33.96" width="4.71" height="8.37"/><line class="cls-5" y1="37.78" x2="20.44" y2="37.78"/><path class="cls-4" d="M91.49,49.42S97.1,65.33,95.94,76L77,75.71c5.28-13,1-26.29,1-26.29Z"/><rect class="cls-4" x="69.58" y="75.98" width="30.82" height="12.01" rx="2.53" ry="2.53"/><line class="cls-5" x1="65.21" y1="35.46" x2="65.21" y2="44.86"/><line class="cls-5" x1="82.9" y1="35.46" x2="82.9" y2="44.86"/><line class="cls-5" x1="68.25" y1="35.46" x2="68.25" y2="44.86"/><line class="cls-5" x1="76.13" y1="35.46" x2="76.13" y2="44.86"/><line class="cls-5" x1="79.17" y1="35.46" x2="79.17" y2="44.86"/><line class="cls-5" x1="88.15" y1="35.46" x2="88.15" y2="44.86"/><line class="cls-5" x1="85.52" y1="35.46" x2="85.52" y2="44.86"/><line class="cls-5" x1="72.4" y1="35.46" x2="72.4" y2="44.86"/><line class="cls-5" x1="70.32" y1="35.46" x2="70.32" y2="44.86"/><line class="cls-5" x1="80.41" y1="35.46" x2="80.41" y2="44.86"/></g></g><g id="Serial-2" data-name="Serial"><circle class="cls-2" cx="56.9" cy="48.67" r="48.67"/><g class="cls-3"><rect class="cls-4" x="32.23" y="26.13" width="61.58" height="23.29" rx="4.98" ry="4.98"/><rect class="cls-4" x="25.14" y="31.23" width="7.09" height="13.83"/><rect class="cls-4" x="20.44" y="33.96" width="4.71" height="8.37"/><line class="cls-5" y1="37.78" x2="20.44" y2="37.78"/><path class="cls-4" d="M91.49,49.42S97.1,65.33,95.94,76L77,75.71c5.28-13,1-26.29,1-26.29Z"/><rect class="cls-4" x="69.58" y="75.98" width="30.82" height="12.01" rx="2.53" ry="2.53"/><line class="cls-5" x1="65.21" y1="35.46" x2="65.21" y2="44.86"/><line class="cls-5" x1="82.9" y1="35.46" x2="82.9" y2="44.86"/><line class="cls-5" x1="68.25" y1="35.46" x2="68.25" y2="44.86"/><line class="cls-5" x1="76.13" y1="35.46" x2="76.13" y2="44.86"/><line class="cls-5" x1="79.17" y1="35.46" x2="79.17" y2="44.86"/><line class="cls-5" x1="88.15" y1="35.46" x2="88.15" y2="44.86"/><line class="cls-5" x1="85.52" y1="35.46" x2="85.52" y2="44.86"/><line class="cls-5" x1="72.4" y1="35.46" x2="72.4" y2="44.86"/><line class="cls-5" x1="70.32" y1="35.46" x2="70.32" y2="44.86"/><line class="cls-5" x1="80.41" y1="35.46" x2="80.41" y2="44.86"/></g></g></g></g></svg>