<svg xmlns="http://www.w3.org/2000/svg" viewBox="0 0 218.27 375.12"><defs><style>.cls-1,.cls-5,.cls-6,.cls-8{fill:#fff;}.cls-1,.cls-10,.cls-3,.cls-8,.cls-9{stroke:#231f20;}.cls-1,.cls-10,.cls-3,.cls-6,.cls-7,.cls-8,.cls-9{stroke-miterlimit:10;}.cls-1,.cls-3{stroke-width:8px;}.cls-2{fill:#fab616;}.cls-10,.cls-3,.cls-7,.cls-9{fill:none;}.cls-4{fill:#231f20;}.cls-6,.cls-7{stroke:#000;}.cls-10,.cls-6,.cls-7,.cls-8{stroke-width:3px;}</style></defs><title>Asset 22</title><g id="Layer_2" data-name="Layer 2"><g id="Layer_1-2" data-name="Layer 1"><rect class="cls-1" x="4" y="4" width="210.27" height="367.12" rx="12" ry="12"/><circle class="cls-2" cx="143.67" cy="101.22" r="26.92"/><circle class="cls-2" cx="73.88" cy="182.59" r="26.92"/><circle class="cls-2" cx="135.74" cy="291.1" r="26.92"/><path class="cls-3" d="M187.58,33.9H151.25s-9.54,11.46-20.55,11.46H87.75c-11,0-20.55-11.46-20.55-11.46H30.88C23.8,33.9,18,39.42,18,46.18V336.24c0,6.75,5.79,12.28,12.87,12.28h156.7c7.07,0,12.86-5.53,12.86-12.28V46.18C200.44,39.42,194.65,33.9,187.58,33.9Z"/><circle class="cls-4" cx="90.64" cy="24.89" r="5.82"/><rect class="cls-4" x="107.23" y="20.98" width="33.9" height="5.82" rx="2.91" ry="2.91"/><rect class="cls-5" x="81.39" y="170.81" width="4.03" height="8.02"/><rect class="cls-5" x="87.44" y="169.27" width="4.03" height="11.09"/><rect class="cls-6" x="135.74" y="316.01" width="5.1" height="8.73" rx="2.55" ry="2.55"/><circle class="cls-6" cx="97.89" cy="304.65" r="26.92"/><path class="cls-6" d="M87.26,274.64c-6.44.56-6.71,7.75-.27,7.92,39,1,34.36,40.36,37.82,40.36S149.5,269.2,87.26,274.64Z"/><path class="cls-6" d="M161.86,288.34c-8.2-24.86-62.74-22.47-68.17-21.49s-6.43,7.79-6.43,7.79,28.16-3.83,39,11.19c10.71,14.84-.32,35.58,1,33.86C129.62,316.46,172.24,319.79,161.86,288.34Zm-11.2,16.31c-4.47,2.88-12.84.89-14.24-6.06-2.22-11.07-12.64-18.95-8-21.61s15.76,2.27,23.55,12.47C156.92,296,154.24,302.34,150.66,304.65Z"/><circle class="cls-7" cx="97.89" cy="304.65" r="10.63"/><circle class="cls-7" cx="97.89" cy="304.65" r="4.94"/><rect class="cls-6" x="56.97" y="324.74" width="89.75" height="3.79" rx="1.89" ry="1.89"/><path class="cls-8" d="M141.37,95.63s10.27,4.41,11.22,30.59c.15,4.13,9.28.61,13.89-1.43a3.6,3.6,0,0,0,2.1-4C167,112.62,162.15,89,157.43,87.49,151.71,85.73,141.37,95.63,141.37,95.63Z"/><path class="cls-8" d="M152.91,95.63H101a4.48,4.48,0,0,1-4.52-4.4V83.75a4.48,4.48,0,0,1,4.52-4.4h51.91a4.47,4.47,0,0,1,4.52,4.4v7.48A4.47,4.47,0,0,1,152.91,95.63Z"/><rect class="cls-8" x="87.02" y="78.26" width="9.46" height="18.04"/><rect class="cls-8" x="77.56" y="81.77" width="9.46" height="11.02"/><polygon class="cls-8" points="77.56 91.03 70.2 89.28 70.2 85.26 77.56 83.53 77.56 91.03"/><rect class="cls-8" x="89.44" y="96.3" width="3.52" height="10.11"/><rect class="cls-8" x="87.02" y="108.85" width="8.36" height="22.65"/><line class="cls-9" x1="46.39" y1="146.41" x2="172.06" y2="146.41"/><line class="cls-9" x1="46.39" y1="247.63" x2="172.06" y2="247.63"/><rect class="cls-8" x="87.22" y="164.1" width="68.54" height="25.93" rx="4.98" ry="4.98"/><rect class="cls-8" x="79.34" y="169.77" width="7.89" height="15.39"/><rect class="cls-8" x="74.1" y="172.81" width="5.24" height="9.32"/><line class="cls-10" x1="51.35" y1="177.06" x2="74.1" y2="177.06"/><path class="cls-8" d="M153.18,190s6.25,17.71,4.95,29.56l-21.06-.31c5.88-14.47,1.1-29.25,1.1-29.25Z"/><rect class="cls-8" x="128.8" y="219.58" width="34.3" height="13.37" rx="2.53" ry="2.53"/><path class="cls-4" d="M129.05,189.72s-4.66,19,10.4,13.8l-1.27-13.89Z"/><line class="cls-10" x1="46.96" y1="87.28" x2="69.71" y2="87.28"/></g></g></svg>