<svg xmlns="http://www.w3.org/2000/svg" viewBox="0 0 218.27 375.12"><defs><style>.cls-1,.cls-6{fill:#fff;}.cls-1,.cls-4{stroke:#231f20;stroke-miterlimit:10;stroke-width:8px;}.cls-2{fill:#fab616;}.cls-3,.cls-5{fill:#231f20;}.cls-4{fill:none;}.cls-5{font-size:18px;font-family:OpenSans-Extrabold, Open Sans;font-weight:700;}</style></defs><title>Asset 21</title><g id="Layer_2" data-name="Layer 2"><g id="Layer_1-2" data-name="Layer 1"><rect class="cls-1" x="4" y="4" width="210.27" height="367.12" rx="12" ry="12"/><path class="cls-1" d="M187.58,33.9H151.25s-9.54,11.46-20.55,11.46H87.75c-11,0-20.55-11.46-20.55-11.46H30.88C23.8,33.9,18,39.42,18,46.18V336.24c0,6.75,5.79,12.28,12.87,12.28h156.7c7.07,0,12.86-5.53,12.86-12.28V46.18C200.44,39.42,194.65,33.9,187.58,33.9Z"/><rect class="cls-2" x="42.5" y="69.07" width="134.79" height="189.04"/><rect class="cls-2" x="38.25" y="281.4" width="143.29" height="36.3"/><circle class="cls-3" cx="90.64" cy="24.89" r="5.82"/><rect class="cls-3" x="107.23" y="20.98" width="33.9" height="5.82" rx="2.91" ry="2.91"/><polyline class="cls-4" points="42.5 128.66 42.5 69.07 83.45 69.07"/><polyline class="cls-4" points="177.29 128.66 177.29 69.07 136.33 69.07"/><polyline class="cls-4" points="42.5 198.52 42.5 258.11 83.45 258.11"/><polyline class="cls-4" points="177.29 198.52 177.29 258.11 136.33 258.11"/><text class="cls-5" transform="translate(69.63 305.35)">CAPTURE</text><path class="cls-6" d="M149.86,223.8q-2.49,3.57-4.92,7.12l-13.45-10.11q-4,4.11-7.9,8.24l-14.24-5.25-5.84,5.25q-6.83-3.93-13.67-7.87l-7.48,4.88L71.84,223.8c-.49-42.45-4.2-85.08-.72-127.23a1.83,1.83,0,0,1,2.67-1.41c2.14,1.09,4.31,2.15,6.48,3.18Q83,96.66,85.71,95a7.5,7.5,0,0,1,7.46-.23q2.92,1.53,5.88,3c4-1.46,7.9-3,11.8-4.5q2.45,3,4.94,6.07c2.67-.15,5.35-.33,8-.52,2.75-2.49,5.46-5,8.1-7.57q4.86,3.18,9.86,6.32c1.21-.49,2.42-1,3.62-1.51a3.83,3.83,0,0,1,5.39,3.1C153.91,140.47,150.34,182.22,149.86,223.8Z"/><path class="cls-3" d="M145.2,232.52q-6.81-5.1-13.59-10.22-3.89,4-7.72,8.06l-14.29-5.27-5.94,5.34c-4.59-2.64-9.17-5.29-13.78-7.93l-7.29,4.76-11.86-2.55C70.26,182,66.31,139,70,96.47a2.85,2.85,0,0,1,1.53-2.28,3.06,3.06,0,0,1,2.81,0q2.91,1.47,5.88,2.9l4.89-3a8.66,8.66,0,0,1,8.64-.26q2.69,1.42,5.4,2.79c4.07-1.49,8.1-3,12.1-4.62,1.68,2.09,3.39,4.18,5.11,6.27q3.49-.21,7-.46c2.88-2.6,5.71-5.23,8.46-7.92,3.33,2.17,6.7,4.32,10.12,6.48l3-1.28a5.11,5.11,0,0,1,4.57.24A4.74,4.74,0,0,1,152,99.07c3.27,41.49-.49,83.38-1,125.08Q148.06,228.33,145.2,232.52Zm-13.82-13.21,13.3,10c1.34-2,2.69-3.91,4-5.87.48-41.47,3.87-83.08.89-124.19a2.53,2.53,0,0,0-1.3-2,2.74,2.74,0,0,0-2.48-.14c-1.4.59-2.8,1.17-4.21,1.74q-4.86-3.08-9.59-6.16c-2.53,2.44-5.12,4.84-7.74,7.2-3,.23-6,.42-9,.59-1.6-2-3.2-3.91-4.77-5.87Q104.78,96.85,99,99q-3.19-1.6-6.36-3.27a6.33,6.33,0,0,0-6.29.2c-2,1.24-4,2.48-6,3.72-2.38-1.12-4.75-2.28-7.1-3.46a.69.69,0,0,0-.64,0,.68.68,0,0,0-.35.52c-3.3,41.76.18,84.07.69,126.22l9.18,2,7.65-5,13.58,7.81,5.73-5.15,14.19,5.22Q127.31,223.53,131.38,219.31Z"/><path class="cls-3" d="M113,198.94a6,6,0,0,1-2.11-.48v-1.64a7.86,7.86,0,0,0,1.26.49,4.36,4.36,0,0,0,1.2.19,1.39,1.39,0,0,0,.62-.1.36.36,0,0,0,.2-.34.33.33,0,0,0-.14-.27,2,2,0,0,0-.48-.26c-.22-.1-.52-.21-.9-.35a4,4,0,0,1-1-.51A1.91,1.91,0,0,1,111,195a2,2,0,0,1-.18-.89,1.61,1.61,0,0,1,.53-1.27,3,3,0,0,1,1.6-.57v-.67h1v.66a6,6,0,0,1,2,.49l-.6,1.4a4.72,4.72,0,0,0-1.89-.46,1.29,1.29,0,0,0-.57.09.32.32,0,0,0-.16.29.37.37,0,0,0,.12.27,1.73,1.73,0,0,0,.41.23,7.06,7.06,0,0,0,.8.3,4,4,0,0,1,1.5.83,1.62,1.62,0,0,1,.46,1.2,1.88,1.88,0,0,1-.54,1.35,2.67,2.67,0,0,1-1.56.64v1h-1Z"/><path class="cls-3" d="M134.49,118.65c-18.11.58-35.76.5-54-.24,0-.74,0-1.48,0-2.22,18.19.78,35.83.87,53.9.26C134.46,117.18,134.47,117.92,134.49,118.65Z"/><path class="cls-3" d="M140.17,131.6c-20.2.57-39.61.56-59.84,0,0-.74,0-1.48,0-2.22,20.22.62,39.63.63,59.82,0C140.16,130.12,140.17,130.86,140.17,131.6Z"/><path class="cls-3" d="M140.17,140.87c-20.2.44-39.61.43-59.84,0,0-.74,0-1.48,0-2.23,20.24.49,39.65.5,59.86,0C140.18,139.38,140.18,140.13,140.17,140.87Z"/><path class="cls-3" d="M140.1,150.16c-20.14.33-39.52.32-59.7,0,0-.75,0-1.49,0-2.24,20.19.37,39.58.38,59.75,0Z"/><path class="cls-3" d="M140,159.46c-20,.25-39.37.24-59.43,0,0-.75,0-1.49,0-2.24,20.09.28,39.45.28,59.51,0C140,158,140,158.72,140,159.46Z"/><path class="cls-3" d="M139.8,168.79c-19.88.17-39.17.16-59.08,0,0-.74,0-1.49,0-2.24,20,.2,39.25.2,59.18,0C139.83,167.29,139.82,168,139.8,168.79Z"/><path class="cls-3" d="M139.61,178.12c-19.72.12-39,.12-58.68,0l-.06-2.25c19.78.14,39,.14,58.78,0C139.64,176.63,139.62,177.38,139.61,178.12Z"/><path class="cls-3" d="M139.2,196.83l-18.86,0c0-.75,0-1.5,0-2.25l18.88,0C139.23,195.33,139.21,196.08,139.2,196.83Z"/></g></g></svg>