<?xml version="1.0" encoding="utf-8"?>
<!-- Generator: Adobe Illustrator 21.1.0, SVG Export Plug-In . SVG Version: 6.00 Build 0)  -->
<svg version="1.1" id="Layer_1" xmlns="http://www.w3.org/2000/svg" xmlns:xlink="http://www.w3.org/1999/xlink" x="0px" y="0px"
	 viewBox="0 0 24 24" style="enable-background:new 0 0 24 24;" xml:space="preserve">
<style type="text/css">
	.st0{fill:#FFFFFF;}
</style>
<polygon class="st0" points="17,12.6 12,17.6 7,12.6 10,12.6 10,8.6 14,8.6 14,12.6 "/>
<path class="st0" d="M19.4,10c-0.7-3.4-3.7-6-7.4-6C9.1,4,6.6,5.6,5.3,8C2.3,8.4,0,10.9,0,14c0,3.3,2.7,6,6,6h13c2.8,0,5-2.2,5-5
	C24,12.4,22,10.2,19.4,10z M19,18H6c-2.2,0-4-1.8-4-4s1.8-4,4-4h0.7C7.4,7.7,9.5,6,12,6c3,0,5.5,2.5,5.5,5.5V12H19c1.7,0,3,1.3,3,3
	S20.7,18,19,18z"/>
</svg>
