<svg xmlns="http://www.w3.org/2000/svg" xmlns:xlink="http://www.w3.org/1999/xlink" viewBox="0 0 106.54 97.33"><defs><style>.cls-1{fill:none;}.cls-2{fill:#bab9ba;}.cls-3{clip-path:url(#clip-path);}.cls-4{fill:#fff;}.cls-5{fill:#231f20;}</style><clipPath id="clip-path"><circle class="cls-1" cx="56.87" cy="48.67" r="48.67"/></clipPath></defs><title>Asset 20</title><g id="Layer_2" data-name="Layer 2"><g id="Layer_1-2" data-name="Layer 1"><g id="select_tool"><circle class="cls-2" cx="56.87" cy="48.67" r="48.67"/><g class="cls-3"><rect class="cls-4" x="33.88" y="25.84" width="64.74" height="24.49" rx="4.98" ry="4.98"/><path class="cls-5" d="M93.64,51.33H38.85a6,6,0,0,1-6-6V30.82a6,6,0,0,1,6-6H93.64a6,6,0,0,1,6,6V45.35A6,6,0,0,1,93.64,51.33ZM38.85,26.84a4,4,0,0,0-4,4V45.35a4,4,0,0,0,4,4H93.64a4,4,0,0,0,4-4V30.82a4,4,0,0,0-4-4Z"/><rect class="cls-4" x="26.43" y="31.2" width="7.45" height="14.54"/><path class="cls-5" d="M34.88,46.74H25.43V30.2h9.45Zm-7.45-2h5.45V32.2H27.43Z"/><rect class="cls-4" x="21.48" y="34.07" width="4.95" height="8.8"/><path class="cls-5" d="M27.43,43.87H20.48V33.07h7Zm-4.95-2h2.95v-6.8H22.48Z"/><rect class="cls-5" y="37.09" width="21.48" height="2"/><path class="cls-4" d="M96.17,50.33s5.9,16.72,4.68,27.92L81,78c5.55-13.67,1-27.63,1-27.63Z"/><path class="cls-5" d="M101.75,79.26l-22.27-.32L80,77.58c5.36-13.18,1.06-26.81,1-26.94l-.42-1.31H96.88l.23.67c.25.69,6,17.07,4.74,28.35ZM82.41,77l17.53.25c.69-9.54-3.46-22.8-4.49-25.9H83.32C84.27,55,86.41,65.87,82.41,77Z"/><rect class="cls-4" x="73.15" y="78.25" width="32.39" height="12.63" rx="2.53" ry="2.53"/><path class="cls-5" d="M103,91.87H75.67a3.53,3.53,0,0,1-3.52-3.53V80.77a3.53,3.53,0,0,1,3.52-3.52H103a3.53,3.53,0,0,1,3.53,3.52v7.57A3.53,3.53,0,0,1,103,91.87ZM75.67,79.25a1.52,1.52,0,0,0-1.52,1.52v7.57a1.53,1.53,0,0,0,1.52,1.53H103a1.54,1.54,0,0,0,1.53-1.53V80.77A1.53,1.53,0,0,0,103,79.25Z"/><path class="cls-5" d="M73.38,50.05S69,68,83.2,63.08L82,50Z"/></g></g><rect class="cls-5" x="54.46" y="38.53" width="38.33" height="1"/><rect class="cls-5" x="54.46" y="43.19" width="38.33" height="1"/></g></g></svg>