<svg xmlns="http://www.w3.org/2000/svg" viewBox="0 0 816.76 870.1"><defs><style>.cls-1{fill:#fff;}.cls-2{fill:#f8b617;}</style></defs><title>Asset 1</title><g id="Layer_2" data-name="Layer 2"><g id="Layer_1-2" data-name="Layer 1"><path class="cls-1" d="M420.71,268.9c-15.36-25.47-41.14-26.27-51.24-25.49,2.66,10.67,4.56,21.32,1,30.15l-.48,1.2c-5.76,14.38-12.93,32.27-5.12,53.66,8.76,24,9.66,67.72,6,85.51-2.6,12.61,4.15,24.88,19,34.53,10.72,7,51.39,23.68,88.41,23.68h0c9.82,0,18.06-1.11,24.51-3.31,31.42-10.69,65.67-64.81,76-92.1l4.38,1.18-1,5.79-.08.21c-1.23,3.25-30.69,79.7-75.89,95.08-7.51,2.56-16.94,3.86-28,3.86-15.92,0-32.54-2.88-47.49-6.86,5.13,10,17.73,26.9,46,32.83a94,94,0,0,0,51.07-3.71c14.15-5.09,26.9-13.41,35.25-22.83-1-47.64,22.45-96.62,29.69-110.6a16.4,16.4,0,0,1-7.08-4.79,11.63,11.63,0,0,1-2.41-10.17l2.5-9,1.92,9.1c.07.32,1.83,7.9,9.89,8.62,9.34.83,16.19-.45,23.4-9.44l.26-.49.3-.14c8.13-8.59,14.9-21.05,17.31-31.88,3.78-17-3.5-23.93-10.26-26.71-7.17-2.94-13.26-3.08-18.12-.41-12,6.59-14.68,28.24-14.71,28.46l-.21,1.86-.12.35.08-.05v.05h-.08l-.58-.06-8.84-.85.25-2.3c0-.29.18-1.53.52-3.39l-15.11-11.34,1.1-3.13c.11-.31,11-31.19,12.22-41,.52-4.14-10-9-17.51-10.76l-4.46-1.06,14-59.37c-22,1.89-44.33,3.6-66.73,3.6-27.06,0-54.23-2.49-81.19-10.18-17.68-5.05-31.88-12-42.47-20.87l-12.91,26.9c-6.62,13.69-8.65,20.36-9.18,23.54a28,28,0,0,0,.56,9.11C422.72,235.3,420.71,268.9,420.71,268.9Zm-45.32,8.78a3.07,3.07,0,0,1-.44-3.44c0-.08.05-.15.07-.22.15-.44.29-.88.42-1.33a32.81,32.81,0,0,1,1.6-4.36c3.95-8.22,9.38-10.63,18.16-8.06,5.83,1.7,11,4.64,16.87,9.54l3.62,3-4.72,0-3.37,0c-2.06,0-3.85,0-5.62,0-9.38.2-16.31,1.69-22.47,4.83l-.27.17a3.84,3.84,0,0,1-2,.7A2.53,2.53,0,0,1,375.39,277.68Zm88.86-62.62s53.68,8.42,86.93,36.61c0,0,7.66,7.38,5.85,14.78,0,0-52.49-37.53-95.14-17.53C461.89,248.92,454.61,235.32,464.25,215.06Zm47.1,71.75c-2.1,7.82-4.7,13.89-9.77,18.5-5.83,5.32-11.52,3.91-14.51-3.42-4.3-10.56,1.8-32.32,10.91-38.93,5.58-4,10.54-2.77,13.16,3.64C514.06,273.75,512.57,281,511.35,286.81Zm-53.59,83.31c22.38,0,40.7-4.53,54.45-13.46h0l7.72-5-.39,9.19A64.73,64.73,0,0,1,512.11,386c-6.37,11.86-19.51,26.74-46,30.21a177.65,177.65,0,0,1-22.91,1.64,101.17,101.17,0,0,1-15.44-1.08c-12.5-2-29.41-6-39-14.23l-.07-.07-.13-.11-1-.93.61-1.1,1.92-4,5.07,2.12a48,48,0,0,0,4.47,2l4.29-12-13.89-19.21a61.26,61.26,0,0,1-10.63-4.65l-.95-.52.06-1.07c.1-1.83.25-3.51.47-5.15l.21-1.52,1.81,0,.52.18c.37.14,37.41,13.66,76.2,13.66ZM428,270.25c.86-4.73,1.78-9.1,3.61-10.69l2.12-1.83.23,2.79c.68,8.19-1.77,22.29-3.72,28.9a103.26,103.26,0,0,1-6.33,14.91A113.91,113.91,0,0,0,418.35,317c-1.63,4.83-2.24,6.63,4.24,10.77l.18.14a34.49,34.49,0,0,0,5.3,3.58c1.59,1,3.24,1.93,4.94,3.15l.9.59c2.79,1.79,7,4.49,5.46,7.14-.65,1.12-2,1.5-3.78,1.5a32.51,32.51,0,0,1-5.73-.74c-.43-.09-.79-.16-1.06-.2a10.62,10.62,0,0,1-3.83-1.41l-1.73-1.06c-3.72-2.29-7.57-4.66-11.22-7.23-6.68-4.7-7.78-9-4.2-16.4.82-1.7,1.74-3.32,2.61-4.83a192.55,192.55,0,0,0,17.14-39.66C427.66,272,427.82,271.15,428,270.25Z"/><path class="cls-1" d="M446.19,390.08l1.64,0,.11,6.12-10.06.6h-.12c-3.1-.07-6.29-.28-9.51-.63a118,118,0,0,1-16-2.85l-3.57,10c12.3,3.49,31.59,6.67,56.22,3.43C475.21,405.42,484,402,491,396.68l.19-.13a6.36,6.36,0,0,0,1.21-1l.1-.09c1-.85,2-1.74,2.92-2.67l.32-.27a27.1,27.1,0,0,0,4.6-4.47,14.32,14.32,0,0,0,2.37-4.62l.09-.35a9.82,9.82,0,0,0,.25-1.45v0a9.85,9.85,0,0,0-.05-2.92l0-.19a8.53,8.53,0,0,0-3-5.64l-.29,0a4.48,4.48,0,0,0-1.5.58l-.64.32-1.4.62-.18.06c-13,4-35.33,7.71-67.77,3.07-7.72-1.1-15.65-2.61-23.64-4.5l7.62,10.53C419,385.53,434.83,389.83,446.19,390.08Z"/><path class="cls-1" d="M154.19,386.18a30.92,30.92,0,0,0,7.48,8.09c1.89,1.38,3.48,1.46,5.31.29a30,30,0,0,0,6.61-5.15c4-4.58,4.81-9.31,2.46-14.88-5.45-13-10.63-25.66-16.36-39.73a43.31,43.31,0,0,1-1.51-4.79c-.18-.69-.37-1.37-.57-2.06l-.67-2.21-1.16-3.43a13,13,0,0,0-5.42-1.76c-.51,0-1-.06-1.51-.06A17,17,0,0,0,135.3,327,16,16,0,0,0,133,342.3C139,359.61,146,374,154.19,386.18Z"/><path class="cls-1" d="M97.45,358.67c1.37,5.47,4.08,10.56,6.47,15,1,1.88,2,3.66,2.78,5.4a163.59,163.59,0,0,0,12.17,19.75c3.57,4.85,6.92,9.1,11.76,11.86a10.63,10.63,0,0,0,2.78,1.19l.65.11a3.68,3.68,0,0,0,1.84-.26l1.94-.8a138.55,138.55,0,0,0,14.78-6.77,7.79,7.79,0,0,0,3.26-2.86c.82-1.48.57-1.67-.18-2.23a28,28,0,0,1-5.39-5.58l-.86-.93s-1-1.4-1.32-1.95c-.23-.37-.44-.73-.66-1.1-8.92-13.07-14.9-27.31-21.18-43.13a11.68,11.68,0,0,0-8.33-7.5A16.55,16.55,0,0,0,101.83,343,16.18,16.18,0,0,0,97.45,358.67Z"/><path class="cls-1" d="M238.51,696.92c-.41-1.45-.8-2.91-1.17-4.36a1,1,0,0,0-.25-1c-1.69-6.85-4.83-17.69-7-25.19l-.18.63c-.09.21-.17.42-.27.63l-.11.27-6.73,8.5a8.91,8.91,0,0,1-3-1.76,9.24,9.24,0,0,1-1-1.15c7.47-17.65,10.6-38.73,9.27-62.71a227.6,227.6,0,0,0-11.85-59.93c-3.18-9.24-6.36-25.38-9.45-48l-3.51-26.23a70,70,0,0,1-12.94,6.58c-1.29.49-2.59,1-3.85,1.4s-2.41.86-3.58,1.31a20,20,0,0,0-7.61,5.32c-7.42,8.07-17.5,12.25-30.79,12.78-1,0-2,.06-3,.06a61.71,61.71,0,0,1-26.08-5.49l-.74.77c3.45,5,7,10.06,10.43,15.1,2.53,3.68,2,6.31-1.66,8.86l-1.06.73-.4,1.94c-9.81,47.87-13.17,136.76,17.66,185.85,1.86,1.47,9.18,6.46,23.46,7.54,20,1.53,44.08-5.15,71.51-19.84Z"/><path class="cls-1" d="M68,380.37c.18,2.9,1.89,5.76,5.08,8.51,12.36,10.67,24.78,21.26,36.93,31.48,3.11,2.63,6.1,3.76,8.86,3.38s5.39-2.3,7.71-5.71a4.51,4.51,0,0,1,.46-.58,5.12,5.12,0,0,0-.87-.56l-.18-.07-.16-.11-.56-.36-.88-.58c-.53-.36-1-.75-1.46-1.12s-.8-.65-1.17-.89l-.24-.19c-7.73-6.82-13.16-15.09-17.88-23-.37-.61-.72-1.23-1.09-1.85a.87.87,0,0,0-.1-.08l-.54-1c-2-3.47-4-7-5.93-10.4-1.46-2.59-2.92-5.19-4.4-7.77-2-3.39-4.65-5.13-7.77-5.13a11,11,0,0,0-5.12,1.4,24.27,24.27,0,0,0-6.58,5.37C69.21,374.29,67.83,377.41,68,380.37Z"/><path class="cls-1" d="M179.1,432.77c-4.35,5.25-9.14,10.13-13.8,15.12s-9.11,9.76-13.82,14.49c-3.27,3.29-6.55,6.59-10.14,9.55l-19.06,19.65A52.49,52.49,0,0,0,141,495c12.88.07,21.53-3.1,28-10.27a25.7,25.7,0,0,1,7.51-5.81,64.6,64.6,0,0,1,7.83-3.18c1-.35,1.94-.69,2.91-1.06,11.83-4.46,20.16-11.31,25.45-20.94.41-.73.81-1.45,1.21-2.15.12-.28.25-.57.38-.85l.14-.05a102.66,102.66,0,0,1,9.33-13.79,79,79,0,0,1,6-6.54,45.6,45.6,0,0,0,3.69-5.62,45.1,45.1,0,0,0,3.93-9c1.1-4.15.87-8.88.66-13.46l-2.67-56.14c-.2-4.21-.41-8.56-1.89-12.12a15.18,15.18,0,0,0-26.32-3c-2.18,3-3.31,6.94-4.12,10.38-5,21.33-3.34,42,4.93,59.81l-7.3,3.39C193.59,414.05,186.66,423.66,179.1,432.77Z"/><path class="cls-1" d="M87.56,433.68c4.18,2.6,9.1,5.43,14.62,6.16a8.67,8.67,0,0,0,7.14-2.09,8.16,8.16,0,0,0,2.58-6.51c-.05-1.05-.21-1.2-.65-1.37-1.1-2.05-3.58-3.25-5.58-4.41-1.59-.93-3.21-1.78-4.7-2.86l-.69-.5c-9.43-8-19-16-28.22-23.77l-3.85-3.24c-2-1.69-2.21-1.69-4.25,0-2.24,1.81-3.34,4.34-3.37,7.71A31.78,31.78,0,0,0,62,411.57a41.65,41.65,0,0,0,2.23,6L65,418a22.32,22.32,0,0,0,5.74,4.59c1.9,1.15,3.85,2.46,5.87,3.59A100.57,100.57,0,0,0,87.56,433.68Z"/><path class="cls-1" d="M208.15,151.38l-.67-.86c-.71-.9-1.44-1.84-2.16-2.83-3.91-5.44-8.12-11.16-13.16-17.85l-7.1,4.36L185,134l-44.71,27.1.16.15-5.69,3.42c.52,1.06,1,2.1,1.45,3.13s.91,2,1.37,3l1.23,2.47c2.54,5.08,5.15,10.31,7.6,15.61C166.07,176.82,186.34,164.54,208.15,151.38Z"/><path class="cls-1" d="M181.41,123.93c-5.64-9.18-11.63-19.08-18.23-30.1l-13.63,8.28h0l-6.92,4.21h0l-7,4.24h0l-6.83,4.13h0Q121.9,118.87,115,123c5.72,9.31,11.72,19.21,18.24,30.1Z"/><path class="cls-1" d="M333.63,327.5a44.85,44.85,0,0,1,3.07,6,1.89,1.89,0,0,1,.47.78c2.7,7.55,5.82,15,6,23.19a7.78,7.78,0,0,1-3.73,7.26c-17.78,12.06-36.23,23-54.69,34-4.4,2.61-6.94,2.72-11.81-.05-1.6-1.22-5-3-9.51-6.15-1.16-.81-2.31-1.63-3.44-2.48-5.17-3.77-10.08-7.56-10.62-8s-1.38-1.17-2.1-1.76l1,21.57c.24,5.11.52,10.89-1,16.57a54.62,54.62,0,0,1-4.76,11.14,65.85,65.85,0,0,1-5.82,8.69c-1.64,2.21-6.2,5.14-8.24,7.38a85,85,0,0,0-7.2,11.43,51.47,51.47,0,0,1-8.16,11.46l4.35,32.94q2.44,17.83,4.88,29.89l16.07-8.19s37.89-18.94,37.9-18.92h0C320.49,477.88,365.06,458.46,378,453c-14-11.5-20.24-26.68-17.16-42.52,3.2-16.52,2.47-55.28-6-78.4-9.22-25.25-1.21-45.25,5.23-61.33l.49-1.2c2.84-7.12-.08-18.31-2.92-29.13-.16-.61-.31-1.21-.47-1.81a307.42,307.42,0,0,0-57.07,33.45l30.05,49.59C331.3,323.61,332.31,325.66,333.63,327.5Z"/><path class="cls-1" d="M632.74,288.46c14,5.93,19.49,19.06,15.5,37-2.35,10.6-8.32,22.57-16,32-8.48,10.48-17.55,16.24-25.54,16.24-1,0-1.9,0-2.81-.07-3.19,5.92-27.77,52.93-29.91,99.5,8.28.82,26.52,3.79,50.91,14.49a274.38,274.38,0,0,1,57,34.35,365.75,365.75,0,0,1,42,38.31l-.12-.13,52.56,53.31a307.35,307.35,0,0,0,14.6-93.9c0-110.78-58.52-207.87-146.32-262.09-.33,1.34-.67,2.69-1,4C640.65,272.37,637.15,281.08,632.74,288.46Z"/><path class="cls-1" d="M303.69,683.52l-.75-1.89a.24.24,0,0,0,0-.08l-9.5,7.06L291.88,690c-.88.79-21.6,19.32-39.91,25.79l-1.39.47A337.75,337.75,0,0,0,302,765.4c-.55-.51-.88-.82-1-.91Z"/><path class="cls-2" d="M440.37,823.52c0,.33,0,.66,0,1l.51.07C440.7,824.23,440.54,823.88,440.37,823.52Z"/><path class="cls-2" d="M213.94,451.6c.17-.3.34-.61.52-.9l-.14.05C214.19,451,214.06,451.32,213.94,451.6Z"/><path d="M381,356.28l-1.81,0-.21,1.52c-.22,1.64-.37,3.32-.47,5.15l-.06,1.07.95.52a61.26,61.26,0,0,0,10.63,4.65L404,388.35l-4.29,12a48,48,0,0,1-4.47-2l-5.07-2.12-1.92,4-.61,1.1,1,.93.13.11.07.07c9.55,8.22,26.46,12.27,39,14.23a101.17,101.17,0,0,0,15.44,1.08,177.65,177.65,0,0,0,22.91-1.64c26.46-3.47,39.6-18.35,46-30.21a64.73,64.73,0,0,0,7.43-25.13l.39-9.19-7.72,5h0c-13.75,8.93-32.07,13.46-54.45,13.46h0c-38.79,0-75.83-13.52-76.2-13.66Zm47.15,21.2c32.44,4.64,54.76.89,67.77-3.07l.18-.06,1.4-.62.64-.32a4.48,4.48,0,0,1,1.5-.58l.29,0a8.53,8.53,0,0,1,3,5.64l0,.19a9.85,9.85,0,0,1,.05,2.92v0a9.82,9.82,0,0,1-.25,1.45l-.09.35a14.32,14.32,0,0,1-2.37,4.62,27.1,27.1,0,0,1-4.6,4.47l-.32.27c-.93.93-1.91,1.82-2.92,2.67l-.1.09a6.36,6.36,0,0,1-1.21,1l-.19.13c-7,5.34-15.75,8.74-26.06,10.09-24.63,3.24-43.92.06-56.22-3.43l3.57-10a118,118,0,0,0,16,2.85c3.22.35,6.41.56,9.51.63h.12l10.06-.6-.11-6.12-1.64,0c-11.36-.25-27.18-4.55-34-6.57L404.55,373C412.54,374.87,420.47,376.38,428.19,377.48Z"/><path d="M498,263c-9.11,6.61-15.21,28.37-10.91,38.93,3,7.33,8.68,8.74,14.51,3.42,5.07-4.61,7.67-10.68,9.77-18.5,1.22-5.84,2.71-13.06-.21-20.21C508.52,260.19,503.56,258.91,498,263Z"/><path d="M379.51,277.63c6.16-3.14,13.09-4.63,22.47-4.83,1.77,0,3.56,0,5.62,0l3.37,0,4.72,0-3.62-3c-5.84-4.9-11-7.84-16.87-9.54-8.78-2.57-14.21-.16-18.16,8.06a32.81,32.81,0,0,0-1.6,4.36c-.13.45-.27.89-.42,1.33,0,.07,0,.14-.07.22a3.07,3.07,0,0,0,.44,3.44,2.53,2.53,0,0,0,1.83.82,3.84,3.84,0,0,0,2-.7Z"/><path d="M557,266.45c1.81-7.4-5.85-14.78-5.85-14.78-33.25-28.19-86.93-36.61-86.93-36.61-9.64,20.26-2.36,33.86-2.36,33.86C504.54,228.92,557,266.45,557,266.45Z"/><path d="M407.82,316.8c-3.58,7.41-2.48,11.7,4.2,16.4,3.65,2.57,7.5,4.94,11.22,7.23l1.73,1.06a10.62,10.62,0,0,0,3.83,1.41c.27,0,.63.11,1.06.2a32.51,32.51,0,0,0,5.73.74c1.76,0,3.13-.38,3.78-1.5,1.54-2.65-2.67-5.35-5.46-7.14l-.9-.59c-1.7-1.22-3.35-2.2-4.94-3.15a34.49,34.49,0,0,1-5.3-3.58l-.18-.14c-6.48-4.14-5.87-5.94-4.24-10.77a113.91,113.91,0,0,1,5.54-12.64,103.26,103.26,0,0,0,6.33-14.91c1.95-6.61,4.4-20.71,3.72-28.9l-.23-2.79-2.12,1.83c-1.83,1.59-2.75,6-3.61,10.69-.16.9-.32,1.76-.41,2.06A192.55,192.55,0,0,1,410.43,312C409.56,313.48,408.64,315.1,407.82,316.8Z"/><path d="M816.63,771.9c-.75-23.83-4.58-50.2-11.37-78.38-5-20.66-11.74-43.77-28.89-59L787,624.29l-10.63-10.78L723.79,560.2l.12.13a365.75,365.75,0,0,0-42-38.31,274.38,274.38,0,0,0-57-34.35C600.51,477,582.27,474,574,473.18c2.14-46.57,26.72-93.58,29.91-99.5.91.05,1.84.07,2.81.07,8,0,17.06-5.76,25.54-16.24,7.67-9.46,13.64-21.43,16-32,4-18-1.52-31.09-15.5-37,4.41-7.38,7.91-16.09,10.85-26.9.37-1.35.71-2.7,1-4,5.14-21.28,4.92-41.34-.68-58.24A75.08,75.08,0,0,0,628,172.43a69.24,69.24,0,0,0-12.24-11.05A57.29,57.29,0,0,0,604.33,155V155c2.77-14.77,1.5-29.24-3.67-41.82A78.23,78.23,0,0,0,575,80.51a80.65,80.65,0,0,0-38.83-15.72c-20.46-2.4-40.4,3-59.67,8.19-17.14,4.62-36.57,9.87-55.3,7.26-22.26-3.1-35.29-17.38-38-29.34l-2.15-9.55-7.24,6.59c-13.86,12.64-14,32.45-13.06,50,.91,16.79,1.94,35.83,11.69,52.06a61.22,61.22,0,0,0,6,8.25l-14.3,30.36c-5.76,11.91-9.15,20.81-10.09,26.45-1.12,6.68.84,14.86,3.1,23.55.16.6.31,1.2.47,1.81,2.84,10.82,5.76,22,2.92,29.13l-.49,1.2c-6.44,16.08-14.45,36.08-5.23,61.33,8.45,23.12,9.18,61.88,6,78.4-3.08,15.84,3.14,31,17.16,42.52-12.9,5.44-57.47,24.86-101.65,51.17h0s-37.89,18.94-37.9,18.92l-16.07,8.19q-2.43-12-4.88-29.89l-4.35-32.94A51.47,51.47,0,0,0,221.27,457a85,85,0,0,1,7.2-11.43c2-2.24,6.6-5.17,8.24-7.38a65.85,65.85,0,0,0,5.82-8.69,54.62,54.62,0,0,0,4.76-11.14c1.5-5.68,1.22-11.46,1-16.57l-1-21.57c.72.59,1.42,1.18,2.1,1.76s5.45,4.27,10.62,8c1.13.85,2.28,1.67,3.44,2.48,4.51,3.19,7.91,4.93,9.51,6.15,4.87,2.77,7.41,2.66,11.81.05,18.46-10.95,36.91-21.91,54.69-34a7.78,7.78,0,0,0,3.73-7.26c-.15-8.2-3.27-15.64-6-23.19a1.89,1.89,0,0,0-.47-.78,44.85,44.85,0,0,0-3.07-6c-1.32-1.84-2.33-3.89-3.5-5.83l-30.05-49.59-16-26.45.19-.12c-8.23-13.58-16.35-27.23-24.72-40.73-9.32-15-17.7-30.71-28.78-44.62-2.75-3.46-4.85-8.51-10.18-8.78a9,9,0,0,0-1.3-3.08c-1-1.62-2.18-3.06-3.27-4.45-.67-.86-1.3-1.67-1.89-2.48-4.38-6.08-9.13-12.52-15-20.25-1.13-1.49-4-4.45-8.49-2.81-6-9.84-12.49-20.51-19.67-32.51a7.34,7.34,0,0,0-11-2.7q-6.75,4.13-13.52,8.23L93.89,0,68.06,14.87,121,106.79q-6.9,4.17-13.82,8.34a7.46,7.46,0,0,0-2.78,11.25c6.17,10,12.65,20.72,19.77,32.59a6.62,6.62,0,0,0-1.35,2.69,7.06,7.06,0,0,0,1,5.49,41.53,41.53,0,0,1,2.53,5c.49,1.09,1,2.21,1.55,3.34l1.24,2.48c3,6,6.14,12.29,8.9,18.52a8.07,8.07,0,0,0,3.6,4.11,16.24,16.24,0,0,0,1.15,13.58c3.19,6.08,6,12.32,9.08,18.48,4.29,8.7,8.87,17.26,13.3,25.89,6.16,12,12.91,23.73,17.47,36.51,1.55,4.33,1.78,8.47-.54,12.63a115.22,115.22,0,0,1-10.87,15.83,57.43,57.43,0,0,0-5-4.85c-3.68-3.13-8.76-6.78-15.4-7.17-13.81-.81-23.77,6.67-26.74,20A25.66,25.66,0,0,0,88,355.8a18,18,0,0,0-13.23,1.8,32.84,32.84,0,0,0-10.58,8.93C59,373,57.67,379.79,60.31,386.69c-5.76,3.4-8.7,8.91-8.75,16.39a30,30,0,0,0,.47,5.48L45.41,399a5.4,5.4,0,0,0-8-1.4c-11.54,8-23,16-34.66,23.87a6.08,6.08,0,0,0-1.63,8.68c13.4,19.14,26.61,38.4,39.89,57.62l40.05,58c2.08,3,4.8,3.54,7.79,1.48l21-14.48c-9.23,52.54-11,135.07,21.24,185.54l.33.53.45.43c1.18,1.15,12.28,11.25,36.62,11.25,19.32,0,48.32-7.61,73.71-20.26l.68,2.16.25,2.26c.47,1.23,1,2.44,1.49,3.65l6-2,1.39-.47c18.31-6.47,39-25,39.91-25.79l1.58-1.42,9.5-7.06a95,95,0,0,0,.33-45.9l2-.5c3.73,15.41,2.33,33-1.63,48.37l-2.66,81c.11.09.44.4,1,.91,6.58,6,45.22,39.79,127.06,58.65.06,5.91,2.34,11.11,4.56,15.28,3.79,7.1,9.23,10.91,16.17,11.31a2.92,2.92,0,0,1,.72.11,4.78,4.78,0,0,1,.32,1,17.71,17.71,0,0,0,10.21,12.47,40.77,40.77,0,0,0,14.32,3.39c1.56.11,3.12.15,4.67.15a151.57,151.57,0,0,0,16.4-1.17c2.53-.28,5.15-.56,7.71-.78,30.83-2.54,46.5-8.61,56.71-13.61,7-3.43,12.23-7.14,16.47-11.69,1.31-1.4,2.58-2.88,3.8-4.42,45.67,25.3,77.63,34,110,34,25.63,0,51.54-5.45,84.72-12.41,8-1.68,16.28-3.32,25.13-5.21,2.27-.48,3.75-.9,4.71-3.35l1.69-6.46C814.37,822.59,817.48,798.82,816.63,771.9ZM115,123q6.9-4.16,13.78-8.33h0l6.83-4.13h0l7-4.24h0l6.92-4.21h0l13.63-8.28c6.6,11,12.59,20.92,18.23,30.1l-48.17,29.2C126.72,142.24,120.72,132.34,115,123Zm31.41,65.76c-2.45-5.3-5.06-10.53-7.6-15.61l-1.23-2.47c-.46-.94-.9-1.91-1.37-3s-.93-2.07-1.45-3.13l5.69-3.42-.16-.15L185,134l.06.24,7.1-4.36c5,6.69,9.25,12.41,13.16,17.85.72,1,1.45,1.93,2.16,2.83l.67.86C186.34,164.54,166.07,176.82,146.41,188.79Zm54.26,215.76,7.3-3.39c-8.27-17.79-10-38.48-4.93-59.81.81-3.44,1.94-7.36,4.12-10.38a15.18,15.18,0,0,1,26.32,3c1.48,3.56,1.69,7.91,1.89,12.12L238,402.28c.21,4.58.44,9.31-.66,13.46a45.1,45.1,0,0,1-3.93,9,45.6,45.6,0,0,1-3.69,5.62,79,79,0,0,0-6,6.54,102.66,102.66,0,0,0-9.33,13.79c-.18.29-.35.6-.52.9-.4.7-.8,1.42-1.21,2.15-5.29,9.63-13.62,16.48-25.45,20.94-1,.37-1.94.71-2.91,1.06a64.6,64.6,0,0,0-7.83,3.18,25.7,25.7,0,0,0-7.51,5.81c-6.51,7.17-15.16,10.34-28,10.27a52.49,52.49,0,0,1-18.71-3.43l19.06-19.65c3.59-3,6.87-6.26,10.14-9.55,4.71-4.73,9.27-9.61,13.82-14.49s9.45-9.87,13.8-15.12C186.66,423.66,193.59,414.05,200.67,404.55ZM135.31,327a17,17,0,0,1,13.54-6.48c.5,0,1,0,1.51.06a13,13,0,0,1,5.42,1.76l1.16,3.43.67,2.21c.2.69.39,1.37.57,2.06a43.31,43.31,0,0,0,1.51,4.79c5.73,14.07,10.91,26.77,16.36,39.73,2.35,5.57,1.57,10.3-2.46,14.88a30,30,0,0,1-6.61,5.15c-1.83,1.17-3.42,1.09-5.31-.29a30.92,30.92,0,0,1-7.48-8.09C146,374,139,359.61,133,342.3A16,16,0,0,1,135.31,327Zm-33.48,16A16.55,16.55,0,0,1,118,338.91a11.68,11.68,0,0,1,8.33,7.5c6.28,15.82,12.26,30.06,21.18,43.13.22.37.43.73.66,1.1.35.55,1.29,1.9,1.32,1.95l.86.93a28,28,0,0,0,5.39,5.58c.75.56,1,.75.18,2.23a7.79,7.79,0,0,1-3.26,2.86A137.66,137.66,0,0,1,137.84,411l-1.94.8a3.68,3.68,0,0,1-1.84.26l-.65-.11a10.63,10.63,0,0,1-2.78-1.19c-4.84-2.76-8.19-7-11.76-11.86a163.59,163.59,0,0,1-12.17-19.75c-.83-1.74-1.77-3.52-2.78-5.4-2.39-4.48-5.1-9.57-6.47-15A16.18,16.18,0,0,1,101.83,343ZM72.12,371.07a24.27,24.27,0,0,1,6.58-5.37,11,11,0,0,1,5.12-1.4c3.12,0,5.82,1.74,7.77,5.13,1.48,2.58,2.94,5.18,4.4,7.77,1.93,3.42,3.91,6.93,5.93,10.4l.54,1a.87.87,0,0,1,.1.08c.37.62.72,1.24,1.09,1.85,4.72,7.93,10.15,16.2,17.88,23l.24.19c.37.24.76.56,1.17.89s.93.76,1.46,1.12l.88.58.56.36.16.11.18.07a5.12,5.12,0,0,1,.87.56,4.51,4.51,0,0,0-.46.58c-2.32,3.41-4.92,5.33-7.71,5.71s-5.75-.75-8.86-3.38c-12.15-10.22-24.57-20.81-36.93-31.48-3.19-2.75-4.9-5.61-5.08-8.51S69.21,374.29,72.12,371.07Zm37.2,66.68a8.67,8.67,0,0,1-7.14,2.09c-5.52-.73-10.44-3.56-14.62-6.16a100.57,100.57,0,0,1-10.92-7.46c-2-1.13-4-2.44-5.87-3.59A22.32,22.32,0,0,1,65,418l-.76-.49a41.65,41.65,0,0,1-2.23-6,31.78,31.78,0,0,1-1.45-8.81c0-3.37,1.13-5.9,3.37-7.71,2-1.65,2.24-1.65,4.25,0l3.85,3.24c9.26,7.79,18.79,15.81,28.22,23.77l.69.5c1.5,1.08,3.11,1.93,4.7,2.86,2,1.16,4.48,2.36,5.58,4.41.44.17.6.32.65,1.37A8.16,8.16,0,0,1,109.32,437.75ZM234.69,699.53c-27.43,14.69-51.49,21.37-71.51,19.84-14.28-1.08-21.6-6.07-23.46-7.54-30.83-49.09-27.47-138-17.66-185.85l.4-1.94,1.06-.73c3.69-2.55,4.19-5.18,1.66-8.86-3.47-5-7-10.05-10.43-15.1l.74-.77a61.71,61.71,0,0,0,26.08,5.49c1,0,2,0,3-.06,13.29-.53,23.37-4.71,30.79-12.78a20,20,0,0,1,7.61-5.32c1.17-.45,2.4-.89,3.58-1.31s2.56-.91,3.85-1.4a70,70,0,0,0,12.94-6.58l3.51,26.23c3.09,22.6,6.27,38.74,9.45,48a227.6,227.6,0,0,1,11.85,59.93c1.33,24-1.8,45.06-9.27,62.71a9.24,9.24,0,0,0,1,1.15,8.91,8.91,0,0,0,3,1.76l6.73-8.5.11-.27c.1-.21.18-.42.27-.63l.18-.63c2.14,7.5,5.28,18.34,7,25.19a1,1,0,0,1,.25,1c.37,1.45.76,2.91,1.17,4.36ZM377.39,89.25l8.28-6.35A96.39,96.39,0,0,0,393.23,92c7,7.12,16.33,11.83,27.69,14,10,1.89,21.44,1.75,33.19-.41,10.46-1.92,21-5.1,31.19-8.17,11.84-3.58,24.07-7.27,36.64-9.17,6.64-1,15.38-1.86,24,.54,9.22,2.57,16.75,8.79,20.12,16.64l-9.59,4.12c-2.14-5-7.12-9-13.33-10.71-6.69-1.87-14-1.13-19.61-.28-11.82,1.8-23.7,5.38-35.18,8.85-10.47,3.16-21.29,6.42-32.32,8.45a113,113,0,0,1-20.27,1.89,90.29,90.29,0,0,1-16.75-1.5c-13.49-2.56-24.66-8.25-33.19-16.92A105.34,105.34,0,0,1,377.39,89.25Zm-6.5,324.68c3.67-17.79,2.77-61.53-6-85.51-7.81-21.39-.64-39.28,5.12-53.66l.48-1.2c3.53-8.83,1.63-19.48-1-30.15,10.1-.78,35.88,0,51.24,25.49,0,0,2-33.6-55.52-42.95a28,28,0,0,1-.56-9.11c.53-3.18,2.56-9.85,9.18-23.54l12.91-26.9c10.59,8.83,24.79,15.82,42.47,20.87,27,7.69,54.13,10.18,81.19,10.18,22.4,0,44.71-1.71,66.73-3.6l-14,59.37,4.46,1.06c7.48,1.77,18,6.62,17.51,10.76-1.22,9.78-12.11,40.66-12.22,41l-1.1,3.13,15.11,11.34c-.34,1.86-.49,3.1-.52,3.39l-.25,2.3,8.84.85.58.06h.08l.59-4.37c1-5.68,4.62-20.95,14.37-26.3,4.86-2.67,11-2.53,18.12.41,6.76,2.78,14,9.67,10.26,26.71-2.41,10.83-9.18,23.29-17.31,31.88l-.3.14L621,356c-7.21,9-14.06,10.27-23.4,9.44-8.06-.72-9.82-8.3-9.89-8.62l-1.92-9.1-2.5,9a11.63,11.63,0,0,0,2.41,10.17,16.4,16.4,0,0,0,7.08,4.79c-7.24,14-30.65,63-29.69,110.6-8.35,9.42-21.1,17.74-35.25,22.83a94,94,0,0,1-51.07,3.71c-28.31-5.93-40.91-22.81-46-32.83,14.95,4,31.57,6.86,47.49,6.86,11.07,0,20.5-1.3,28-3.86,45.2-15.38,74.66-91.83,75.89-95.08l.08-.21,1-5.79-4.38-1.18c-10.35,27.29-44.6,81.41-76,92.1-6.45,2.2-14.69,3.31-24.51,3.31h0c-37,0-77.69-16.72-88.41-23.68C375,438.81,368.29,426.54,370.89,413.93ZM795.58,842c-7.71,1.57-15,3.1-22,4.58-74.33,15.61-108.54,22.78-186-19.89,1.26-2.14,2.48-4.39,3.66-6.77,4.69-9.47,6.28-20.23,6.18-25.26-2.38-.75-2.4-1.1-4.65-1.7a15.77,15.77,0,0,0-6.81-.65l.09.91c.57,6.14-.73,12.64-3.88,19.31-3.44,7.26-7.88,15.55-14.75,21.89-4.34,4-9.71,7.23-16.89,10.13-18.26,7.37-37.44,9.53-55.44,10.76-2.05.14-4.09.36-6.07.56-5.34.56-10.38,1.08-15.37.29-6-1-9.83-1.86-11.7-6.32a8.9,8.9,0,0,0-1.67-2.5l31.55-5.56-1.58-9-38.2,6.72v0a8.7,8.7,0,0,1-7.91-4.58c-1.92-3.43-3.63-6.83-3.78-10.47,0-.32,0-.65,0-1a11.88,11.88,0,0,1,.18-1.65,6.87,6.87,0,0,1,5.74-6c3-.64,7.62-1.73,12.23-2.91l33.79-6-1.58-9-35.45,6.25-2.41.21a52.35,52.35,0,0,1-13.37-.63c-8-1.48-11.26-4.94-11.71-12.34-.46-7.71,1.28-12,6-15,2-1.23,4.31-1.34,7-1.47.91,0,1.84-.08,2.8-.17,1.86-.18,3.72-.33,5.59-.48,3.41-.28,6.95-.57,10.46-1l8.95-1.08,14.16-1.32,0-.4.18,0-.18,0L481.9,762l-36.13,3.36c-1.48-.05-3-.09-4.64-.11-6.08-.07-10.8-2.36-14.86-7.2s-2.09-13.82,1.19-17.27c6-6.27,14-8.16,21.87-9.27,6.88-1,13.74-.69,21-.39l1.95.08a107.16,107.16,0,0,0,15.89-.93c1.73-.19,3.52-.38,5.26-.54l2.25-.2a195.48,195.48,0,0,0,23.15-3c4-.85,10.72-2.27,12.37-9.88a12,12,0,0,0-.29-6.58,42.37,42.37,0,0,0-5.74-4.28l-1.14,3c-.16.41-.3.81-.45,1.21-.29.82-.55,1.53-.82,2.14-1.79-1.34-2.57-2.25-4.71-7.47-2.3-5.61-3.62-11.78-5.2-17.7a123.87,123.87,0,0,1-3.12-14.31,44.31,44.31,0,0,1-1.28-11.55,65.78,65.78,0,0,1,2.66-16.18c2.78-9.59,11.21-21.12,22.67-21.79a1.44,1.44,0,0,1,.59.09,8,8,0,0,1,.85,0,9.51,9.51,0,0,1,6.46,3.46,8.89,8.89,0,0,1,2,2.7c1.91,2.84,2.68,6.7,3,10.53,1.63,7.89,1.56,16.38,1.82,24.33.3,9.66.4,19.36,1.45,29,.31,2.85.7,5.7,1.15,8.53a85.93,85.93,0,0,0,10.47,23.5A104.29,104.29,0,0,0,568,734c2,2.53,3.88,4.91,5.55,7.47a59.75,59.75,0,0,1,6.45,13c2.06,4.24,3.52,5.34,6.06,4.29l0,0c26.31-13.06,51.74-18.37,77.75-16.23,24.52,2,49.71,10.71,77,26.56l5.72-9.84c-24.42-14.18-47.77-23.06-70.61-26.67a3.2,3.2,0,0,0-.37.19l-.37-.3-.07,0,0,0c-38.25-31-19.57-93.1-18.72-95.82l.07-.17,2.91-5.73,3.83.76a164.94,164.94,0,0,0-3.36,40.09c.7,15.93,9.87,37.9,23.8,52.62l84.49-81.81c15.18,13,21.39,34.47,26,53.69C804.24,737.87,812.54,796.77,795.58,842Z"/><path class="cls-1" d="M303.69,683.52h0c4-15.34,5.36-33,1.63-48.37l-2,.5a95,95,0,0,1-.33,45.9.24.24,0,0,1,0,.08Z"/><path class="cls-1" d="M419,116.23a90.29,90.29,0,0,0,16.75,1.5A113,113,0,0,0,456,115.84c11-2,21.85-5.29,32.32-8.45,11.48-3.47,23.36-7,35.18-8.85,5.62-.85,12.92-1.59,19.61.28,6.21,1.73,11.19,5.73,13.33,10.71l9.59-4.12c-3.37-7.85-10.9-14.07-20.12-16.64-8.59-2.4-17.33-1.55-24-.54-12.57,1.9-24.8,5.59-36.64,9.17-10.19,3.07-20.73,6.25-31.19,8.17-11.75,2.16-23.22,2.3-33.19.41-11.36-2.16-20.68-6.87-27.69-14a96.39,96.39,0,0,1-7.56-9.09l-8.28,6.35a105.34,105.34,0,0,0,8.4,10.06C394.32,108,405.49,113.67,419,116.23Z"/><path class="cls-1" d="M675.15,732.56l0,0,.07,0,.37.3a3.2,3.2,0,0,1,.37-.19c22.84,3.61,46.19,12.49,70.61,26.67l-5.72,9.84c-27.29-15.85-52.48-24.54-77-26.56-26-2.14-51.44,3.17-77.75,16.23l0,0c-2.54,1-4-.05-6.06-4.29a59.75,59.75,0,0,0-6.45-13C571.87,739,570,736.57,568,734a104.29,104.29,0,0,1-6.41-8.75,85.93,85.93,0,0,1-10.47-23.5c-.45-2.83-.84-5.68-1.15-8.53-1.05-9.62-1.15-19.32-1.45-29-.26-7.95-.19-16.44-1.82-24.33-.3-3.83-1.07-7.69-3-10.53a8.89,8.89,0,0,0-2-2.7,9.51,9.51,0,0,0-6.46-3.46,8,8,0,0,0-.85,0,1.44,1.44,0,0,0-.59-.09c-11.46.67-19.89,12.2-22.67,21.79a65.78,65.78,0,0,0-2.66,16.18,44.31,44.31,0,0,0,1.28,11.55A123.87,123.87,0,0,0,512.85,687c1.58,5.92,2.9,12.09,5.2,17.7,2.14,5.22,2.92,6.13,4.71,7.47.27-.61.53-1.32.82-2.14.15-.4.29-.8.45-1.21l1.14-3a42.37,42.37,0,0,1,5.74,4.28,12,12,0,0,1,.29,6.58c-1.65,7.61-8.36,9-12.37,9.88a195.48,195.48,0,0,1-23.15,3l-2.25.2c-1.74.16-3.53.35-5.26.54a107.16,107.16,0,0,1-15.89.93l-1.95-.08c-7.26-.3-14.12-.59-21,.39-7.84,1.11-15.91,3-21.87,9.27-3.28,3.45-5.26,12.42-1.19,17.27s8.78,7.13,14.86,7.2c1.61,0,3.16.06,4.64.11L481.9,762l.81,8.62.18,0-.18,0,0,.4-14.16,1.32-8.95,1.08c-3.51.43-7.05.72-10.46,1-1.87.15-3.73.3-5.59.48-1,.09-1.89.13-2.8.17-2.68.13-5,.24-7,1.47-4.73,2.92-6.47,7.25-6,15,.45,7.4,3.73,10.86,11.71,12.34a52.35,52.35,0,0,0,13.37.63l2.41-.21,35.45-6.25,1.58,9-33.79,6c-4.61,1.18-9.23,2.27-12.23,2.91a6.87,6.87,0,0,0-5.74,6,11.88,11.88,0,0,0-.18,1.65c.17.36.33.71.51,1.05l-.51-.07c.15,3.64,1.86,7,3.78,10.47a8.7,8.7,0,0,0,7.91,4.58v0l38.2-6.72,1.58,9-31.55,5.56a8.9,8.9,0,0,1,1.67,2.5c1.87,4.46,5.67,5.36,11.7,6.32,5,.79,10,.27,15.37-.29,2-.2,4-.42,6.07-.56,18-1.23,37.18-3.39,55.44-10.76,7.18-2.9,12.55-6.12,16.89-10.13,6.87-6.34,11.31-14.63,14.75-21.89,3.15-6.67,4.45-13.17,3.88-19.31l-.09-.91a15.77,15.77,0,0,1,6.81.65c2.25.6,2.27,1,4.65,1.7.1,5-1.49,15.79-6.18,25.26-1.18,2.38-2.4,4.63-3.66,6.77,77.42,42.67,111.63,35.5,186,19.89,7.05-1.49,14.32-3,22-4.58,17-45.2,8.66-104.1-1.39-145.78-4.63-19.22-10.84-40.7-26-53.69l-84.49,81.81c-13.93-14.72-23.1-36.69-23.8-52.62a164.94,164.94,0,0,1,3.36-40.09l-3.83-.76-2.91,5.73-.07.17C655.58,639.46,636.9,701.55,675.15,732.56Z"/></g></g></svg>