<svg id="Layer_1" data-name="Layer 1" xmlns="http://www.w3.org/2000/svg" viewBox="0 0 841.89 1078.84"><defs><style>.cls-1{fill:#fff;}.cls-2{fill:#fbb714;}.cls-3{fill:#f8b617;}</style></defs><title>tp_logo_no_text</title><path class="cls-1" d="M433.38,366.64c-15.36-25.47-41.14-26.27-51.24-25.49,2.66,10.67,4.56,21.32,1,30.15l-.48,1.2c-5.76,14.38-12.93,32.27-5.12,53.66,8.76,24,9.66,67.72,6,85.51-2.6,12.62,4.15,24.88,19,34.53,10.72,7,51.39,23.68,88.41,23.68h0c9.82,0,18.06-1.11,24.51-3.3,31.42-10.7,65.67-64.82,76-92.11l4.38,1.19-1,5.78-.08.21c-1.23,3.25-30.69,79.7-75.89,95.08-7.51,2.56-16.94,3.86-28,3.86-15.92,0-32.54-2.88-47.49-6.86,5.13,10,17.73,26.91,46,32.83a93.91,93.91,0,0,0,51.07-3.71c14.15-5.09,26.9-13.41,35.25-22.83-1-47.64,22.45-96.62,29.69-110.6a16.39,16.39,0,0,1-7.08-4.78A11.65,11.65,0,0,1,596,454.46l2.5-9,1.92,9.11c.07.31,1.83,7.9,9.89,8.61,9.34.84,16.19-.45,23.4-9.44l.26-.48.3-.15c8.13-8.58,14.9-21,17.31-31.88,3.78-17-3.5-23.92-10.26-26.7-7.17-2.94-13.26-3.08-18.12-.42-12,6.6-14.68,28.24-14.71,28.46l-.21,1.87-.12.34.08-.05v.06h-.08l-.58-.06-8.84-.85.25-2.29c0-.29.18-1.53.52-3.4l-15.11-11.34,1.1-3.12c.11-.31,11-31.2,12.22-41,.52-4.14-10-9-17.51-10.77l-4.46-1,14-59.38c-22,1.89-44.33,3.61-66.73,3.61-27.06,0-54.23-2.5-81.19-10.19C424.18,280,410,273,399.39,264.15L386.48,291c-6.62,13.7-8.65,20.36-9.18,23.54a28,28,0,0,0,.56,9.11C435.39,333,433.38,366.64,433.38,366.64Zm-45.32,8.79a3.09,3.09,0,0,1-.44-3.45l.07-.22q.22-.66.42-1.32a32.43,32.43,0,0,1,1.6-4.37c4-8.22,9.38-10.63,18.16-8.06,5.83,1.71,11,4.65,16.87,9.54l3.62,3h-4.72l-3.37,0c-2.06,0-3.85,0-5.62,0-9.38.19-16.31,1.68-22.47,4.82l-.27.17a3.75,3.75,0,0,1-2,.7A2.56,2.56,0,0,1,388.06,375.43Zm88.86-62.62s53.68,8.41,86.93,36.6c0,0,7.66,7.39,5.85,14.78,0,0-52.49-37.53-95.14-17.53C474.56,346.66,467.28,333.07,476.92,312.81ZM524,384.55c-2.1,7.83-4.7,13.89-9.77,18.51-5.83,5.31-11.52,3.9-14.51-3.43-4.3-10.55,1.8-32.31,10.91-38.93,5.58-4,10.54-2.77,13.16,3.65C526.73,371.49,525.24,378.71,524,384.55Zm-53.59,83.31c22.38,0,40.7-4.53,54.45-13.46h0l7.72-5-.39,9.2a64.71,64.71,0,0,1-7.43,25.12c-6.37,11.87-19.51,26.74-46,30.22a179.46,179.46,0,0,1-22.91,1.64,101.11,101.11,0,0,1-15.44-1.09c-12.5-2-29.41-6-39-14.23l-.07-.07a.81.81,0,0,1-.13-.11l-1-.93.61-1.1,1.92-4,5.07,2.12a48,48,0,0,0,4.47,2l4.29-12-13.89-19.21a59.77,59.77,0,0,1-10.63-4.65l-.95-.51.06-1.08c.1-1.83.25-3.51.47-5.15l.21-1.51,1.81,0,.52.18c.37.14,37.41,13.66,76.2,13.66ZM440.65,368c.86-4.72,1.78-9.09,3.61-10.68l2.12-1.83.23,2.79c.68,8.19-1.77,22.28-3.72,28.89-1.41,4.78-3.91,9.93-6.33,14.91A114,114,0,0,0,431,414.72c-1.63,4.82-2.24,6.63,4.24,10.77l.18.13a35.25,35.25,0,0,0,5.3,3.59c1.59.94,3.24,1.92,4.94,3.15.2.14.52.34.9.58,2.79,1.79,7,4.49,5.46,7.15-.65,1.11-2,1.5-3.78,1.5a32.6,32.6,0,0,1-5.73-.75l-1.06-.2a10.43,10.43,0,0,1-3.83-1.4l-1.73-1.07c-3.72-2.29-7.57-4.66-11.22-7.22-6.68-4.71-7.78-9-4.2-16.4.82-1.71,1.74-3.33,2.62-4.84a192.83,192.83,0,0,0,17.13-39.66C440.33,369.75,440.49,368.9,440.65,368Z"/><path class="cls-1" d="M458.86,487.83l1.64,0,.11,6.13-10.06.59h-.12c-3.1-.07-6.29-.28-9.51-.63a119.35,119.35,0,0,1-16-2.86l-3.57,10c12.3,3.48,31.59,6.66,56.22,3.42,10.31-1.35,19.08-4.74,26.06-10.09l.19-.12a6.41,6.41,0,0,0,1.21-1l.1-.09c1-.84,2-1.74,2.92-2.67l.32-.27a26.37,26.37,0,0,0,4.6-4.47,14.22,14.22,0,0,0,2.37-4.62l.09-.35a9.6,9.6,0,0,0,.25-1.45v0a9.91,9.91,0,0,0,0-2.93l0-.19a8.53,8.53,0,0,0-3-5.64l-.29,0a5,5,0,0,0-1.5.58l-.64.32c-.46.22-.93.42-1.4.62l-.18.07c-13,3.95-35.33,7.7-67.77,3.06-7.72-1.1-15.65-2.61-23.64-4.5l7.62,10.53C431.68,483.27,447.5,487.57,458.86,487.83Z"/><path class="cls-1" d="M166.86,483.93a30.92,30.92,0,0,0,7.48,8.09c1.89,1.37,3.48,1.46,5.31.28a30.31,30.31,0,0,0,6.61-5.14c4-4.58,4.81-9.31,2.46-14.89-5.45-12.95-10.63-25.66-16.36-39.73a43.16,43.16,0,0,1-1.51-4.78c-.18-.69-.37-1.38-.57-2.06l-.67-2.22-1.16-3.43a13,13,0,0,0-5.42-1.76c-.51,0-1-.06-1.51-.06A17,17,0,0,0,148,424.71,16,16,0,0,0,145.65,440C151.7,457.35,158.64,471.7,166.86,483.93Z"/><path class="cls-1" d="M110.12,456.41c1.37,5.47,4.08,10.56,6.47,15,1,1.88,2,3.65,2.78,5.39a163.59,163.59,0,0,0,12.17,19.75c3.57,4.86,6.92,9.1,11.76,11.87a10.9,10.9,0,0,0,2.78,1.18l.65.11a3.67,3.67,0,0,0,1.84-.25l1.94-.8a137.73,137.73,0,0,0,14.78-6.78,7.72,7.72,0,0,0,3.26-2.86c.82-1.48.57-1.66-.18-2.23a28,28,0,0,1-5.39-5.57l-.86-.94c0-.05-1-1.39-1.32-1.94-.23-.37-.44-.74-.66-1.1-8.92-13.08-14.9-27.31-21.18-43.13a11.69,11.69,0,0,0-8.33-7.51,16.57,16.57,0,0,0-16.13,4.11A16.19,16.19,0,0,0,110.12,456.41Z"/><path class="cls-1" d="M251.18,794.67c-.41-1.46-.8-2.92-1.17-4.36a1,1,0,0,0-.25-1c-1.69-6.85-4.83-17.68-7-25.19l-.18.64c-.09.21-.17.42-.27.63l-.11.26-6.73,8.5a8.91,8.91,0,0,1-3-1.76,9.92,9.92,0,0,1-1-1.14c7.47-17.66,10.6-38.74,9.27-62.71A227.67,227.67,0,0,0,229,648.57c-3.18-9.24-6.36-25.38-9.45-48L216,574.36a70,70,0,0,1-12.94,6.58c-1.29.5-2.59,1-3.85,1.41s-2.41.85-3.58,1.31A20,20,0,0,0,188,589c-7.42,8.08-17.5,12.26-30.79,12.78-1,0-2,.06-3,.06a61.7,61.7,0,0,1-26.08-5.48l-.74.76c3.45,5,7,10.07,10.43,15.11,2.53,3.67,2,6.31-1.66,8.85l-1.06.73-.4,1.94c-9.81,47.87-13.17,136.76,17.66,185.86,1.86,1.46,9.18,6.45,23.46,7.54,20,1.52,44.08-5.16,71.51-19.85Z"/><path class="cls-1" d="M80.68,478.11c.18,2.9,1.89,5.77,5.08,8.52,12.36,10.66,24.78,21.25,36.93,31.48,3.11,2.62,6.1,3.76,8.86,3.38s5.39-2.31,7.71-5.72a5.33,5.33,0,0,1,.46-.58,5.66,5.66,0,0,0-.87-.55l-.18-.08-.16-.11-.56-.36-.88-.58c-.53-.36-1-.74-1.46-1.11s-.8-.65-1.17-.9l-.24-.19c-7.73-6.81-13.16-15.09-17.88-23-.37-.61-.72-1.23-1.09-1.84l-.1-.09-.54-1c-2-3.47-4-7-5.93-10.39q-2.19-3.9-4.4-7.78c-2-3.39-4.65-5.13-7.77-5.13a10.89,10.89,0,0,0-5.12,1.41,24,24,0,0,0-6.58,5.36C81.88,472,80.5,475.16,80.68,478.11Z"/><path class="cls-1" d="M191.77,530.52c-4.35,5.24-9.14,10.13-13.8,15.11s-9.11,9.76-13.82,14.49c-3.27,3.29-6.55,6.59-10.14,9.56L135,589.33a52.49,52.49,0,0,0,18.71,3.42c12.88.08,21.53-3.09,28-10.27a26,26,0,0,1,7.51-5.81,64.6,64.6,0,0,1,7.83-3.18l2.91-1c11.83-4.47,20.16-11.32,25.45-20.94l1.21-2.16c.12-.28.25-.56.38-.84l.14-.06a102.66,102.66,0,0,1,9.33-13.79,77.31,77.31,0,0,1,6-6.53,46.37,46.37,0,0,0,3.69-5.62,44.92,44.92,0,0,0,3.93-9c1.1-4.14.87-8.88.66-13.46L248,443.88c-.2-4.2-.41-8.55-1.89-12.11a15.19,15.19,0,0,0-26.32-3.06c-2.18,3-3.31,6.94-4.12,10.38-5.05,21.34-3.34,42,4.93,59.81l-7.3,3.4C206.26,511.79,199.33,521.4,191.77,530.52Z"/><path class="cls-1" d="M100.23,531.42c4.18,2.6,9.1,5.44,14.62,6.16a8.67,8.67,0,0,0,7.14-2.09,8.14,8.14,0,0,0,2.58-6.51c0-1-.21-1.2-.65-1.37-1.1-2-3.58-3.24-5.58-4.41-1.59-.93-3.2-1.78-4.7-2.86l-.69-.5c-9.43-8-19-16-28.22-23.77l-3.85-3.24c-2-1.69-2.21-1.69-4.25,0-2.24,1.82-3.34,4.34-3.37,7.72a31.91,31.91,0,0,0,1.45,8.81,42.55,42.55,0,0,0,2.23,6l.76.49a22.29,22.29,0,0,0,5.74,4.58c1.9,1.16,3.85,2.46,5.87,3.59A100.57,100.57,0,0,0,100.23,531.42Z"/><path class="cls-1" d="M220.82,249.12c-.22-.28-.44-.57-.67-.85-.71-.91-1.44-1.85-2.16-2.84-3.91-5.43-8.12-11.15-13.16-17.85l-7.1,4.36-.06-.24L153,258.8l.16.15-5.69,3.43c.52,1.05,1,2.1,1.45,3.13s.91,2,1.37,2.94l1.24,2.47c2.53,5.09,5.14,10.31,7.59,15.62C178.74,274.57,199,262.29,220.82,249.12Z"/><path class="cls-1" d="M194.08,221.68c-5.63-9.19-11.63-19.09-18.23-30.11l-13.63,8.29h0l-6.92,4.21h0l-7,4.24h0l-6.83,4.13h0l-13.78,8.32c5.72,9.31,11.72,19.22,18.24,30.1Z"/><path class="cls-2" d="M346.3,425.24a45.54,45.54,0,0,1,3.07,6,1.94,1.94,0,0,1,.47.79c2.7,7.54,5.82,15,6,23.19a7.77,7.77,0,0,1-3.73,7.25c-17.78,12.06-36.23,23-54.69,34-4.4,2.61-6.94,2.72-11.81-.05-1.6-1.22-5-2.95-9.51-6.15-1.16-.8-2.31-1.63-3.44-2.47-5.17-3.78-10.08-7.57-10.62-8s-1.38-1.18-2.1-1.76l1,21.56c.24,5.11.52,10.9-1,16.57a54.38,54.38,0,0,1-4.76,11.14,66.62,66.62,0,0,1-5.82,8.7c-1.64,2.2-6.2,5.13-8.24,7.38a84.88,84.88,0,0,0-7.2,11.42,51.3,51.3,0,0,1-8.16,11.47l4.35,32.93Q232.58,617,235,629l16.07-8.19S289,601.91,289,601.93h0c44.18-26.3,88.75-45.73,101.65-51.17-14-11.5-20.24-26.67-17.16-42.52,3.2-16.52,2.47-55.27-6-78.39-9.22-25.26-1.21-45.26,5.23-61.33l.49-1.21c2.84-7.11-.08-18.3-2.92-29.13-.16-.6-.31-1.2-.47-1.8a306.82,306.82,0,0,0-57.07,33.44l30.05,49.59C344,421.35,345,423.41,346.3,425.24Z"/><path class="cls-2" d="M645.41,386.2c14,5.93,19.49,19.06,15.5,37-2.35,10.6-8.32,22.57-16,32-8.48,10.47-17.55,16.24-25.54,16.24-1,0-1.9,0-2.81-.07-3.19,5.91-27.77,52.93-29.91,99.49,8.28.83,26.52,3.79,50.91,14.49a274.38,274.38,0,0,1,57,34.35,366.67,366.67,0,0,1,42,38.31l-.12-.13L789,711.25a307.35,307.35,0,0,0,14.6-93.9c0-110.77-58.52-207.87-146.32-262.09-.33,1.34-.67,2.69-1,4C653.32,370.12,649.82,378.83,645.41,386.2Z"/><path class="cls-2" d="M316.36,781.26l-.75-1.89a.19.19,0,0,0,0-.08l-9.5,7.06-1.58,1.42c-.88.79-21.6,19.33-39.91,25.79l-1.39.47a337.75,337.75,0,0,0,51.44,49.11c-.55-.51-.88-.82-1-.91Z"/><path class="cls-3" d="M453,921.27c0,.32,0,.65,0,1l.51.08C453.37,922,453.21,921.62,453,921.27Z"/><path class="cls-3" d="M226.61,549.34c.17-.3.34-.6.52-.9l-.14.06C226.86,548.78,226.73,549.06,226.61,549.34Z"/><path d="M393.71,454l-1.81,0-.21,1.51c-.22,1.64-.37,3.32-.47,5.15l-.06,1.08.95.51a59.77,59.77,0,0,0,10.63,4.65l13.89,19.21-4.29,12a48,48,0,0,1-4.47-2L402.8,494l-1.92,4-.61,1.1,1,.93a.81.81,0,0,0,.13.11l.07.07c9.55,8.22,26.46,12.28,39,14.23a101.11,101.11,0,0,0,15.44,1.09,179.46,179.46,0,0,0,22.91-1.64c26.46-3.48,39.6-18.35,46-30.22a64.71,64.71,0,0,0,7.43-25.12l.39-9.2-7.72,5h0c-13.75,8.93-32.07,13.46-54.45,13.46h0c-38.79,0-75.83-13.52-76.2-13.66Zm47.15,21.2c32.44,4.64,54.76.89,67.77-3.06l.18-.07c.47-.2.94-.4,1.4-.62l.64-.32a5,5,0,0,1,1.5-.58l.29,0a8.53,8.53,0,0,1,3,5.64l0,.19a9.91,9.91,0,0,1,0,2.93v0a9.6,9.6,0,0,1-.25,1.45l-.09.35a14.22,14.22,0,0,1-2.37,4.62,26.37,26.37,0,0,1-4.6,4.47l-.32.27c-.93.93-1.91,1.83-2.92,2.67l-.1.09a6.41,6.41,0,0,1-1.21,1l-.19.12c-7,5.35-15.75,8.74-26.06,10.09-24.63,3.24-43.92.06-56.22-3.42l3.57-10a119.35,119.35,0,0,0,16,2.86c3.22.35,6.41.56,9.51.63h.12l10.06-.59-.11-6.13-1.64,0c-11.36-.26-27.18-4.56-34-6.58l-7.62-10.53C425.21,472.61,433.14,474.12,440.86,475.22Z"/><path d="M510.65,360.7c-9.11,6.62-15.21,28.38-10.91,38.93,3,7.33,8.68,8.74,14.51,3.43,5.07-4.62,7.67-10.68,9.77-18.51,1.22-5.84,2.71-13.06-.21-20.2C521.19,357.93,516.23,356.66,510.65,360.7Z"/><path d="M392.18,375.37c6.16-3.14,13.09-4.63,22.47-4.82,1.77,0,3.56,0,5.62,0l3.37,0h4.72l-3.62-3c-5.84-4.89-11-7.83-16.87-9.54-8.78-2.57-14.21-.16-18.16,8.06a32.43,32.43,0,0,0-1.6,4.37q-.19.66-.42,1.32l-.07.22a3.09,3.09,0,0,0,.44,3.45,2.56,2.56,0,0,0,1.83.81,3.75,3.75,0,0,0,2-.7Z"/><path d="M569.7,364.19c1.81-7.39-5.85-14.78-5.85-14.78-33.25-28.19-86.93-36.6-86.93-36.6-9.64,20.26-2.36,33.85-2.36,33.85C517.21,326.66,569.7,364.19,569.7,364.19Z"/><path d="M420.49,414.55c-3.58,7.4-2.48,11.69,4.2,16.4,3.65,2.56,7.5,4.93,11.22,7.22l1.73,1.07a10.43,10.43,0,0,0,3.83,1.4l1.06.2a32.6,32.6,0,0,0,5.73.75c1.76,0,3.13-.39,3.78-1.5,1.54-2.66-2.67-5.36-5.46-7.15-.38-.24-.7-.44-.9-.58-1.7-1.23-3.35-2.21-4.94-3.15a35.25,35.25,0,0,1-5.3-3.59l-.18-.13c-6.48-4.14-5.87-5.95-4.24-10.77a114,114,0,0,1,5.54-12.65c2.42-5,4.92-10.13,6.33-14.91,1.95-6.61,4.4-20.7,3.72-28.89l-.23-2.79-2.12,1.83c-1.83,1.59-2.75,6-3.61,10.68-.16.91-.32,1.76-.41,2.06a192.83,192.83,0,0,1-17.13,39.66C422.23,411.22,421.31,412.84,420.49,414.55Z"/><path d="M829.3,869.65c-.75-23.83-4.58-50.2-11.37-78.38-5-20.67-11.74-43.78-28.89-59L799.65,722,789,711.25l-52.56-53.31.12.13a366.67,366.67,0,0,0-42-38.31,274.38,274.38,0,0,0-57-34.35c-24.39-10.7-42.63-13.66-50.91-14.49,2.14-46.56,26.72-93.58,29.91-99.49.91,0,1.84.07,2.81.07,8,0,17.06-5.77,25.54-16.24,7.67-9.47,13.64-21.44,16-32,4-18-1.52-31.09-15.5-37,4.41-7.37,7.91-16.08,10.85-26.9.37-1.35.71-2.7,1-4,5.14-21.27,4.92-41.33-.68-58.24a75,75,0,0,0-15.94-26.84,69.26,69.26,0,0,0-12.24-11.06A57.29,57.29,0,0,0,617,252.76v0c2.77-14.78,1.5-29.24-3.67-41.83a78.3,78.3,0,0,0-25.65-32.64,80.75,80.75,0,0,0-38.83-15.72c-20.46-2.4-40.4,3-59.67,8.19-17.14,4.63-36.57,9.87-55.3,7.26-22.26-3.1-35.29-17.38-38-29.34l-2.15-9.54-7.24,6.59c-13.86,12.63-14,32.44-13.06,50,.91,16.8,1.94,35.84,11.69,52.06a61.22,61.22,0,0,0,6,8.25l-14.3,30.36c-5.76,11.92-9.15,20.81-10.09,26.45-1.12,6.69.84,14.86,3.1,23.56.16.6.31,1.2.47,1.8,2.84,10.83,5.76,22,2.92,29.13l-.49,1.21c-6.44,16.07-14.45,36.07-5.23,61.33,8.45,23.12,9.18,61.87,6,78.39-3.08,15.85,3.14,31,17.16,42.52-12.9,5.44-57.47,24.87-101.65,51.17h0s-37.89,18.94-37.9,18.92L235,629q-2.43-12-4.88-29.9l-4.35-32.93a51.3,51.3,0,0,0,8.16-11.47,84.88,84.88,0,0,1,7.2-11.42c2-2.25,6.6-5.18,8.24-7.38a66.62,66.62,0,0,0,5.82-8.7A54.38,54.38,0,0,0,260,516.1c1.5-5.67,1.22-11.46,1-16.57l-1-21.56c.72.58,1.42,1.17,2.1,1.76s5.45,4.26,10.62,8c1.13.84,2.28,1.67,3.44,2.47,4.51,3.2,7.91,4.93,9.51,6.15,4.87,2.77,7.41,2.66,11.81.05,18.46-10.94,36.91-21.91,54.69-34a7.77,7.77,0,0,0,3.73-7.25c-.15-8.2-3.27-15.65-6-23.19a1.94,1.94,0,0,0-.47-.79,45.54,45.54,0,0,0-3.07-6c-1.32-1.83-2.33-3.89-3.5-5.83l-30.05-49.59-16-26.45a1.18,1.18,0,0,0,.19-.11c-8.23-13.58-16.35-27.23-24.72-40.73-9.32-15-17.7-30.72-28.78-44.63-2.75-3.45-4.85-8.5-10.18-8.77a8.74,8.74,0,0,0-1.3-3.09c-1.05-1.62-2.18-3.06-3.27-4.45-.67-.86-1.3-1.66-1.89-2.47-4.38-6.09-9.13-12.53-15-20.25-1.13-1.5-4-4.45-8.49-2.82-6-9.84-12.49-20.51-19.66-32.5a7.36,7.36,0,0,0-11-2.71l-13.52,8.24L106.56,97.74,80.73,112.61l52.91,91.92q-6.9,4.18-13.81,8.34A7.45,7.45,0,0,0,117,224.12c6.17,10,12.65,20.72,19.77,32.59a6.62,6.62,0,0,0-1.35,2.69,7.06,7.06,0,0,0,1,5.49,42.27,42.27,0,0,1,2.53,5c.49,1.09,1,2.22,1.55,3.35l1.24,2.47c3,6.05,6.14,12.3,8.9,18.52a8,8,0,0,0,3.6,4.11A16.23,16.23,0,0,0,155.46,312c3.19,6.08,6,12.33,9.08,18.48,4.29,8.71,8.87,17.26,13.3,25.89,6.16,12,12.91,23.74,17.47,36.52,1.55,4.32,1.78,8.46-.54,12.62A114,114,0,0,1,183.9,421.3a57.43,57.43,0,0,0-5-4.85c-3.68-3.13-8.76-6.78-15.4-7.17-13.81-.81-23.77,6.68-26.74,20.05a25.67,25.67,0,0,0-36.12,24.21,18,18,0,0,0-13.23,1.8,32.88,32.88,0,0,0-10.58,8.94c-5.18,6.47-6.47,13.25-3.83,20.15-5.76,3.4-8.7,8.92-8.75,16.39a30,30,0,0,0,.47,5.48l-6.62-9.58a5.41,5.41,0,0,0-8-1.4c-11.54,8-23,16-34.66,23.87a6.08,6.08,0,0,0-1.63,8.68c13.4,19.14,26.61,38.4,39.89,57.63l40.05,58c2.08,3,4.8,3.53,7.79,1.47l21-14.48C113.3,683,111.51,765.55,143.77,816l.33.53.45.43c1.18,1.15,12.28,11.25,36.62,11.25,19.32,0,48.32-7.61,73.71-20.26.3,1,.56,1.79.68,2.16l.25,2.26c.47,1.23,1,2.45,1.49,3.65l5.95-2,1.39-.47c18.31-6.46,39-25,39.91-25.79l1.58-1.42,9.5-7.06a95,95,0,0,0,.33-45.9l2-.49c3.73,15.4,2.33,33-1.63,48.36l-2.66,81c.11.09.44.4,1,.91,6.58,6.05,45.22,39.79,127.06,58.65.07,5.91,2.34,11.12,4.56,15.28,3.79,7.1,9.23,10.91,16.17,11.31a3.55,3.55,0,0,1,.72.11,5.29,5.29,0,0,1,.32,1A17.73,17.73,0,0,0,473.73,962a40.76,40.76,0,0,0,14.32,3.38c1.56.11,3.12.15,4.67.15a151.57,151.57,0,0,0,16.4-1.17c2.53-.28,5.15-.56,7.71-.77C547.66,961,563.33,955,573.54,950c7-3.44,12.23-7.15,16.47-11.7q2-2.1,3.8-4.41c45.67,25.29,77.63,34,110,34,25.63,0,51.54-5.44,84.72-12.41,8-1.68,16.28-3.32,25.13-5.21,2.27-.48,3.75-.89,4.71-3.35l1.69-6.46C827.05,920.33,830.15,896.57,829.3,869.65ZM127.67,220.77l13.78-8.32h0l6.83-4.13h0l7-4.24h0l6.92-4.21h0l13.63-8.29c6.6,11,12.6,20.92,18.23,30.11l-48.17,29.19C139.39,240,133.39,230.08,127.67,220.77Zm31.41,65.77c-2.44-5.31-5.06-10.53-7.59-15.62l-1.24-2.47c-.46-.93-.9-1.91-1.37-2.94s-.93-2.08-1.45-3.13l5.69-3.43-.16-.15,44.71-27.1.06.24,7.1-4.36c5,6.7,9.25,12.42,13.16,17.85.72,1,1.45,1.93,2.16,2.84.23.28.45.57.67.85C199,262.29,178.74,274.57,159.08,286.54ZM213.34,502.3l7.3-3.4c-8.27-17.79-10-38.47-4.93-59.81.81-3.44,1.94-7.36,4.12-10.38a15.19,15.19,0,0,1,26.32,3.06c1.48,3.56,1.69,7.91,1.89,12.11L250.71,500c.21,4.58.44,9.32-.66,13.46a44.92,44.92,0,0,1-3.93,9,46.37,46.37,0,0,1-3.69,5.62,77.31,77.31,0,0,0-6,6.53,102.66,102.66,0,0,0-9.33,13.79c-.18.3-.35.6-.52.9l-1.21,2.16c-5.29,9.62-13.62,16.47-25.45,20.94l-2.91,1a64.6,64.6,0,0,0-7.83,3.18,26,26,0,0,0-7.51,5.81c-6.51,7.18-15.16,10.35-28,10.27A52.49,52.49,0,0,1,135,589.33L154,569.68c3.59-3,6.87-6.27,10.14-9.56,4.71-4.73,9.27-9.61,13.82-14.49s9.45-9.87,13.8-15.11C199.33,521.4,206.26,511.79,213.34,502.3ZM148,424.71a17,17,0,0,1,13.54-6.48c.5,0,1,0,1.51.06a13,13,0,0,1,5.42,1.76l1.16,3.43.67,2.22c.2.68.39,1.37.57,2.06a43.16,43.16,0,0,0,1.51,4.78c5.73,14.07,10.91,26.78,16.36,39.73,2.35,5.58,1.57,10.31-2.46,14.89a30.31,30.31,0,0,1-6.61,5.14c-1.83,1.18-3.42,1.09-5.31-.28a30.92,30.92,0,0,1-7.48-8.09c-8.22-12.23-15.16-26.58-21.21-43.89A16,16,0,0,1,148,424.71ZM114.5,440.76a16.57,16.57,0,0,1,16.13-4.11,11.69,11.69,0,0,1,8.33,7.51c6.28,15.82,12.26,30,21.18,43.13.22.36.43.73.66,1.1.35.55,1.29,1.89,1.32,1.94l.86.94a28,28,0,0,0,5.39,5.57c.75.57,1,.75.18,2.23a7.72,7.72,0,0,1-3.26,2.86,137.73,137.73,0,0,1-14.78,6.78l-1.94.8a3.67,3.67,0,0,1-1.84.25l-.65-.11a10.9,10.9,0,0,1-2.78-1.18c-4.84-2.77-8.19-7-11.76-11.87a163.59,163.59,0,0,1-12.17-19.75c-.83-1.74-1.77-3.51-2.78-5.39-2.39-4.49-5.1-9.58-6.47-15A16.19,16.19,0,0,1,114.5,440.76ZM84.79,468.81a24,24,0,0,1,6.58-5.36A10.89,10.89,0,0,1,96.49,462c3.12,0,5.82,1.74,7.77,5.13q2.22,3.87,4.4,7.78c1.93,3.42,3.91,6.92,5.93,10.39l.54,1,.1.09c.37.61.72,1.23,1.09,1.84,4.72,7.93,10.15,16.21,17.88,23l.24.19c.37.25.76.56,1.17.9s.93.75,1.46,1.11l.88.58.56.36.16.11.18.08a5.66,5.66,0,0,1,.87.55,5.33,5.33,0,0,0-.46.58c-2.32,3.41-4.92,5.34-7.71,5.72s-5.75-.76-8.86-3.38c-12.15-10.23-24.57-20.82-36.93-31.48-3.19-2.75-4.9-5.62-5.08-8.52S81.88,472,84.79,468.81ZM122,535.49a8.67,8.67,0,0,1-7.14,2.09c-5.52-.72-10.44-3.56-14.62-6.16A100.57,100.57,0,0,1,89.31,524c-2-1.13-4-2.43-5.87-3.59a22.29,22.29,0,0,1-5.74-4.58l-.76-.49a42.55,42.55,0,0,1-2.23-6,31.91,31.91,0,0,1-1.45-8.81c0-3.38,1.13-5.9,3.37-7.72,2-1.65,2.24-1.65,4.25,0l3.85,3.24c9.26,7.79,18.79,15.81,28.22,23.77l.69.5c1.5,1.08,3.11,1.93,4.7,2.86,2,1.17,4.48,2.37,5.58,4.41.44.17.6.33.65,1.37A8.14,8.14,0,0,1,122,535.49ZM247.36,797.27c-27.43,14.69-51.49,21.37-71.51,19.85-14.28-1.09-21.6-6.08-23.46-7.54-30.83-49.1-27.47-138-17.66-185.86l.4-1.94,1.06-.73c3.69-2.54,4.19-5.18,1.66-8.85-3.47-5-7-10.06-10.43-15.11l.74-.76a61.7,61.7,0,0,0,26.08,5.48c1,0,2,0,3-.06,13.29-.52,23.37-4.7,30.79-12.78a20,20,0,0,1,7.61-5.31c1.17-.46,2.4-.89,3.58-1.31s2.56-.91,3.85-1.41A70,70,0,0,0,216,574.36l3.51,26.24c3.09,22.59,6.27,38.73,9.45,48a227.67,227.67,0,0,1,11.85,59.94c1.33,24-1.8,45-9.27,62.71a9.92,9.92,0,0,0,1,1.14,8.91,8.91,0,0,0,3,1.76l6.73-8.5.11-.26c.1-.21.18-.42.27-.63l.18-.64c2.14,7.51,5.28,18.34,7,25.19a1,1,0,0,1,.25,1c.37,1.44.76,2.9,1.17,4.36ZM390.06,187l8.28-6.34a95,95,0,0,0,7.56,9.08c7,7.13,16.33,11.83,27.69,14,10,1.89,21.44,1.75,33.19-.4,10.47-1.92,21-5.1,31.19-8.18,11.84-3.57,24.07-7.27,36.64-9.17,6.64-1,15.38-1.86,24,.54,9.22,2.57,16.75,8.79,20.12,16.64l-9.58,4.12c-2.15-5-7.13-9-13.34-10.71-6.69-1.86-14-1.13-19.61-.27-11.82,1.79-23.7,5.37-35.18,8.84-10.47,3.16-21.29,6.43-32.32,8.45a113,113,0,0,1-20.27,1.9A89.42,89.42,0,0,1,431.65,214c-13.49-2.56-24.66-8.25-33.19-16.92A104.12,104.12,0,0,1,390.06,187Zm-6.5,324.68c3.67-17.79,2.77-61.53-6-85.51-7.81-21.39-.64-39.28,5.12-53.66l.48-1.2c3.53-8.83,1.63-19.48-1-30.15,10.1-.78,35.88,0,51.24,25.49,0,0,2-33.6-55.52-42.95a28,28,0,0,1-.56-9.11c.53-3.18,2.56-9.84,9.18-23.54l12.91-26.89C410,273,424.18,280,441.86,285c27,7.69,54.13,10.19,81.19,10.19,22.4,0,44.71-1.72,66.73-3.61l-14,59.38,4.46,1c7.48,1.77,18,6.63,17.51,10.77-1.22,9.77-12.11,40.66-12.22,41l-1.1,3.12,15.11,11.34c-.34,1.87-.49,3.11-.52,3.4l-.25,2.29,8.84.85.58.06h.08l.59-4.38c1-5.68,4.62-20.95,14.37-26.3,4.86-2.66,10.95-2.52,18.12.42,6.76,2.78,14,9.66,10.26,26.7-2.41,10.83-9.18,23.3-17.31,31.88l-.3.15-.26.48c-7.21,9-14.06,10.28-23.4,9.44-8.06-.71-9.82-8.3-9.89-8.61l-1.92-9.11-2.5,9a11.65,11.65,0,0,0,2.41,10.18,16.39,16.39,0,0,0,7.08,4.78c-7.24,14-30.65,63-29.69,110.6-8.35,9.42-21.1,17.74-35.25,22.83a93.91,93.91,0,0,1-51.07,3.71c-28.31-5.92-40.91-22.81-46-32.83,14.95,4,31.57,6.86,47.49,6.86,11.07,0,20.5-1.3,28-3.86,45.2-15.38,74.66-91.83,75.89-95.08l.08-.21,1-5.78-4.38-1.19c-10.35,27.29-44.6,81.41-76,92.11-6.45,2.19-14.69,3.3-24.51,3.3h0c-37,0-77.69-16.71-88.41-23.68C387.71,536.55,381,524.29,383.56,511.67Zm424.69,428c-7.71,1.57-15,3.1-22,4.58-74.33,15.61-108.54,22.79-186-19.88,1.26-2.15,2.49-4.4,3.66-6.78,4.69-9.47,6.28-20.22,6.18-25.26-2.38-.75-2.4-1.1-4.65-1.7a15.78,15.78,0,0,0-6.81-.64l.09.9c.57,6.15-.73,12.64-3.88,19.31-3.44,7.27-7.88,15.55-14.75,21.9-4.34,4-9.71,7.22-16.89,10.12-18.26,7.37-37.44,9.53-55.44,10.77-2,.14-4.09.35-6.07.56-5.34.55-10.38,1.08-15.37.28-6-1-9.83-1.86-11.7-6.31a8.8,8.8,0,0,0-1.67-2.51l31.55-5.55-1.58-9-38.2,6.73v0a8.72,8.72,0,0,1-7.91-4.58c-1.92-3.44-3.63-6.84-3.78-10.48,0-.32,0-.65,0-1a11.86,11.86,0,0,1,.18-1.66,6.88,6.88,0,0,1,5.74-6c3-.63,7.62-1.72,12.23-2.9l33.79-6-1.58-9L468,902.05c-.83.08-1.65.16-2.41.21a51.9,51.9,0,0,1-13.37-.63c-8-1.47-11.26-4.93-11.71-12.34-.46-7.7,1.28-12,6-15,2-1.23,4.31-1.34,7-1.46.91,0,1.84-.09,2.8-.18,1.86-.17,3.72-.32,5.59-.48,3.41-.28,6.95-.57,10.46-1l8.95-1.09,14.16-1.32,0-.4.18,0-.18,0-.81-8.62-36.13,3.37c-1.48-.06-3-.1-4.64-.12a18.53,18.53,0,0,1-14.86-7.19c-4.07-4.86-2.09-13.83,1.19-17.28,6-6.27,14-8.16,21.87-9.27,6.88-1,13.74-.69,21-.39l1.95.08a105.82,105.82,0,0,0,15.89-.93c1.73-.18,3.52-.38,5.26-.54l2.25-.2a195.44,195.44,0,0,0,23.15-3c4-.85,10.72-2.28,12.37-9.88a12,12,0,0,0-.29-6.59,43.22,43.22,0,0,0-5.74-4.28l-1.14,3c-.16.41-.3.81-.45,1.21-.29.82-.55,1.53-.82,2.14-1.79-1.33-2.57-2.25-4.71-7.47-2.3-5.61-3.62-11.78-5.19-17.7a121.87,121.87,0,0,1-3.13-14.31,44.31,44.31,0,0,1-1.28-11.55,65.7,65.7,0,0,1,2.66-16.17c2.78-9.59,11.21-21.13,22.67-21.79a1.28,1.28,0,0,1,.59.08c.29,0,.57,0,.85,0a9.48,9.48,0,0,1,6.46,3.47,8.85,8.85,0,0,1,2,2.69c1.91,2.84,2.68,6.7,3,10.53,1.63,7.9,1.56,16.38,1.82,24.33.3,9.67.4,19.36,1.45,29,.31,2.85.7,5.7,1.15,8.54A86.2,86.2,0,0,0,574.25,823a102.5,102.5,0,0,0,6.41,8.74c2,2.53,3.88,4.92,5.56,7.48a60.09,60.09,0,0,1,6.44,13c2.06,4.25,3.52,5.34,6.06,4.29l0,0c26.31-13.06,51.74-18.36,77.75-16.22,24.52,2,49.71,10.7,77,26.55l5.72-9.84c-24.42-14.18-47.77-23-70.61-26.66a2.15,2.15,0,0,0-.37.19l-.37-.31h-.07l0,0c-38.25-31-19.57-93.09-18.72-95.81l.07-.17,2.91-5.74,3.83.76a164.94,164.94,0,0,0-3.36,40.09c.7,15.94,9.87,37.9,23.8,52.62l84.49-81.8c15.18,13,21.39,34.46,26,53.68C816.91,835.61,825.21,894.51,808.25,939.71Z"/><path class="cls-1" d="M316.36,781.26h0c4-15.34,5.36-33,1.63-48.36l-2,.49a95,95,0,0,1-.33,45.9.19.19,0,0,1,0,.08Z"/><path class="cls-1" d="M431.65,214a89.42,89.42,0,0,0,16.75,1.51,113,113,0,0,0,20.27-1.9c11-2,21.85-5.29,32.32-8.45,11.48-3.47,23.36-7,35.18-8.84,5.62-.86,12.92-1.59,19.61.27,6.21,1.73,11.19,5.74,13.34,10.71l9.58-4.12c-3.37-7.85-10.9-14.07-20.12-16.64-8.59-2.4-17.33-1.55-24-.54-12.57,1.9-24.8,5.6-36.64,9.17-10.19,3.08-20.72,6.26-31.19,8.18-11.75,2.15-23.22,2.29-33.19.4-11.36-2.16-20.68-6.86-27.69-14a95,95,0,0,1-7.56-9.08L390.06,187a104.12,104.12,0,0,0,8.4,10.06C407,205.72,418.16,211.41,431.65,214Z"/><path class="cls-1" d="M687.82,830.3l0,0h.07l.37.31a2.15,2.15,0,0,1,.37-.19c22.84,3.61,46.19,12.48,70.61,26.66L753.5,867c-27.29-15.85-52.48-24.53-77-26.55-26-2.14-51.44,3.16-77.75,16.22l0,0c-2.54,1-4,0-6.06-4.29a60.09,60.09,0,0,0-6.44-13c-1.68-2.56-3.57-5-5.56-7.48a102.5,102.5,0,0,1-6.41-8.74,86.2,86.2,0,0,1-10.47-23.5c-.45-2.84-.84-5.69-1.15-8.54-1-9.62-1.15-19.31-1.45-29-.26-7.95-.19-16.43-1.82-24.33-.3-3.83-1.07-7.69-3-10.53a8.85,8.85,0,0,0-2-2.69,9.52,9.52,0,0,0-6.46-3.47c-.28,0-.56,0-.85,0a1.28,1.28,0,0,0-.59-.08c-11.46.66-19.89,12.2-22.67,21.79a65.7,65.7,0,0,0-2.66,16.17,44.31,44.31,0,0,0,1.28,11.55,121.87,121.87,0,0,0,3.13,14.31c1.57,5.92,2.89,12.09,5.19,17.7,2.14,5.22,2.92,6.14,4.71,7.47.27-.61.53-1.32.82-2.14.15-.4.29-.8.45-1.21l1.14-3a43.22,43.22,0,0,1,5.74,4.28,12,12,0,0,1,.29,6.59c-1.65,7.6-8.36,9-12.37,9.88a195.44,195.44,0,0,1-23.15,3l-2.25.2c-1.74.16-3.53.36-5.26.54a105.82,105.82,0,0,1-15.89.93l-1.95-.08c-7.26-.3-14.12-.58-21,.39-7.84,1.11-15.91,3-21.87,9.27-3.28,3.45-5.26,12.42-1.19,17.28A18.53,18.53,0,0,0,453.8,863c1.61,0,3.16.06,4.64.12l36.13-3.37.81,8.62.18,0-.18,0,0,.4-14.16,1.32-8.95,1.09c-3.51.42-7.05.71-10.46,1-1.87.16-3.73.31-5.59.48-1,.09-1.89.14-2.8.18-2.68.12-5,.23-7,1.46-4.73,2.92-6.47,7.26-6,15,.45,7.41,3.73,10.87,11.71,12.34a51.9,51.9,0,0,0,13.37.63c.76,0,1.58-.13,2.41-.21l35.45-6.24,1.58,9-33.79,6c-4.61,1.18-9.23,2.27-12.23,2.9a6.88,6.88,0,0,0-5.74,6,11.86,11.86,0,0,0-.18,1.66c.17.35.33.7.51,1.05l-.51-.08c.15,3.64,1.86,7,3.78,10.48a8.72,8.72,0,0,0,7.91,4.58v0l38.2-6.73,1.58,9L473,945.05a8.8,8.8,0,0,1,1.67,2.51c1.87,4.45,5.67,5.36,11.7,6.31,5,.8,10,.27,15.37-.28,2-.21,4-.42,6.07-.56,18-1.24,37.18-3.4,55.44-10.77,7.18-2.9,12.55-6.11,16.89-10.12,6.87-6.35,11.31-14.63,14.75-21.9,3.15-6.67,4.45-13.16,3.88-19.31l-.09-.9a15.78,15.78,0,0,1,6.81.64c2.25.6,2.27,1,4.65,1.7.1,5-1.49,15.79-6.18,25.26-1.17,2.38-2.4,4.63-3.66,6.78,77.42,42.67,111.63,35.49,186,19.88,7-1.48,14.32-3,22-4.58,17-45.2,8.66-104.1-1.39-145.78-4.63-19.22-10.84-40.69-26-53.68l-84.49,81.8c-13.93-14.72-23.1-36.68-23.8-52.62a164.94,164.94,0,0,1,3.36-40.09l-3.83-.76-2.91,5.74-.07.17C668.25,737.21,649.57,799.3,687.82,830.3Z"/></svg>